<svg width="336.1" height="196.03" viewBox="0 0 336.1 196.03" xmlns="http://www.w3.org/2000/svg" xmlns:xlink="http://www.w3.org/1999/xlink" overflow="hidden"><defs></defs><g><g><g><g><g><path d="M189.49 27.26 169.37 27.26 179.43 5.44Z" fill="#1B75BB"/><path d="M192.23 82.53 167.21 82.53 169.24 25.37 189.33 25.37Z" fill="#F1F1F2"/><g><rect x="169.24" y="22.72" width="3.66" height="5.87" fill="#F1F1F2"/><rect x="174.73" y="22.72" width="3.66" height="5.87" fill="#F1F1F2"/><rect x="180.21" y="22.72" width="3.66" height="5.87" fill="#F1F1F2"/><rect x="185.7" y="22.72" width="3.66" height="5.87" fill="#F1F1F2"/></g><rect x="166.46" y="25.41" width="25.95" height="4.51" fill="#F1F1F2"/></g><g><g><path d="M181.72 39.68 177.66 39.68 177.66 35C177.66 33.88 178.57 32.97 179.69 32.97L179.69 32.97C180.81 32.97 181.72 33.88 181.72 35L181.72 39.68Z" fill="#2A2B63"/><rect x="176.59" y="39.26" width="6.21" height="1.27" fill="#A4BFFA"/></g></g><g><rect x="171.18" y="55.59" width="5.49" height="1.7" fill="#88A3F6" opacity="0.37"/><rect x="173.01" y="53.89" width="5.49" height="1.7" fill="#88A3F6" opacity="0.37"/><rect x="170.89" y="30.23" width="3.13" height="1.36" fill="#88A3F6" opacity="0.37"/><rect x="184.07" y="42.91" width="3.29" height="1.33" fill="#88A3F6" opacity="0.37"/><rect x="182.33" y="68.75" width="3.29" height="1.33" fill="#88A3F6" opacity="0.37"/></g></g><path d="M178.06 3.52 179.43 0 180.89 3.74C181.02 4.08 181.3 4.36 181.64 4.49L184.08 5.44 181.86 6.3C181.38 6.49 180.99 6.87 180.8 7.36L179.43 10.88 177.97 7.14C177.84 6.8 177.56 6.52 177.22 6.39L174.78 5.44 177 4.57C177.49 4.39 177.87 4 178.06 3.52Z" fill="#E7FF00"/></g><g><g><path d="M248.47 73.19 228.34 73.19 238.4 51.37Z" fill="#1B75BB"/><path d="M251.21 128.46 226.18 128.46 228.21 71.3 248.31 71.3Z" fill="#E2E2E2"/><g><rect x="228.21" y="68.65" width="3.66" height="5.87" fill="#E2E2E2"/><rect x="233.7" y="68.65" width="3.66" height="5.87" fill="#E2E2E2"/><rect x="239.19" y="68.65" width="3.66" height="5.87" fill="#E2E2E2"/><rect x="244.68" y="68.65" width="3.66" height="5.87" fill="#E2E2E2"/></g><rect x="225.43" y="71.34" width="25.95" height="4.51" fill="#E2E2E2"/></g><g><g><path d="M240.69 85.61 236.63 85.61 236.63 80.93C236.63 79.81 237.54 78.9 238.66 78.9L238.66 78.9C239.78 78.9 240.69 79.81 240.69 80.93L240.69 85.61Z" fill="#2A2B63"/><rect x="235.56" y="85.19" width="6.21" height="1.27" fill="#A4BFFA"/></g></g><g><rect x="230.16" y="101.52" width="5.49" height="1.7" fill="#88A3F6" opacity="0.37"/><rect x="231.98" y="99.82" width="5.49" height="1.7" fill="#88A3F6" opacity="0.37"/><rect x="229.86" y="76.16" width="3.13" height="1.36" fill="#88A3F6" opacity="0.37"/><rect x="243.05" y="88.84" width="3.29" height="1.33" fill="#88A3F6" opacity="0.37"/></g></g><g><g><path d="M130.52 73.19 110.39 73.19 120.46 51.37Z" fill="#1B75BB"/><path d="M133.26 128.46 108.23 128.46 110.26 71.3 130.36 71.3Z" fill="#E2E2E2"/><g><rect x="110.26" y="68.65" width="3.66" height="5.87" fill="#E2E2E2"/><rect x="115.75" y="68.65" width="3.66" height="5.87" fill="#E2E2E2"/><rect x="121.24" y="68.65" width="3.66" height="5.87" fill="#E2E2E2"/><rect x="126.73" y="68.65" width="3.66" height="5.87" fill="#E2E2E2"/></g><rect x="107.48" y="71.34" width="25.95" height="4.51" fill="#E2E2E2"/></g><g><g><path d="M122.74 85.61 118.68 85.61 118.68 80.93C118.68 79.81 119.59 78.9 120.71 78.9L120.71 78.9C121.83 78.9 122.74 79.81 122.74 80.93L122.74 85.61Z" fill="#2A2B63"/><rect x="117.61" y="85.19" width="6.21" height="1.27" fill="#A4BFFA"/></g></g><g><rect x="112.21" y="101.52" width="5.49" height="1.7" fill="#88A3F6" opacity="0.37"/><rect x="114.04" y="99.82" width="5.49" height="1.7" fill="#88A3F6" opacity="0.37"/><rect x="111.91" y="76.16" width="3.13" height="1.36" fill="#88A3F6" opacity="0.37"/><rect x="125.1" y="88.84" width="3.29" height="1.33" fill="#88A3F6" opacity="0.37"/></g></g><g><g><path d="M223.8 61.73 196.52 61.73 210.16 32.16Z" fill="#1B75BB"/><path d="M227.51 125.98 193.59 125.98 196.34 59.18 223.58 59.18Z" fill="#F1F1F2"/><g><rect x="196.34" y="55.58" width="4.96" height="7.95" fill="#88A3F6"/><rect x="203.78" y="55.58" width="4.96" height="7.95" fill="#88A3F6"/><rect x="211.22" y="55.58" width="4.96" height="7.95" fill="#F1F1F2"/><rect x="218.66" y="55.58" width="4.96" height="7.95" fill="#F1F1F2"/></g><rect x="192.57" y="59.23" width="35.17" height="6.12" fill="#F1F1F2"/></g><path d="M209.15 125.86 192.52 125.86 196.09 65.23 192.46 65.23 192.46 59.11 196.45 59.11 196.46 59.06 196.46 55.46 201.42 55.46 201.42 59.06 203.9 59.06 203.9 55.46 208.85 55.46 208.85 59.06 210.14 59.06" fill="#F1F1F2"/><g><g><path d="M213.26 78.57 207.76 78.57 207.76 72.23C207.76 70.71 208.99 69.48 210.51 69.48L210.51 69.48C212.03 69.48 213.26 70.71 213.26 72.23L213.26 78.57Z" fill="#2A2B63"/><rect x="206.3" y="78.01" width="8.41" height="1.73" fill="#A4BFFA"/></g><g><path d="M213.26 94.12 207.76 94.12 207.76 87.78C207.76 86.26 208.99 85.03 210.51 85.03L210.51 85.03C212.03 85.03 213.26 86.26 213.26 87.78L213.26 94.12Z" fill="#2A2B63"/><rect x="206.3" y="93.56" width="8.41" height="1.73" fill="#A4BFFA"/></g></g><g><rect x="198.98" y="100.13" width="7.44" height="2.3" fill="#88A3F6" opacity="0.37"/><rect x="201.46" y="97.83" width="7.44" height="2.3" fill="#88A3F6" opacity="0.37"/><rect x="198.58" y="65.76" width="4.24" height="1.84" fill="#88A3F6" opacity="0.37"/><rect x="216.45" y="82.94" width="4.46" height="1.8" fill="#88A3F6" opacity="0.37"/><rect x="214.09" y="117.97" width="4.46" height="1.8" fill="#88A3F6" opacity="0.37"/></g></g><g><path d="M162.88 61.73 135.6 61.73 149.24 32.16Z" fill="#1B75BB"/><g><path d="M166.82 125.98 131.71 125.98 135.64 59.18 162.88 59.18Z" fill="#F1F1F2"/><g><rect x="135.6" y="55.58" width="4.96" height="7.95" fill="#F1F1F2"/><rect x="143.04" y="55.58" width="4.96" height="7.95" fill="#F1F1F2"/><rect x="150.48" y="55.58" width="4.96" height="7.95" fill="#88A3F6"/><rect x="157.92" y="55.58" width="4.96" height="7.95" fill="#88A3F6"/></g><rect x="131.71" y="59.23" width="35.17" height="6.12" fill="#F1F1F2"/></g><path d="M150.19 125.98 166.82 125.98 163.24 65.34 166.88 65.34 166.88 59.23 162.88 59.23 162.88 59.18 162.88 55.58 157.92 55.58 157.92 59.18 155.44 59.18 155.44 55.58 150.48 55.58 150.48 59.18 149.19 59.18" fill="#F1F1F2"/><g><g><path d="M151.99 78.57 146.49 78.57 146.49 72.23C146.49 70.71 147.72 69.48 149.24 69.48L149.24 69.48C150.76 69.48 151.99 70.71 151.99 72.23L151.99 78.57Z" fill="#2A2B63"/><rect x="145.04" y="78.01" width="8.41" height="1.73" fill="#A4BFFA"/></g><g><path d="M151.99 94.12 146.49 94.12 146.49 87.78C146.49 86.26 147.72 85.03 149.24 85.03L149.24 85.03C150.76 85.03 151.99 86.26 151.99 87.78L151.99 94.12Z" fill="#2A2B63"/><rect x="145.04" y="93.56" width="8.41" height="1.73" fill="#A4BFFA"/></g></g><g><rect x="135.6" y="118.39" width="7.44" height="2.3" fill="#88A3F6" opacity="0.37"/><rect x="138.08" y="116.09" width="7.44" height="2.3" fill="#88A3F6" opacity="0.37"/><rect x="137.56" y="84.02" width="4.24" height="1.84" fill="#88A3F6" opacity="0.37"/><rect x="155.44" y="101.2" width="4.46" height="1.8" fill="#88A3F6" opacity="0.37"/></g></g><g><g><rect x="162.7" y="80.02" width="33.46" height="45.96" fill="#E2E2E2"/><g><rect x="162.7" y="74.32" width="4.96" height="7.95" fill="#E2E2E2"/><rect x="169.83" y="74.32" width="4.96" height="7.95" fill="#E2E2E2"/><rect x="176.95" y="74.32" width="4.96" height="7.95" fill="#E2E2E2"/><rect x="184.07" y="74.32" width="4.96" height="7.95" fill="#E2E2E2"/><rect x="191.2" y="74.32" width="4.96" height="7.95" fill="#E2E2E2"/></g><path d="M179.43 99.16 179.43 99.16C182.85 99.16 185.63 101.94 185.63 105.36L185.63 125.98 173.23 125.98 173.23 105.36C173.24 101.94 176.01 99.16 179.43 99.16Z" fill="#2A2B63"/></g><g><g><rect x="166.47" y="90.2" width="8.32" height="3" fill="#F1F1F2"/><rect x="169.08" y="92.63" width="8.32" height="3" fill="#F1F1F2"/></g><g><rect x="188.5" y="105.52" width="6.33" height="3" fill="#F1F1F2"/><rect x="189.83" y="108.14" width="6.33" height="3" fill="#F1F1F2"/></g><g><rect x="162.7" y="116.19" width="6.33" height="3" fill="#F1F1F2"/><rect x="165.18" y="119.19" width="6.33" height="3" fill="#F1F1F2"/></g></g><rect x="159.14" y="84.55" width="40.58" height="6.1" fill="#1B75BB"/></g></g><path d="M326.43 130.37 289.73 130.37C289.74 130.22 289.75 130.07 289.75 129.92L289.75 129.92C289.75 124.6 285.4 120.25 280.08 120.25L75.24 120.25C69.92 120.25 65.57 124.6 65.57 129.92L65.57 129.92C65.57 130.74 65.68 131.53 65.88 132.29L35.66 132.29C30.34 132.29 25.99 136.64 25.99 141.96L9.67 141.96C4.35 141.96 0 146.31 0 151.63L0 151.63C0 156.95 4.35 161.3 9.67 161.3L40.87 161.3C40.87 166.62 45.22 170.97 50.54 170.97L104.8 170.97C106.57 177 112.16 181.45 118.74 181.45L155.69 181.45C155.69 181.46 155.69 181.48 155.69 181.49 155.69 189.48 162.23 196.02 170.22 196.02L222.8 196.02C230.79 196.02 237.33 189.48 237.33 181.49 237.33 181.48 237.33 181.46 237.33 181.45L262.88 181.45C270.87 181.45 277.41 174.91 277.41 166.92 277.41 164.93 277 163.03 276.27 161.3L306.42 161.3C311.74 161.3 316.09 156.95 316.09 151.63L316.09 151.63C316.09 150.97 316.02 150.33 315.9 149.71L326.41 149.71C331.73 149.71 336.08 145.36 336.08 140.04 336.1 134.72 331.75 130.37 326.43 130.37Z" fill="#FFFFFF"/><path d="M263.54 128.91 188.74 128.91C183.99 128.91 180.1 132.8 180.1 137.55L180.1 137.55C180.1 138.26 180.2 138.95 180.36 139.62L169.37 139.62C164.62 139.62 160.73 143.51 160.73 148.26 160.73 153.01 164.62 156.9 169.37 156.9L244.17 156.9C248.92 156.9 252.81 153.01 252.81 148.26 252.81 147.55 252.71 146.86 252.55 146.19L263.54 146.19C268.29 146.19 272.18 142.3 272.18 137.55L272.18 137.55C272.18 132.8 268.29 128.91 263.54 128.91Z" fill="#D7F6FF"/></g></svg>