<svg width="1287.64" height="207.66" viewBox="0 0 1287.64 207.66" xmlns="http://www.w3.org/2000/svg" xmlns:xlink="http://www.w3.org/1999/xlink" overflow="hidden"><defs></defs><g><path d="M627.87 41.71C634.47 8.7 609.59 8.19 609.59 8.19 609.59 8.19 625.33 13.78 613.91 35.61 602.48 57.45 619.5 76.49 612.39 80.81 605.28 85.13 598.82 74.45 601.98 58.46 605.14 42.47 592.58 43.73 592.58 43.73 596.9 48.81 594.1 52.62 594.1 52.62 589.53 42.72 581.66 43.48 581.66 43.48 588.77 47.54 588.77 51.61 588.26 57.95 587.75 64.3 584.2 57.44 584.2 57.44 571.76 31.54 559.06 49.57 559.06 49.57 559.06 49.57 566.68 43.73 577.09 66.84 587.5 89.95 571.25 112.8 560.84 113.56 550.43 114.32 555.19 99.4 555.19 99.4 569.38 69.33 537.22 50.55 520.96 37.65 504.7 24.75 515.8 0 515.8 0 515.8 0 494.9 19.87 505.74 40.51 516.58 61.15 512.58 79.99 508.45 83.47 504.32 86.95 489.74 82.05 495.76 62.44 501.78 42.83 484.92 36.98 484.92 36.98 487.33 40.42 488.19 42.14 486.81 50.91 485.43 59.68 492.66 59.34 488.19 64.47 483.72 69.61 474.6 61.74 476.84 49.7 479.08 37.66 470.26 29.75 470.26 29.75 474.17 37.49 463.94 45.4 468.41 55.72 472.88 66.04 468.75 75.16 461.36 64.47 453.97 53.78 461.36 35.6 461.36 35.6 444.24 41.31 437.23 66.31 434.45 88.97 431.81 64.93 405.14 73.65 411.52 41.71 418.12 8.7 393.24 8.19 393.24 8.19 393.24 8.19 408.98 13.78 397.56 35.61 386.13 57.45 403.15 76.49 396.04 80.81 388.93 85.13 382.47 74.45 385.63 58.46 388.79 42.47 376.23 43.73 376.23 43.73 380.55 48.81 377.75 52.62 377.75 52.62 373.18 42.72 365.31 43.48 365.31 43.48 372.42 47.54 372.42 51.61 371.91 57.95 371.4 64.3 367.85 57.44 367.85 57.44 355.41 31.54 342.71 49.57 342.71 49.57 342.71 49.57 350.33 43.73 360.74 66.84 371.15 89.95 354.9 112.8 344.49 113.56 334.08 114.32 338.84 99.4 338.84 99.4 353.03 69.33 320.87 50.55 304.61 37.65 288.35 24.77 299.45 0 299.45 0 299.45 0 278.55 19.87 289.39 40.51 300.23 61.15 296.23 79.99 292.1 83.47 287.97 86.95 273.39 82.05 279.41 62.44 285.43 42.83 268.57 36.98 268.57 36.98 270.98 40.42 271.84 42.14 270.46 50.91 269.08 59.68 276.31 59.34 271.84 64.47 267.37 69.61 258.25 61.74 260.49 49.7 262.73 37.66 253.91 29.75 253.91 29.75 257.82 37.49 247.59 45.4 252.06 55.72 256.53 66.04 252.4 75.16 245.01 64.47 237.62 53.78 245.01 35.6 245.01 35.6 227.89 41.31 220.88 66.31 218.1 88.97 215.46 64.93 188.78 73.66 195.17 41.71 201.77 8.7 176.89 8.19 176.89 8.19 176.89 8.19 192.63 13.78 181.21 35.61 169.78 57.45 186.8 76.49 179.69 80.81 172.58 85.13 166.12 74.45 169.28 58.46 172.44 42.47 159.88 43.73 159.88 43.73 164.2 48.81 161.4 52.62 161.4 52.62 156.83 42.72 148.96 43.48 148.96 43.48 156.07 47.54 156.07 51.61 155.56 57.95 155.05 64.3 151.5 57.44 151.5 57.44 139.06 31.54 126.36 49.57 126.36 49.57 126.36 49.57 133.98 43.73 144.39 66.84 154.8 89.95 138.55 112.8 128.14 113.56 117.73 114.32 122.49 99.4 122.49 99.4 136.68 69.33 104.52 50.55 88.26 37.65 72 24.77 83.1 0 83.1 0 83.1 0 62.2 19.87 73.03 40.51 83.87 61.15 79.87 79.99 75.74 83.47 71.61 86.95 57.03 82.05 63.05 62.44 69.07 42.83 52.21 36.98 52.21 36.98 54.62 40.42 55.48 42.14 54.1 50.91 52.72 59.68 59.95 59.34 55.48 64.47 51.01 69.61 41.89 61.74 44.13 49.7 46.37 37.66 37.55 29.75 37.55 29.75 41.46 37.49 31.23 45.4 35.7 55.72 40.17 66.04 36.04 75.16 28.65 64.47 21.26 53.78 28.65 35.6 28.65 35.6-4.24 46.57 0.2 128.75 0.2 128.75L0.66 207.66 217.01 207.66 218.28 207.66 433.36 207.66 434.63 207.66 650.98 207.66 650.98 91.48C649.97 64.31 621.27 74.72 627.87 41.71Z" fill="#CC4625"/><path d="M635.09 130.89C636.25 136.4 628.42 150.03 617.11 136.69 605.8 123.35 611.02 103.05 611.02 103.05 604.06 106.24 603.19 116.1 603.19 116.1 598.55 107.98 603.19 97.83 603.19 97.83 592.17 108.56 595.07 121.9 598.84 135.82 602.61 149.74 591.01 179.61 591.3 146.84 591.59 114.07 574.77 111.46 574.77 111.46 591.88 132.63 562.59 157.86 570.71 141.26 578.83 124.66 564.04 119 564.04 119 564.04 119 568.1 132.92 555.34 132.34 542.58 131.76 539.68 108.56 539.68 108.56 533.59 116.39 534.46 125.09 539.97 136.69 545.48 148.29 524.02 162.79 523.73 133.21 523.44 103.63 500.82 100.15 500.82 100.15 512.13 109.43 512.71 137.27 500.82 133.79 488.93 130.31 494.73 110.3 494.73 110.3 467.11 126.36 485.45 148.79 475.3 150.82 465.15 152.85 465.73 140.09 465.73 140.09 470.08 112.25 452.97 108.26 452.97 108.26 456.74 128.27 444.55 127.69 436.73 141.03 434.99 144 433.77 149.15 432.92 155.37 429.85 139.62 418.3 130.88 418.3 130.88 419.46 136.39 411.63 150.02 400.32 136.68 389.01 123.34 394.23 103.04 394.23 103.04 387.27 106.23 386.4 116.09 386.4 116.09 381.76 107.97 386.4 97.82 386.4 97.82 375.38 108.55 378.28 121.89 382.05 135.81 385.82 149.73 374.22 179.6 374.51 146.83 374.8 114.06 357.98 111.45 357.98 111.45 375.09 132.62 345.8 157.85 353.92 141.25 362.04 124.65 347.25 118.99 347.25 118.99 347.25 118.99 351.31 132.91 338.55 132.33 325.79 131.75 322.89 108.55 322.89 108.55 316.8 116.38 317.67 125.08 323.18 136.68 328.69 148.28 307.23 162.78 306.94 133.2 306.65 103.62 284.03 100.14 284.03 100.14 295.34 109.42 295.92 137.26 284.03 133.78 272.14 130.3 277.94 110.29 277.94 110.29 250.32 126.35 268.66 148.78 258.51 150.81 248.36 152.84 248.94 140.08 248.94 140.08 253.29 112.24 236.18 108.25 236.18 108.25 239.95 128.26 227.76 127.68 219.94 141.02 218.82 142.93 217.91 145.75 217.18 149.17 212.84 137.33 204.28 130.87 204.28 130.87 205.44 136.38 197.61 150.01 186.3 136.67 174.99 123.33 180.21 103.03 180.21 103.03 173.25 106.22 172.38 116.08 172.38 116.08 167.74 107.96 172.38 97.81 172.38 97.81 161.36 108.54 164.26 121.88 168.03 135.8 171.8 149.72 160.2 179.59 160.49 146.82 160.78 114.05 143.96 111.44 143.96 111.44 161.07 132.61 131.78 157.84 139.9 141.24 148.02 124.64 133.23 118.98 133.23 118.98 133.23 118.98 137.29 132.9 124.53 132.32 111.77 131.74 108.87 108.54 108.87 108.54 102.78 116.37 103.65 125.07 109.16 136.67 114.67 148.27 93.21 162.77 92.92 133.19 92.63 103.61 70.01 100.13 70.01 100.13 81.32 109.41 81.9 137.25 70.01 133.77 58.12 130.29 63.92 110.28 63.92 110.28 36.3 126.34 54.64 148.77 44.49 150.8 34.34 152.83 34.92 140.07 34.92 140.07 39.27 112.23 22.16 108.24 22.16 108.24 25.93 128.25 13.74 127.67 5.92 141.01-1.9 154.34 0.7 207.63 0.7 207.63L214.71 207.63 219.64 207.63 431.5 207.63 433.65 207.63 650.43 207.63 650.43 163.05C650.46 142.48 635.09 130.89 635.09 130.89Z" fill="#DFAE2D"/><path d="M640.26 176.68C633.31 171.57 635.46 163.8 635.46 163.8 632.31 166.4 629.43 170.24 633.13 175.18 636.83 180.11 632.79 187.45 627.3 182.1 613.18 168.32 621.34 156.81 621.34 156.81 614.76 160.1 613.66 162.29 615.86 179.29 618.05 196.29 602.15 195.74 604.89 185.32 607.63 174.9 597.21 164.49 597.21 164.49 598.85 169.97 596.11 184.23 589.53 180.39 582.95 176.55 584.6 157.91 584.6 157.91 576.92 165.04 576.92 172.71 577.47 182.58 578.02 192.45 563.09 203.02 567.05 175.45 569.79 156.4 550.47 153.52 550.47 153.52 555.95 161.2 552.28 166.09 546.23 176.58 543.81 180.77 542.25 184.41 541.25 187.46 539.93 183.71 537.27 180.38 532.24 176.68 525.29 171.57 527.44 163.8 527.44 163.8 524.29 166.4 521.41 170.24 525.11 175.18 528.81 180.12 524.77 187.45 519.28 182.1 505.16 168.32 513.32 156.81 513.32 156.81 506.74 160.1 505.64 162.29 507.84 179.29 510.03 196.29 494.13 195.74 496.87 185.32 499.61 174.9 489.19 164.49 489.19 164.49 490.83 169.97 488.09 184.23 481.51 180.39 474.93 176.55 476.58 157.91 476.58 157.91 468.9 165.04 468.9 172.71 469.45 182.58 470 192.45 455.07 203.02 459.03 175.45 461.77 156.4 442.45 153.52 442.45 153.52 447.93 161.2 444.26 166.09 438.21 176.58 435.99 180.43 434.49 183.81 433.49 186.69 432.08 183.25 429.46 180.12 424.77 176.68 417.82 171.57 419.97 163.8 419.97 163.8 416.82 166.4 413.94 170.24 417.64 175.18 421.34 180.12 417.3 187.45 411.81 182.1 397.69 168.32 405.85 156.81 405.85 156.81 399.27 160.1 398.17 162.29 400.37 179.29 402.56 196.29 386.66 195.74 389.4 185.32 392.14 174.9 381.72 164.49 381.72 164.49 383.36 169.97 380.62 184.23 374.04 180.39 367.46 176.55 369.11 157.91 369.11 157.91 361.43 165.04 361.43 172.71 361.98 182.58 362.53 192.45 347.6 203.02 351.56 175.45 354.3 156.4 334.98 153.52 334.98 153.52 340.46 161.2 336.79 166.09 330.74 176.58 328.32 180.77 326.76 184.41 325.76 187.46 324.44 183.71 321.78 180.38 316.75 176.68 309.8 171.57 311.95 163.8 311.95 163.8 308.8 166.4 305.92 170.24 309.62 175.18 313.32 180.12 309.28 187.45 303.79 182.1 289.67 168.32 297.83 156.81 297.83 156.81 291.25 160.1 290.15 162.29 292.35 179.29 294.54 196.29 278.64 195.74 281.38 185.32 284.12 174.9 273.7 164.49 273.7 164.49 275.34 169.97 272.6 184.23 266.02 180.39 259.44 176.55 261.09 157.91 261.09 157.91 253.41 165.04 253.41 172.71 253.96 182.58 254.51 192.45 239.58 203.02 243.54 175.45 246.28 156.4 226.96 153.52 226.96 153.52 232.44 161.2 228.77 166.09 222.72 176.58 220.5 180.43 219 183.81 218 186.69 216.59 183.25 213.97 180.12 209.28 176.68 202.33 171.57 204.48 163.8 204.48 163.8 201.33 166.4 198.45 170.24 202.15 175.18 205.85 180.11 201.81 187.45 196.32 182.1 182.2 168.32 190.36 156.81 190.36 156.81 183.78 160.1 182.68 162.29 184.88 179.29 187.07 196.29 171.17 195.74 173.91 185.32 176.65 174.9 166.23 164.49 166.23 164.49 167.87 169.97 165.13 184.23 158.55 180.39 151.97 176.55 153.62 157.91 153.62 157.91 145.94 165.04 145.94 172.71 146.49 182.58 147.04 192.45 132.11 203.02 136.07 175.45 138.81 156.4 119.48 153.52 119.48 153.52 124.96 161.2 121.29 166.09 115.24 176.58 112.82 180.77 111.26 184.41 110.26 187.46 108.94 183.71 106.28 180.38 101.25 176.68 94.3 171.57 96.45 163.8 96.45 163.8 93.3 166.4 90.42 170.24 94.12 175.18 97.82 180.12 93.78 187.45 88.29 182.1 74.17 168.32 82.33 156.81 82.33 156.81 75.75 160.1 74.65 162.29 76.85 179.29 79.04 196.29 63.14 195.74 65.88 185.32 68.62 174.9 58.2 164.49 58.2 164.49 59.84 169.97 57.1 184.23 50.52 180.39 43.94 176.55 45.59 157.91 45.59 157.91 37.91 165.04 37.91 172.71 38.46 182.58 39.01 192.45 24.08 203.02 28.04 175.45 30.78 156.4 11.46 153.52 11.46 153.52 16.94 161.2 13.27 166.09 7.22 176.58-0.87 190.59 0.64 198.48 0.64 198.48L0.64 207.66 108.65 207.66 111.39 207.66 216.11 207.66 219.4 207.66 324.12 207.66 326.86 207.66 431.58 207.66 434.87 207.66 539.59 207.66 542.33 207.66 650.34 207.66 650.34 198.48C650.75 189.11 649.58 183.53 640.26 176.68Z" fill="#FCF8D6"/><path d="M212.06 56.59C212.06 56.59 215.36 54.42 213.6 48.66 211.84 42.9 219.5 39.17 219.5 39.17 219.5 39.17 215.27 45.1 217.39 48.79 218.78 51.23 217.75 57.1 212.06 56.59Z" fill="#C83A31"/><path d="M117 39.18C117 39.18 118.11 35.39 113.05 32.14 107.98 28.88 111.42 21.09 111.42 21.09 111.42 21.09 112.03 28.35 116.03 29.8 118.65 30.74 121.66 35.88 117 39.18Z" fill="#C83A31"/><path d="M332.66 40.83C332.66 40.83 335.31 37.9 332.16 32.77 329.01 27.63 335.5 22.11 335.5 22.11 335.5 22.11 332.89 28.91 335.87 31.96 337.81 33.95 338.29 39.89 332.66 40.83Z" fill="#C83A31"/><path d="M432.71 49C432.71 49 436.23 47.21 435.12 41.29 434.01 35.37 442.04 32.52 442.04 32.52 442.04 32.52 437.18 37.94 438.87 41.85 439.98 44.41 438.31 50.13 432.71 49Z" fill="#C83A31"/><path d="M542.78 34.79C542.78 34.79 543.88 31 538.81 27.76 533.74 24.51 537.16 16.71 537.16 16.71 537.16 16.71 537.78 23.96 541.79 25.41 544.42 26.35 547.44 31.49 542.78 34.79Z" fill="#C83A31"/></g><g><path d="M637.3 205.59 637.31 207.66 637.36 207.66 637.36 207.16C637.35 206.81 637.33 206.28 637.3 205.59Z" fill="#CC4625"/><path d="M1287.64 91.48C1286.62 64.31 1257.93 74.72 1264.53 41.71 1271.13 8.7 1246.25 8.19 1246.25 8.19 1246.25 8.19 1261.99 13.78 1250.57 35.61 1239.14 57.45 1256.16 76.49 1249.05 80.81 1241.94 85.13 1235.48 74.45 1238.64 58.46 1241.8 42.47 1229.24 43.73 1229.24 43.73 1233.56 48.81 1230.76 52.62 1230.76 52.62 1226.19 42.72 1218.32 43.48 1218.32 43.48 1225.43 47.54 1225.43 51.61 1224.92 57.95 1224.41 64.3 1220.86 57.44 1220.86 57.44 1208.42 31.54 1195.72 49.57 1195.72 49.57 1195.72 49.57 1203.34 43.73 1213.75 66.84 1224.16 89.95 1207.91 112.8 1197.5 113.56 1187.09 114.32 1191.85 99.4 1191.85 99.4 1206.04 69.33 1173.88 50.55 1157.62 37.65 1141.37 24.75 1152.46-0.02 1152.46-0.02 1152.46-0.02 1131.56 19.85 1142.4 40.49 1153.24 61.13 1149.24 79.97 1145.11 83.45 1140.98 86.93 1126.4 82.03 1132.42 62.42 1138.44 42.81 1121.58 36.96 1121.58 36.96 1123.99 40.4 1124.85 42.12 1123.47 50.89 1122.09 59.66 1129.32 59.32 1124.85 64.45 1120.38 69.59 1111.26 61.72 1113.5 49.68 1115.74 37.64 1106.92 29.73 1106.92 29.73 1110.83 37.47 1100.6 45.38 1105.07 55.7 1109.54 66.02 1105.41 75.14 1098.02 64.45 1090.63 53.76 1098.02 35.58 1098.02 35.58 1080.9 41.29 1073.89 66.29 1071.11 88.95 1068.47 64.91 1041.8 73.63 1048.19 41.69 1054.79 8.68 1029.91 8.17 1029.91 8.17 1029.91 8.17 1045.65 13.76 1034.23 35.59 1022.8 57.43 1039.82 76.47 1032.71 80.79 1025.6 85.11 1019.14 74.43 1022.3 58.44 1025.46 42.45 1012.9 43.71 1012.9 43.71 1017.22 48.79 1014.42 52.6 1014.42 52.6 1009.85 42.7 1001.98 43.46 1001.98 43.46 1009.09 47.52 1009.09 51.59 1008.58 57.93 1008.07 64.28 1004.52 57.42 1004.52 57.42 992.08 31.52 979.38 49.55 979.38 49.55 979.38 49.55 987 43.71 997.41 66.82 1007.82 89.93 991.57 112.78 981.16 113.54 970.75 114.3 975.51 99.38 975.51 99.38 989.7 69.31 957.54 50.53 941.28 37.63 925.01 24.77 936.1 0 936.1 0 936.1 0 915.2 19.87 926.04 40.51 936.88 61.15 932.88 79.99 928.75 83.47 924.62 86.95 910.04 82.05 916.06 62.44 922.08 42.83 905.22 36.98 905.22 36.98 907.63 40.42 908.49 42.14 907.11 50.91 905.73 59.68 912.96 59.34 908.49 64.47 904.02 69.61 894.9 61.74 897.14 49.7 899.38 37.66 890.56 29.75 890.56 29.75 894.47 37.49 884.24 45.4 888.71 55.72 893.18 66.04 889.05 75.16 881.66 64.47 874.27 53.78 881.66 35.6 881.66 35.6 864.54 41.31 857.53 66.31 854.75 88.97 852.11 64.93 825.43 73.66 831.82 41.71 838.42 8.7 813.54 8.19 813.54 8.19 813.54 8.19 829.28 13.78 817.86 35.61 806.43 57.45 823.45 76.49 816.34 80.81 809.23 85.13 802.77 74.45 805.93 58.46 809.09 42.47 796.53 43.73 796.53 43.73 800.85 48.81 798.05 52.62 798.05 52.62 793.48 42.72 785.61 43.48 785.61 43.48 792.72 47.54 792.72 51.61 792.21 57.95 791.7 64.3 788.15 57.44 788.15 57.44 775.71 31.54 763.01 49.57 763.01 49.57 763.01 49.57 770.63 43.73 781.04 66.84 791.45 89.95 775.2 112.8 764.79 113.56 754.38 114.32 759.14 99.4 759.14 99.4 773.33 69.33 741.17 50.55 724.91 37.65 708.66 24.77 719.75 0 719.75 0 719.75 0 698.85 19.87 709.69 40.51 720.53 61.15 716.53 79.99 712.4 83.47 708.27 86.95 693.69 82.05 699.71 62.44 705.73 42.83 688.87 36.98 688.87 36.98 691.28 40.42 692.14 42.14 690.76 50.91 689.38 59.68 696.61 59.34 692.14 64.47 687.67 69.61 678.55 61.74 680.79 49.7 683.03 37.66 674.21 29.75 674.21 29.75 678.12 37.49 667.89 45.4 672.36 55.72 676.83 66.04 672.7 75.16 665.31 64.47 657.92 53.78 665.31 35.6 665.31 35.6 657.63 38.16 651.98 44.61 647.84 52.98L647.84 134.24C654.79 127.06 661.84 124.13 658.85 108.26 658.85 108.26 675.96 112.25 671.61 140.09 671.61 140.09 671.03 152.85 681.18 150.82 691.33 148.79 672.99 126.35 700.61 110.3 700.61 110.3 694.81 130.31 706.7 133.79 718.59 137.27 718.01 109.43 706.7 100.15 706.7 100.15 729.32 103.63 729.61 133.21 729.9 162.79 751.36 148.29 745.85 136.69 740.34 125.09 739.47 116.39 745.56 108.56 745.56 108.56 748.46 131.76 761.22 132.34 773.98 132.92 769.92 119 769.92 119 769.92 119 784.71 124.65 776.59 141.26 768.47 157.86 797.76 132.63 780.65 111.46 780.65 111.46 797.47 114.07 797.18 146.84 796.89 179.61 808.49 149.74 804.72 135.82 800.95 121.9 798.05 108.56 809.07 97.83 809.07 97.83 804.43 107.98 809.07 116.1 809.07 116.1 809.94 106.24 816.9 103.05 816.9 103.05 811.68 123.35 822.99 136.69 834.3 150.03 842.13 136.4 840.97 130.89 840.97 130.89 849.53 137.35 853.87 149.19 854.6 145.77 855.51 142.95 856.63 141.04 864.45 127.71 876.64 128.28 872.87 108.27 872.87 108.27 889.98 112.26 885.63 140.1 885.63 140.1 885.05 152.86 895.2 150.83 905.35 148.8 887.01 126.36 914.63 110.31 914.63 110.31 908.83 130.32 920.72 133.8 932.61 137.28 932.03 109.44 920.72 100.16 920.72 100.16 943.34 103.64 943.63 133.22 943.92 162.8 965.38 148.3 959.87 136.7 954.36 125.1 953.49 116.4 959.58 108.57 959.58 108.57 962.48 131.77 975.24 132.35 988 132.93 983.94 119.01 983.94 119.01 983.94 119.01 998.73 124.66 990.61 141.27 982.49 157.87 1011.78 132.64 994.67 111.47 994.67 111.47 1011.49 114.08 1011.2 146.85 1010.91 179.62 1022.51 149.75 1018.74 135.83 1014.97 121.91 1012.07 108.57 1023.09 97.84 1023.09 97.84 1018.45 107.99 1023.09 116.11 1023.09 116.11 1023.96 106.25 1030.92 103.06 1030.92 103.06 1025.7 123.36 1037.01 136.7 1048.32 150.04 1056.15 136.41 1054.99 130.9 1054.99 130.9 1066.55 139.63 1069.61 155.39 1070.46 149.18 1071.68 144.02 1073.42 141.05 1081.24 127.72 1093.43 128.29 1089.66 108.28 1089.66 108.28 1106.77 112.27 1102.42 140.11 1102.42 140.11 1101.84 152.87 1111.99 150.84 1122.14 148.81 1103.8 126.37 1131.42 110.32 1131.42 110.32 1125.62 130.33 1137.51 133.81 1149.4 137.29 1148.82 109.45 1137.51 100.17 1137.51 100.17 1160.13 103.65 1160.42 133.23 1160.71 162.81 1182.17 148.31 1176.66 136.71 1171.15 125.11 1170.28 116.41 1176.37 108.58 1176.37 108.58 1179.27 131.78 1192.03 132.36 1204.79 132.94 1200.73 119.02 1200.73 119.02 1200.73 119.02 1215.52 124.67 1207.4 141.28 1199.28 157.88 1228.57 132.65 1211.46 111.48 1211.46 111.48 1228.28 114.09 1227.99 146.86 1227.7 179.63 1239.3 149.76 1235.53 135.84 1231.76 121.92 1228.86 108.58 1239.88 97.85 1239.88 97.85 1235.24 108 1239.88 116.12 1239.88 116.12 1240.75 106.26 1247.71 103.07 1247.71 103.07 1242.49 123.37 1253.8 136.71 1265.11 150.05 1272.94 136.42 1271.78 130.91 1271.78 130.91 1287.15 142.51 1287.15 163.1L1287.15 207.68 1287.67 207.68 1287.67 91.48Z" fill="#CC4625"/><path d="M637.3 205.59 637.13 176.75C636.77 189.2 637.13 200.97 637.3 205.59Z" fill="#DFAE2D"/><rect x="1287.06" y="207.66" width="0.05" height="0" fill="#DFAE2D"/><path d="M637.37 198.47C637.37 198.47 635.86 190.59 643.95 176.57 645.42 174.02 646.75 171.81 647.84 169.8L647.84 134.24C646.03 136.11 644.22 138.27 642.61 141.03 638.93 147.31 637.56 162.47 637.14 176.74L637.31 205.58C637.34 206.27 637.36 206.8 637.37 207.15L637.37 198.47Z" fill="#DFAE2D"/><path d="M1271.75 130.89C1272.91 136.4 1265.08 150.03 1253.77 136.69 1242.46 123.35 1247.68 103.05 1247.68 103.05 1240.72 106.24 1239.85 116.1 1239.85 116.1 1235.21 107.98 1239.85 97.83 1239.85 97.83 1228.83 108.56 1231.73 121.9 1235.5 135.82 1239.27 149.74 1227.67 179.61 1227.96 146.84 1228.25 114.07 1211.43 111.46 1211.43 111.46 1228.54 132.63 1199.25 157.86 1207.37 141.26 1215.49 124.66 1200.7 119 1200.7 119 1200.7 119 1204.76 132.92 1192 132.34 1179.24 131.76 1176.34 108.56 1176.34 108.56 1170.25 116.39 1171.12 125.09 1176.63 136.69 1182.14 148.29 1160.68 162.79 1160.39 133.21 1160.1 103.63 1137.48 100.15 1137.48 100.15 1148.79 109.43 1149.37 137.27 1137.48 133.79 1125.59 130.31 1131.39 110.3 1131.39 110.3 1103.77 126.36 1122.11 148.79 1111.96 150.82 1101.81 152.85 1102.39 140.09 1102.39 140.09 1106.74 112.25 1089.63 108.26 1089.63 108.26 1093.4 128.27 1081.21 127.69 1073.39 141.03 1071.65 144 1070.43 149.15 1069.58 155.37 1066.51 139.62 1054.96 130.88 1054.96 130.88 1056.12 136.39 1048.29 150.02 1036.98 136.68 1025.67 123.34 1030.89 103.04 1030.89 103.04 1023.93 106.23 1023.06 116.09 1023.06 116.09 1018.42 107.97 1023.06 97.82 1023.06 97.82 1012.04 108.55 1014.94 121.89 1018.71 135.81 1022.48 149.73 1010.88 179.6 1011.17 146.83 1011.46 114.06 994.64 111.45 994.64 111.45 1011.75 132.62 982.46 157.85 990.58 141.25 998.7 124.65 983.91 118.99 983.91 118.99 983.91 118.99 987.97 132.91 975.21 132.33 962.45 131.75 959.55 108.55 959.55 108.55 953.46 116.38 954.33 125.08 959.84 136.68 965.35 148.28 943.89 162.78 943.6 133.2 943.31 103.62 920.69 100.14 920.69 100.14 932 109.42 932.58 137.26 920.69 133.78 908.8 130.3 914.6 110.29 914.6 110.29 886.98 126.35 905.32 148.78 895.17 150.81 885.02 152.84 885.6 140.08 885.6 140.08 889.95 112.24 872.84 108.25 872.84 108.25 876.61 128.26 864.42 127.68 856.6 141.02 855.48 142.93 854.57 145.75 853.84 149.17 849.5 137.33 840.94 130.87 840.94 130.87 842.1 136.38 834.27 150.01 822.96 136.67 811.65 123.33 816.87 103.03 816.87 103.03 809.91 106.22 809.04 116.08 809.04 116.08 804.4 107.96 809.04 97.81 809.04 97.81 798.02 108.54 800.92 121.88 804.69 135.8 808.46 149.72 796.86 179.59 797.15 146.82 797.44 114.05 780.62 111.44 780.62 111.44 797.73 132.61 768.44 157.84 776.56 141.24 784.68 124.64 769.89 118.98 769.89 118.98 769.89 118.98 773.95 132.9 761.19 132.32 748.43 131.74 745.53 108.54 745.53 108.54 739.44 116.37 740.31 125.07 745.82 136.67 751.33 148.27 729.87 162.77 729.58 133.19 729.29 103.61 706.67 100.13 706.67 100.13 717.98 109.41 718.56 137.25 706.67 133.77 694.78 130.29 700.58 110.28 700.58 110.28 672.96 126.34 691.3 148.77 681.15 150.8 671 152.83 671.58 140.07 671.58 140.07 675.93 112.23 658.82 108.24 658.82 108.24 661.81 124.11 654.76 127.04 647.81 134.22L647.81 169.78C651.22 163.52 652.32 159.3 648.16 153.49 648.16 153.49 667.49 156.37 664.75 175.42 660.78 202.99 675.72 192.42 675.17 182.55 674.62 172.68 674.62 165.01 682.3 157.88 682.3 157.88 680.66 176.52 687.23 180.36 693.81 184.2 696.55 169.94 694.91 164.46 694.91 164.46 705.33 174.88 702.59 185.29 699.85 195.71 715.75 196.26 713.56 179.26 711.37 162.26 712.46 160.07 719.04 156.78 719.04 156.78 710.88 168.29 725 182.07 730.48 187.42 734.53 180.08 730.83 175.15 727.13 170.22 730.01 166.38 733.16 163.77 733.16 163.77 731 171.54 737.96 176.65 742.99 180.35 745.64 183.68 746.97 187.43 747.97 184.38 749.53 180.74 751.95 176.55 758.01 166.06 761.68 161.16 756.19 153.49 756.19 153.49 775.52 156.37 772.77 175.42 768.8 202.99 783.74 192.42 783.19 182.55 782.64 172.68 782.64 165.01 790.32 157.88 790.32 157.88 788.68 176.52 795.25 180.36 801.83 184.2 804.57 169.94 802.93 164.46 802.93 164.46 813.35 174.88 810.61 185.29 807.87 195.71 823.77 196.26 821.58 179.26 819.39 162.26 820.48 160.07 827.06 156.78 827.06 156.78 818.9 168.29 833.02 182.07 838.5 187.42 842.55 180.08 838.85 175.15 835.15 170.22 838.03 166.38 841.18 163.77 841.18 163.77 839.02 171.54 845.98 176.65 850.67 180.1 853.29 183.22 854.7 186.66 855.7 183.77 857.2 180.39 859.42 176.55 865.48 166.06 869.15 161.16 863.66 153.49 863.66 153.49 882.99 156.37 880.24 175.42 876.27 202.99 891.21 192.42 890.66 182.55 890.11 172.68 890.11 165.01 897.79 157.88 897.79 157.88 896.15 176.52 902.72 180.36 909.3 184.2 912.04 169.94 910.4 164.46 910.4 164.46 920.82 174.88 918.08 185.29 915.34 195.71 931.24 196.26 929.05 179.26 926.86 162.26 927.95 160.07 934.53 156.78 934.53 156.78 926.37 168.29 940.49 182.07 945.97 187.42 950.02 180.08 946.32 175.15 942.62 170.22 945.5 166.38 948.65 163.77 948.65 163.77 946.49 171.54 953.45 176.65 958.48 180.35 961.13 183.68 962.46 187.43 963.46 184.38 965.02 180.74 967.44 176.55 973.5 166.06 977.17 161.16 971.68 153.49 971.68 153.49 991.01 156.37 988.26 175.42 984.29 202.99 999.23 192.42 998.68 182.55 998.13 172.68 998.13 165.01 1005.81 157.88 1005.81 157.88 1004.17 176.52 1010.74 180.36 1017.32 184.2 1020.06 169.94 1018.42 164.46 1018.42 164.46 1028.84 174.88 1026.1 185.29 1023.36 195.71 1039.26 196.26 1037.07 179.26 1034.88 162.26 1035.97 160.07 1042.55 156.78 1042.55 156.78 1034.39 168.29 1048.51 182.07 1053.99 187.42 1058.04 180.08 1054.34 175.15 1050.64 170.22 1053.52 166.38 1056.67 163.77 1056.67 163.77 1054.51 171.54 1061.47 176.65 1066.16 180.1 1068.78 183.22 1070.19 186.66 1071.19 183.77 1072.69 180.39 1074.91 176.55 1080.97 166.06 1084.64 161.16 1079.15 153.49 1079.15 153.49 1098.48 156.37 1095.73 175.42 1091.76 202.99 1106.7 192.42 1106.15 182.55 1105.6 172.68 1105.6 165.01 1113.28 157.88 1113.28 157.88 1111.64 176.52 1118.21 180.36 1124.78 184.2 1127.53 169.94 1125.89 164.46 1125.89 164.46 1136.31 174.88 1133.57 185.29 1130.83 195.71 1146.73 196.26 1144.54 179.26 1142.35 162.26 1143.44 160.07 1150.02 156.78 1150.02 156.78 1141.86 168.29 1155.98 182.07 1161.46 187.42 1165.51 180.08 1161.81 175.15 1158.11 170.22 1160.99 166.38 1164.14 163.77 1164.14 163.77 1161.98 171.54 1168.94 176.65 1173.97 180.35 1176.62 183.68 1177.95 187.43 1178.95 184.38 1180.51 180.74 1182.93 176.55 1188.99 166.06 1192.66 161.16 1187.17 153.49 1187.17 153.49 1206.5 156.37 1203.75 175.42 1199.78 202.99 1214.72 192.42 1214.17 182.55 1213.62 172.68 1213.62 165.01 1221.3 157.88 1221.3 157.88 1219.66 176.52 1226.23 180.36 1232.8 184.2 1235.55 169.94 1233.91 164.46 1233.91 164.46 1244.33 174.88 1241.59 185.29 1238.85 195.71 1254.75 196.26 1252.56 179.26 1250.37 162.26 1251.46 160.07 1258.04 156.78 1258.04 156.78 1249.88 168.29 1264 182.07 1269.48 187.42 1273.53 180.08 1269.83 175.15 1266.13 170.22 1269.01 166.38 1272.16 163.77 1272.16 163.77 1270 171.54 1276.96 176.65 1286.28 183.5 1287.45 189.08 1287.1 198.44L1287.1 207.62 1287.15 207.62 1287.15 163.04C1287.11 142.48 1271.75 130.89 1271.75 130.89Z" fill="#DFAE2D"/><rect x="637.37" y="207.66" width="0.02" height="0" fill="#FCF8D6"/><path d="M637.37 207.16 637.37 207.66 637.39 207.66C637.39 207.66 637.38 207.48 637.37 207.16Z" fill="#FCF8D6"/><path d="M1071.29 207.66 1070.02 207.66 854.94 207.66 853.67 207.66 647.84 207.66 647.84 207.66 745.38 207.66 748.12 207.66 851.39 207.66 852.84 207.66 856.12 207.66 856.32 207.66 960.84 207.66 963.59 207.66 1068.18 207.66 1068.3 207.66 1070.33 207.66 1071.59 207.66 1176.31 207.66 1179.05 207.66 1287.06 207.66 1287.06 207.66Z" fill="#FCF8D6"/><rect x="637.39" y="207.66" width="10.45" height="0" fill="#FCF8D6"/><path d="M853.67 207.66 854.94 207.66 1070.02 207.66 1071.29 207.66 1287.07 207.66 1287.07 198.48C1287.42 189.12 1286.25 183.54 1276.93 176.69 1269.98 171.58 1272.13 163.81 1272.13 163.81 1268.98 166.41 1266.1 170.25 1269.8 175.19 1273.5 180.13 1269.46 187.46 1263.97 182.11 1249.85 168.33 1258.01 156.82 1258.01 156.82 1251.43 160.11 1250.33 162.3 1252.53 179.3 1254.72 196.3 1238.82 195.75 1241.56 185.33 1244.3 174.91 1233.88 164.5 1233.88 164.5 1235.52 169.98 1232.78 184.24 1226.2 180.4 1219.62 176.56 1221.27 157.92 1221.27 157.92 1213.59 165.05 1213.59 172.72 1214.14 182.59 1214.69 192.46 1199.76 203.03 1203.72 175.46 1206.46 156.41 1187.14 153.53 1187.14 153.53 1192.62 161.21 1188.95 166.1 1182.9 176.59 1180.48 180.78 1178.92 184.42 1177.92 187.47 1176.6 183.72 1173.94 180.39 1168.91 176.69 1161.96 171.58 1164.11 163.81 1164.11 163.81 1160.96 166.41 1158.08 170.25 1161.78 175.19 1165.48 180.13 1161.44 187.46 1155.95 182.11 1141.83 168.33 1149.99 156.82 1149.99 156.82 1143.41 160.11 1142.31 162.3 1144.51 179.3 1146.7 196.3 1130.8 195.75 1133.54 185.33 1136.28 174.91 1125.86 164.5 1125.86 164.5 1127.5 169.98 1124.76 184.24 1118.18 180.4 1111.6 176.56 1113.25 157.92 1113.25 157.92 1105.57 165.05 1105.57 172.72 1106.12 182.59 1106.67 192.46 1091.74 203.03 1095.7 175.46 1098.44 156.41 1079.12 153.53 1079.12 153.53 1084.6 161.21 1080.93 166.1 1074.88 176.59 1072.66 180.44 1071.16 183.82 1070.16 186.7 1068.75 183.26 1066.13 180.13 1061.44 176.69 1054.49 171.58 1056.64 163.81 1056.64 163.81 1053.49 166.41 1050.61 170.25 1054.31 175.19 1058.01 180.13 1053.97 187.46 1048.48 182.11 1034.36 168.33 1042.52 156.82 1042.52 156.82 1035.94 160.11 1034.84 162.3 1037.04 179.3 1039.23 196.3 1023.33 195.75 1026.07 185.33 1028.81 174.91 1018.39 164.5 1018.39 164.5 1020.03 169.98 1017.29 184.24 1010.71 180.4 1004.13 176.56 1005.78 157.92 1005.78 157.92 998.1 165.05 998.1 172.72 998.65 182.59 999.2 192.46 984.27 203.03 988.23 175.46 990.97 156.41 971.65 153.53 971.65 153.53 977.13 161.21 973.46 166.1 967.41 176.59 964.99 180.78 963.43 184.42 962.43 187.47 961.11 183.72 958.45 180.39 953.42 176.69 946.47 171.58 948.62 163.81 948.62 163.81 945.47 166.41 942.59 170.25 946.29 175.19 949.99 180.12 945.95 187.46 940.46 182.11 926.34 168.33 934.5 156.82 934.5 156.82 927.92 160.11 926.82 162.3 929.02 179.3 931.21 196.3 915.31 195.75 918.05 185.33 920.79 174.91 910.37 164.5 910.37 164.5 912.01 169.98 909.27 184.24 902.69 180.4 896.11 176.56 897.76 157.92 897.76 157.92 890.08 165.05 890.08 172.72 890.63 182.59 891.18 192.46 876.25 203.03 880.21 175.46 882.95 156.41 863.63 153.53 863.63 153.53 869.11 161.21 865.44 166.1 859.39 176.59 857.17 180.44 855.67 183.82 854.67 186.7 853.26 183.26 850.64 180.13 845.95 176.69 839 171.58 841.15 163.81 841.15 163.81 838 166.41 835.12 170.25 838.82 175.19 842.52 180.12 838.48 187.46 832.99 182.11 818.87 168.33 827.03 156.82 827.03 156.82 820.45 160.11 819.35 162.3 821.55 179.3 823.74 196.3 807.84 195.75 810.58 185.33 813.32 174.91 802.9 164.5 802.9 164.5 804.54 169.98 801.8 184.24 795.22 180.4 788.64 176.56 790.29 157.92 790.29 157.92 782.61 165.05 782.61 172.72 783.16 182.59 783.71 192.46 768.78 203.03 772.74 175.46 775.48 156.41 756.16 153.53 756.16 153.53 761.64 161.21 757.97 166.1 751.92 176.59 749.5 180.78 747.94 184.42 746.94 187.47 745.62 183.72 742.96 180.39 737.93 176.69 730.98 171.58 733.13 163.81 733.13 163.81 729.98 166.41 727.1 170.25 730.8 175.19 734.5 180.13 730.46 187.46 724.97 182.11 710.85 168.33 719.01 156.82 719.01 156.82 712.43 160.11 711.33 162.3 713.53 179.3 715.72 196.3 699.82 195.75 702.56 185.33 705.3 174.91 694.88 164.5 694.88 164.5 696.52 169.98 693.78 184.24 687.2 180.4 680.62 176.56 682.27 157.92 682.27 157.92 674.59 165.05 674.59 172.72 675.14 182.59 675.69 192.46 660.76 203.03 664.72 175.46 667.46 156.41 648.13 153.53 648.13 153.53 652.28 159.34 651.18 163.57 647.78 169.82L647.78 207.67 853.67 207.67Z" fill="#FCF8D6"/><path d="M854.05 48.8C851.93 45.1 856.16 39.18 856.16 39.18 856.16 39.18 848.5 42.91 850.26 48.67 852.02 54.43 848.72 56.6 848.72 56.6 854.41 57.1 855.43 51.23 854.05 48.8Z" fill="#C83A31"/><path d="M749.7 32.14C754.77 35.4 753.65 39.18 753.65 39.18 758.31 35.88 755.3 30.74 752.68 29.79 748.67 28.34 748.07 21.08 748.07 21.08 748.07 21.08 744.63 28.88 749.7 32.14Z" fill="#C83A31"/><path d="M969.31 40.83C974.94 39.89 974.47 33.95 972.52 31.95 969.54 28.9 972.15 22.1 972.15 22.1 972.15 22.1 965.67 27.63 968.81 32.76 971.96 37.91 969.31 40.83 969.31 40.83Z" fill="#C83A31"/><path d="M1075.53 41.85C1073.84 37.94 1078.7 32.52 1078.7 32.52 1078.7 32.52 1070.67 35.37 1071.78 41.29 1072.89 47.21 1069.37 49 1069.37 49 1074.97 50.13 1076.64 44.41 1075.53 41.85Z" fill="#C83A31"/><path d="M1175.47 27.76C1180.54 31.01 1179.44 34.79 1179.44 34.79 1184.1 31.48 1181.07 26.35 1178.45 25.4 1174.44 23.96 1173.82 16.7 1173.82 16.7 1173.82 16.7 1170.4 24.52 1175.47 27.76Z" fill="#C83A31"/></g></svg>