<svg width="105.97" height="113.62" viewBox="0 0 105.97 113.62" xmlns="http://www.w3.org/2000/svg" xmlns:xlink="http://www.w3.org/1999/xlink" overflow="hidden"><defs></defs><g><circle cx="52.98" cy="52.98" r="51.48" stroke="#231F20" stroke-width="3" stroke-miterlimit="10" fill="#404041"/><g><defs><circle cx="52.98" cy="52.98" r="51.48" id="SVGID_1_"/></defs><clipPath id="SVGID_2_"><use width="100%" height="100%" xlink:href="#SVGID_1_" overflow="visible"></use></clipPath><g clip-path="url(#SVGID_2_)"><g><g><path d="M20.45 86.86 35.87 79.61 34.59 70.23 16.64 79.42Z" fill="#D9E9FF"/><g><path d="M20.56 110.62C20.56 111.61 19.75 112.41 18.77 112.41 17.78 112.41 16.98 111.6 16.98 110.62L16.98 69.93 20.56 69.93 20.56 110.62Z" fill="#F982BC"/><path d="M18.77 60.74C19.76 60.74 20.56 61.55 20.56 62.53L20.56 69.93 16.98 69.93 16.98 62.53C16.98 61.55 17.79 60.74 18.77 60.74Z" fill="#844766"/></g><g><path d="M12.57 83.15C12.43 80.5 13.69 78.28 15.7 78.17 17.71 78.06 18.61 80.17 18.75 82.82 18.89 85.47 18.22 87.66 16.21 87.77 14.21 87.88 12.71 85.8 12.57 83.15Z" fill="#F4B68C"/></g><g><path d="M18.77 43.92C21.84 49.64 24.32 52.12 30.04 55.19L18.77 55.19 18.77 43.92Z" fill="#FFC257"/><path d="M30.04 55.19C24.32 58.26 21.84 60.74 18.77 66.46L18.77 55.19 30.04 55.19Z" fill="#F28E3D"/><path d="M18.77 66.46C15.7 60.74 13.22 58.26 7.5 55.19L18.77 55.19 18.77 66.46Z" fill="#FFC257"/><path d="M18.77 43.92 18.77 55.19 7.5 55.19C13.22 52.13 15.71 49.64 18.77 43.92Z" fill="#FFD48F"/></g></g><g><path d="M67.43 54.28 84.7 50.33 84.7 61.5C86.65 62.16 88.06 63.98 88.06 66.15 88.06 67.61 87.41 68.91 86.4 69.81 88.77 71.21 90.36 73.78 90.36 76.74 90.36 81.19 86.75 84.79 82.31 84.79 78.39 84.79 75.14 81.99 74.41 78.29L69.17 78.29 67.43 54.28Z" fill="#FFD7A6"/><path d="M38.47 113.62 72.26 113.62C75.56 113.62 78.26 110.92 78.26 107.62L78.26 75.51C78.26 72.21 75.56 69.51 72.26 69.51L38.47 69.51C35.17 69.51 32.47 72.21 32.47 75.51L32.47 107.62C32.47 110.92 35.17 113.62 38.47 113.62Z" fill="#F982BC"/><path d="M59.94 91.39C61.39 91.39 62.71 91.98 63.66 92.94 63.91 92.9 64.16 92.86 64.4 92.81 68.31 92.07 76.04 90.6 75.4 84.6 74.91 80.04 65.87 76.55 69.75 73.56 73.48 70.69 75.09 69.32 78.1 70.97 79.62 71.81 81.07 73.06 82.14 74.33 86.77 79.82 87.22 88.39 83.01 94.31 83 94.32 82.99 94.33 82.99 94.34 81.67 96.18 79.96 97.73 77.97 98.82 75.12 100.37 71.86 101.21 68.65 101.58 66.87 101.79 63.92 102.14 61.68 101.58 61.13 101.77 60.55 101.88 59.93 101.88 57.03 101.88 54.68 99.53 54.68 96.63 54.68 93.74 57.04 91.39 59.94 91.39Z" fill="#CE6D98"/><g><path d="M78.11 69.79C79.63 70.63 81.08 71.88 82.15 73.15 86.78 78.64 87.23 87.21 83.02 93.13 83.01 93.14 83 93.15 83 93.16 81.68 95 79.97 96.55 77.98 97.64 75.13 99.19 71.87 100.03 68.66 100.4 66.13 100.69 61.25 101.29 59.36 99.13 58.11 97.7 57.98 95.29 59.07 93.73 60.27 92.02 62.54 91.96 64.41 91.61 68.32 90.87 76.05 89.4 75.41 83.4 74.92 78.84 65.88 75.35 69.76 72.36 73.48 69.5 75.1 68.13 78.11 69.79Z" fill="#D9E9FF"/><circle cx="59.94" cy="95.45" r="5.25" fill="#FFB282"/></g><path d="M33.38 69.51C32.11 61.19 41.86 54.28 52.31 54.28 62.76 54.28 69.16 59.84 69.16 68.25 69.16 76.66 56.27 86.07 45.82 86.07 39.77 86.07 34.76 78.51 33.38 69.51Z" fill="#D9EAFE"/><g><g><path d="M24.65 47.32C24.65 44.32 25.11 41.43 25.96 38.71 26.8 38.58 27.78 38.42 28.84 38.22 33.5 30.65 41.86 25.6 51.4 25.6 64.93 25.6 80.04 36.85 82.21 50.12 82.99 50.2 83.77 50.28 84.58 50.35 84 55.89 81.85 60.97 78.58 65.16 72.83 73.32 61.66 76.76 51.4 76.76 36.78 76.76 24.93 66.68 24.93 52.06 24.93 51.85 24.94 51.64 24.95 51.42 24.76 50.09 24.65 48.72 24.65 47.32Z" fill="#FFB282"/><path d="M44.42 31.58C41.47 35.87 31.16 37.93 25.96 38.72 29.72 26.68 41.16 17.93 54.69 17.93 71.28 17.93 84.73 31.09 84.73 47.33 84.73 48.35 84.68 49.36 84.57 50.35 54.14 47.76 46.61 35.83 44.42 31.58Z" fill="#FFD7A6"/></g><g><line x1="62.35" y1="49.86" x2="51.36" y2="49.86" stroke="#FED893" stroke-width="2" stroke-linecap="round" stroke-miterlimit="10" fill="#FFFFFF"/><circle cx="53.71" cy="53.78" r="1.52" fill="#231F20"/></g><g><line x1="24.63" y1="49.86" x2="35.62" y2="49.86" stroke="#FED893" stroke-width="2" stroke-linecap="round" stroke-miterlimit="10" fill="#FFFFFF"/><circle cx="31.75" cy="53.78" r="1.52" fill="#231F20"/></g><line x1="45.82" y1="65.01" x2="39.54" y2="65.01" stroke="#EB503B" stroke-width="2" stroke-linecap="round" stroke-miterlimit="10" fill="none"/><path d="M40.73 59.45 44.63 59.45C45.22 59.45 45.7 58.97 45.7 58.38L45.7 57.64C45.7 57.05 45.22 56.57 44.63 56.57L40.73 56.57C40.14 56.57 39.66 57.05 39.66 57.64L39.66 58.38C39.65 58.97 40.14 59.45 40.73 59.45Z" fill="#FC8165"/></g><path d="M84.7 59.93 84.7 46.85 75.39 46.44 75.53 68.71 81.21 65.84Z" fill="#FFD7A6"/><circle cx="75.62" cy="53.79" r="4.93" fill="#FFB282"/><circle cx="75.62" cy="53.79" r="2.63" fill="#DA7652"/><g><ellipse cx="42.8" cy="43.81" rx="1.31" ry="3.54" fill="#E1E3EF"/><circle cx="42.8" cy="38.41" r="0.84" fill="#E1E3EF"/><circle cx="42.8" cy="49.33" r="0.84" fill="#E1E3EF"/></g></g></g><g><g><ellipse cx="68.29" cy="107.67" rx="4.07" ry="1.31" fill="#E1E3EF"/><ellipse cx="62.08" cy="107.67" rx="0.97" ry="0.84" fill="#E1E3EF"/><ellipse cx="74.66" cy="107.67" rx="0.97" ry="0.84" fill="#E1E3EF"/></g><g><ellipse cx="55.63" cy="107.67" rx="4.07" ry="1.31" fill="#E1E3EF"/><ellipse cx="49.41" cy="107.67" rx="0.97" ry="0.84" fill="#E1E3EF"/></g><g><ellipse cx="43.05" cy="107.67" rx="4.07" ry="1.31" fill="#E1E3EF"/><ellipse cx="36.84" cy="107.67" rx="0.97" ry="0.84" fill="#E1E3EF"/></g></g></g></g><circle cx="52.98" cy="52.98" r="51.48" stroke="#231F20" stroke-width="3" stroke-miterlimit="10" fill="none"/></g></svg>