<svg width="867.53" height="430.95" viewBox="0 0 867.53 430.95" xmlns="http://www.w3.org/2000/svg" xmlns:xlink="http://www.w3.org/1999/xlink" overflow="hidden"><defs></defs><g><path d="M839.15 33.89 365.85 33.89 361.37 45.74 355.6 33.89 294.57 33.89 288.04 51.15 279.64 33.89 263.56 33.89 259.08 45.74 253.32 33.89 188.03 33.89 183.55 45.74 177.79 33.89 140.41 33.89 135.93 45.74 130.17 33.89 82.87 33.89 76.34 51.15 67.94 33.89 28.38 33.89C12.71 33.89 0 46.6 0 62.28L0 402.57C0 418.25 12.71 430.95 28.38 430.95L91.25 430.95 96.25 420.67 100.14 430.95 109.19 430.95 117.33 414.21 123.67 430.95 195.76 430.95 203.91 414.21 210.25 430.95 237.56 430.95 242.56 420.67 246.45 430.95 280.21 430.95 285.21 420.67 289.1 430.95 335.87 430.95 340.87 420.67 344.76 430.95 352.47 430.95 361.96 411.45 369.34 430.95 839.16 430.95C854.84 430.95 867.54 418.24 867.54 402.57L867.54 62.28C867.53 46.6 854.82 33.89 839.15 33.89Z" fill="#895634"/><g><path d="M839.15 26.02 365.85 26.02 361.37 37.87 355.6 26.02 294.57 26.02 288.04 43.28 279.64 26.02 263.56 26.02 259.08 37.87 253.32 26.02 188.03 26.02 183.55 37.87 177.79 26.02 140.41 26.02 135.93 37.87 130.17 26.02 82.87 26.02 76.34 43.28 67.94 26.02 28.38 26.02C12.71 26.02 0 38.73 0 54.4L0 394.7C0 410.38 12.71 423.08 28.38 423.08L91.25 423.08 96.25 412.8 100.14 423.08 109.19 423.08 117.33 406.34 123.67 423.08 195.76 423.08 203.91 406.34 210.25 423.08 237.56 423.08 242.56 412.8 246.45 423.08 280.21 423.08 285.21 412.8 289.1 423.08 335.87 423.08 340.87 412.8 344.76 423.08 352.47 423.08 361.96 403.58 369.34 423.08 839.16 423.08C854.84 423.08 867.54 410.37 867.54 394.7L867.54 54.4C867.53 38.73 854.82 26.02 839.15 26.02Z" fill="#FEEC9C"/><g><g><g><g><path d="M153.41 66.33C153.41 71.4 148.62 75.51 142.71 75.51" stroke="#EACD89" stroke-width="3" stroke-linecap="round" stroke-linejoin="round" stroke-miterlimit="10" fill="none"/><path d="M174.8 66.33C174.8 71.4 170.01 75.51 164.1 75.51 158.19 75.51 153.4 71.4 153.4 66.33" stroke="#EACD89" stroke-width="3" stroke-linecap="round" stroke-linejoin="round" stroke-miterlimit="10" fill="none"/><path d="M196.2 66.33C196.2 71.4 191.41 75.51 185.5 75.51 179.59 75.51 174.8 71.4 174.8 66.33" stroke="#EACD89" stroke-width="3" stroke-linecap="round" stroke-linejoin="round" stroke-miterlimit="10" fill="none"/><path d="M217.59 66.33C217.59 71.4 212.8 75.51 206.89 75.51 200.98 75.51 196.19 71.4 196.19 66.33" stroke="#EACD89" stroke-width="3" stroke-linecap="round" stroke-linejoin="round" stroke-miterlimit="10" fill="none"/><path d="M228.29 75.52C222.38 75.52 217.59 71.41 217.59 66.34" stroke="#EACD89" stroke-width="3" stroke-linecap="round" stroke-linejoin="round" stroke-miterlimit="10" fill="none"/></g><g><path d="M164.11 75.52C164.11 80.59 159.32 84.7 153.41 84.7" stroke="#EACD89" stroke-width="3" stroke-linecap="round" stroke-linejoin="round" stroke-miterlimit="10" fill="none"/><path d="M185.5 75.52C185.5 80.59 180.71 84.7 174.8 84.7 168.89 84.7 164.1 80.59 164.1 75.52" stroke="#EACD89" stroke-width="3" stroke-linecap="round" stroke-linejoin="round" stroke-miterlimit="10" fill="none"/><path d="M206.89 75.52C206.89 80.59 202.1 84.7 196.19 84.7 190.28 84.7 185.49 80.59 185.49 75.52" stroke="#EACD89" stroke-width="3" stroke-linecap="round" stroke-linejoin="round" stroke-miterlimit="10" fill="none"/><path d="M217.59 84.7C211.68 84.7 206.89 80.59 206.89 75.52" stroke="#EACD89" stroke-width="3" stroke-linecap="round" stroke-linejoin="round" stroke-miterlimit="10" fill="none"/></g></g><g><g><path d="M690.82 66.33C690.82 71.4 686.03 75.51 680.12 75.51" stroke="#EACD89" stroke-width="3" stroke-linecap="round" stroke-linejoin="round" stroke-miterlimit="10" fill="none"/><path d="M712.21 66.33C712.21 71.4 707.42 75.51 701.51 75.51 695.6 75.51 690.81 71.4 690.81 66.33" stroke="#EACD89" stroke-width="3" stroke-linecap="round" stroke-linejoin="round" stroke-miterlimit="10" fill="none"/><path d="M733.61 66.33C733.61 71.4 728.82 75.51 722.91 75.51 717 75.51 712.21 71.4 712.21 66.33" stroke="#EACD89" stroke-width="3" stroke-linecap="round" stroke-linejoin="round" stroke-miterlimit="10" fill="none"/><path d="M755 66.33C755 71.4 750.21 75.51 744.3 75.51 738.39 75.51 733.6 71.4 733.6 66.33" stroke="#EACD89" stroke-width="3" stroke-linecap="round" stroke-linejoin="round" stroke-miterlimit="10" fill="none"/><path d="M765.7 75.52C759.79 75.52 755 71.41 755 66.34" stroke="#EACD89" stroke-width="3" stroke-linecap="round" stroke-linejoin="round" stroke-miterlimit="10" fill="none"/></g><g><path d="M701.52 75.52C701.52 80.59 696.73 84.7 690.82 84.7" stroke="#EACD89" stroke-width="3" stroke-linecap="round" stroke-linejoin="round" stroke-miterlimit="10" fill="none"/><path d="M722.91 75.52C722.91 80.59 718.12 84.7 712.21 84.7 706.3 84.7 701.51 80.59 701.51 75.52" stroke="#EACD89" stroke-width="3" stroke-linecap="round" stroke-linejoin="round" stroke-miterlimit="10" fill="none"/><path d="M744.3 75.52C744.3 80.59 739.51 84.7 733.6 84.7 727.69 84.7 722.9 80.59 722.9 75.52" stroke="#EACD89" stroke-width="3" stroke-linecap="round" stroke-linejoin="round" stroke-miterlimit="10" fill="none"/><path d="M755 84.7C749.09 84.7 744.3 80.59 744.3 75.52" stroke="#EACD89" stroke-width="3" stroke-linecap="round" stroke-linejoin="round" stroke-miterlimit="10" fill="none"/></g></g><g><g><path d="M690.82 374.82C690.82 379.89 686.03 384 680.12 384" stroke="#EACD89" stroke-width="3" stroke-linecap="round" stroke-linejoin="round" stroke-miterlimit="10" fill="none"/><path d="M712.21 374.82C712.21 379.89 707.42 384 701.51 384 695.6 384 690.81 379.89 690.81 374.82" stroke="#EACD89" stroke-width="3" stroke-linecap="round" stroke-linejoin="round" stroke-miterlimit="10" fill="none"/><path d="M733.61 374.82C733.61 379.89 728.82 384 722.91 384 717 384 712.21 379.89 712.21 374.82" stroke="#EACD89" stroke-width="3" stroke-linecap="round" stroke-linejoin="round" stroke-miterlimit="10" fill="none"/><path d="M755 374.82C755 379.89 750.21 384 744.3 384 738.39 384 733.6 379.89 733.6 374.82" stroke="#EACD89" stroke-width="3" stroke-linecap="round" stroke-linejoin="round" stroke-miterlimit="10" fill="none"/><path d="M765.7 384C759.79 384 755 379.89 755 374.82" stroke="#EACD89" stroke-width="3" stroke-linecap="round" stroke-linejoin="round" stroke-miterlimit="10" fill="none"/></g><g><path d="M701.52 384C701.52 389.07 696.73 393.18 690.82 393.18" stroke="#EACD89" stroke-width="3" stroke-linecap="round" stroke-linejoin="round" stroke-miterlimit="10" fill="none"/><path d="M722.91 384C722.91 389.07 718.12 393.18 712.21 393.18 706.3 393.18 701.51 389.07 701.51 384" stroke="#EACD89" stroke-width="3" stroke-linecap="round" stroke-linejoin="round" stroke-miterlimit="10" fill="none"/><path d="M744.3 384C744.3 389.07 739.51 393.18 733.6 393.18 727.69 393.18 722.9 389.07 722.9 384" stroke="#EACD89" stroke-width="3" stroke-linecap="round" stroke-linejoin="round" stroke-miterlimit="10" fill="none"/><path d="M755 393.18C749.09 393.18 744.3 389.07 744.3 384" stroke="#EACD89" stroke-width="3" stroke-linecap="round" stroke-linejoin="round" stroke-miterlimit="10" fill="none"/></g></g><g><g><path d="M539.77 385.67C539.77 390.74 534.98 394.85 529.07 394.85" stroke="#EACD89" stroke-width="3" stroke-linecap="round" stroke-linejoin="round" stroke-miterlimit="10" fill="none"/><path d="M561.16 385.67C561.16 390.74 556.37 394.85 550.46 394.85 544.55 394.85 539.76 390.74 539.76 385.67" stroke="#EACD89" stroke-width="3" stroke-linecap="round" stroke-linejoin="round" stroke-miterlimit="10" fill="none"/><path d="M582.55 385.67C582.55 390.74 577.76 394.85 571.85 394.85 565.94 394.85 561.15 390.74 561.15 385.67" stroke="#EACD89" stroke-width="3" stroke-linecap="round" stroke-linejoin="round" stroke-miterlimit="10" fill="none"/><path d="M603.95 385.67C603.95 390.74 599.16 394.85 593.25 394.85 587.34 394.85 582.55 390.74 582.55 385.67" stroke="#EACD89" stroke-width="3" stroke-linecap="round" stroke-linejoin="round" stroke-miterlimit="10" fill="none"/><path d="M614.64 394.85C608.73 394.85 603.94 390.74 603.94 385.67" stroke="#EACD89" stroke-width="3" stroke-linecap="round" stroke-linejoin="round" stroke-miterlimit="10" fill="none"/></g><g><path d="M550.46 394.85C550.46 399.92 545.67 404.03 539.76 404.03" stroke="#EACD89" stroke-width="3" stroke-linecap="round" stroke-linejoin="round" stroke-miterlimit="10" fill="none"/><path d="M571.86 394.85C571.86 399.92 567.07 404.03 561.16 404.03 555.25 404.03 550.46 399.92 550.46 394.85" stroke="#EACD89" stroke-width="3" stroke-linecap="round" stroke-linejoin="round" stroke-miterlimit="10" fill="none"/><path d="M593.25 394.85C593.25 399.92 588.46 404.03 582.55 404.03 576.64 404.03 571.85 399.92 571.85 394.85" stroke="#EACD89" stroke-width="3" stroke-linecap="round" stroke-linejoin="round" stroke-miterlimit="10" fill="none"/><path d="M603.95 404.03C598.04 404.03 593.25 399.92 593.25 394.85" stroke="#EACD89" stroke-width="3" stroke-linecap="round" stroke-linejoin="round" stroke-miterlimit="10" fill="none"/></g></g><g><g><path d="M142.71 374.82C142.71 379.89 137.92 384 132.01 384" stroke="#EACD89" stroke-width="3" stroke-linecap="round" stroke-linejoin="round" stroke-miterlimit="10" fill="none"/><path d="M164.11 374.82C164.11 379.89 159.32 384 153.41 384 147.5 384 142.71 379.89 142.71 374.82" stroke="#EACD89" stroke-width="3" stroke-linecap="round" stroke-linejoin="round" stroke-miterlimit="10" fill="none"/><path d="M185.5 374.82C185.5 379.89 180.71 384 174.8 384 168.89 384 164.1 379.89 164.1 374.82" stroke="#EACD89" stroke-width="3" stroke-linecap="round" stroke-linejoin="round" stroke-miterlimit="10" fill="none"/><path d="M206.89 374.82C206.89 379.89 202.1 384 196.19 384 190.28 384 185.49 379.89 185.49 374.82" stroke="#EACD89" stroke-width="3" stroke-linecap="round" stroke-linejoin="round" stroke-miterlimit="10" fill="none"/><path d="M217.59 384C211.68 384 206.89 379.89 206.89 374.82" stroke="#EACD89" stroke-width="3" stroke-linecap="round" stroke-linejoin="round" stroke-miterlimit="10" fill="none"/></g><g><path d="M153.41 384C153.41 389.07 148.62 393.18 142.71 393.18" stroke="#EACD89" stroke-width="3" stroke-linecap="round" stroke-linejoin="round" stroke-miterlimit="10" fill="none"/><path d="M174.8 384C174.8 389.07 170.01 393.18 164.1 393.18 158.19 393.18 153.4 389.07 153.4 384" stroke="#EACD89" stroke-width="3" stroke-linecap="round" stroke-linejoin="round" stroke-miterlimit="10" fill="none"/><path d="M196.2 384C196.2 389.07 191.41 393.18 185.5 393.18 179.59 393.18 174.8 389.07 174.8 384" stroke="#EACD89" stroke-width="3" stroke-linecap="round" stroke-linejoin="round" stroke-miterlimit="10" fill="none"/><path d="M206.89 393.18C200.98 393.18 196.19 389.07 196.19 384" stroke="#EACD89" stroke-width="3" stroke-linecap="round" stroke-linejoin="round" stroke-miterlimit="10" fill="none"/></g></g><g><path d="M40.02 112.41C40.02 117.48 35.23 121.59 29.32 121.59" stroke="#EACD89" stroke-width="3" stroke-linecap="round" stroke-linejoin="round" stroke-miterlimit="10" fill="none"/></g><g><path d="M251.5 109.26C251.5 114.33 246.71 118.44 240.8 118.44" stroke="#EACD89" stroke-width="3" stroke-linecap="round" stroke-linejoin="round" stroke-miterlimit="10" fill="none"/><path d="M272.89 109.26C272.89 114.33 268.1 118.44 262.19 118.44 256.28 118.44 251.49 114.33 251.49 109.26" stroke="#EACD89" stroke-width="3" stroke-linecap="round" stroke-linejoin="round" stroke-miterlimit="10" fill="none"/><path d="M283.59 118.44C277.68 118.44 272.89 114.33 272.89 109.26" stroke="#EACD89" stroke-width="3" stroke-linecap="round" stroke-linejoin="round" stroke-miterlimit="10" fill="none"/></g><g><path d="M40.46 360.87C40.46 365.94 35.67 370.05 29.76 370.05" stroke="#EACD89" stroke-width="3" stroke-linecap="round" stroke-linejoin="round" stroke-miterlimit="10" fill="none"/><path d="M61.85 360.87C61.85 365.94 57.06 370.05 51.15 370.05 45.24 370.05 40.45 365.94 40.45 360.87" stroke="#EACD89" stroke-width="3" stroke-linecap="round" stroke-linejoin="round" stroke-miterlimit="10" fill="none"/><path d="M72.55 370.05C66.64 370.05 61.85 365.94 61.85 360.87" stroke="#EACD89" stroke-width="3" stroke-linecap="round" stroke-linejoin="round" stroke-miterlimit="10" fill="none"/></g><g><path d="M40.46 168.39C40.46 173.46 35.67 177.57 29.76 177.57" stroke="#EACD89" stroke-width="3" stroke-linecap="round" stroke-linejoin="round" stroke-miterlimit="10" fill="none"/></g><g><path d="M279.8 393.18C279.8 398.25 275.01 402.36 269.1 402.36" stroke="#EACD89" stroke-width="3" stroke-linecap="round" stroke-linejoin="round" stroke-miterlimit="10" fill="none"/><path d="M301.19 393.18C301.19 398.25 296.4 402.36 290.49 402.36 284.58 402.36 279.79 398.25 279.79 393.18" stroke="#EACD89" stroke-width="3" stroke-linecap="round" stroke-linejoin="round" stroke-miterlimit="10" fill="none"/><path d="M311.89 402.37C305.98 402.37 301.19 398.26 301.19 393.19" stroke="#EACD89" stroke-width="3" stroke-linecap="round" stroke-linejoin="round" stroke-miterlimit="10" fill="none"/></g><g><g><path d="M841.29 76.74C841.29 81.81 836.5 85.92 830.59 85.92 824.68 85.92 819.89 81.81 819.89 76.74" stroke="#EACD89" stroke-width="3" stroke-linecap="round" stroke-linejoin="round" stroke-miterlimit="10" fill="none"/><path d="M851.99 85.92C846.08 85.92 841.29 81.81 841.29 76.74" stroke="#EACD89" stroke-width="3" stroke-linecap="round" stroke-linejoin="round" stroke-miterlimit="10" fill="none"/></g><g><path d="M841.29 95.11C835.38 95.11 830.59 91 830.59 85.93" stroke="#EACD89" stroke-width="3" stroke-linecap="round" stroke-linejoin="round" stroke-miterlimit="10" fill="none"/></g></g></g><g><g><path d="M96.06 108.06 125.85 95.11 96.06 82.15 66.26 95.11Z" fill="#C48A62"/><g><path d="M105.22 104.27 117.12 74.04 86.89 85.95 74.99 116.18Z" fill="#C48A62"/><path d="M105.22 85.95 74.99 74.04 86.89 104.27 117.12 116.18Z" fill="#C48A62"/></g></g><g><path d="M96.06 124.9 109.01 95.11 83.1 95.11Z" fill="#704528"/><path d="M96.06 65.31 109.01 95.11 83.1 95.11Z" fill="#895634"/></g></g></g><g><g><path d="M22.82 373.43C22.82 369.76 26.91 367.18 30.97 368.23 42.64 371.26 51.15 380.64 51.15 391.73 51.15 402.83 42.64 412.2 30.97 415.23 26.91 416.28 22.82 413.7 22.82 410.03L22.82 373.43Z" fill="#E7B55E"/><path d="M25.58 0C11.45 0 0 7.12 0 21.25L0 394.85C0 380.72 11.45 373.6 25.58 373.6 39.71 373.6 51.16 380.72 51.16 394.85L51.16 21.25C51.15 7.12 39.7 0 25.58 0Z" fill="#F9D076"/></g><g><path d="M844.71 374.32C844.71 370.73 840.62 368.2 836.56 369.23 824.89 372.2 816.38 381.38 816.38 392.24 816.38 403.1 824.89 412.28 836.56 415.25 840.62 416.28 844.71 413.75 844.71 410.16L844.71 374.32Z" fill="#E7B55E"/><path d="M841.95 0C856.08 0 867.53 7.12 867.53 21.25L867.53 394.85C867.53 380.72 856.08 373.6 841.95 373.6 827.82 373.6 816.37 380.72 816.37 394.85L816.37 21.25C816.38 7.12 827.83 0 841.95 0Z" fill="#F9D076"/></g></g></g></g></svg>