<svg width="158.7" height="222.41" viewBox="0 0 158.7 222.41" xmlns="http://www.w3.org/2000/svg" xmlns:xlink="http://www.w3.org/1999/xlink" overflow="hidden"><defs></defs><g><path d="M42.19 5.02C42.03 3.3 42.14 1.62 42.45 0 36.39 3.34 32.54 10.04 33.2 17.38 34.1 27.28 42.85 34.58 52.74 33.68 60.92 32.94 67.31 26.84 68.78 19.16 66.66 20.33 64.28 21.09 61.72 21.32 51.83 22.22 43.08 14.92 42.19 5.02Z" fill="#D0D2D3"/><path d="M42.45 0C42.45 0 35.34 14.8 47.12 23.05 58.9 31.3 73.14 29.01 73.14 29.01" fill="none"/><g><path d="M42.45 0C36.39 3.34 32.54 10.04 33.2 17.38 34.1 27.28 42.85 34.58 52.74 33.68 56.85 33.31 60.5 31.58 63.31 28.99 58.47 28.41 52.54 26.84 47.12 23.05 35.34 14.8 42.45 0 42.45 0Z" fill="#D0D2D3"/><path d="M68.79 19.16C66.67 20.33 64.29 21.09 61.73 21.32 51.83 22.22 43.08 14.91 42.18 5.02 42.03 3.3 42.14 1.62 42.45 0 42.45 0 35.34 14.8 47.12 23.05 52.54 26.85 58.48 28.41 63.31 28.99 66.1 26.42 68.06 22.99 68.79 19.16Z" fill="#F2F2F2"/></g><g><path d="M115.58 0C121.64 3.34 125.49 10.04 124.83 17.38 123.93 27.28 115.18 34.58 105.29 33.68 101.18 33.31 97.53 31.58 94.72 28.99 99.56 28.41 105.49 26.84 110.91 23.05 122.68 14.8 115.58 0 115.58 0Z" fill="#D0D2D3"/><path d="M89.23 19.16C91.35 20.33 93.73 21.09 96.29 21.32 106.19 22.22 114.94 14.91 115.84 5.02 116 3.3 115.89 1.61 115.58 0 115.58 0 122.69 14.8 110.91 23.05 105.49 26.85 99.55 28.41 94.72 28.99 91.92 26.42 89.97 22.99 89.23 19.16Z" fill="#F2F2F2"/></g><g><g><path d="M133.98 90.64C133.53 61.24 127.72 20.82 93.76 13.48 41.34 2.16 25.39 46.88 24.72 90.64 24.64 95.69 46.72 100.55 46.49 105.23 42.93 178.79 0 207.91 0 207.91 0 207.91 27.32 219.77 48.13 207.91 48.13 207.91 56.99 220.23 76.75 222.15L76.75 222.41C77.64 222.41 78.5 222.38 79.35 222.34 80.2 222.38 81.06 222.41 81.95 222.41L81.95 222.15C101.7 220.24 110.57 207.91 110.57 207.91 131.38 219.77 158.7 207.91 158.7 207.91 158.7 207.91 117.38 174.78 112.95 106.05 112.52 99.39 134.1 98.09 133.98 90.64Z" fill="#E42844"/><path d="M82.96 34.41C82.16 34.11 81.44 33.93 80.76 33.84 80.66 33.83 80.56 33.82 80.46 33.81 80.29 33.8 80.13 33.78 79.97 33.78 79.81 33.78 79.64 33.8 79.48 33.81 79.38 33.82 79.28 33.82 79.18 33.84 78.5 33.92 77.77 34.1 76.98 34.41 54.06 43.19 25.61 90.64 47.72 90.63 69.82 90.62 73 111.8 73 111.8 73 111.8 74.62 118.21 76.73 118.05 78.91 117.88 81.06 117.88 83.24 118.05 85.35 118.21 86.97 111.8 86.97 111.8 86.97 111.8 90.15 90.62 112.25 90.63 134.33 90.64 105.88 43.19 82.96 34.41Z" fill="#290B18"/><g><path d="M48.22 194.29C49.95 203.07 56.89 194.29 56.89 194.29 56.89 194.29 102.37 115.35 125.17 77.17 122.86 75.2 120.39 73.62 117.75 72.57 91.4 116.54 48.22 194.29 48.22 194.29Z" fill="#929497"/><path d="M137.55 43.19 117.75 72.56 117.75 72.56C128.56 54.53 136.54 42.17 137.55 43.19 141.02 46.7 143.27 50.27 137.55 57.25 136.29 58.79 131.64 66.34 125.17 77.17 144.51 93.69 152.29 138.07 152.29 138.07 167.02 63.19 137.55 43.19 137.55 43.19Z" fill="#E5E4E3"/><path d="M137.55 43.19C136.54 42.17 128.56 54.53 117.75 72.56 120.39 73.61 122.86 75.19 125.17 77.16 131.64 66.33 136.28 58.78 137.55 57.24 143.27 50.28 141.02 46.71 137.55 43.19Z" fill="#929497"/></g><path d="M85.45 131.73C75.83 85.81 42.59 90.19 42.59 90.19 63.6 93.81 70.75 104.93 71.81 116.9L64.36 149.01C62.9 152.05 61.81 153.88 61.81 153.88L63.47 152.89 61.81 160.03C61.81 160.03 83.06 146.57 86.33 139.17L86.7 138.95C86.67 138.76 86.64 138.57 86.61 138.38 86.64 138.28 86.68 138.17 86.7 138.07 87.01 136.46 86.46 134.22 85.45 131.73Z" fill="#E42844"/></g><g><path d="M62.66 75.64C61.58 75.74 60.45 75.32 59.84 74.38 58.92 72.94 59.24 70.72 60.8 69.88 63.6 68.36 66.61 71.52 64.92 74.31 64.44 75.11 63.57 75.56 62.66 75.64Z" fill="#E42844"/><path d="M96.41 75.64C95.33 75.74 94.2 75.32 93.59 74.38 92.67 72.94 92.99 70.72 94.55 69.88 97.35 68.36 100.36 71.52 98.67 74.31 98.19 75.11 97.32 75.56 96.41 75.64Z" fill="#E42844"/></g></g></g></svg>