<svg width="30.53" height="38.54" viewBox="0 0 30.53 38.54" xmlns="http://www.w3.org/2000/svg" xmlns:xlink="http://www.w3.org/1999/xlink" overflow="hidden"><defs></defs><g><g><path d="M30.53 5.16 30.09 0 8.21 28.59 10.98 30.71Z" fill="#FFE67D"/><path d="M24.99 0.92 5.43 26.46 8.21 28.59 30.09 0Z" fill="#FFF6CF"/></g><path d="M13.49 29.69 5.77 23.78C5.26 23.39 4.52 23.49 4.13 24L4.13 24C3.74 24.51 3.84 25.25 4.35 25.64L12.07 31.55C12.58 31.94 13.32 31.84 13.71 31.33L13.71 31.33C14.1 30.81 14 30.08 13.49 29.69Z" fill="#FFD522"/><rect x="3.16" y="26.5" width="4.47" height="11.9" fill="#FFD522" transform="matrix(0.794 0.6079 -0.6079 0.794 20.8389 3.4068)"/><rect x="5.03" y="29.2" width="4.47" height="1.61" fill="#FFB127" transform="matrix(0.794 0.6079 -0.6079 0.794 19.735 1.7606)"/></g></svg>