<svg width="565.47" height="59.67" viewBox="0 0 565.47 59.67" xmlns="http://www.w3.org/2000/svg" xmlns:xlink="http://www.w3.org/1999/xlink" overflow="hidden"><defs></defs><g><linearGradient x1="42.4561" y1="97.1404" x2="177.063" y2="-37.4667" gradientUnits="userSpaceOnUse" id="SVGID_1_"><stop offset="0"/><stop offset="0.2976" stop-color="#6D6E70"/><stop offset="0.5463"/><stop offset="0.7659" stop-color="#808184"/><stop offset="1"/></linearGradient><path d="M211.02 57.17 8.5 57.17C5.2 57.17 2.5 54.47 2.5 51.17L2.5 8.5C2.5 5.2 5.2 2.5 8.5 2.5L211.02 2.5C214.32 2.5 217.02 5.2 217.02 8.5L217.02 51.17C217.02 54.47 214.32 57.17 211.02 57.17Z" fill="#F1F1F2"/><path d="M211.02 57.17 8.5 57.17C5.2 57.17 2.5 54.47 2.5 51.17L2.5 8.5C2.5 5.2 5.2 2.5 8.5 2.5L211.02 2.5C214.32 2.5 217.02 5.2 217.02 8.5L217.02 51.17C217.02 54.47 214.32 57.17 211.02 57.17Z" stroke="url(#SVGID_1_)" stroke-width="5" stroke-miterlimit="10" fill="#FFFFFF"/><path d="M211.02 57.17 8.5 57.17C5.2 57.17 2.5 54.47 2.5 51.17L2.5 8.5C2.5 5.2 5.2 2.5 8.5 2.5L211.02 2.5C214.32 2.5 217.02 5.2 217.02 8.5L217.02 51.17C217.02 54.47 214.32 57.17 211.02 57.17Z" stroke="#FFFFFF" stroke-miterlimit="10" fill="#2D2D2D"/><path d="M202.21 24.78 94.19 24.78C92.02 24.78 90.25 23.01 90.25 20.84L90.25 20.46C90.25 18.29 92.02 16.52 94.19 16.52L202.21 16.52C204.38 16.52 206.15 18.29 206.15 20.46L206.15 20.84C206.15 23.01 204.38 24.78 202.21 24.78Z" fill="#EC1C24"/><path d="M202.21 42.29 94.19 42.29C92.02 42.29 90.25 40.52 90.25 38.35L90.25 37.97C90.25 35.8 92.02 34.03 94.19 34.03L202.21 34.03C204.38 34.03 206.15 35.8 206.15 37.97L206.15 38.35C206.15 40.52 204.38 42.29 202.21 42.29Z" fill="#19CFDD"/><g><path d="M69.74 16.26 71.05 16.26 71.05 24.78 69.74 24.78 69.74 16.26ZM70.56 20.02 75.76 20.02 75.76 21.16 70.56 21.16 70.56 20.02ZM75.06 16.26 76.37 16.26 76.37 24.78 75.06 24.78 75.06 16.26Z" fill="#FFFFFF"/><path d="M78.78 16.26 79.98 16.26 79.98 24.78 78.78 24.78 78.78 16.26ZM79.39 20.34 82.11 20.34C82.37 20.34 82.59 20.28 82.79 20.16 82.99 20.04 83.14 19.87 83.24 19.64 83.34 19.41 83.4 19.16 83.4 18.87 83.4 18.58 83.35 18.32 83.24 18.1 83.13 17.88 82.98 17.7 82.79 17.58 82.6 17.46 82.37 17.4 82.11 17.4L79.39 17.4 79.39 16.26 82.07 16.26C82.58 16.26 83.03 16.37 83.41 16.59 83.79 16.81 84.1 17.11 84.31 17.51 84.52 17.91 84.63 18.36 84.63 18.88 84.63 19.4 84.52 19.86 84.31 20.25 84.1 20.64 83.8 20.95 83.41 21.16 83.02 21.37 82.58 21.48 82.07 21.48L79.39 21.48 79.39 20.34Z" fill="#FFFFFF"/></g><g><path d="M75.76 33.82 76.88 33.82 76.88 42.34 75.71 42.34 75.71 35.96 75.77 36.34 73.67 41.16 72.84 41.16 70.74 36.45 70.8 35.96 70.8 42.34 69.63 42.34 69.63 33.82 70.75 33.82 73.25 39.45 75.76 33.82Z" fill="#FFFFFF"/><path d="M78.64 33.82 79.84 33.82 79.84 42.34 78.64 42.34 78.64 33.82ZM79.25 37.9 81.97 37.9C82.23 37.9 82.45 37.84 82.65 37.72 82.85 37.6 83 37.43 83.1 37.2 83.2 36.97 83.26 36.72 83.26 36.43 83.26 36.14 83.21 35.88 83.1 35.66 82.99 35.44 82.84 35.26 82.65 35.14 82.46 35.02 82.23 34.96 81.97 34.96L79.25 34.96 79.25 33.82 81.93 33.82C82.44 33.82 82.89 33.93 83.27 34.15 83.65 34.37 83.96 34.67 84.17 35.07 84.38 35.47 84.49 35.92 84.49 36.44 84.49 36.96 84.38 37.42 84.17 37.81 83.96 38.2 83.66 38.51 83.27 38.72 82.88 38.93 82.44 39.04 81.93 39.04L79.25 39.04 79.25 37.9Z" fill="#FFFFFF"/></g><g><path d="M25.42 22.04C25.72 21.9 26 21.72 26.28 21.51 26.42 21.41 26.56 21.38 26.7 21.41 26.84 21.44 26.95 21.51 27.04 21.6 27.13 21.7 27.18 21.81 27.19 21.94 27.2 22.07 27.14 22.19 27.02 22.31 26.86 22.46 26.67 22.6 26.44 22.72 26.21 22.84 25.97 22.94 25.72 23.03 25.47 23.11 25.21 23.18 24.95 23.22 24.69 23.26 24.44 23.29 24.21 23.29 23.49 23.29 22.96 23.09 22.64 22.69 22.31 22.29 22.15 21.69 22.15 20.89 22.15 20.52 22.2 20.22 22.29 19.97 22.38 19.73 22.52 19.53 22.7 19.39 22.88 19.25 23.11 19.14 23.38 19.08 23.65 19.02 23.97 18.99 24.33 18.99 24.4 18.99 24.49 19 24.59 19.01 24.69 19.02 24.8 19.03 24.91 19.03 25.06 19.03 25.18 19 25.28 18.93 25.38 18.87 25.45 18.78 25.5 18.68 25.55 18.58 25.59 18.46 25.61 18.32 25.63 18.18 25.64 18.04 25.64 17.89 25.64 17.3 25.32 17.02 24.68 17.06 24.45 17.08 24.2 17.12 23.94 17.18 23.68 17.24 23.45 17.32 23.27 17.41 23.1 17.48 22.95 17.49 22.83 17.45 22.7 17.4 22.61 17.32 22.55 17.22 22.49 17.11 22.48 16.99 22.5 16.85 22.52 16.71 22.61 16.6 22.76 16.51 22.87 16.45 23 16.38 23.17 16.32 23.34 16.26 23.51 16.21 23.69 16.16 23.87 16.11 24.05 16.07 24.22 16.05 24.39 16.02 24.53 16 24.65 16 25.4 15.95 25.96 16.1 26.35 16.45 26.73 16.8 26.92 17.3 26.92 17.94 26.92 18.09 26.9 18.29 26.85 18.53 26.8 18.77 26.74 18.99 26.66 19.18 26.51 19.52 26.28 19.74 25.96 19.84 25.64 19.94 25.24 20 24.75 20 24.49 20 24.28 20.01 24.1 20.04 23.92 20.06 23.78 20.11 23.67 20.18 23.56 20.25 23.48 20.34 23.43 20.45 23.38 20.56 23.36 20.71 23.36 20.88 23.36 21.36 23.44 21.71 23.61 21.92 23.78 22.13 24.06 22.24 24.47 22.24 24.8 22.25 25.13 22.18 25.42 22.04ZM28.52 19.49C28.51 19.06 28.48 18.64 28.41 18.22 28.34 17.8 28.27 17.42 28.17 17.06 28.12 16.88 28.14 16.74 28.24 16.63 28.34 16.52 28.47 16.46 28.62 16.43 28.77 16.41 28.92 16.43 29.08 16.5 29.23 16.57 29.34 16.7 29.39 16.87 29.5 17.26 29.58 17.68 29.63 18.12 29.69 18.56 29.71 19.01 29.71 19.46 29.71 19.91 29.69 20.37 29.64 20.83 29.59 21.29 29.51 21.72 29.41 22.14 29.36 22.32 29.26 22.45 29.11 22.52 28.97 22.59 28.82 22.62 28.67 22.59 28.53 22.57 28.41 22.51 28.31 22.4 28.21 22.29 28.19 22.15 28.24 21.96 28.28 21.79 28.32 21.62 28.35 21.44 28.38 21.26 28.41 21.08 28.44 20.9 27.91 20.97 27.37 21.01 26.82 21.01 26.64 21.01 26.49 20.96 26.4 20.86 26.3 20.76 26.25 20.65 26.24 20.53 26.23 20.41 26.27 20.3 26.37 20.19 26.46 20.09 26.6 20.03 26.79 20.02 27.1 20 27.39 19.99 27.67 19.97 27.95 19.95 28.23 19.92 28.51 19.88L28.51 19.49ZM31.23 15.75C31.39 15.81 31.5 15.93 31.56 16.11 31.9 17.23 32.07 18.41 32.07 19.64 32.07 20.88 31.9 22.06 31.56 23.17 31.5 23.35 31.39 23.48 31.24 23.54 31.09 23.6 30.94 23.62 30.79 23.59 30.64 23.56 30.52 23.48 30.43 23.37 30.34 23.25 30.32 23.1 30.37 22.92 30.7 21.83 30.86 20.74 30.84 19.64 30.82 18.54 30.64 17.45 30.32 16.36 30.27 16.18 30.29 16.04 30.39 15.92 30.49 15.8 30.62 15.73 30.78 15.7 30.93 15.67 31.08 15.69 31.23 15.75Z" fill="#FFFFFF"/><path d="M39.23 16.79C39.46 16.77 39.69 16.73 39.93 16.69 39.91 16.48 39.89 16.28 39.86 16.1 39.83 15.91 39.79 15.73 39.75 15.57 39.7 15.39 39.72 15.25 39.83 15.14 39.94 15.03 40.06 14.97 40.21 14.94 40.36 14.92 40.51 14.94 40.66 15.01 40.81 15.08 40.91 15.21 40.96 15.39 41.02 15.64 41.07 15.9 41.1 16.17 41.13 16.44 41.15 16.73 41.15 17.03 41.15 17.33 41.14 17.62 41.11 17.89 41.08 18.16 41.04 18.42 40.98 18.67 40.94 18.85 40.84 18.98 40.7 19.05 40.56 19.12 40.41 19.15 40.26 19.12 40.11 19.1 39.98 19.03 39.88 18.92 39.78 18.81 39.75 18.67 39.81 18.48 39.88 18.24 39.93 17.97 39.96 17.66 39.49 17.73 39.04 17.78 38.59 17.8 38.57 17.92 38.55 18.04 38.54 18.16 38.53 18.28 38.5 18.4 38.46 18.51 38.31 18.94 38.04 19.3 37.65 19.59 37.26 19.88 36.72 20.03 36.01 20.05 35.38 20.07 34.88 19.94 34.53 19.67 34.18 19.4 33.93 19.06 33.78 18.64 33.64 18.21 33.58 17.74 33.6 17.23 33.62 16.72 33.69 16.23 33.82 15.75 33.86 15.57 33.95 15.45 34.09 15.37 34.23 15.29 34.38 15.26 34.53 15.27 34.68 15.29 34.81 15.36 34.91 15.47 35.01 15.58 35.04 15.74 35.01 15.94 34.93 16.31 34.87 16.68 34.83 17.06 34.79 17.44 34.8 17.78 34.86 18.09 34.91 18.39 35.03 18.64 35.2 18.83 35.38 19.02 35.65 19.1 36.02 19.08 36.39 19.06 36.68 18.97 36.9 18.8 37.12 18.63 37.27 18.4 37.35 18.12 37.39 17.98 37.42 17.83 37.42 17.68 37.31 17.69 37.21 17.7 37.1 17.7 36.99 17.71 36.87 17.72 36.75 17.74 36.58 17.76 36.42 17.78 36.25 17.8 36.09 17.82 35.94 17.84 35.81 17.86 35.63 17.89 35.48 17.87 35.37 17.79 35.26 17.71 35.2 17.61 35.19 17.5 35.16 17.39 35.19 17.28 35.26 17.16 35.33 17.05 35.46 16.97 35.65 16.93 35.85 16.89 36.11 16.86 36.42 16.83 36.73 16.81 37.04 16.79 37.34 16.77 37.31 16.63 37.28 16.5 37.25 16.37 37.22 16.24 37.17 16.1 37.13 15.96 37.06 15.76 37.07 15.6 37.16 15.47 37.25 15.34 37.36 15.27 37.5 15.24 37.65 15.2 37.8 15.21 37.95 15.28 38.1 15.34 38.21 15.46 38.28 15.64 38.34 15.82 38.4 16.01 38.45 16.21 38.5 16.41 38.54 16.61 38.56 16.82 38.78 16.82 39.01 16.8 39.23 16.79ZM41.52 20.76C41.31 20.68 41.06 20.64 40.78 20.64 40.51 20.65 40.23 20.68 39.95 20.73 39.67 20.78 39.47 20.83 39.34 20.88 39.15 20.95 39 20.96 38.86 20.89 38.73 20.83 38.64 20.73 38.61 20.61 38.57 20.49 38.57 20.36 38.64 20.23 38.7 20.09 38.83 19.99 39.02 19.91 39.19 19.85 39.37 19.79 39.58 19.74 39.79 19.69 40 19.66 40.23 19.63 40.45 19.61 40.68 19.6 40.91 19.6 41.14 19.6 41.36 19.62 41.57 19.65 42 19.72 42.37 19.87 42.67 20.11 42.97 20.34 43.12 20.68 43.12 21.12 43.12 21.58 42.99 21.94 42.72 22.22 42.45 22.5 42.06 22.65 41.55 22.67 41.31 22.69 41.06 22.7 40.79 22.72 40.52 22.74 40.27 22.78 40.03 22.83 39.8 22.89 39.61 22.96 39.46 23.06 39.31 23.16 39.24 23.29 39.24 23.46 39.24 23.65 39.36 23.79 39.6 23.87 39.84 23.95 40.12 23.98 40.46 23.95 40.63 23.94 40.82 23.92 41.03 23.9 41.24 23.88 41.45 23.84 41.66 23.79 41.87 23.75 42.08 23.69 42.29 23.63 42.5 23.57 42.69 23.5 42.86 23.43 43.03 23.36 43.18 23.35 43.31 23.41 43.44 23.47 43.53 23.55 43.59 23.66 43.65 23.78 43.67 23.91 43.63 24.05 43.59 24.19 43.5 24.3 43.34 24.39 42.92 24.59 42.45 24.74 41.93 24.83 41.42 24.93 40.92 24.99 40.44 25.01 39.64 25.04 39.03 24.91 38.6 24.63 38.17 24.34 37.96 23.95 37.96 23.47 37.96 23.11 38.06 22.82 38.26 22.59 38.46 22.36 38.72 22.18 39.04 22.06 39.37 21.93 39.73 21.84 40.12 21.78 40.52 21.72 40.91 21.68 41.31 21.66 41.49 21.65 41.63 21.6 41.71 21.52 41.79 21.43 41.84 21.33 41.84 21.21 41.84 20.97 41.73 20.83 41.52 20.76ZM43.37 18.71C43.32 18.89 43.22 19.02 43.07 19.08 42.92 19.14 42.77 19.16 42.62 19.14 42.47 19.11 42.35 19.04 42.26 18.93 42.17 18.82 42.15 18.68 42.21 18.49 42.28 18.27 42.33 18.02 42.36 17.75 42.39 17.48 42.4 17.2 42.39 16.92 42.38 16.64 42.35 16.37 42.3 16.1 42.25 15.83 42.19 15.58 42.12 15.35 42.07 15.17 42.09 15.03 42.19 14.92 42.29 14.81 42.42 14.74 42.58 14.7 42.73 14.68 42.88 14.7 43.04 14.77 43.2 14.84 43.3 14.96 43.36 15.14 43.43 15.4 43.49 15.68 43.53 15.99 43.57 16.3 43.59 16.61 43.59 16.93 43.59 17.24 43.57 17.55 43.53 17.87 43.5 18.17 43.44 18.45 43.37 18.71Z" fill="#FFFFFF"/></g></g><g><g><linearGradient x1="308.426" y1="57.0413" x2="362.835" y2="2.6324" gradientUnits="userSpaceOnUse" id="SVGID_2_"><stop offset="0"/><stop offset="0.2976" stop-color="#6D6E70"/><stop offset="0.5463"/><stop offset="0.7659" stop-color="#808184"/><stop offset="1"/></linearGradient><path d="M356.69 57.17 314.57 57.17C311.27 57.17 308.57 54.47 308.57 51.17L308.57 8.5C308.57 5.2 311.27 2.5 314.57 2.5L356.69 2.5C359.99 2.5 362.69 5.2 362.69 8.5L362.69 51.17C362.69 54.47 359.99 57.17 356.69 57.17Z" fill="#F1F1F2"/><path d="M356.69 57.17 314.57 57.17C311.27 57.17 308.57 54.47 308.57 51.17L308.57 8.5C308.57 5.2 311.27 2.5 314.57 2.5L356.69 2.5C359.99 2.5 362.69 5.2 362.69 8.5L362.69 51.17C362.69 54.47 359.99 57.17 356.69 57.17Z" stroke="url(#SVGID_2_)" stroke-width="5" stroke-miterlimit="10" fill="#FFFFFF"/><path d="M356.69 57.17 314.57 57.17C311.27 57.17 308.57 54.47 308.57 51.17L308.57 8.5C308.57 5.2 311.27 2.5 314.57 2.5L356.69 2.5C359.99 2.5 362.69 5.2 362.69 8.5L362.69 51.17C362.69 54.47 359.99 57.17 356.69 57.17Z" stroke="#FFFFFF" stroke-miterlimit="10" fill="#2D2D2D"/></g><g><linearGradient x1="375.187" y1="57.0413" x2="429.596" y2="2.6324" gradientUnits="userSpaceOnUse" id="SVGID_3_"><stop offset="0"/><stop offset="0.2976" stop-color="#6D6E70"/><stop offset="0.5463"/><stop offset="0.7659" stop-color="#808184"/><stop offset="1"/></linearGradient><path d="M423.45 57.17 381.33 57.17C378.03 57.17 375.33 54.47 375.33 51.17L375.33 8.5C375.33 5.2 378.03 2.5 381.33 2.5L423.45 2.5C426.75 2.5 429.45 5.2 429.45 8.5L429.45 51.17C429.45 54.47 426.75 57.17 423.45 57.17Z" fill="#F1F1F2"/><path d="M423.45 57.17 381.33 57.17C378.03 57.17 375.33 54.47 375.33 51.17L375.33 8.5C375.33 5.2 378.03 2.5 381.33 2.5L423.45 2.5C426.75 2.5 429.45 5.2 429.45 8.5L429.45 51.17C429.45 54.47 426.75 57.17 423.45 57.17Z" stroke="url(#SVGID_3_)" stroke-width="5" stroke-miterlimit="10" fill="#FFFFFF"/><path d="M423.45 57.17 381.33 57.17C378.03 57.17 375.33 54.47 375.33 51.17L375.33 8.5C375.33 5.2 378.03 2.5 381.33 2.5L423.45 2.5C426.75 2.5 429.45 5.2 429.45 8.5L429.45 51.17C429.45 54.47 426.75 57.17 423.45 57.17Z" stroke="#FFFFFF" stroke-miterlimit="10" fill="#2D2D2D"/></g><g><linearGradient x1="441.948" y1="57.0413" x2="496.357" y2="2.6324" gradientUnits="userSpaceOnUse" id="SVGID_4_"><stop offset="0"/><stop offset="0.2976" stop-color="#6D6E70"/><stop offset="0.5463"/><stop offset="0.7659" stop-color="#808184"/><stop offset="1"/></linearGradient><path d="M490.21 57.17 448.09 57.17C444.79 57.17 442.09 54.47 442.09 51.17L442.09 8.5C442.09 5.2 444.79 2.5 448.09 2.5L490.21 2.5C493.51 2.5 496.21 5.2 496.21 8.5L496.21 51.17C496.21 54.47 493.51 57.17 490.21 57.17Z" fill="#F1F1F2"/><path d="M490.21 57.17 448.09 57.17C444.79 57.17 442.09 54.47 442.09 51.17L442.09 8.5C442.09 5.2 444.79 2.5 448.09 2.5L490.21 2.5C493.51 2.5 496.21 5.2 496.21 8.5L496.21 51.17C496.21 54.47 493.51 57.17 490.21 57.17Z" stroke="url(#SVGID_4_)" stroke-width="5" stroke-miterlimit="10" fill="#FFFFFF"/><path d="M490.21 57.17 448.09 57.17C444.79 57.17 442.09 54.47 442.09 51.17L442.09 8.5C442.09 5.2 444.79 2.5 448.09 2.5L490.21 2.5C493.51 2.5 496.21 5.2 496.21 8.5L496.21 51.17C496.21 54.47 493.51 57.17 490.21 57.17Z" stroke="#FFFFFF" stroke-miterlimit="10" fill="#2D2D2D"/></g><g><linearGradient x1="508.709" y1="57.0413" x2="563.118" y2="2.6324" gradientUnits="userSpaceOnUse" id="SVGID_5_"><stop offset="0"/><stop offset="0.2976" stop-color="#6D6E70"/><stop offset="0.5463"/><stop offset="0.7659" stop-color="#808184"/><stop offset="1"/></linearGradient><path d="M556.97 57.17 514.85 57.17C511.55 57.17 508.85 54.47 508.85 51.17L508.85 8.5C508.85 5.2 511.55 2.5 514.85 2.5L556.97 2.5C560.27 2.5 562.97 5.2 562.97 8.5L562.97 51.17C562.97 54.47 560.27 57.17 556.97 57.17Z" fill="#F1F1F2"/><path d="M556.97 57.17 514.85 57.17C511.55 57.17 508.85 54.47 508.85 51.17L508.85 8.5C508.85 5.2 511.55 2.5 514.85 2.5L556.97 2.5C560.27 2.5 562.97 5.2 562.97 8.5L562.97 51.17C562.97 54.47 560.27 57.17 556.97 57.17Z" stroke="url(#SVGID_5_)" stroke-width="5" stroke-miterlimit="10" fill="#FFFFFF"/><path d="M556.97 57.17 514.85 57.17C511.55 57.17 508.85 54.47 508.85 51.17L508.85 8.5C508.85 5.2 511.55 2.5 514.85 2.5L556.97 2.5C560.27 2.5 562.97 5.2 562.97 8.5L562.97 51.17C562.97 54.47 560.27 57.17 556.97 57.17Z" stroke="#FFFFFF" stroke-miterlimit="10" fill="#2D2D2D"/></g><g><linearGradient x1="241.666" y1="57.0413" x2="296.075" y2="2.6324" gradientUnits="userSpaceOnUse" id="SVGID_6_"><stop offset="0"/><stop offset="0.2976" stop-color="#6D6E70"/><stop offset="0.5463"/><stop offset="0.7659" stop-color="#808184"/><stop offset="1"/></linearGradient><path d="M289.93 57.17 247.81 57.17C244.51 57.17 241.81 54.47 241.81 51.17L241.81 8.5C241.81 5.2 244.51 2.5 247.81 2.5L289.93 2.5C293.23 2.5 295.93 5.2 295.93 8.5L295.93 51.17C295.93 54.47 293.23 57.17 289.93 57.17Z" fill="#F1F1F2"/><path d="M289.93 57.17 247.81 57.17C244.51 57.17 241.81 54.47 241.81 51.17L241.81 8.5C241.81 5.2 244.51 2.5 247.81 2.5L289.93 2.5C293.23 2.5 295.93 5.2 295.93 8.5L295.93 51.17C295.93 54.47 293.23 57.17 289.93 57.17Z" stroke="url(#SVGID_6_)" stroke-width="5" stroke-miterlimit="10" fill="#FFFFFF"/><path d="M289.93 57.17 247.81 57.17C244.51 57.17 241.81 54.47 241.81 51.17L241.81 8.5C241.81 5.2 244.51 2.5 247.81 2.5L289.93 2.5C293.23 2.5 295.93 5.2 295.93 8.5L295.93 51.17C295.93 54.47 293.23 57.17 289.93 57.17Z" stroke="#FFFFFF" stroke-miterlimit="10" fill="#2D2D2D"/></g></g></svg>