<svg width="34.76" height="31.37" viewBox="0 0 34.76 31.37" xmlns="http://www.w3.org/2000/svg" xmlns:xlink="http://www.w3.org/1999/xlink" overflow="hidden"><defs></defs><g><g><path d="M6.9 3.28C6.16 2.37 5.68 1.24 5.59 0 4.1 1.07 3.13 2.8 3.11 4.77 3.11 5.29 3.18 5.79 3.3 6.27 3.83 5.42 4.91 4.14 6.9 3.28Z" fill="#E4E0E1"/><path d="M14.95 4.36C13.96 5.07 12.76 5.49 11.45 5.48 9.6 5.46 7.97 4.61 6.9 3.28 4.91 4.14 3.83 5.42 3.3 6.27 3.94 8.82 6.24 10.72 8.99 10.74 12.26 10.77 14.94 8.13 14.96 4.86 14.97 4.69 14.96 4.52 14.95 4.36Z" fill="#8E5A4F"/></g><g><path d="M27.88 3.28C28.62 2.37 29.09 1.24 29.19 0 30.67 1.07 31.65 2.79 31.67 4.76 31.67 5.28 31.61 5.78 31.48 6.26 30.94 5.41 29.86 4.14 27.88 3.28Z" fill="#E4E0E1"/><path d="M19.83 4.37C20.82 5.08 22.02 5.5 23.33 5.48 25.17 5.46 26.8 4.61 27.88 3.28 29.87 4.14 30.95 5.42 31.48 6.26 30.84 8.81 28.54 10.71 25.79 10.74 22.52 10.77 19.84 8.14 19.81 4.86 19.81 4.7 19.82 4.53 19.83 4.37Z" fill="#8E5A4F"/></g><g><rect x="0" y="17.33" width="6.24" height="14.04" fill="#8E5A4F"/><g><path d="M17.39 2.33C7.97 2.33 0.3 9 0.01 17.33L34.76 17.33C34.47 9 26.81 2.33 17.39 2.33Z" fill="#8E5A4F"/></g><g><path d="M1.19 12.19C0.91 12.83 0.68 13.49 0.49 14.17L34.28 14.17C34.1 13.49 33.86 12.83 33.58 12.19L1.19 12.19Z" fill="#E4E0E1"/></g><circle cx="2.79" cy="20.75" r="0.94" fill="#E4E0E1"/><circle cx="2.79" cy="24.39" r="0.94" fill="#E4E0E1"/><circle cx="2.79" cy="28.02" r="0.94" fill="#E4E0E1"/></g><path d="M3.62 10.74C4.56 10.74 5.05 10.37 5.48 10.04 5.9 9.73 6.26 9.45 7.01 9.45 7.77 9.45 8.13 9.72 8.54 10.04 8.97 10.37 9.46 10.74 10.4 10.74 11.34 10.74 11.83 10.37 12.26 10.04 12.68 9.73 13.04 9.45 13.79 9.45 14.54 9.45 14.91 9.72 15.32 10.04 15.75 10.37 16.24 10.74 17.18 10.74 18.12 10.74 18.61 10.37 19.04 10.04 19.46 9.73 19.82 9.45 20.57 9.45 21.33 9.45 21.69 9.72 22.1 10.04 22.53 10.37 23.02 10.74 23.96 10.74 24.9 10.74 25.39 10.37 25.82 10.04 26.24 9.73 26.6 9.45 27.35 9.45 28.11 9.45 28.47 9.72 28.88 10.04 29.31 10.37 29.8 10.74 30.74 10.74 31.59 10.74 32.07 10.44 32.48 10.14 32.38 9.99 32.28 9.84 32.18 9.69 31.8 9.97 31.44 10.2 30.74 10.2 29.98 10.2 29.62 9.93 29.21 9.61 28.78 9.28 28.29 8.91 27.35 8.91 26.41 8.91 25.92 9.28 25.49 9.61 25.07 9.92 24.71 10.2 23.96 10.2 23.2 10.2 22.84 9.93 22.43 9.61 22 9.28 21.51 8.91 20.57 8.91 19.63 8.91 19.14 9.28 18.71 9.61 18.29 9.92 17.93 10.2 17.18 10.2 16.42 10.2 16.06 9.93 15.65 9.61 15.22 9.28 14.73 8.91 13.79 8.91 12.85 8.91 12.36 9.28 11.93 9.61 11.51 9.92 11.15 10.2 10.4 10.2 9.65 10.2 9.28 9.93 8.86 9.61 8.43 9.28 7.94 8.91 7 8.91 6.06 8.91 5.57 9.28 5.14 9.61 4.73 9.93 4.37 10.2 3.62 10.2 3.09 10.2 2.76 10.07 2.47 9.88 2.37 10.03 2.27 10.18 2.18 10.33 2.52 10.56 2.96 10.74 3.62 10.74Z" fill="#E4E0E1"/></g></svg>