<svg width="31.69" height="38.42" viewBox="0 0 31.69 38.42" xmlns="http://www.w3.org/2000/svg" xmlns:xlink="http://www.w3.org/1999/xlink" overflow="hidden"><defs></defs><g><g><g><path d="M31.69 5.25 31.37 0 8.49 28.44 11.25 30.66Z" fill="#AAAAA9"/><path d="M26.18 0.81 6.48 25.3 9.24 27.52 31.37 0Z" fill="#E4E0E1"/></g><path d="M13.91 29.75 6.06 23.43C5.6 23.06 4.92 23.13 4.55 23.59L4.4 23.77C4.03 24.23 4.1 24.91 4.56 25.28L12.41 31.6C12.87 31.97 13.55 31.9 13.92 31.44L14.06 31.27C14.44 30.81 14.37 30.12 13.91 29.75Z" fill="#515151"/><rect x="3.28" y="26.26" width="4.53" height="12.07" fill="#515151" transform="matrix(0.7792 0.6268 -0.6268 0.7792 21.466 3.6535)"/><rect x="5.24" y="29.04" width="4.53" height="1.63" fill="#714134" transform="matrix(0.7792 0.6268 -0.6268 0.7792 20.3702 1.8847)"/></g></g></svg>