<svg width="29.88" height="35.2" viewBox="0 0 29.88 35.2" xmlns="http://www.w3.org/2000/svg" xmlns:xlink="http://www.w3.org/1999/xlink" overflow="hidden"><defs></defs><g><g><path d="M27.88 1.14 2 1.14 14.94 19.04Z" fill="#404041"/></g><g><path d="M27.88 0 2 0 14.94 17.6Z" fill="#F2F2F2"/><path d="M27.88 0 14.94 17.6 14.94 35.2C19.13 35.2 27.25 29.75 28.9 25.89 31.59 19.61 27.88 0 27.88 0Z" fill="#D1D1D1"/><path d="M2 0C2 0-1.71 19.61 0.98 25.89 2.63 29.75 10.74 35.2 14.94 35.2L14.94 17.6 2 0Z" fill="#E4E0E1"/></g><path d="M14.94 32.34C11.92 32.34 4.82 27.6 3.61 24.77 2.07 21.18 3.16 10.29 4.4 2.86L25.48 2.86C26.71 10.29 27.8 21.17 26.27 24.76 25.05 27.6 17.96 32.34 14.94 32.34Z" fill="#BCBCBC"/><path d="M14.94 31.48C12.27 31.48 5.47 26.93 4.4 24.43 3.1 21.39 3.85 11.72 5.13 3.72L24.75 3.72C26.03 11.71 26.78 21.38 25.48 24.43 24.4 26.93 17.61 31.48 14.94 31.48Z" fill="#FFD522"/><g><path d="M25.54 24.25C26.75 21.04 26.01 11.58 24.75 3.72L14.94 3.72 14.94 24.25 25.54 24.25Z" fill="#FFD522"/><path d="M14.94 3.72 5.13 3.72C3.87 11.58 3.13 21.04 4.34 24.25L14.94 24.25 14.94 3.72Z" fill="#FFC024"/><path d="M14.94 24.25 14.94 31.48C14.94 31.48 14.94 31.48 14.94 31.48 17.61 31.48 24.41 26.93 25.48 24.43 25.5 24.38 25.52 24.31 25.54 24.26L14.94 24.26Z" fill="#FFC024"/><path d="M4.34 24.25C4.36 24.31 4.38 24.37 4.4 24.43 5.47 26.93 12.27 31.48 14.94 31.48L14.94 24.25 4.34 24.25Z" fill="#FFD522"/></g><g><circle cx="14.94" cy="9.48" r="1.85" fill="#E4E0E1"/><circle cx="14.94" cy="9.48" r="1.35" fill="#BCBCBC"/></g><g><circle cx="14.94" cy="15.42" r="1.85" fill="#E4E0E1"/><circle cx="14.94" cy="15.42" r="1.35" fill="#BCBCBC"/></g><g><circle cx="14.94" cy="21.36" r="1.85" fill="#E4E0E1"/><circle cx="14.94" cy="21.36" r="1.35" fill="#BCBCBC"/></g></g></svg>