<svg width="126.84" height="105.55" viewBox="0 0 126.84 105.55" xmlns="http://www.w3.org/2000/svg" xmlns:xlink="http://www.w3.org/1999/xlink" overflow="hidden"><defs></defs><g><g><g><path d="M126.84 92.94C126.84 92.94 121.88 100.61 117.03 102.08 112.18 103.55 107.47 102.23 106.53 99.11 105.58 96 108.75 92.28 113.61 90.8 118.45 89.33 126.84 92.94 126.84 92.94Z" fill="#EC1C24"/><path d="M78.62 57.34C78.62 57.34 79.51 87.47 89.29 91.91 95.76 94.85 107.27 95.07 114.34 94.88 116.59 94.82 117.45 97.76 115.55 98.96 111.63 101.44 104.98 104.06 94.38 104.06 74.19 104.06 66.48 99.91 65.3 87.76 64.1 75.62 78.62 57.34 78.62 57.34Z" fill="#FFA50A"/><circle cx="13.45" cy="18.5" r="10.54" fill="#FFA50A"/><path d="M55.21 95.18C55.21 95.18 57.34 105.55 60.27 105.55 63.21 105.55 65.28 91.92 65.28 91.92L55.21 95.18Z" fill="#FA870A"/><path d="M32.71 95.18C32.71 95.18 30.58 105.55 27.65 105.55 24.71 105.55 22.64 91.92 22.64 91.92L32.71 95.18Z" fill="#FA870A"/><path d="M15.94 57.77C15.94 57.77 1.84 65.78 0.14 63.38-1.56 60.98 12.78 47.66 12.78 47.66L15.94 57.77Z" fill="#FFA50A"/><ellipse cx="12.06" cy="18.74" rx="7.87" ry="7.87" fill="#FFFFFF" transform="matrix(0.2307 -0.973 0.973 0.2307 -8.9489 26.1514)"/><path d="M80.54 68.27C80.54 94.15 64.59 100.53 44.92 100.53 25.25 100.53 9.3 94.15 9.3 68.27 9.3 42.39 25.24 6.8 44.92 6.8 64.6 6.8 80.54 42.38 80.54 68.27Z" fill="#FFA50A"/><path d="M5.85 19.03C5.85 19.03 9.73 22.79 14.31 19.03" stroke="#231F20" stroke-linecap="round" stroke-miterlimit="10" fill="#FFFFFF"/><path d="M44.92 94.22C26.04 94.22 10.59 88.33 9.38 64.97 9.32 66.08 9.29 67.19 9.29 68.27 9.29 94.15 25.24 100.53 44.91 100.53 64.58 100.53 80.53 94.15 80.53 68.27 80.53 67.19 80.5 66.08 80.44 64.97 79.24 88.33 63.8 94.22 44.92 94.22Z" fill="#FA870A"/><ellipse cx="34.9" cy="57.34" rx="16.6" ry="25.91" fill="#FFE65A"/><ellipse cx="35.46" cy="25.03" rx="26.16" ry="25.03" fill="#FFA50A"/><path d="M7.2 28.4C10.35 43.79 21.03 51.65 33.74 51.65 46.45 51.65 57.13 43.8 60.28 28.4L7.2 28.4Z" fill="#FA870A"/><ellipse cx="44.92" cy="18.74" rx="7.87" ry="7.87" fill="#FFFFFF" transform="matrix(0.2307 -0.973 0.973 0.2307 16.3244 58.1186)"/><path d="M30.53 28.4C30.53 28.4 31.45 22.34 32.64 22.34 33.83 22.34 34.89 28.4 34.89 28.4L30.53 28.4Z" fill="#FFFFFF"/><path d="M12.61 28.4C12.61 28.4 13.53 22.34 14.72 22.34 15.91 22.34 16.97 28.4 16.97 28.4L12.61 28.4Z" fill="#FFFFFF"/><path d="M60.1 57.77C60.1 57.77 46 65.78 44.3 63.38 42.6 60.98 56.94 47.66 56.94 47.66L60.1 57.77Z" fill="#FFA50A"/></g></g><path d="M41.43 18.74C41.43 18.74 45.31 22.5 49.89 18.74" stroke="#231F20" stroke-linecap="round" stroke-miterlimit="10" fill="#FFFFFF"/></g></svg>