<svg width="108.1" height="68.8" viewBox="0 0 108.1 68.8" xmlns="http://www.w3.org/2000/svg" xmlns:xlink="http://www.w3.org/1999/xlink" overflow="hidden"><defs></defs><g><g><g><g><path d="M33.92 61.64C33.92 61.64 30.62 67.92 32.33 68.75 34.05 69.59 42.07 60.8 42.07 60.8L33.92 61.64Z" fill="#FF9669"/></g><g><path d="M74.36 61.64C74.36 61.64 77.66 67.92 75.95 68.75 74.23 69.59 66.21 60.8 66.21 60.8L74.36 61.64Z" fill="#FF9669"/></g><g><path d="M81.18 24.82C81.18 24.82 90.95 8.31 95.56 8.2 100.16 8.09 108.11 28.89 108.11 28.89 108.11 28.89 101.21 25.87 99.11 27.75 99.11 27.75 93.25 19.8 90.32 21.47 87.39 23.14 81.17 26.79 81.17 26.79L81.17 24.82Z" fill="#FF9669"/></g><g><path d="M26.93 24.82C26.93 24.82 17.16 8.31 12.55 8.2 7.95 8.08 0 28.88 0 28.88 0 28.88 6.9 25.86 9 27.74 9 27.74 14.86 19.79 17.79 21.46 20.72 23.13 26.94 26.78 26.94 26.78L26.94 24.82Z" fill="#FF9669"/></g><g><path d="M74.22 62.95C60.55 64.48 47.13 64.57 33.97 63.04 28.58 62.42 24.66 57.61 25.02 52.2L27.91 8.19 80.36 8.19 83.25 52.1C83.61 57.54 79.65 62.35 74.22 62.95Z" fill="#FFD740"/></g><path d="M83.1 49.82C82.32 54.17 78.79 57.67 74.22 58.18 60.55 59.71 47.13 59.8 33.97 58.27 29.43 57.74 25.94 54.25 25.17 49.92L25.02 52.2C24.66 57.61 28.58 62.42 33.97 63.04 47.12 64.56 60.55 64.47 74.22 62.95 79.64 62.34 83.61 57.54 83.25 52.09L83.1 49.82Z" fill="#FFAB40"/><g><g><path d="M87.28 8.87C84.41 11.74 77.68 11.67 77.68 11.67 77.68 11.67 77.83 5.16 80.7 2.29 83.57-0.58 86.26-0.54 88.08 1.28 89.89 3.09 90.15 6 87.28 8.87Z" fill="#FFD740"/></g><g><path d="M20.99 8.87C23.86 11.74 30.59 11.67 30.59 11.67 30.59 11.67 30.44 5.16 27.57 2.29 24.7-0.58 22.01-0.54 20.19 1.28 18.37 3.1 18.12 6 20.99 8.87Z" fill="#FFD740"/></g></g><g><path d="M60.28 39.91C60.28 40.53 57.53 41.03 54.14 41.03 50.75 41.03 48 40.53 48 39.91 48 39.29 50.75 38.79 54.14 38.79 57.53 38.79 60.28 39.29 60.28 39.91Z" fill="#FFE65A"/></g><g><path d="M35.22 32.34C35.22 32.34 33.01 36.56 33.92 37.4 34.82 38.24 39.48 32.47 39.48 32.47L35.22 32.34Z" fill="#FFFFFF"/></g><g><path d="M68.8 32.46 73.45 32.44C73.45 32.44 75.27 36.56 74.37 37.39" fill="#FFFFFF"/></g><g><path d="M54.14 30.43C42.63 30.43 30.41 32.19 30.41 35.46L31.25 35.46C31.25 33.48 40.65 31.28 54.14 31.28 67.63 31.28 77.03 33.49 77.03 35.46L77.87 35.46C77.87 32.19 65.65 30.43 54.14 30.43Z" fill="#404041"/></g></g></g><g><line x1="40.69" y1="25.84" x2="48" y2="18.54" stroke="#231F20" stroke-linecap="round" stroke-miterlimit="10" fill="#FFFFFF"/><line x1="40.69" y1="18.54" x2="48" y2="25.84" stroke="#231F20" stroke-linecap="round" stroke-miterlimit="10" fill="#FFFFFF"/></g><g><line x1="59.56" y1="25.84" x2="66.86" y2="18.54" stroke="#231F20" stroke-linecap="round" stroke-miterlimit="10" fill="#FFFFFF"/><line x1="59.56" y1="18.54" x2="66.86" y2="25.84" stroke="#231F20" stroke-linecap="round" stroke-miterlimit="10" fill="#FFFFFF"/></g><g><path d="M49.48 51.45 40.13 47.24C38.76 46.62 38.14 44.99 38.76 43.62L38.76 43.62C39.38 42.25 41.01 41.63 42.38 42.25L51.73 46.46C53.1 47.08 53.72 48.71 53.1 50.08L53.1 50.08C52.48 51.45 50.85 52.07 49.48 51.45Z" fill="#FFFFFF"/><rect x="42.45" y="44.11" width="6.94" height="5.48" fill="#DDDDDD" transform="matrix(0.912 0.4103 -0.4103 0.912 23.265 -14.718)"/></g></g></svg>