<svg width="87.35" height="91.01" viewBox="0 0 87.35 91.01" xmlns="http://www.w3.org/2000/svg" xmlns:xlink="http://www.w3.org/1999/xlink" overflow="hidden"><defs></defs><g><path d="M21.76 26.53C21.7 26.93 21.55 27.34 21.5 27.77 21.44 28.25 21.45 28.76 21.32 29.22L21.25 29.25C21.49 29.38 22.09 29.11 22.4 29.11 22.81 29.1 23.32 29.32 23.24 28.78 23.1 27.84 22.2 27.29 21.76 26.53Z" fill="#592B06"/><path d="M69.45 33.08C68.83 33.38 68.18 33.59 67.69 34.11 67.24 34.59 66.99 35.01 67.65 35.38 68.11 35.64 68.62 35.72 69.14 35.76 69.7 35.79 70.22 35.65 70.68 35.95 70.72 34.73 70.95 33.48 70.95 32.3 70.64 32.2 69.78 32.92 69.45 33.08Z" fill="#592B06"/><g><g><path d="M86.41 41.81 85.11 41.45C82.27 40.57 78.98 40.49 75.98 40.26 69.31 39.74 62.88 40.72 56.85 43.48 50.52 46.38 43.32 51.81 40.87 58.73 39.16 63.59 37.83 69.24 38.48 74.45 39.17 79.96 41.93 85.45 41.74 91.01 44.8 90.41 47.25 86.76 50.46 85.77 50.46 85.77 52.86 87.45 56.08 84.78 60.43 81.17 64.83 76.99 69.92 75.69 75.57 74.25 77.96 68.34 80.97 66.6 83.52 60.99 80.47 59.72 82.9 55.56 85.97 50.3 84.71 46.29 86.41 41.81Z" fill="#6D390A"/><path d="M58.72 63.82C57.78 66.39 57.56 71.57 56.85 74.22 56.16 76.76 55.51 79.33 55.03 81.92 54.86 82.86 54.69 83.8 54.62 84.75 54.58 85.33 54.64 85.54 54.63 85.56 54.66 85.61 54.68 85.65 54.71 85.7 55.15 85.48 55.61 85.19 56.09 84.78 57.61 83.52 59.13 82.2 60.69 80.95 60.85 78.87 61.26 76.77 61.63 74.67 62.06 72.22 62.66 69.31 61.73 66.91 61.31 65.85 58.72 63.82 58.72 63.82Z" fill="#592B06"/><path d="M59.72 81.73C60 79.96 60.34 78.2 60.65 76.42 61.13 73.62 59.33 68.57 58.81 66.12 58.63 72.3 58.28 79.36 56.49 84.43 57.56 83.54 58.64 82.63 59.72 81.73Z" fill="#471F04"/><path d="M86.41 41.81 85.11 41.45C85.03 41.42 84.94 41.4 84.85 41.38 83.05 42.34 81.32 43.4 79.61 44.53 80.84 44.58 81.94 44.9 83.11 45.33 84.4 45.79 84.65 47.29 84.01 48.19 82.57 53.77 77.43 57.29 76.06 62.9 75.26 66.19 75.08 69.58 74.75 72.95 77.28 70.66 78.99 67.73 80.96 66.59 83.51 60.98 80.46 59.71 82.89 55.55 85.97 50.3 84.71 46.29 86.41 41.81Z" fill="#592B06"/><path d="M84.43 52.05C82.87 54.62 81.13 57.08 79.36 59.51 78.33 63.03 77.22 66.52 76.27 70.06 77.92 67.33 79.85 64.92 82.04 62.69 82.22 60.04 81.17 58.53 82.9 55.56 83.62 54.33 84.1 53.17 84.43 52.05Z" fill="#471F04"/><path d="M41.98 63.92C41.86 63.93 41.74 63.93 41.63 63.92 41.22 70.42 40.97 76.93 40.63 83.43 41.29 85.95 41.82 88.47 41.73 91.01 43.17 90.72 44.48 89.77 45.79 88.72 45.77 88.31 45.76 87.9 45.74 87.48 45.66 85.56 45.63 83.54 45.04 81.69 44.54 80.14 43.61 78.61 43.36 76.99 42.53 71.55 44.65 67.18 47.96 63.29 46.02 63.59 44.02 63.69 41.98 63.92Z" fill="#592B06"/><path d="M63.52 78.8C64.67 78.01 65.85 77.3 67.07 76.73 67.19 75.34 67.34 73.95 67.55 72.57 68.06 69.22 69.15 66.52 70.33 63.39 71.38 60.59 70.77 57.56 71.79 54.8 72.59 52.62 73.66 50.68 74.28 48.53 72.97 49.25 71.33 49.68 70 49.64 68.37 49.58 66.71 49.31 65.12 49.82 65.22 49.79 60.47 50.83 61.63 51.39 61.94 51.41 63.2 51.81 63.46 51.93 63.61 51.99 67.25 51.94 67.25 51.94 64.43 58.22 64.79 67.55 64.12 74.26 63.95 75.79 63.76 77.31 63.52 78.8Z" fill="#592B06"/><path d="M63.52 78.8C63.81 78.6 64.11 78.4 64.4 78.21 64.61 75.52 65.04 72.85 65.4 70.16 65.79 67.27 65.98 64.35 66.62 61.5 67.72 56.6 68.94 53.15 72.93 49.96 73.25 49.7 73.6 49.58 73.94 49.55 74.06 49.21 74.17 48.87 74.27 48.53 72.96 49.25 71.32 49.68 69.99 49.64 68.36 49.58 66.7 49.31 65.11 49.82 65.21 49.79 60.46 50.83 61.62 51.39 61.93 51.41 63.19 51.81 63.45 51.93 63.6 51.99 67.24 51.94 67.24 51.94 64.42 58.22 64.78 67.55 64.11 74.26 63.95 75.79 63.76 77.31 63.52 78.8Z" fill="#471F04"/><path d="M52.97 70.31C54.41 66.76 54.09 63.17 56.66 59.69 57.25 58.9 61.19 54.53 61.37 53.6 58.58 54.54 50.4 59.74 48.8 62.29 49.02 65.18 49.22 68.09 49.08 70.99 48.94 73.91 48.47 76.78 48.73 79.71 48.93 81.86 49.24 84.03 49.45 86.19 49.72 86.05 49.99 85.94 50.27 85.84 50.16 83.55 50.8 81.34 51.22 79.05 51.78 76.03 51.79 73.21 52.97 70.31Z" fill="#592B06"/><path d="M55.95 57.24C55.97 57.1 55.99 56.96 56.02 56.82 53.23 57.76 50.39 59.73 48.79 62.29 49.01 65.18 49.21 68.09 49.07 70.99 48.93 73.91 48.46 76.78 48.72 79.71 48.92 81.86 49.23 84.03 49.44 86.19 49.68 86.07 49.92 85.97 50.17 85.88 50.08 80.47 50.13 75.06 50.46 69.66 50.77 64.49 53.26 61.38 55.95 57.24Z" fill="#471F04"/><path d="M41.77 59.16C39.61 52.78 30.29 46.9 24.55 44.04 18.81 41.18 10.95 41.01 4.66 40.56 2.96 40.44 1.61 40.33 0.12 39.8 0 44.85 0.05 50.27 2.31 54.65 3.24 56.45 4.12 63.23 6.07 67.13 7.38 69.76 8.81 69.21 10.98 70.15 14.38 71.62 15.98 76.53 21.72 79.87 23.77 81.06 25 84 29.28 85.54 31.74 86.42 34.77 85.94 34.77 85.94 37.25 87.01 37.28 89.35 41.75 91.02 42 85.98 41.68 80.8 41.8 75.44 41.92 70.6 43.29 63.67 41.77 59.16Z" fill="#915922"/><path d="M18.09 77.12C19.1 78.08 20.27 79.02 21.71 79.86 22.95 80.58 23.89 81.93 25.37 83.23 24.33 80.49 23.36 77.73 22.74 74.87 21.93 71.15 21.68 67.23 20.76 63.53 20.75 63.57 20.74 63.6 20.74 63.64 21.22 65.51 21.4 67.83 21.1 70.08 21.06 73.2 20.34 76.07 18.09 77.12Z" fill="#6D390A"/><path d="M41.95 64.64C41.2 64.03 40.03 63.08 39.02 62.82 39.03 62.9 39.05 62.99 39.06 63.1 39.1 63.23 39.13 63.35 39.18 63.48 39.31 63.6 39.43 63.73 39.54 63.89 42.35 68.05 41.07 72.99 41.13 77.67 41.18 81.71 41.61 85.73 41.8 89.76 41.96 85.12 41.7 80.35 41.81 75.44 41.88 72.39 42.45 68.52 42.48 64.95 42.3 64.87 42.12 64.78 41.95 64.64Z" fill="#AA692E"/><path d="M38.08 88.82C37.88 85.47 37.55 82.12 37.51 78.75 37.49 77.21 37.66 75.55 37.77 73.88 36.97 71.07 36.16 68.28 35.85 65.37 35.18 63.32 34.6 61 36.06 59.9 36.45 59.6 36.86 59.4 37.27 59.27 37.02 59.1 36.74 58.96 36.43 58.85 35.34 59.44 34.16 59.83 32.91 60.03 34.88 65.93 35.67 72.08 35.42 78.23 35.44 78.29 35.47 78.35 35.49 78.4 35.79 79.47 35.51 80.7 35.27 81.77 35.28 81.86 35.29 81.96 35.29 82.06 35.25 83.43 35.18 84.74 34.96 86.03 36.3 86.68 36.92 87.74 38.08 88.82Z" fill="#AA692E"/><path d="M0.69 39.98C0.5 39.92 0.31 39.86 0.12 39.79 0 44.85 0.05 50.27 2.31 54.65 3.24 56.45 4.12 63.23 6.07 67.13 6.83 68.66 7.63 69.11 8.58 69.41 6.62 65.07 3.03 58.43 5.4 54.16 4.11 53.21 2.22 50.81 2.22 50.81 2.21 51.2 1.35 48.26 1.25 45.11 1.23 43.66 1.27 42.23 1.47 40.78 1.19 40.54 0.93 40.27 0.69 39.98Z" fill="#AA692E"/><path d="M15 73.75C15.15 71.5 15.37 69.25 15.43 66.99 15.57 61.85 13.44 56.82 15.46 51.88 15.05 51.46 14.7 51.03 14.4 50.57 13.3 49.9 12.34 49.03 11.2 48.49 11.16 49.21 11.08 49.92 10.98 50.62 10.98 50.7 10.99 50.78 11 50.86 11.97 53.75 12.38 56.71 12.82 59.77 12.88 59.91 12.93 60.06 12.96 60.24 13.08 60.97 13.2 61.68 13.3 62.4 13.45 62.65 13.54 62.95 13.56 63.3 13.65 66.29 13.91 69.24 13.65 72.21 14.08 72.68 14.53 73.19 15 73.75Z" fill="#AA692E"/><path d="M13.35 45.02C11.74 44.71 7.78 44.11 7.41 44.11 7.63 47.01 7.82 49.95 8.52 52.78 9.27 55.78 10.74 58.45 11.64 61.38 12.72 64.92 13.24 68.54 13.63 72.2 13.9 72.49 14.17 72.8 14.45 73.12 14.45 67.24 14.27 61.34 13.17 55.58 12.53 52.27 12.23 51.19 12.02 49.09 12.32 48.71 13.63 45.09 13.35 45.02Z" fill="#7F491C"/><path d="M13.35 45.02C11.74 44.71 2.79 41.67 2.42 41.67 3.58 43.78 6.68 45.43 7.81 45.77 10.7 46.86 10.63 48.78 11.11 51.06 11.75 54.06 12.34 57.1 12.88 60.12 13.58 64.08 14.33 68.51 14.16 72.79 14.26 72.91 14.36 73.01 14.46 73.13 14.46 67.25 14.28 61.35 13.18 55.59 12.54 52.28 12.31 51.1 12.09 49 12.38 48.61 13.63 45.09 13.35 45.02Z" fill="#592B06"/><path d="M40.12 57.57C37.15 57.58 27.98 55.98 28.63 57.87 30.64 60.95 32.7 65.47 33.88 74.01 34.44 78.02 34.38 81.91 34.76 85.94 34.93 86.03 35.38 86.27 35.53 86.37 35.8 84.24 36.13 82.11 36.36 79.94 37.01 73.86 35.15 66.99 34.74 60.92 34.74 60.92 39.13 58.77 40.12 57.57Z" fill="#7F491C"/><path d="M40.12 57.57C37.15 57.58 23.17 51.71 20.33 52.64 20.33 52.64 23.68 55.16 23.68 55.16 26.69 56.4 31.43 60.75 31.41 60.88 32.1 61.33 34.54 67.42 34.97 69.91 35.86 75.08 36.2 80.92 35.13 86.13 35.27 86.21 35.4 86.29 35.53 86.37 35.8 84.24 36.13 82.11 36.36 79.94 37.01 73.86 35.15 66.99 34.74 60.92 34.74 60.92 39.13 58.77 40.12 57.57Z" fill="#592B06"/><path d="M71.55 71.95C73.02 71.84 76.47 64.34 77.91 63.83 79.35 63.32 82.24 61.65 83.15 60.37 84.03 59.13 83.99 58.1 84.68 56.75 85.39 55.38 86.09 55.41 87.06 54.19 88.05 52.94 86.27 48.46 86.27 48.46L79.03 50.9C78.26 51.21 77.46 51.46 76.68 51.75 76.26 51.91 75.83 52.07 75.41 52.22 73.72 52.89 72.01 53.51 70.24 53.99 70.18 54 70.13 54.01 70.08 54.01 69.94 54.06 69.82 54.07 69.69 54.04L69.54 54.09C69.54 54.09 69.54 56.04 69.44 56.54 69.27 57.41 68.63 58.05 68.49 58.96 68.21 60.89 68.91 70.71 68.36 72.52 70.18 72.51 69.72 72.08 71.55 71.95Z" fill="#824B19"/><path d="M71.97 67.42C71.52 68.94 71.14 70.46 70.9 72.01 71.08 71.98 71.29 71.96 71.55 71.94 71.71 71.93 71.9 71.82 72.1 71.65 72.85 68.78 74.28 66.21 75.73 63.54 76.81 61.55 77.66 59.54 78.44 57.42 78.79 56.47 79.38 55.95 77.71 55.76 76.84 55.67 75.97 55.6 75.1 55.54 76.22 57.11 77.24 58.3 76.12 60.47 74.92 62.84 72.74 64.86 71.97 67.42Z" fill="#93552B"/><path d="M71.7 71.91C73.24 71.37 76.52 64.31 77.91 63.82 79.35 63.31 82.24 61.64 83.15 60.36 84.03 59.12 83.99 58.09 84.68 56.74 85.39 55.37 86.09 55.4 87.06 54.18 88.05 52.93 86.27 48.45 86.27 48.45 86.28 48.23 81.52 50.02 77.81 52.92 77.02 53.76 77.64 56.05 77.65 56.28 77.74 59.12 77.17 60.59 74.95 63.68 73.14 66.18 72.21 68.97 71.7 71.91Z" fill="#683411"/><path d="M79.86 55.19C79.83 55.17 79.81 55.16 79.79 55.14 79.62 55 79.44 54.86 79.26 54.74 78.71 54.55 78.04 54.82 77.42 54.92 77.48 55.59 77.63 56.19 77.63 56.3 77.72 59.14 77.15 60.61 74.93 63.7 73.14 66.19 72.21 68.97 71.69 71.92 72.38 71.68 73.4 70.15 74.46 68.49 73.78 65.56 75.98 62.88 77.84 60.54 78.43 58.71 78.94 56.85 79.86 55.19Z" fill="#592B06"/><path d="M65.26 64.25C63.09 65.03 60.75 64.25 58.73 63.82 58.56 65.45 58.9 67.81 59.02 69.6 59.15 71.55 59.72 79.84 59.73 81.73 61.15 82.27 62.25 81.82 63.64 80.86 64.61 80.19 65.23 75.83 66.04 72.75 66.75 70.05 70.75 66.3 70.9 63.49L70.77 63.61C68.98 62.03 66.87 63.68 65.26 64.25Z" fill="#683411"/><path d="M61.77 81.83C62.22 81.7 62.68 81.47 63.16 81.17 63.22 78.91 63.4 76.66 63.59 74.41 63.7 73.12 63.65 71.5 64.17 70.28 65.36 67.49 68.48 66.69 70.6 64.77 70.75 64.38 70.84 64 70.88 63.63 68.99 65.2 66.51 66.29 64.09 66.5 64.09 66.56 64.07 66.63 64.05 66.69 62.46 71.63 62.01 76.7 61.77 81.83Z" fill="#592B06"/><path d="M59.02 69.6C59.15 71.55 59.72 79.84 59.73 81.73 60.66 82.08 61.45 82.01 62.27 81.66 62.43 75.79 63.51 69.22 65.55 63.7 63.5 64.25 60.62 64.23 58.73 63.82 58.55 65.44 58.9 67.81 59.02 69.6Z" fill="#824B19"/><path d="M61.72 81.85C61.9 81.8 62.09 81.74 62.27 81.66 62.4 76.91 63.15 71.73 64.51 67 63.58 67.08 62.6 66.96 61.82 66.6 63.16 68.62 62.99 70.59 62.54 72.89 61.96 75.86 61.86 78.85 61.72 81.85Z" fill="#93552B"/><path d="M8.72 59.27C8.86 61.29 10.07 64.09 10.88 66.03 11.66 67.88 12.43 69.77 13.31 72.56 13.51 72.57 13.95 72.79 14.16 72.78 14.19 70.38 14.32 68.43 13.96 66.04 13.2 60.93 12.76 59.05 12.21 56.5 11.13 57.18 9.94 58.82 8.72 59.27Z" fill="#6D390A"/><path d="M12.29 56.85C12.26 56.74 12.24 56.62 12.21 56.5 11.13 57.18 9.94 58.82 8.72 59.27 8.86 61.29 10.07 64.09 10.88 66.03 11.66 67.88 12.43 69.77 13.31 72.56 13.36 72.56 13.43 72.58 13.51 72.6 12.91 69.79 12.37 66.98 11.67 64.18 11.4 63.12 10.92 61.73 11.2 60.6 11.53 59.32 12.16 58.19 12.29 56.85Z" fill="#5B2B07"/><path d="M4.07 57.52C5.79 59.99 7.84 62.36 8.93 65.12 9.81 67.36 10.88 71.8 13.31 72.56 12.45 68.73 10.69 63.68 9.98 60.85 9.61 59.35 6.97 54.71 4.07 57.52Z" fill="#7F491C"/><path d="M4.02 57.57C4.04 57.55 4.05 57.54 4.07 57.52 4.07 57.52 4.07 57.52 4.07 57.52L4.02 57.57Z" fill="#7F491C"/><path d="M4.07 57.52C4.11 57.57 4.14 57.62 4.18 57.67 4.29 57.67 4.41 57.68 4.53 57.74 8.33 59.51 9.77 61.68 10.83 65.64 11.37 67.66 12.11 69.5 12.96 71.4 13.02 71.53 13.08 71.68 13.13 71.83 12.23 68.11 10.63 63.5 9.97 60.85 9.61 59.35 6.97 54.71 4.07 57.52Z" fill="#935527"/><path d="M38.36 85.15C38.35 81.38 39.94 77.06 40.82 73.57 38.87 73.58 38.61 71.11 38.06 69.51 37.53 67.97 37.2 65.95 36.74 64.63L36.52 64.51C37.06 66.27 37.04 68.39 37.52 70.28 37.72 71.09 37.92 71.92 38.23 72.69 38.34 72.97 38.44 73.32 38.65 73.58 38.88 73.85 39.41 73.89 39.52 74.15 39.71 74.59 39.13 75.76 38.98 76.26 38.69 77.22 38.53 77.88 38.5 78.92 38.47 80.06 38.5 81.21 38.42 82.34 38.37 83.19 38.03 84.35 38.36 85.15Z" fill="#7F491C"/><path d="M19.89 57.66C19.77 56.93 19.68 53.34 19.49 52.62 18.92 52.23 17.84 52.28 17.19 52.05 16.8 51.91 15.33 51.67 15.54 51.91L15.43 51.8C15.64 52.51 15.29 56.94 15.29 57.67 15.75 57.59 16.63 54.86 17.14 54.91 17.18 56.27 17.34 57.6 16.92 58.76 18.32 59.61 17.76 60.83 17.6 62.19 17.41 63.75 18.51 62.88 18.37 64.45 18.26 65.75 17.12 69.39 17.27 70.69 17.27 70.69 18.2 73.35 18.14 74.12 18.13 74.23 18.18 74.16 18.26 73.96 17.43 70.53 18.6 67.16 19.69 63.87 19.68 63.2 19.69 62.52 19.73 61.84 19.76 61.36 19.79 60.89 19.82 60.41 19.58 58.7 19.9 59.37 19.89 57.66Z" fill="#6D390A"/><path d="M86.17 41.85C83.53 38.9 75.88 34.91 73.56 33.72L68.4 34.51C69.01 34.05 70.46 32.88 70.96 32.31 66.34 27.1 60.07 26.86 56.27 23.37 54.39 21.64 45.79 17.21 43.51 15.62 38.15 18.66 34.28 18.52 31.9 21.54 29.56 24.52 24.99 24.76 21.77 26.53 21.93 26.97 22.32 28.01 22.51 28.48 18.5 27.68 13.37 31.83 9.42 34.33 5.98 36.49 0 39.63 0 39.63 4.33 44.57 8.12 45.5 12.61 46.27 12.91 47.12 11.67 48.4 12.25 49.8 14.06 54.12 28.19 56.28 31.47 60.22 32.26 61.17 36.55 59.13 36.55 59.13 36.53 59.9 34.74 60.92 34.74 60.92 38.85 63.42 40.78 65.9 42.59 65.68 44.35 65.46 49.21 62.7 50.78 61.77 53.85 59.96 54.86 58 58.14 56.85 62.15 55.44 64.24 55.41 67.23 51.93 65.6 51.73 64.14 51.33 62.45 51.32 66.62 49.51 71.46 50.96 75.65 48.59 78.99 46.71 82.39 42.49 86.17 41.85Z" fill="#BA8342"/><path d="M83.96 42.61C81.91 43.02 80.03 44.81 78.31 45.97 75.85 47.63 73.9 49.09 70.87 49.44 68.97 49.65 63.75 50.14 62.86 50.66 62.05 51.13 61.33 51.52 62.21 51.61 64.5 51.85 66.31 52.37 66.31 52.37 62.19 55.83 57.85 55.53 56.62 56.26 55.26 57.07 54.29 58.24 53.16 59.3 51.61 60.76 44.62 64.56 42.52 64.9 40.98 65.14 40.46 63.34 36.44 61.2 35.5 60.7 37.64 58.81 37.79 58.37 36.33 58.55 34.93 58.95 33.51 59.51 32.93 59.74 31.6 59.67 31.19 59.25 27.81 55.75 18.55 53.64 16.1 52.52 14.74 51.9 12.77 50.61 12.62 49.04 12.53 48.1 13.06 47.33 13.37 46.45 13.82 45.16 11.64 45.38 11 45.23 8.62 44.67 2.32 42.46 0.02 39.6 0.02 39.6 0.01 39.6 0.01 39.6 4.34 44.54 8.13 45.47 12.62 46.24 12.92 47.09 11.68 48.37 12.26 49.77 14.07 54.09 28.2 56.25 31.48 60.19 32.27 61.14 36.56 59.1 36.56 59.1 36.54 59.87 34.75 60.89 34.75 60.89 38.86 63.39 40.79 65.87 42.6 65.65 44.36 65.43 49.22 62.67 50.79 61.74 53.86 59.93 54.87 57.97 58.15 56.82 62.16 55.41 64.25 55.38 67.24 51.9 65.61 51.7 64.15 51.3 62.46 51.29 66.63 49.48 71.47 50.93 75.66 48.56 78.33 47.09 81.04 44.08 83.96 42.61Z" fill="#FCBF75"/><path d="M83.14 60.37C84.02 59.13 83.98 58.1 84.67 56.75 85.38 55.38 86.08 55.41 87.05 54.19 88.04 52.94 86.26 48.46 86.26 48.46 86.26 48.42 86.1 48.45 85.84 48.53 85.36 49.56 84.74 50.54 83.92 51.23 84.44 52.38 85 53.87 84.89 54.14 84.07 56.12 83.32 57.22 82.81 58.61 82.64 59.17 82.9 60.31 82.71 60.86 82.88 60.7 83.03 60.53 83.14 60.37Z" fill="#592B06"/><path d="M79.07 61.87C80.63 58.97 82.2 56.1 82.94 52.87 81.46 53.2 79.3 52.53 77.78 52.75 77.26 53.32 80.16 53.95 80.37 54.59 80.37 54.59 80.18 55.98 80.09 56.46 79.74 58.26 79.42 60.07 79.07 61.87Z" fill="#471F04"/><path d="M78.77 53.18C79.11 53.01 82.64 53.29 83.02 53.13 85.49 52.07 85.6 50.75 86.23 49.72 87.14 48.23 85.27 47.57 82.83 47.74 79.98 50.87 73.94 52.86 69.53 54.12 70.81 55.49 73.04 54.45 74.11 55.23 75.74 56.43 77.64 56.3 77.64 56.3 77.64 56.3 79.63 55.22 80.37 54.59 80.75 54.25 78.13 53.5 78.77 53.18Z" fill="#A06422"/><path d="M78.77 53.18C79.11 53.01 82.64 53.29 83.02 53.13 85.08 52.24 85.5 51.18 85.94 50.26 84.88 51.81 83.65 52.83 79.99 52.28 79.98 52.28 79.98 52.28 79.97 52.28 79.24 52.38 78.55 52.55 77.81 52.8 77.78 52.81 77.75 52.81 77.72 52.82 78.11 53.21 78.41 53.81 78.96 54.01 80.5 54.58 78.23 55.84 77.64 55.9 76.85 55.98 74.93 54.88 74.11 54.77 72.6 54.56 73.11 54.87 71.6 54.54 71.09 54.43 70.38 54.08 69.88 54.01 69.76 54.04 69.64 54.08 69.52 54.11 70.8 55.48 73.03 54.44 74.1 55.22 75.73 56.42 77.63 56.29 77.63 56.29 77.63 56.29 79.62 55.21 80.36 54.58 80.75 54.25 78.13 53.5 78.77 53.18Z" fill="#C98441"/><path d="M64.99 61.93C64.99 61.93 63.23 62.84 62.37 63.19 61.33 63.61 59.86 64.08 58.73 63.81 58.82 64.09 59.03 64.63 59.28 64.93 60.51 66.43 63.57 67.79 65.34 67.13 66.49 66.7 70.34 64.88 70.84 63.79 71.55 62.27 66.25 61.49 64.99 61.93Z" fill="#A06422"/><path d="M59.11 63.87C58.98 63.86 58.85 63.84 58.73 63.81 58.82 64.09 59.03 64.63 59.28 64.93 60.51 66.43 63.57 67.79 65.34 67.13 66.33 66.75 69.34 65.35 70.47 64.27 67.15 66.69 61.68 67.32 59.11 63.87Z" fill="#C98441"/><path d="M5.42 58.13C7.08 58.57 8.62 59.84 9.98 60.85 10.94 59.67 12.17 58.28 12.21 56.49 11.04 55.97 9.62 55.24 8.93 54.17 6.3 55.26 1.7 57.51 5.42 58.13Z" fill="#BA8342"/><path d="M9.39 59.84C8.61 59.11 6.63 58.18 4.9 57.77 4.02 57.56 4.16 57.23 4.1 57.08 3.87 57.54 4.19 57.93 5.42 58.14 7.08 58.58 8.62 59.85 9.98 60.86 10.91 59.71 12.1 58.35 12.2 56.63 11.78 57.75 11.53 58.08 10.93 59.06 10.66 59.5 9.79 60.2 9.39 59.84Z" fill="#FCBF75"/><path d="M28.18 63.69C27.49 64.39 27.09 64.97 26.67 65.86 25.64 68.03 25.1 69.61 25.59 72.13 26.18 75.16 27.18 78.05 28.11 80.99 28.74 83 29.66 86.78 31.44 88.09 32.19 87.44 33.15 86.77 33.79 86 32.69 82.61 32.17 78.31 31.89 74.6 31.6 70.84 31.06 66.92 30.86 63.22 30.05 62.87 28.7 63.18 28.18 63.69Z" fill="#6D390A"/><path d="M30.89 63.68C30.88 63.53 30.87 63.38 30.86 63.23 30.05 62.87 28.7 63.17 28.18 63.69 27.49 64.39 27.09 64.97 26.67 65.86 25.64 68.03 25.1 69.61 25.59 72.13 26.18 75.16 27.18 78.05 28.11 80.99 28.74 83 29.66 86.78 31.44 88.09 32.08 87.54 32.85 86.97 33.46 86.34 31.14 84.48 31.07 81.14 30.08 78.18 29.26 75.73 28.62 73.33 28.72 70.72 28.82 68.22 29.99 66.4 30.72 64.06 30.77 63.93 30.83 63.8 30.89 63.68Z" fill="#5B2B07"/><path d="M26.65 65C25.6 64.33 23.96 64.01 22.8 63.23 21.79 62.54 17.02 60.3 15.79 60.4 15.91 64.02 19.19 68.56 20.62 72.45 22.17 76.65 23.39 79.38 24.44 83.69 24.81 85.21 27.97 84.98 29.38 87.9L31.45 88.1C31.45 88.1 31.08 85.25 30.78 84.11 30.41 82.68 28.32 74.13 27.8 71.36 27.46 69.55 28.26 66.03 26.65 65Z" fill="#7F491C"/><path d="M27.51 66.36C26.63 66.6 25.69 66.61 24.75 66.56 27.52 69.23 28.06 73.86 28.62 77.53 29.18 81.16 30.51 84.55 31.24 88.08L31.45 88.1C31.45 88.1 31.08 85.25 30.78 84.11 30.41 82.68 28.32 74.13 27.8 71.36 27.55 70.05 27.9 67.87 27.51 66.36Z" fill="#935527"/><path d="M16.11 59.58C14.76 60.75 18.1 64.88 20.03 65.91 22.04 66.99 24.8 67.25 27.04 67.05 29.08 66.87 30.96 63.06 30.96 63.06 29.78 62.23 27.16 61.85 25.32 60.56 22.93 58.89 19.98 57.16 19.98 57.16 18.58 58.42 17.41 58.45 16.11 59.58Z" fill="#BA8342"/><path d="M16.11 59.58C14.76 60.75 18.1 64.88 20.03 65.91 22.04 66.99 24.8 67.25 27.04 67.05 28.66 66.91 30.17 64.49 30.73 63.5 27.95 66.74 25.48 67.12 20.46 65.18 18.95 64.6 15.54 62.27 16.48 59.29 16.36 59.38 16.23 59.47 16.11 59.58Z" fill="#FCBF75"/></g><g><path d="M34.72 39.86C35.17 38.77 35.55 37.66 36.2 36.7 34.09 38.72 33.53 40.07 30.42 39.36 30.84 38.66 31.1 37.91 31.41 37.12 32.54 36.94 34.12 36.28 34.85 36.2 33.73 36.15 32.83 36.49 31.75 36.29 31.73 36.08 31.81 35.92 31.81 35.72L31.5 35.05C31.2 38.12 28.46 38.29 26.04 38.66 27.27 38.81 28.26 39.33 29.48 39.45 27.82 40.54 27.37 41.4 25.48 41.7 24.03 41.93 21.62 41.18 20.45 42.14 21.89 43.74 20.23 44.35 18.7 44.36 18.43 45.44 19.17 46.27 18.99 47.26 18.83 48.15 17.83 49.12 17.41 49.86 19.01 49.32 19.62 48.48 19.71 47.13 19.83 45.42 19.34 45.22 20.48 44.84 20.73 46.19 20.91 47.73 20.91 49.04 21.06 47.89 21.6 46.59 21.34 45.44 21.81 45.55 22.2 45.76 22.69 45.86 22.36 45.49 21.96 44.81 21.57 44.54 21.55 44.52 21.52 44.52 21.49 44.5 21.48 44.04 21.81 43.47 21.8 43.01 23.47 43.23 25.3 43.21 26.91 42.8 27.66 43.91 28.49 44.85 29.38 45.77 28.41 43.67 25.99 41.77 29.29 40.59 31.46 39.81 34.52 41.18 37.94 39.76 37.19 39.52 35.76 39.93 34.72 39.86Z" fill="#77481E"/><path d="M35.48 38.01C33.72 40.42 33.05 40.36 30.71 39.85 30.44 39.79 30.73 39.43 30.41 39.36 30.83 38.66 31.09 37.91 31.4 37.12 32.53 36.94 34.11 36.28 34.84 36.2 33.72 36.15 32.68 36.7 31.6 36.5 31.58 36.29 31.37 35.82 31.3 36.05 31.03 37.4 30.9 38.02 29.94 39.06 29.95 39.06 30.23 39.93 30.25 39.93 30.21 39.96 29.34 39.97 29.3 39.99 29.01 40.29 28.25 40.77 27.93 41.03 27.1 42.32 26.36 42.46 24.85 42.46 23.87 42.66 22.58 42.52 21.51 42.33 21.4 42.99 21.5 43.91 21 44.43 20.61 44.83 19.84 44.64 19.32 44.81 19.28 44.82 19.23 44.83 19.19 44.85 19.37 45.66 19.37 46.52 19.19 47.34 18.99 48.27 18.52 49.04 17.88 49.68 19.13 49.14 19.63 48.34 19.72 47.13 19.84 45.42 19.35 45.22 20.49 44.84 20.74 46.19 20.92 47.73 20.92 49.04 21.07 47.89 21.61 46.59 21.35 45.44 21.82 45.55 22.21 45.76 22.7 45.86 22.37 45.49 21.97 44.81 21.58 44.54 21.56 44.52 21.53 44.52 21.5 44.5 21.49 44.04 21.82 43.47 21.81 43.01 23.48 43.23 25.31 43.21 26.92 42.8 27.67 43.91 28.5 44.85 29.39 45.77 28.42 43.67 26 41.77 29.3 40.59 31.47 39.81 34.53 41.18 37.95 39.76 36.95 39.78 35.64 40.21 34.59 40.13 35.03 39.02 35.17 38.73 35.48 38.01Z" fill="#512405"/></g><g><path d="M50.01 49.35C48.98 49.15 47.86 49.04 46.77 49 45.4 48.95 45.41 48.85 44.75 47.77 44.98 47.35 45.14 46.81 45.52 46.5 45.05 46.86 44.55 47.18 44.27 47.65 44.03 47.02 43.54 46.16 42.95 45.79 43.52 46.57 43.94 47.7 44.39 48.55 43.97 48.85 43.25 49.48 42.65 49.87 43.36 49.83 44.07 49.8 44.79 49.81 45.62 49.65 46.74 49.57 47.11 49.63 48.77 49.91 50.12 52.75 51.77 52.54 50.5 51.73 49.11 50.06 47.69 49.55 48.38 49.56 49.34 49.56 50.01 49.35Z" fill="#77481E"/><path d="M49.78 49.4C49.18 49.4 48.57 49.39 47.96 49.35 46.57 49.27 46.12 49.42 44.74 49.26 44.66 49.25 44.04 49.42 44.4 48.56 44.11 48.79 42.94 49.69 42.66 49.88 43.37 49.84 44.08 49.81 44.8 49.82 45.63 49.66 46.75 49.58 47.12 49.64 48.78 49.92 50.13 52.76 51.78 52.55 50.51 51.74 49.12 50.07 47.7 49.56 48.31 49.56 49.13 49.55 49.78 49.4Z" fill="#512405"/></g><g><path d="M66.18 36.08C66.71 35.84 67.46 35.52 67.92 35.13 67.05 35.32 66.13 35.62 65.27 35.96 64.18 36.39 64.15 36.3 63.27 35.68 63.31 35.27 63.25 34.8 63.45 34.43 63.21 34.88 62.92 35.29 62.86 35.76 62.46 35.35 61.78 34.84 61.2 34.75 61.91 35.17 62.63 35.91 63.26 36.42 62.99 36.88 62.53 37.86 62.14 38.33 61.84 38.7 61.2 38.5 60.97 38.57L61.68 39.09C61.67 39.04 61.69 39.08 61.72 39.15 61.12 39.97 60.12 40.71 59.66 41.54 60.13 41.29 60.44 40.89 60.84 40.57 61.22 41.13 61.48 42.03 61.78 42.64 61.63 41.97 61.18 40.73 61.3 40.07 61.33 39.93 61.74 39.46 62.03 39.04 62.25 38.81 62.53 38.63 62.74 38.42 63.02 39.01 63.09 39.79 63.5 40.28 62.95 41.68 62.11 43 61.13 44.09 62 45.06 63.03 46.06 64.3 46.54 63.51 46.08 62.44 45.04 61.82 44.33 62.24 43.2 63.12 41.12 64.05 40.38 63.83 39.74 63.12 38.4 63.42 37.8 63.63 37.38 65.31 36.46 65.77 36.35 67.16 36.01 69.18 37.77 70.4 37.05 69.11 36.83 67.46 35.99 66.18 36.08Z" fill="#77481E"/><path d="M66.05 36.22C66.58 35.98 67.46 35.52 67.91 35.13 67.04 35.32 65.94 36.11 65.08 36.45 63.99 36.88 64.1 36.66 63.21 36.04 63.25 35.63 63.23 34.8 63.43 34.43 63.19 34.88 63.13 35.69 63.08 36.16 62.67 35.75 61.77 34.84 61.19 34.75 61.9 35.17 63.18 36.36 63.82 36.86 63.55 37.31 62.5 38.22 62.11 38.69 61.81 39.06 61.19 38.49 60.96 38.56L61.87 38.98C61.87 38.93 61.15 40 61.17 40.07 60.57 40.89 60.11 40.7 59.65 41.53 60.12 41.28 60.43 40.88 60.83 40.56 61.21 41.12 61.47 42.02 61.77 42.63 61.62 41.96 61.17 40.72 61.29 40.06 61.32 39.92 61.73 39.45 62.02 39.03 62.24 38.8 62.88 38.3 63.09 38.1 63.38 38.69 63.41 39.78 63.82 40.26 63.23 41.32 62.37 42.44 61.59 44.27 62.46 45.24 63.01 46.06 64.29 46.53 63.5 46.07 62.43 45.03 61.81 44.32 62.23 43.19 63.11 41.11 64.04 40.37 63.82 39.73 63.11 38.39 63.41 37.79 63.62 37.37 65.3 36.45 65.76 36.34 67.15 36 69.17 37.76 70.39 37.04 69.05 37.18 67.34 36.14 66.05 36.22Z" fill="#512405"/></g><g><path d="M49.04 55.6C48.65 55.5 48.24 54.65 48.3 54.72L45.49 53.47C45.54 53.84 47.84 54.76 47.88 55.22 47.9 55.54 48.39 56.83 47.83 57.17 46.85 57.78 45.49 58.25 44.42 58.73 43.54 59.13 42.95 59.01 42.26 59.65 41.73 60.15 40.5 61.78 40.13 62.41 40.61 61.91 41.18 61.44 41.69 60.94 42.13 60.5 42.67 60.32 43.26 60.11 43.39 60.86 43.43 61.61 43.46 62.36 43.05 62.71 42.64 63.18 42.32 63.65 42.87 63.32 43.53 62.91 44.14 62.74 44.08 62.46 44.03 62.15 43.97 61.87 44.49 61.53 45.06 61.19 45.58 60.83 45.19 60.93 44.69 61.07 44.24 61.14 44.05 60.65 44.26 60.09 44.5 59.63 45.51 59.23 46.51 58.84 47.51 58.45L47.8 58.61C48.11 58.88 48.81 59.95 49.2 60.13 49.16 59.71 48.6 58.47 48.41 58.09 48.49 56.94 49.98 55.95 50.6 55.02 50.21 55.04 49.42 55.71 49.04 55.6Z" fill="#77481E"/><path d="M48.76 56.41C48.76 56.41 48.23 54.65 48.29 54.72L45.48 53.47C45.53 53.84 48.28 54.61 48.32 55.06 48.34 55.38 48.65 57.27 48.1 57.62 47.12 58.23 45.87 58.79 44.8 59.27 43.91 59.67 42.99 59.51 42.3 60.15 41.77 60.65 40.5 61.78 40.13 62.42 40.61 61.92 41.18 61.45 41.69 60.95 42.13 60.51 43.22 60.19 43.81 59.98 43.94 60.74 43.85 61.83 43.89 62.59 43.48 62.94 42.64 63.19 42.32 63.66 42.87 63.33 43.53 62.92 44.14 62.75 44.08 62.47 44.03 62.16 43.97 61.88 44.49 61.54 45.06 61.2 45.58 60.84 45.19 60.94 44.69 61.08 44.24 61.15 44.05 60.66 44.26 60.1 44.5 59.64 45.51 59.24 47.09 58.65 48.08 58.26L48.5 58.68C48.81 58.95 48.8 59.96 49.18 60.14 49.14 59.72 48.58 58.48 48.39 58.1 48.47 56.95 49.96 55.96 50.58 55.03 50.21 55.04 49.15 56.51 48.76 56.41Z" fill="#512405"/></g><g><path d="M5.3 37.53C5.74 37.8 6.15 38.13 6.53 38.5 8.91 37.31 10.02 37.13 12.37 35.91L13.19 33.46 13.27 36.19C12.99 36.84 11.65 36.95 11.36 37.59 12.14 37.72 14.44 37.97 15.03 38.48 14.42 38.51 13.8 38.48 13.18 38.46 13.45 38.77 13.66 39.08 13.97 39.36 13.16 38.8 11.02 37.64 10.02 37.75 9.46 37.82 8.45 38.14 7.97 38.59 8.35 38.78 8.99 39.19 9.26 39.5 8.42 39.29 8.11 38.97 7.33 39.04 5.87 39.17 3.91 39.96 1.79 40.56 3.2 40.15 4.62 39.21 6.1 38.78 5.89 38.33 5.59 37.91 5.3 37.53Z" fill="#77481E"/><path d="M5.3 37.53C5.74 37.8 6.36 38.23 6.74 38.6 9.12 37.41 10.54 37.34 12.9 36.12L13.19 33.46 13.27 36.19C12.99 36.84 11.65 36.95 11.36 37.59 12.06 37.93 12.84 38.25 15.03 38.48 14.42 38.51 13.8 38.48 13.18 38.46 13.45 38.77 13.66 39.08 13.97 39.36 13.16 38.8 11.02 37.64 10.02 37.75 9.46 37.82 7.85 38.17 7.38 38.62 7.77 38.8 9 39.18 9.26 39.49 8.42 39.28 8.11 38.96 7.33 39.03 5.87 39.16 3.91 39.95 1.79 40.55 3.2 40.14 4.89 39.37 6.37 38.94 6.15 38.5 5.59 37.91 5.3 37.53Z" fill="#512405"/></g><path d="M31.38 33.57 30.92 36.11C31.74 35.49 32.08 34.68 31.38 33.57Z" fill="#BA884D"/><path d="M31.66 32.21C33.97 31.69 36.78 31.15 38.93 30.04 36 29.7 32.73 30.58 29.81 30.79 28.3 30.9 26.7 31.56 25.29 31.61 24.09 31.65 22.87 30.73 21.64 30.76 22.28 32.19 23.14 32.05 24.2 32.93 25.1 33.69 26.07 35.1 26.84 36.04 26.76 36.14 26.61 36.34 26.52 36.42 25.73 36.55 24.88 36.7 24.08 36.76 23.53 36.8 21.93 36.43 21.48 36.73 20.45 37.39 22.66 38.91 23.18 39.61 21.84 39.95 19.81 39.43 18.57 40.05 17.58 40.54 18.26 40.47 17.79 41.43 17.5 42.03 16.87 42.27 16.67 42.88 15.68 43.3 14.54 43.36 13.59 43.79 14.17 44.59 16.48 46.04 16.4 46.93 16.27 48.31 13.82 49.19 13.39 50.5 14.91 48.96 16.59 48.94 18.21 47.27 17.92 45.59 16.76 44.88 18.45 43.86 19.16 43.43 19.69 43.41 19.94 42.73 20.15 42.16 19.37 41.86 20.14 41.34 20.99 40.76 23.42 41.39 24.38 41.31 25.68 41.19 26.89 40.64 28.08 40.13 27.11 39.6 25.34 39.51 24.59 38.62 25.72 37.89 29.07 37.38 30.76 36.22 30.45 35.21 28.89 34.69 28.82 33.74 28.73 32.55 30.86 32.39 31.66 32.21Z" fill="#CC9252"/><path d="M30.91 36.15 30.92 36.11C30.87 36.15 30.81 36.19 30.76 36.23 30.78 36.29 30.79 36.35 30.8 36.41 30.99 36.38 30.85 36.28 30.91 36.15Z" fill="#BA884D"/><path d="M48.97 52.13C48.28 51.76 47.48 50.82 46.83 50.57 45.09 49.9 42.97 51.07 41.25 50.14 42.5 48.7 44.03 48.67 42.78 46.69 41.79 45.12 40.79 43.68 39.92 41.95L39.93 41.68C39.82 41.66 39.65 41.98 39.75 41.68 41.79 40.2 43.93 39.07 45.86 37.34 44.63 37.52 43.43 38.05 42.19 38.56 41.46 38.86 39.27 39.57 38.87 40.31 38.43 41.13 39.52 43.42 39.7 44.4 40.02 46.12 40.05 46.41 38.32 46.99 38.99 47.66 40 47.5 40.3 48.61 38.87 49.21 36.49 49.31 35.38 50.41 38.26 50.67 40.9 51.34 43.62 51.74 43.1 52.19 42.68 52.78 42.31 53.31 43.71 52.77 44.99 52.21 46.38 52.46 47.72 52.71 49.44 53.52 50.84 53.36 50.44 52.75 49.61 52.47 48.97 52.13Z" fill="#CC9252"/><path d="M33.86 44.15C32.72 43.24 30.95 43.48 29.66 42.59 29.66 43.8 30.11 45.48 30 46.5 29.84 47.89 28.43 48.23 27.38 49.02 26.78 48.37 26.19 47.61 25.65 46.97 25.57 48.43 24.92 50.27 24.26 51.54 23.12 51.59 21.79 51.44 20.73 51.75L20.19 51.74C20.61 52.88 25.04 52.85 26.18 52.43 27.72 51.87 29.28 50.35 30.65 49.41 31.97 49.89 33 50.59 34.09 51.56 33.65 50.95 31.79 48.98 31.55 48.16 33.01 46.24 35.83 43.56 36.36 42.58 35.52 43.08 34.61 43.49 33.86 44.15Z" fill="#CC9252"/><path d="M44.54 43.29C44.6 43.25 44.69 43.23 44.79 43.22 44.75 43.2 44.72 43.18 44.68 43.16L44.54 43.29Z" fill="#BA884D"/><path d="M64.62 47.47C63.5 47.92 61.44 46.63 60.3 46.25 58.9 45.79 57.44 45.45 56.13 44.81 56.58 46.01 58.07 46.37 58.77 47.28 57.33 47.25 55.54 46.98 54.16 46.65 52.51 46.26 51.86 45.6 53.08 44.16 51.54 44.16 50 44.13 48.49 43.93 47.54 43.8 45.62 43.08 44.79 43.21 47.06 44.44 49.65 45.49 51.79 47.01 50.88 47.08 49.72 47.14 48.82 47.52 50.07 48.19 51.83 47.9 53.29 48.03 52.97 48.77 52.38 49.37 51.88 50.02 52.49 50.64 53.89 51.04 54.73 51.48 55.68 51.99 56.72 52.6 57.69 53.02 59.44 53.77 61.42 53.89 63.1 54.86 61.59 53.63 59.48 53.44 58.03 52.2 59.63 51.76 61.37 51.76 63.01 51.5 61.06 51.68 59.03 50.89 57.07 50.8 58.76 48.83 62.65 49.16 64.62 47.47Z" fill="#CC9252"/><path d="M76.48 37.1C75.16 37.47 73.74 37.66 72.4 38.07 71.98 38.2 71.37 38.67 70.99 38.72 70.72 38.76 70.32 38.5 70.05 38.42 68.91 38.11 67.72 37.89 66.59 37.56 65.8 37.33 65.54 37.42 64.79 37.83 64.96 38.96 66.29 40.38 67.01 41.25 66.26 41.22 65.53 41.17 64.78 41.13 65.12 41.59 65.68 41.7 66.17 41.92 65.63 42.38 65.01 42.75 64.52 43.28 64.08 43.76 64.03 43.79 64.39 44.26 65.13 45.24 66.07 46.1 66.89 47L67.07 46.89C67.06 46.91 67.05 46.93 67.04 46.95 67.51 46.22 68.1 44.86 68.93 44.78 70.2 44.65 71.65 45.34 72.86 45.62 72.76 45.15 71.99 44.82 71.61 44.55 70.74 43.92 69.79 43.43 68.92 42.84 69.19 42.44 69.51 41.97 69.83 41.6 70.22 41.14 70.54 41.24 71.16 41.38 72.52 41.69 74.3 42.1 75.48 42.87 74.84 42.2 74.25 41.43 73.73 40.64 73.36 40.08 72.62 39.63 73.13 39.1 73.97 38.21 75.48 37.79 76.48 37.1Z" fill="#CC9252"/><path d="M67.1 45.74C67.06 45.8 67.03 45.85 66.99 45.9 67.05 45.85 67.08 45.8 67.1 45.74Z" fill="#BA884D"/><path d="M17.75 33.91C17.93 32.2 19.94 30.21 20.84 29.09L20.98 28.69C19.26 30.65 16.03 31.68 13.97 33.3 15.28 34.06 18.4 36.01 18.85 37.48 17.95 38.07 17.16 39.24 16.35 40.03 17.68 39.88 18.68 38.87 20.02 38.77 19.59 38.24 19.27 37.23 19.18 36.58 20.52 36.49 21.85 36.19 23.15 35.96 21.68 35.35 19.36 34.79 17.75 33.91Z" fill="#CC9252"/><path d="M21.19 32.07C20.28 32.05 15.43 32.61 15.18 32.31L14.82 32.3C15.86 33.42 17.46 34.41 18.92 34.78 19.84 35.02 23.96 35.85 24.15 34.55 24.4 32.86 22.22 32.09 21.19 32.07Z" fill="#754306" opacity="0.48"/><path d="M30.88 31.48C29.88 31.46 24.52 32.03 24.24 31.72L23.85 31.71C25 32.88 26.77 33.9 28.38 34.29 29.4 34.54 33.95 35.41 34.16 34.06 34.42 32.31 32.03 31.51 30.88 31.48Z" fill="#754306" opacity="0.48"/><path d="M43.05 29.01C40.77 28.17 38.56 26.9 36.35 26.27 34.81 25.83 33.76 26.13 32.29 26.79 31.43 27.18 29.83 27.67 29.3 28.36L28.82 28.47C29.48 28.77 30 29.45 30.6 29.91 31.3 30.45 31.91 30.53 32.69 30.82 33.3 31.04 33.21 30.96 33.71 31.35 34.06 31.62 34.19 32.04 34.58 32.27 35.21 32.65 36.33 32.88 37.03 33.07 38.75 33.54 40.37 32.61 42.07 32.14 42.75 31.95 44.07 31.81 44.48 31.13 45.14 29.98 43.93 29.33 43.05 29.01Z" fill="#754306" opacity="0.48"/><path d="M59.72 32.06C57.9 31.29 55.43 31.44 53.45 31.17 51.51 30.91 49.7 30.61 48.1 31.52L48.71 30.58C48 31.25 47.4 31.51 48.31 32.21 48.93 32.67 50.26 32.82 51.03 33.11 52.74 33.76 54.35 34.43 56.22 34.56 57.2 34.63 58.22 34.5 59.19 34.63 60.03 34.74 60.87 35.24 61.78 35.26 63.23 35.28 62.53 34.38 61.7 33.5 61.18 32.94 60.43 32.36 59.72 32.06Z" fill="#754306" opacity="0.48"/><path d="M64.05 29.34C62.56 29.21 60.9 29.91 59.76 29.83L60 29.84C60.44 30.65 62.64 31.72 63.51 31.94 64.4 32.16 67.99 32.46 67.81 31.2 67.63 29.93 64.95 29.42 64.05 29.34Z" fill="#754306" opacity="0.48"/><g><path d="M54.56 20.1 54.73 20.1C54.73 20.08 54.73 20.06 54.72 20.04 54.66 20.13 54.6 20.07 54.56 20.1Z" fill="#CC9A58"/><path d="M58.39 29.09C58.17 28.85 57.81 28.81 57.58 28.57 57.24 28.21 57.34 28.17 57.48 27.66 57.56 27.39 57.66 27.11 57.74 26.85 57.9 26.28 58.11 25.66 58.46 25.16 58.18 25.05 57.54 25.02 57.32 24.82 57.16 24.67 57.14 24.15 57.11 23.92 57.02 23.18 56.96 22.36 57.27 21.7 56.5 21.22 55.38 20.81 54.79 20.09L54.73 20.09C54.88 20.71 54.4 21.51 54.13 22.08 53.69 22.99 52.71 24.19 52.61 25.18 52.56 25.61 52.7 26.24 52.74 26.7 52.81 27.4 52.83 28.18 53.04 28.85 53.34 29.79 53.73 30.76 54.13 31.65 54.33 32.1 54.68 32.66 54.56 33.13 56.16 33 58.12 32.64 59.58 31.82 59.29 31.22 59.09 30.56 58.81 29.93 58.67 29.66 58.59 29.31 58.39 29.09Z" fill="#CC9A58"/><path d="M57 31.37C56.13 30.43 56.28 29.1 56.61 27.97 56.72 27.59 56.95 27.1 56.81 26.7 56.65 26.27 56.01 25.92 55.8 25.47 55.12 24.01 55.09 22.48 55.66 20.96 55.67 20.92 55.7 20.88 55.72 20.83 55.36 20.61 55.04 20.38 54.8 20.09L54.74 20.09C54.89 20.71 54.41 21.51 54.14 22.08 53.7 22.99 52.72 24.19 52.62 25.18 52.57 25.61 52.71 26.24 52.75 26.7 52.82 27.4 52.84 28.18 53.05 28.85 53.35 29.79 53.74 30.76 54.14 31.65 54.34 32.1 54.69 32.66 54.57 33.13 55.98 33.02 57.68 32.72 59.07 32.08 58.34 32.22 57.62 32.04 57 31.37Z" fill="#BF8755"/><path d="M54.88 26.05C54.49 25.47 54.29 25.01 54.34 24.33 54.4 23.55 54.44 22.76 54.5 21.99 54.55 21.34 54.85 20.62 54.83 20.01 54.09 20.09 53.32 20.26 52.58 20.4 52.09 20.5 51.58 20.51 51.11 20.62 50.76 20.69 50.72 20.76 50.62 21.13 50.4 21.96 50.26 22.78 50.07 23.61 49.79 24.82 49.41 26 49.15 27.21 48.88 28.45 48.35 29.77 47.73 30.85 48.04 31.17 48.71 31.32 49.15 31.47 49.69 31.66 50.11 31.83 50.63 31.95 51.92 32.25 53.46 32.39 54.6 33.12 54.82 32.55 54.85 31.78 54.94 31.16 55.11 30.06 55.18 28.92 55.46 27.85 55.54 27.55 55.68 27.25 55.57 26.96 55.45 26.63 55.08 26.34 54.88 26.05Z" fill="#E0B16C"/><path d="M49.94 30.45C48.88 29.05 49.48 27.73 49.79 26.08 50.11 24.33 50.37 22.56 50.74 20.81 50.7 20.88 50.67 20.98 50.63 21.12 50.41 21.95 50.27 22.77 50.08 23.6 49.8 24.81 49.42 25.99 49.16 27.2 48.89 28.44 48.36 29.76 47.74 30.84 48.05 31.16 48.72 31.31 49.16 31.46 49.7 31.65 50.12 31.82 50.64 31.94 51.34 32.1 52.12 32.22 52.87 32.41 51.9 31.88 50.54 31.25 49.94 30.45Z" fill="#D6A667"/><path d="M54.88 26.05C54.49 25.47 54.29 25.01 54.34 24.33 54.4 23.55 54.44 22.76 54.5 21.99 54.55 21.34 54.85 20.62 54.83 20.01 54.09 20.09 53.32 20.26 52.58 20.4 52.09 20.5 51.58 20.51 51.11 20.62 50.78 20.69 50.72 20.76 50.63 21.08 50.96 21.02 53.49 20.65 53.85 20.64 55.2 20.6 53.84 23.8 53.94 25.03 54.07 26.56 54.81 26.26 54.8 27.84 54.79 29.37 54.5 30.86 53.96 32.28 53.9 32.43 53.83 32.56 53.74 32.69 54.04 32.81 54.33 32.94 54.6 33.11 54.82 32.54 54.85 31.77 54.94 31.15 55.11 30.05 55.18 28.91 55.46 27.84 55.54 27.54 55.68 27.24 55.57 26.95 55.45 26.63 55.08 26.34 54.88 26.05Z" fill="#EAB978"/></g><g><path d="M65.29 26.6C65.2 25.81 64.28 25.7 63.59 25.4 62.92 25.11 62.2 25.05 61.63 25.67 61.21 26.13 61.08 27.25 60.81 27.86 60.5 28.55 60.13 29.1 59.73 29.74 60.13 30.07 60.92 30.18 61.42 30.39 61.93 30.61 62.41 31 62.94 30.9 63.48 30.79 64.05 30.44 64.53 30.14 64.85 29.94 65.61 29.59 65.72 29.24 65.7 28.78 65.48 28.35 65.4 27.89 65.33 27.46 65.34 27.03 65.29 26.6Z" fill="#CC9A58"/><path d="M63.59 25.4C62.97 25.13 62.3 25.06 61.76 25.56 61.79 26.57 61.68 27.59 61.58 28.62 61.92 28.69 62.26 28.75 62.6 28.82 63.46 29 63.69 28.5 64.28 27.92 64.62 27.58 64.97 27.29 65.32 27.04 65.31 26.89 65.3 26.75 65.28 26.6 65.2 25.81 64.27 25.7 63.59 25.4Z" fill="#E0B16C"/><path d="M65.24 26.39C65.24 26.39 64.3 26.92 62.89 28.26 62.73 28.41 61.8 27.74 61.8 27.74 61.78 27.57 61.88 25.47 61.88 25.47 61.84 25.5 61.8 25.53 61.76 25.57 61.79 26.58 61.68 27.6 61.58 28.63 61.92 28.7 62.26 28.76 62.6 28.83 63.46 29.01 63.69 28.51 64.28 27.93 64.62 27.59 64.97 27.3 65.32 27.05 65.31 26.9 65.3 26.76 65.28 26.61 65.28 26.52 65.26 26.46 65.24 26.39Z" fill="#FFDE9C"/><path d="M62.48 28.24C62.29 28.1 61.96 27.99 61.63 27.93 61.21 28.19 60.8 28.52 60.36 28.74 60.16 29.08 59.95 29.4 59.74 29.75 60.14 30.08 60.93 30.19 61.43 30.4 61.94 30.62 62.42 31.01 62.95 30.91 63.04 30.89 63.14 30.86 63.23 30.83 63.15 30.06 63.17 29.32 63.11 28.56 62.9 28.49 62.69 28.39 62.48 28.24Z" fill="#BF8443"/><path d="M62.48 28.24C62.29 28.1 61.96 27.99 61.63 27.93 61.58 27.96 61.53 27.99 61.49 28.02 61.81 28.15 62.12 28.36 62.3 28.64 62.37 28.75 62.44 28.87 62.5 28.99 62.62 29.18 62.7 29.39 62.75 29.61 62.8 29.79 62.84 29.98 62.85 30.18 62.87 30.43 62.86 30.67 62.84 30.92 62.87 30.92 62.91 30.92 62.95 30.91 63.04 30.89 63.14 30.86 63.23 30.83 63.15 30.06 63.17 29.32 63.11 28.56 62.9 28.49 62.69 28.39 62.48 28.24Z" fill="#AA7133"/><path d="M65.29 26.6C65.28 26.52 65.26 26.45 65.24 26.39 65.04 26.59 64.81 26.77 64.55 26.91 64.32 27.11 64.1 27.32 63.87 27.52 63.6 27.76 63.3 27.97 63.01 28.19 62.83 28.36 62.79 28.38 62.89 28.26 62.84 28.31 62.8 28.37 62.76 28.42 62.86 29.29 62.99 30.11 62.95 30.91 63.49 30.81 64.06 30.46 64.54 30.15 64.86 29.95 65.62 29.6 65.73 29.25 65.71 28.79 65.49 28.36 65.41 27.9 65.33 27.46 65.34 27.03 65.29 26.6Z" fill="#CE9D5B"/></g><g><path d="M35.14 20.58C35.13 18.98 33.95 18.88 33.11 18.37 32.28 17.86 31.37 17.83 30.55 19.19 29.95 20.17 29.63 22.47 29.2 23.75 28.71 25.19 28.15 26.37 27.55 27.73 28.02 28.35 29.03 28.46 29.64 28.83 30.28 29.2 30.83 29.94 31.54 29.66 32.25 29.37 33.04 28.58 33.69 27.9 34.13 27.44 35.16 26.63 35.34 25.91 35.37 24.98 35.15 24.13 35.11 23.21 35.07 22.31 35.15 21.44 35.14 20.58Z" fill="#CC9A58"/><path d="M33.11 18.37C32.34 17.9 31.49 17.85 30.72 18.94 30.63 20.99 30.36 23.08 30.09 25.18 30.52 25.27 30.95 25.35 31.38 25.45 32.47 25.7 32.83 24.65 33.67 23.4 34.15 22.67 34.64 22.04 35.13 21.47 35.14 21.18 35.14 20.88 35.14 20.59 35.13 18.98 33.95 18.88 33.11 18.37Z" fill="#E0B16C"/><path d="M35.1 20.16C35.1 20.16 33.81 21.37 31.82 24.28 31.59 24.61 30.49 23.36 30.49 23.36 30.48 23.03 30.89 18.73 30.89 18.73 30.83 18.8 30.78 18.87 30.72 18.95 30.63 21 30.36 23.09 30.09 25.19 30.52 25.28 30.95 25.36 31.38 25.46 32.47 25.71 32.83 24.66 33.67 23.41 34.15 22.68 34.64 22.05 35.13 21.48 35.14 21.19 35.14 20.89 35.14 20.6 35.14 20.43 35.12 20.29 35.1 20.16Z" fill="#FFDE9C"/><path d="M31.3 24.28C31.08 24.03 30.66 23.85 30.25 23.75 29.68 24.34 29.1 25.06 28.5 25.58 28.2 26.29 27.89 26.98 27.56 27.73 28.03 28.35 29.04 28.46 29.65 28.83 30.29 29.2 30.84 29.94 31.55 29.66 31.67 29.61 31.8 29.53 31.93 29.45 31.92 27.89 32.05 26.38 32.07 24.85 31.8 24.75 31.54 24.56 31.3 24.28Z" fill="#BF8443"/><path d="M31.3 24.28C31.08 24.03 30.66 23.85 30.25 23.75 30.18 23.82 30.12 23.89 30.05 23.97 30.45 24.2 30.82 24.59 31 25.13 31.08 25.35 31.15 25.57 31.21 25.8 31.34 26.18 31.42 26.6 31.45 27.04 31.49 27.4 31.52 27.77 31.51 28.18 31.49 28.67 31.46 29.18 31.4 29.69 31.44 29.68 31.49 29.67 31.54 29.66 31.66 29.61 31.79 29.53 31.92 29.45 31.91 27.89 32.04 26.38 32.06 24.85 31.8 24.75 31.54 24.56 31.3 24.28Z" fill="#AA7133"/><path d="M35.14 20.58C35.14 20.42 35.13 20.29 35.1 20.16 34.82 20.6 34.49 20.98 34.15 21.3 33.83 21.74 33.51 22.19 33.19 22.63 32.81 23.16 32.39 23.62 31.99 24.11 31.74 24.47 31.68 24.53 31.83 24.27 31.76 24.37 31.71 24.49 31.65 24.61 31.67 26.37 31.72 28.01 31.56 29.65 32.27 29.36 33.05 28.57 33.71 27.89 34.15 27.43 35.18 26.62 35.36 25.9 35.39 24.97 35.17 24.12 35.13 23.2 35.07 22.31 35.15 21.44 35.14 20.58Z" fill="#CE9D5B"/></g><g><path d="M42.53 24.57C39.53 24.52 37.21 24.73 36.93 25.44 36.43 26.69 33.57 28.52 34.08 29.8 34.41 30.61 36.99 32.33 36.99 32.33 37.67 32.5 43.36 32.01 44.49 31.5 45.61 31 47.12 30.44 47.17 29.84 46.17 27.52 45.43 24.62 42.53 24.57Z" fill="#EABB71"/><path d="M40.99 26.76C40.34 26.98 37.7 26.39 36.85 25.6 36.19 26.85 33.59 28.57 34.08 29.8 34.41 30.61 36.99 32.33 36.99 32.33 37.67 32.5 43.36 32.01 44.49 31.5 45.61 31 47.12 30.44 47.17 29.84 46.51 28.3 45.96 26.51 44.82 25.46 43.8 25.85 41.99 26.42 40.99 26.76Z" fill="#FFDE9C"/><path d="M44.68 25.34C44.51 25.42 44.33 25.51 44.16 25.6 42.95 26.23 41.79 26.89 40.49 27.32 40.47 27.32 40.46 27.33 40.45 27.33 40.87 28.26 41.68 29.1 42.24 29.95 42.64 30.56 43.04 31.16 43.42 31.77 43.9 31.68 44.27 31.58 44.49 31.49 45.61 30.99 47.12 30.43 47.17 29.83 46.48 28.24 45.92 26.37 44.68 25.34Z" fill="#CC9348"/><path d="M44.28 25.83C44.4 25.66 44.55 25.51 44.7 25.37 44.69 25.36 44.69 25.36 44.68 25.35 44.51 25.43 44.33 25.52 44.16 25.61 42.95 26.24 41.79 26.9 40.49 27.33 40.47 27.33 40.46 27.34 40.45 27.34 40.87 28.27 41.68 29.11 42.24 29.96 42.64 30.57 43.04 31.17 43.42 31.78 43.9 31.69 44.27 31.59 44.49 31.5 44.67 31.42 44.85 31.34 45.04 31.26 44.54 30.71 44.12 30.1 43.86 29.46 43.36 28.21 43.51 26.92 44.28 25.83Z" fill="#BA823E"/><path d="M40.89 27.17C40.62 27.18 40.35 27.18 40.07 27.16 38.85 27.02 37.58 26.57 36.84 25.6 36.18 26.85 33.57 28.58 34.07 29.8 34.4 30.61 36.98 32.33 36.98 32.33 37.66 32.5 43.35 32.01 44.48 31.5 44.53 31.48 44.58 31.46 44.63 31.43 44.36 31.15 44.1 30.86 43.85 30.56 42.91 29.38 41.88 28.3 40.89 27.17Z" fill="#E0B16C"/><path d="M35.88 26.99C35.92 26.94 35.95 26.9 35.99 26.86 36.05 26.77 36.12 26.66 36.21 26.53 36.31 26.38 36.41 26.24 36.51 26.11 36.64 25.95 36.76 25.79 36.89 25.64 36.88 25.62 36.86 25.61 36.85 25.59 36.19 26.84 33.58 28.57 34.08 29.79 34.41 30.6 36.99 32.32 36.99 32.32 37.17 32.37 37.69 32.37 38.38 32.33 37.67 32.15 36.89 31.88 36.37 31.39 35.13 30.23 34.67 28.39 35.88 26.99Z" fill="#CC9348" opacity="0.39"/><path d="M40.89 27.17C40.72 27.18 40.56 27.18 40.39 27.17 40.32 28.75 40.58 30.09 39.4 31.42 39.09 31.77 38.73 32.07 38.34 32.33 40.29 32.24 43.64 31.87 44.48 31.49 44.53 31.47 44.58 31.45 44.63 31.42 44.36 31.14 44.1 30.85 43.85 30.55 42.91 29.38 41.88 28.3 40.89 27.17Z" fill="#CC9A58"/><path d="M43.85 30.55C43.85 30.56 43.85 30.56 43.85 30.55 43.1 29.62 43.7 30.35 43.85 30.55Z" fill="#C68D4F"/><path d="M43.86 30.56 43.86 30.56C43.85 30.56 43.85 30.56 43.86 30.56 43.38 29.97 42.89 29.4 42.39 28.84 42.12 28.54 41.85 28.23 41.57 27.93 41.41 27.75 41.03 27.16 40.81 27.17 40.85 27.22 43.71 30.31 43.16 31.42 42.8 32.15 38.71 32.1 38.34 32.34 39.53 32.28 40.72 32.17 41.9 32.01 42.81 31.89 43.78 31.8 44.62 31.43 44.36 31.15 44.1 30.86 43.86 30.56 43.89 30.6 43.9 30.62 43.86 30.56Z" fill="#C68D4F"/><path d="M43.86 30.56 43.86 30.56C43.9 30.62 43.89 30.6 43.86 30.56Z" fill="#C68D4F"/><path d="M43.86 30.56C43.91 30.62 43.89 30.6 43.86 30.56 43.85 30.56 43.85 30.56 43.86 30.56Z" fill="#C68D4F"/></g><g><path d="M19.52 29.03C17.81 28.93 16.49 28.99 16.31 29.39 16 30.09 14.32 31.07 14.59 31.8 14.75 32.28 16.18 33.31 16.18 33.31 16.57 33.42 19.82 33.28 20.47 33.01 21.12 32.75 21.99 32.47 22.04 32.13 21.52 30.8 21.17 29.13 19.52 29.03Z" fill="#EABB71"/><path d="M18.59 30.24C18.22 30.35 16.73 29.95 16.26 29.49 15.85 30.18 14.33 31.11 14.59 31.81 14.75 32.29 16.18 33.32 16.18 33.32 16.57 33.43 19.82 33.29 20.47 33.02 21.12 32.76 21.99 32.48 22.04 32.14 21.7 31.25 21.43 30.22 20.8 29.59 20.21 29.79 19.17 30.07 18.59 30.24Z" fill="#FFDE9C"/><path d="M20.42 29.66C19.71 29.99 19.04 30.34 18.29 30.56 18.28 30.56 18.28 30.56 18.26 30.56 18.48 31.1 18.92 31.6 19.22 32.09 19.43 32.44 19.64 32.8 19.85 33.16 20.12 33.12 20.34 33.07 20.46 33.02 21.11 32.76 21.98 32.48 22.03 32.14 21.68 31.22 21.4 30.14 20.72 29.52 20.63 29.57 20.52 29.61 20.42 29.66Z" fill="#CC9348"/><path d="M20.49 29.79C20.57 29.69 20.65 29.61 20.74 29.53 20.74 29.52 20.73 29.52 20.73 29.52 20.63 29.57 20.53 29.61 20.42 29.66 19.71 29.99 19.04 30.34 18.29 30.56 18.28 30.56 18.28 30.56 18.26 30.56 18.48 31.1 18.92 31.6 19.22 32.09 19.43 32.44 19.64 32.8 19.85 33.16 20.12 33.12 20.34 33.07 20.46 33.02 20.56 32.98 20.67 32.94 20.78 32.9 20.51 32.58 20.28 32.22 20.15 31.85 19.91 31.12 20.02 30.39 20.49 29.79Z" fill="#BA823E"/><path d="M18.53 30.47C18.38 30.47 18.22 30.47 18.07 30.44 17.38 30.33 16.66 30.04 16.26 29.47 15.85 30.16 14.33 31.09 14.58 31.8 14.74 32.28 16.17 33.31 16.17 33.31 16.56 33.42 19.81 33.28 20.46 33.01 20.49 33 20.52 32.99 20.54 32.98 20.39 32.81 20.25 32.64 20.12 32.46 19.62 31.78 19.06 31.14 18.53 30.47Z" fill="#E0B16C"/><path d="M15.68 30.25C15.71 30.22 15.72 30.2 15.74 30.18 15.78 30.13 15.82 30.07 15.87 30 15.93 29.92 15.99 29.84 16.06 29.77 16.13 29.68 16.21 29.6 16.29 29.51 16.28 29.5 16.27 29.49 16.27 29.48 15.86 30.17 14.34 31.1 14.59 31.81 14.75 32.29 16.18 33.32 16.18 33.32 16.28 33.35 16.58 33.36 16.97 33.36 16.57 33.24 16.14 33.07 15.85 32.77 15.17 32.08 14.95 31.02 15.68 30.25Z" fill="#CC9348" opacity="0.39"/><path d="M18.53 30.47C18.44 30.47 18.34 30.47 18.25 30.46 18.17 31.36 18.29 32.13 17.59 32.86 17.41 33.05 17.19 33.21 16.96 33.35 18.07 33.34 19.99 33.21 20.48 33.02 20.51 33.01 20.54 33 20.56 32.99 20.41 32.82 20.27 32.65 20.14 32.47 19.62 31.78 19.06 31.14 18.53 30.47Z" fill="#CC9A58"/><path d="M20.13 32.47C20.13 32.47 20.13 32.47 20.13 32.47 19.73 31.92 20.05 32.35 20.13 32.47Z" fill="#C68D4F"/><path d="M20.13 32.47C19.88 32.12 19.61 31.79 19.34 31.46 19.19 31.28 19.05 31.1 18.89 30.92 18.81 30.82 18.6 30.47 18.47 30.47 18.49 30.5 20.05 32.33 19.71 32.94 19.49 33.35 17.16 33.22 16.94 33.35 17.62 33.34 18.3 33.31 18.98 33.25 19.5 33.2 20.05 33.18 20.54 32.99 20.41 32.82 20.27 32.65 20.13 32.47 20.16 32.51 20.15 32.5 20.13 32.47Z" fill="#C68D4F"/><path d="M20.13 32.47C20.15 32.5 20.16 32.51 20.13 32.47 20.13 32.47 20.13 32.47 20.13 32.47Z" fill="#C68D4F"/></g><g><path d="M29.12 26.27C28.26 25.5 27.3 25.68 26.43 26.17 25.55 26.67 24.31 26.94 24.3 28.03 24.29 28.62 24.37 29.19 24.32 29.8 24.28 30.43 24.04 31.04 24.08 31.67 24.27 32.12 25.36 32.49 25.81 32.72 26.5 33.07 27.32 33.46 28.07 33.53 28.81 33.6 29.4 33 30.07 32.63 30.71 32.27 31.77 32.01 32.27 31.52 31.64 30.71 31.06 30.01 30.55 29.11 30.08 28.33 29.74 26.83 29.12 26.27Z" fill="#CC9A58"/><path d="M26.43 26.17C25.55 26.67 24.31 26.94 24.3 28.03 24.3 28.23 24.3 28.43 24.31 28.63 24.83 28.93 25.33 29.27 25.84 29.68 26.71 30.38 27.1 31.03 28.24 30.67 28.69 30.52 29.15 30.39 29.6 30.26 29.32 28.88 29.04 27.52 28.94 26.14 28.13 25.53 27.24 25.71 26.43 26.17Z" fill="#E0B16C"/><path d="M28.76 26.02C28.76 26.02 29.18 28.86 29.18 29.09 29.18 29.09 28.01 30.14 27.78 29.95 25.69 28.33 24.33 27.74 24.33 27.74 24.31 27.83 24.29 27.93 24.3 28.03 24.3 28.23 24.3 28.43 24.31 28.63 24.83 28.93 25.33 29.27 25.84 29.68 26.71 30.38 27.1 31.03 28.24 30.67 28.69 30.52 29.15 30.39 29.6 30.26 29.32 28.88 29.04 27.52 28.94 26.14 28.88 26.09 28.82 26.05 28.76 26.02Z" fill="#FFDE9C"/><path d="M29.43 29.31C29 29.45 28.56 29.64 28.33 29.86 28.07 30.09 27.8 30.26 27.53 30.38 27.55 31.41 27.68 32.41 27.67 33.47 27.81 33.5 27.94 33.53 28.07 33.54 28.81 33.61 29.4 33.01 30.07 32.64 30.71 32.28 31.77 32.02 32.27 31.53 31.93 31.09 31.6 30.67 31.28 30.24 30.64 30 30.03 29.61 29.43 29.31Z" fill="#A36A31"/><path d="M28.33 29.86C28.07 30.09 27.8 30.26 27.53 30.38 27.55 31.41 27.68 32.41 27.67 33.47 27.81 33.5 27.94 33.53 28.07 33.54 28.12 33.54 28.17 33.54 28.22 33.54 28.17 33.2 28.12 32.87 28.11 32.54 28.1 32.27 28.13 32.01 28.17 31.76 28.2 31.46 28.28 31.16 28.42 30.88 28.49 30.71 28.56 30.55 28.64 30.38 28.84 29.98 29.22 29.65 29.64 29.43 29.57 29.39 29.5 29.35 29.43 29.32 29 29.45 28.56 29.65 28.33 29.86Z" fill="#996128"/><path d="M27.78 29.95C27.93 30.1 27.88 30.07 27.61 29.87 27.19 29.61 26.75 29.37 26.35 29.08 26.01 28.84 25.68 28.59 25.34 28.35 24.98 28.19 24.64 27.99 24.33 27.74 24.31 27.83 24.29 27.93 24.29 28.03 24.28 28.62 24.36 29.19 24.31 29.8 24.27 30.43 24.03 31.04 24.07 31.67 24.26 32.12 25.35 32.49 25.8 32.72 26.48 33.06 27.31 33.46 28.06 33.53 27.89 32.46 27.95 31.34 27.96 30.14 27.91 30.08 27.85 30 27.78 29.95Z" fill="#CE9D5B"/></g><path d="M37.08 35.55C37.12 35.57 37.17 35.58 37.21 35.6 37.16 35.5 37.11 35.41 37.08 35.32L37.08 35.55Z" fill="#754306" opacity="0.48"/><path d="M53.06 36.19C51.76 35.04 49.94 34.69 48.43 33.65 44.66 31.04 41.89 34.76 38.38 35.58 37.98 35.67 37.61 35.72 37.21 35.59 37.9 36.75 40.4 37.98 41.52 37.41 42.2 37.06 42.29 36.29 43.03 35.95 43.38 35.79 43.76 35.63 44.2 35.71 45.06 35.89 44.53 35.92 45.02 36.44 45.52 36.98 46.12 37.9 46.66 38.38 47.5 39.12 50.53 40.56 51.65 40.59 53.63 40.64 58 39.08 58.46 38.61 57.32 37.19 54.33 37.31 53.06 36.19Z" fill="#754306" opacity="0.48"/><g><path d="M67.56 11.69C67.2 11.53 66.93 11.28 66.6 11.1 66.23 10.9 65.84 11.01 65.45 10.87 63.8 10.26 66.06 7.83 66.56 7.08 65.44 6.96 64.59 10.06 63.67 10.63 63 11.05 62.14 11.18 61.44 11.55 61.01 11.78 60.11 12.74 59.69 12.68 59.44 12.09 59.25 11.97 59.19 11.25 59.14 10.68 59.09 10.13 59.1 9.62 59.12 8.44 59.3 7.26 59.5 6.11 59.58 5.66 59.93 5.11 59.98 4.68 60.05 3.93 59.63 4.57 59.45 4.93 58.98 5.85 58.9 6.73 58.81 7.79 58.78 8.17 58.88 8.94 58.28 8.74 57.87 8.61 57.82 8 57.31 7.89 56.89 7.8 56.4 8.16 56 8.25 55.51 8.36 55 8.25 54.57 8.54 55.02 9.36 56.28 8.21 56.83 8.25 57.45 8.29 57.99 9.23 58.16 9.8 58.5 10.93 59.26 12.46 58.7 13.58 58.19 14.06 57.18 14.67 56.37 15.33 55.96 15.04 54.71 15.37 54.39 15.41 52.82 15.61 51.75 14.78 50.34 14.43 50.48 15.15 51.88 15.42 52.44 15.71 52.56 16.47 50.29 17.52 49.75 17.98 50.83 17.9 52.23 16.8 53.14 16.27 53.84 15.87 54.82 15.56 55.17 16.58 54.44 17.61 54 18.74 52.92 19.56 51.5 20.64 49.15 21.24 47.63 21.27 45.29 21.31 42.1 20.12 42.78 18.18 43.38 16.51 46.4 16.14 46.26 14.13L46.26 14.13C46.26 14.13 46.26 14.12 46.26 14.11 46.25 14.03 46.24 13.95 46.22 13.86 46.17 13.51 46.09 12.92 46.09 12.75 46.08 12.3 46.03 12.04 46.47 11.71 46.71 11.53 48.09 11.4 48.72 11.3 49.29 11.35 49.71 11.62 50.19 11.97 50.43 12.14 50.68 12.28 50.9 12.46 51.09 12.62 51.29 12.85 51.54 12.9 51.76 12.48 50.32 11.86 51.11 11.68 51.54 11.58 52.6 11.65 52.83 11.18 52.4 11.15 52.04 11.16 51.64 11.23 51.28 11.29 50.83 11.45 50.47 11.42 50.31 11.41 49.82 11.16 49.39 11.01 50.29 10.3 51.89 8.36 51.25 8.58 50.84 8.72 49.62 10.53 48.8 10.67 48.15 10.79 46.39 10.9 46.05 10.35 46.06 9.83 46.05 8.71 46.59 7.82 47.06 7.05 48.58 6.61 49.25 6.01 49.96 5.38 50.6 4.79 51.61 4.81 52.57 4.83 53.26 5.58 54.23 5.59 53.69 5.03 52.84 4.49 52.07 4.48 52.96 3.96 53.32 3.54 54.43 3.51 55.59 3.48 56.08 3.81 56.6 4.66 56.75 4 55.6 3.06 55.02 2.96 53.91 2.77 53.27 3.28 52.38 3.73 51.96 3.95 50.77 4.23 50.37 4.4 49.98 4.56 50.28 3.73 50.33 3.05 50.4 2.12 50.32 0.97 50.71 0.14 50.01 0.52 50.09 2.27 49.94 2.97 49.74 3.87 49.36 4.98 48.63 5.66 48.1 6.15 46.44 6.92 45.76 6.71 45.03 6.5 44.92 5 44.46 4.4 43.98 3.78 43.1 3.43 42.68 2.72 42.2 1.92 42.75 0.66 41.9 0 41.98 0.59 42.42 1.42 42.05 2.03 41.66 2.65 40.83 2.32 40.21 2.23 39.25 2.1 36.59 1.83 36.73 3.52 37.53 1.69 40.98 2.28 42.31 3.26 43.76 4.32 44.74 6.51 44.95 8.18 45.08 9.28 44.73 10.23 44.6 11.28 44.55 11.73 44.56 12.3 44.64 12.78 44.71 13.21 44.71 13.58 44.75 14.03 44.76 15.88 41.2 15.64 40.65 18.76 40.3 18.64 39.92 18.46 39.55 18.24 39.3 18.1 39.06 17.93 38.81 17.76 38.69 17.67 38.57 17.58 38.44 17.49 38.44 17.49 38.44 17.49 38.44 17.49 37.84 17.02 37.27 16.5 36.77 15.99 35.67 14.9 36.99 14.51 37.7 13.87 38.6 13.07 38.27 11.83 38.67 10.86 38.87 10.37 39.16 10.13 39.4 9.67 39.6 9.29 39.73 9.06 39.84 8.65 40.08 7.77 40.19 6.71 39.47 5.99 39.74 7.22 39.7 10.04 37.96 10.41 36.7 10.68 35.12 9.31 35.25 7.87 34.88 8.77 35.06 9.23 35.92 10.02 36.67 10.71 38.01 10.92 37.91 12.17 37.83 13.26 36.35 14.32 35.26 14.17 34.79 14.11 34.2 13.84 33.73 13.65 33.18 13.43 32.63 13.13 32.1 12.89 30.46 12.15 28.19 10.15 30.13 7.54 30.44 7.12 30.41 6.78 29.91 7.35 29.81 7.53 29.56 7.82 29.34 8.41 29.07 9.12 28.77 9.98 29.36 11.19 29.62 11.74 30.02 12.18 30.39 12.66 30.87 13.3 31.22 13.56 30.57 14.06 29.67 14.75 28.36 15.02 27.4 15.8 26.65 16.42 25.83 17.87 26.14 18.8 26.43 18.04 26.52 17.28 27.08 16.62 27.58 16.03 28.26 15.65 28.95 15.4 29.3 15.26 29.14 16.55 30.08 17.55 30.15 17.5 30.22 17.45 30.3 17.41 29.77 16.6 29.26 15.79 29.97 15.04 31.27 13.7 34.05 14.9 35.48 16.68L35.48 16.68C36.53 18.1 38.54 19.57 39.64 20.67 41.69 22.73 43.26 23.43 43.82 26.06 44.41 28.85 44.3 30.79 40.63 32.27 40.63 32.27 40.62 32.27 40.61 32.28 40.28 32.43 39.96 32.57 39.65 32.73 39.21 32.96 38.64 33.22 38.39 33.67 38.25 33.92 38.24 34.16 38.32 34.36 39.17 34.5 40.12 34.22 40.94 34.11 41.97 33.97 43.03 34.02 44.06 34.17 44.63 34.26 45.2 34.37 45.76 34.5 45.87 34.52 45.98 34.53 46.09 34.55 47.27 34.7 48.56 35.1 49.84 35.3 50.13 35.33 50.44 35.36 50.75 35.4 51.33 35.43 51.89 35.4 52.43 35.26 52.57 35.23 52.64 35.2 52.67 35.18 52.6 35.02 52.5 34.87 52.39 34.74 52.18 34.48 51.94 34.24 51.71 34.01 50.32 33.57 49.17 32.91 48.77 31.85 48.01 29.89 48.49 28.43 48.38 26.61 48.27 24.76 47.63 23.23 50.69 22.04 53.23 21.06 54.17 20.88 55.2 18.98 56.58 16.44 59.09 15.09 59.93 13.67 60.46 13.35 60.98 13 61.48 12.67 61.52 12.65 61.56 12.62 61.6 12.59 62.09 12.85 62.52 12.99 62.83 13.61 63.16 14.29 63.11 15.03 62.88 15.69 62.61 16.47 62.35 16.97 61.54 17.28 61.03 17.48 60.09 17.99 60.1 18.38 60.69 18.03 61.19 17.73 61.81 17.48 62.36 17.26 62.77 16.36 63.27 16.33 63.49 16.88 64 17.4 64.25 17.95 64.7 18.94 64 19.9 64.22 19.91 65.51 18.91 63.56 16.41 63.4 15.24 63.28 14.33 63.29 13.55 62.89 12.73 62.77 12.49 62.58 12.23 62.35 12.06 62.84 11.71 63.36 11.38 63.88 11.32 64.4 11.26 64.83 11.46 65.31 11.55 65.81 11.64 66.34 11.63 66.8 11.77 67.7 12.07 68.58 12.7 69.55 12.75 69.21 12.13 68.2 11.97 67.56 11.69Z" fill="#8E5120"/><path d="M48.63 5.66C48.1 6.15 46.44 6.92 45.76 6.71 45.03 6.5 44.92 5 44.46 4.4 43.99 3.78 43.12 3.43 42.69 2.74 42.7 2.85 42.71 2.97 42.73 3.09 42.74 3.11 42.74 3.13 42.75 3.15 44.24 4.17 44.39 4.77 44.88 6.1 45.22 7.02 45.95 7.02 46.84 6.78 47.31 6.53 48.37 6.14 48.42 6.1 49.75 4.85 49.92 3.62 50.17 2.02 50.26 1.42 50.38 0.83 50.57 0.27 50.03 0.8 50.09 2.33 49.95 2.98 49.74 3.86 49.37 4.98 48.63 5.66Z" fill="#AA6B41"/><path d="M46.28 11.67C46.23 11.83 46.14 12 46.01 12.15 45.69 12.53 45.99 13.23 46.03 13.67 46.09 14.19 45.94 14.6 45.71 15.06 45.17 16.15 43.64 16.31 42.97 17.31 42.43 18.1 41.81 19.57 42.94 20.23 43.22 20.39 43.54 20.55 43.7 20.49L43.7 20.47C43.7 20.41 43.71 20.34 43.72 20.28 42.92 19.76 42.47 19.05 42.77 18.19 43.37 16.52 46.39 16.15 46.25 14.14L46.25 14.14C46.25 14.14 46.25 14.13 46.25 14.12 46.24 14.04 46.23 13.96 46.21 13.87 46.16 13.52 46.08 12.93 46.08 12.76 46.07 12.31 46.02 12.05 46.46 11.72 46.7 11.54 48.08 11.41 48.71 11.31 49.28 11.36 49.7 11.63 50.18 11.98 50.42 12.15 50.67 12.29 50.89 12.47 51.08 12.63 51.28 12.86 51.53 12.91 51.58 12.82 51.54 12.71 51.47 12.61 49.82 11.56 48.15 10.36 46.28 11.67Z" fill="#773C15"/><path d="M40.21 21.02C39.26 20.32 39.04 19.29 38.23 18.48 37.36 17.62 36.48 16.71 35.56 15.91 33.31 13.95 30.97 14.11 28.39 15.3 28.25 15.36 28.11 15.4 27.97 15.42 27.77 15.53 27.59 15.66 27.41 15.8 26.66 16.42 25.84 17.87 26.15 18.8 26.44 18.04 26.53 17.28 27.09 16.62 27.59 16.03 28.27 15.65 28.96 15.4 29.31 15.26 29.15 16.55 30.09 17.55 30.16 17.5 30.23 17.45 30.31 17.41 29.78 16.6 29.27 15.79 29.98 15.04 31.28 13.7 34.06 14.9 35.49 16.68L35.49 16.68C36.54 18.1 38.55 19.57 39.65 20.67 39.95 20.97 40.23 21.23 40.5 21.48 40.41 21.34 40.31 21.18 40.21 21.02Z" fill="#773C15"/><path d="M43.85 26.06C44.44 28.85 44.33 30.79 40.66 32.27 40.66 32.27 40.65 32.27 40.64 32.28 40.31 32.43 39.99 32.57 39.68 32.73 39.24 32.96 38.67 33.22 38.42 33.67 38.32 33.86 38.28 34.05 38.31 34.22 38.97 33.42 39.86 32.62 40.89 32.5 41.75 32.4 40.99 32.68 41.75 32.4 43.01 30.5 41.98 32.57 42.47 32.18 42.7 32.29 43.12 30.2 44.13 30.9 44.31 29.81 44.17 28.03 44.74 29.06 45.38 30.2 44.81 27.44 43.77 25.78 43.8 25.87 43.83 25.97 43.85 26.06Z" fill="#AA6B41"/><path d="M37.51 11.11C37.78 11.37 37.95 11.69 37.91 12.17 37.83 13.26 36.35 14.32 35.26 14.17 34.79 14.11 34.2 13.84 33.73 13.65 33.18 13.43 32.63 13.13 32.1 12.89 31.12 12.45 29.93 11.57 29.53 10.38 29.48 11.14 29.72 11.82 30.62 12.33 31.8 13 33.08 13.42 34.15 14.23 34.76 14.39 35.39 14.5 35.98 14.46 37.07 14.38 37.78 13.66 38.07 12.64 38.35 11.65 38.22 11.37 37.51 11.11Z" fill="#AA6B41"/><path d="M44.6 11.3C44.55 11.75 44.56 12.31 44.64 12.78 44.71 13.21 44.71 13.58 44.75 14.03 44.76 15.84 41.35 15.65 40.69 18.56 40.75 18.76 40.92 19.77 41.27 19.45 41.27 19.45 41.34 18.45 41.54 17.74 41.69 17.2 42.37 16.53 42.86 16.24 43.4 15.92 45.49 15.45 45.05 13.39 44.88 12.7 44.69 12.01 44.6 11.3Z" fill="#AA6B41"/><path d="M56.47 15.28C56.43 15.72 56.23 16.14 55.92 16.46 55.68 16.71 55.35 16.82 55.02 16.81 54.37 17.78 53.92 18.81 52.91 19.58 51.49 20.66 49.14 21.26 47.62 21.29 46.12 21.32 44.27 20.83 43.32 19.98 43.78 20.82 44.76 21.25 45.73 21.64 47.06 21.8 48.5 21.56 49.88 21.24 50.98 20.7 52.36 20.63 53.15 19.71 54.03 18.68 54.63 17.45 55.84 16.86 56.13 16.39 56.44 15.94 56.83 15.53 56.93 15.22 57.08 14.94 57.26 14.68 57 14.86 56.74 15.05 56.49 15.24 56.49 15.25 56.48 15.26 56.47 15.28Z" fill="#AA6B41"/><path d="M63.67 10.63C63 11.05 62.14 11.18 61.44 11.55 61.06 11.75 60.33 12.5 59.87 12.66 60.02 12.69 60.32 12.57 60.67 12.44 61.43 11.91 61.7 11.79 62.52 11.43 63.22 11.12 63.91 10.9 64.36 10.31 64.54 9.79 64.72 9.26 64.95 8.77 64.51 9.55 64.09 10.36 63.67 10.63Z" fill="#AA6B41"/><path d="M56.68 16.19C55.21 18.69 53.3 20.99 50.32 21.42 50.09 21.5 49.86 21.59 49.64 21.67 49.19 22.01 48.74 22.36 48.34 22.73 48.04 22.6 47.83 22.32 47.7 22.03 47.66 22.38 47.85 22.74 48.07 23 47.99 23.08 47.92 23.16 47.85 23.24 47.19 23.11 46.82 22.21 46.76 21.71 46.72 22.4 46.83 23.43 47.57 23.65 47.55 23.68 47.54 23.7 47.52 23.73 46.77 23.77 46.12 22.48 45.85 21.99 45.61 23.27 46.45 23.8 47.14 24.52 46.99 24.86 46.85 25.21 46.75 25.56 46.26 26.06 45.84 26.7 45.64 27.22 45.93 27.1 46.05 27.24 46.34 27.26 46.6 28.32 45.8 28.82 45.76 29.8 46.31 29.62 47.07 29.38 47.31 29.69 47.33 29.85 47.35 30.01 47.35 30.17 47.32 30.29 47.28 30.43 47.2 30.59 46.9 31.27 46 31.74 45.69 32.38 46.12 32.36 46.51 32.24 46.96 32.26 46.83 32.85 46.15 33.17 45.94 33.68 46.35 33.58 46.78 33.34 47.21 33.27 47.09 33.46 47.11 33.77 47.04 33.98 47.37 33.84 47.72 33.77 48.07 33.7 48.12 33.73 48.18 33.75 48.23 33.78 49.64 34.41 51.02 34.8 52.59 34.98 52.54 34.89 52.48 34.81 52.42 34.74 52.21 34.48 51.98 34.25 51.74 34.02 50.35 33.58 49.2 32.92 48.8 31.86 48.04 29.89 48.52 28.44 48.41 26.62 48.3 24.77 47.66 23.24 50.72 22.05 53.26 21.06 54.2 20.89 55.24 18.99 56.37 16.9 58.26 15.62 59.37 14.44 59.1 14.62 58.81 14.79 58.52 14.96 57.91 15.31 57.22 15.67 56.68 16.19Z" fill="#773C15"/><path d="M40.31 18.74C40.31 18.75 40.31 18.75 40.31 18.74 40.31 18.74 40.31 18.74 40.31 18.74 40.3 18.73 40.3 18.73 40.31 18.74Z" fill="#773C15"/><path d="M40.57 18.84C40.48 18.81 40.4 18.78 40.31 18.75 40.37 19.54 40.62 20 41.3 20.45 42.02 20.92 42.71 21.13 43.57 21.13 43.01 20.87 42.29 20.96 41.76 20.61 41.27 20.27 40.5 19.52 40.57 18.84Z" fill="#773C15"/><path d="M40.57 18.84C40.58 18.85 40.6 18.85 40.61 18.85L40.57 18.78C40.57 18.8 40.57 18.82 40.57 18.84Z" fill="#773C15"/></g><g><path d="M42.49 32.08C42.4 31.29 41.47 31.18 40.79 30.88 40.12 30.59 39.41 30.52 38.83 31.15 38.41 31.61 38.28 32.73 38.01 33.34 37.71 34.03 37.33 34.59 36.93 35.22 37.33 35.55 38.12 35.66 38.62 35.87 39.13 36.09 39.61 36.48 40.14 36.38 40.68 36.27 41.25 35.92 41.73 35.62 42.05 35.42 42.82 35.07 42.92 34.72 42.89 34.26 42.68 33.83 42.6 33.37 42.53 32.94 42.55 32.51 42.49 32.08Z" fill="#CC9A58"/><path d="M40.8 30.89C40.18 30.61 39.51 30.55 38.97 31.05 39 32.06 38.89 33.08 38.79 34.11 39.14 34.17 39.48 34.24 39.82 34.31 40.68 34.49 40.91 33.99 41.5 33.41 41.84 33.08 42.18 32.78 42.54 32.53 42.53 32.38 42.52 32.24 42.51 32.09 42.4 31.29 41.48 31.18 40.8 30.89Z" fill="#E0B16C"/><path d="M42.45 31.88C42.45 31.88 41.5 32.41 40.1 33.75 39.93 33.89 39 33.22 39 33.22 38.98 33.06 39.08 30.95 39.08 30.95 39.04 30.98 39 31.01 38.96 31.05 38.99 32.06 38.88 33.08 38.78 34.11 39.13 34.17 39.47 34.24 39.81 34.31 40.67 34.49 40.9 33.99 41.49 33.41 41.83 33.08 42.17 32.78 42.53 32.53 42.52 32.38 42.51 32.24 42.5 32.09 42.48 32.01 42.47 31.94 42.45 31.88Z" fill="#FFDE9C"/><path d="M39.69 33.72C39.5 33.59 39.17 33.48 38.84 33.4 38.43 33.66 38.01 33.99 37.56 34.22 37.36 34.56 37.16 34.88 36.94 35.23 37.34 35.56 38.13 35.67 38.63 35.88 39.14 36.1 39.62 36.49 40.15 36.39 40.24 36.37 40.34 36.34 40.44 36.3 40.36 35.53 40.38 34.79 40.31 34.04 40.1 33.98 39.89 33.87 39.69 33.72Z" fill="#BF8443"/><path d="M39.69 33.72C39.5 33.59 39.17 33.48 38.84 33.4 38.79 33.43 38.74 33.47 38.69 33.5 39.01 33.63 39.32 33.85 39.5 34.12 39.57 34.23 39.64 34.35 39.7 34.46 39.82 34.65 39.9 34.87 39.94 35.09 39.99 35.27 40.03 35.46 40.05 35.66 40.06 35.9 40.06 36.15 40.04 36.4 40.07 36.4 40.12 36.4 40.15 36.39 40.24 36.37 40.34 36.34 40.44 36.3 40.36 35.53 40.38 34.79 40.31 34.04 40.1 33.98 39.89 33.87 39.69 33.72Z" fill="#996128"/><path d="M42.49 32.08C42.48 32 42.46 31.94 42.44 31.87 42.24 32.07 42.01 32.25 41.75 32.39 41.52 32.59 41.3 32.8 41.07 33 40.8 33.24 40.5 33.45 40.21 33.67 40.03 33.84 39.99 33.86 40.09 33.74 40.04 33.79 40 33.85 39.96 33.9 40.06 34.77 40.19 35.59 40.14 36.39 40.68 36.29 41.25 35.94 41.73 35.63 42.05 35.43 42.82 35.08 42.92 34.73 42.89 34.27 42.68 33.84 42.6 33.38 42.53 32.94 42.55 32.51 42.49 32.08Z" fill="#CE9D5B"/></g><g><path d="M51.92 33.1C49.76 32.8 48.07 32.75 47.81 33.24 47.33 34.1 45.11 35.17 45.37 36.13 45.53 36.75 47.24 38.21 47.24 38.21 47.72 38.39 51.87 38.53 52.73 38.27 53.58 38.01 54.72 37.74 54.81 37.31 54.3 35.55 54.02 33.39 51.92 33.1Z" fill="#EABB71"/><path d="M50.62 34.54C50.14 34.64 48.28 33.98 47.73 33.34 47.14 34.18 45.12 35.2 45.37 36.13 45.53 36.75 47.24 38.21 47.24 38.21 47.72 38.39 51.87 38.53 52.73 38.27 53.58 38.01 54.72 37.74 54.81 37.31 54.47 36.14 54.23 34.8 53.49 33.94 52.73 34.13 51.38 34.39 50.62 34.54Z" fill="#FFDE9C"/><path d="M53.02 33.99C52.09 34.34 51.2 34.72 50.22 34.92 50.21 34.92 50.2 34.92 50.19 34.93 50.41 35.63 50.92 36.32 51.25 36.97 51.48 37.44 51.72 37.91 51.95 38.39 52.3 38.37 52.58 38.33 52.74 38.28 53.59 38.02 54.73 37.75 54.82 37.32 54.47 36.11 54.22 34.71 53.42 33.86 53.28 33.89 53.15 33.94 53.02 33.99Z" fill="#CC9348"/><path d="M53.43 33.86C53.43 33.85 53.42 33.85 53.42 33.84 53.29 33.89 53.15 33.94 53.02 33.98 52.09 34.33 51.2 34.71 50.22 34.91 50.21 34.91 50.2 34.91 50.19 34.92 50.41 35.62 50.92 36.31 51.25 36.96 51.48 37.43 51.72 37.9 51.95 38.38 52.3 38.36 52.58 38.32 52.74 38.27 52.87 38.23 53.02 38.19 53.16 38.15 52.85 37.71 52.6 37.23 52.47 36.75 52.22 35.81 52.44 34.89 53.09 34.17 53.19 34.04 53.31 33.95 53.43 33.86Z" fill="#BA823E"/><path d="M50.52 34.83C50.32 34.82 50.12 34.8 49.93 34.75 49.06 34.55 48.18 34.1 47.73 33.34 47.14 34.18 45.11 35.21 45.36 36.13 45.52 36.75 47.23 38.21 47.23 38.21 47.71 38.39 51.86 38.53 52.72 38.27 52.76 38.26 52.79 38.25 52.83 38.24 52.66 38.02 52.5 37.78 52.35 37.54 51.79 36.6 51.14 35.73 50.52 34.83Z" fill="#E0B16C"/><path d="M46.92 34.26C46.96 34.23 46.98 34.2 47.02 34.18 47.07 34.12 47.13 34.05 47.2 33.96 47.28 33.87 47.37 33.77 47.46 33.68 47.56 33.58 47.66 33.47 47.77 33.37 47.76 33.36 47.75 33.35 47.75 33.33 47.16 34.17 45.13 35.2 45.38 36.12 45.54 36.74 47.25 38.2 47.25 38.2 47.37 38.25 47.75 38.29 48.26 38.33 47.76 38.14 47.22 37.88 46.89 37.47 46.09 36.54 45.92 35.17 46.92 34.26Z" fill="#CC9348" opacity="0.39"/><path d="M50.52 34.83C50.4 34.82 50.28 34.81 50.16 34.79 49.97 35.93 50.04 36.91 49.08 37.78 48.83 38.01 48.54 38.19 48.23 38.34 49.65 38.44 52.1 38.47 52.73 38.27 52.77 38.26 52.8 38.25 52.84 38.24 52.67 38.02 52.51 37.78 52.36 37.54 51.79 36.6 51.14 35.73 50.52 34.83Z" fill="#CC9A58"/><path d="M52.36 37.53C52.36 37.53 52.36 37.53 52.36 37.53 51.9 36.8 52.26 37.38 52.36 37.53Z" fill="#C68D4F"/><path d="M52.36 37.53C52.07 37.07 51.76 36.61 51.45 36.17 51.28 35.92 51.11 35.68 50.94 35.44 50.84 35.3 50.62 34.84 50.45 34.82 50.47 34.86 52.27 37.34 51.78 38.09 51.45 38.58 48.51 38.19 48.22 38.33 49.08 38.39 49.95 38.41 50.82 38.41 51.49 38.4 52.19 38.42 52.84 38.23 52.68 38.01 52.51 37.78 52.36 37.53 52.4 37.59 52.39 37.57 52.36 37.53Z" fill="#C68D4F"/><path d="M52.36 37.53C52.39 37.57 52.4 37.59 52.36 37.53 52.36 37.53 52.36 37.53 52.36 37.53Z" fill="#C68D4F"/></g></g></g></svg>