<svg width="96.19" height="112.86" viewBox="0 0 96.19 112.86" xmlns="http://www.w3.org/2000/svg" xmlns:xlink="http://www.w3.org/1999/xlink" overflow="hidden"><defs></defs><g><g><rect x="16.24" y="103.18" width="7.71" height="7.71" fill="#B27A18"/><path d="M26.92 112.86 16.45 112.86C15.39 112.86 14.52 111.99 14.52 110.93L14.52 110.93C14.52 109.87 15.39 109 16.45 109L26.92 109C27.98 109 28.85 109.87 28.85 110.93L28.85 110.93C28.85 111.99 27.98 112.86 26.92 112.86Z" fill="#FFD522"/></g><g><rect x="39.53" y="103.18" width="7.71" height="7.71" fill="#B27A18"/><path d="M50.21 112.86 39.74 112.86C38.68 112.86 37.81 111.99 37.81 110.93L37.81 110.93C37.81 109.87 38.68 109 39.74 109L50.21 109C51.27 109 52.14 109.87 52.14 110.93L52.14 110.93C52.14 111.99 51.27 112.86 50.21 112.86Z" fill="#FFD522"/></g><rect x="48.21" y="71.59" width="17.25" height="8.68" fill="#DDA026" transform="matrix(0.89 0.456 -0.456 0.89 40.874 -17.5615)"/><path d="M49.7 105.43 14.15 105.43C10.85 105.43 8.15 102.73 8.15 99.43L8.15 65.62C8.15 62.32 10.85 59.62 14.15 59.62L49.7 59.62C53 59.62 55.7 62.32 55.7 65.62L55.7 99.43C55.7 102.73 53 105.43 49.7 105.43Z" fill="#FFD522"/><g><path d="M8.3 59.91C6.72 60.78 5.21 62.08 4.1 63.39-0.71 69.09-1.17 78 3.2 84.15 3.21 84.16 3.22 84.17 3.23 84.19 4.6 86.1 6.38 87.71 8.45 88.84 11.41 90.45 14.79 91.33 18.13 91.71 20.76 92.01 25.83 92.64 27.79 90.39 29.09 88.91 29.23 86.41 28.09 84.79 26.84 83.01 24.48 82.96 22.54 82.59 18.48 81.82 10.45 80.29 11.12 74.06 11.63 69.32 21.02 65.7 16.99 62.59 13.1 59.61 11.43 58.19 8.3 59.91Z" fill="#DDA026"/><circle cx="27.17" cy="86.57" r="5.46" fill="#FBC8A5"/></g><ellipse cx="35.09" cy="57.49" rx="20.58" ry="13.69" fill="#5E5E5E"/><g><g><path d="M12.82 6.1C11.45 4.41 10.56 2.31 10.39 0.01 7.63 1.99 5.82 5.21 5.79 8.86 5.78 9.82 5.91 10.76 6.14 11.65 7.12 10.07 9.13 7.7 12.82 6.1Z" fill="#E4E0E1"/><path d="M27.78 8.11C25.95 9.43 23.7 10.21 21.27 10.19 17.85 10.16 14.81 8.57 12.81 6.1 9.12 7.7 7.11 10.08 6.13 11.65 7.33 16.39 11.59 19.92 16.71 19.96 22.79 20.01 27.77 15.11 27.81 9.03 27.82 8.72 27.81 8.41 27.78 8.11Z" fill="#FFD522"/></g><g><path d="M51.82 6.09C53.19 4.4 54.08 2.3 54.25 0 57.01 1.98 58.82 5.2 58.86 8.85 58.87 9.81 58.74 10.75 58.51 11.64 57.52 10.06 55.52 7.69 51.82 6.09Z" fill="#E4E0E1"/><path d="M36.86 8.11C38.69 9.43 40.94 10.2 43.37 10.18 46.79 10.15 49.83 8.55 51.83 6.09 55.52 7.69 57.53 10.06 58.52 11.64 57.33 16.38 53.06 19.92 47.94 19.96 41.86 20.01 36.88 15.12 36.83 9.04 36.82 8.73 36.84 8.42 36.86 8.11Z" fill="#FFD522"/></g><g><path d="M63.41 41.48C63.41 26.3 51.1 13.99 35.92 13.99 20.74 13.99 3.63 27.63 3.63 42.81 3.63 57.99 20.74 68.96 35.92 68.96 51.1 68.96 63.41 56.66 63.41 41.48Z" fill="#F4B68C"/></g><g><line x1="24.55" y1="37.19" x2="35.96" y2="37.19" stroke="#231F20" stroke-width="2" stroke-linecap="round" stroke-miterlimit="10" fill="#FFFFFF"/><circle cx="33.52" cy="41.48" r="1.58" fill="#231F20"/></g><g><line x1="63.73" y1="37.19" x2="52.31" y2="37.19" stroke="#231F20" stroke-width="2" stroke-linecap="round" stroke-miterlimit="10" fill="#FFFFFF"/><circle cx="56.33" cy="41.48" r="1.58" fill="#231F20"/></g><line x1="39.69" y1="54.39" x2="50.26" y2="54.39" stroke="#E87654" stroke-width="1.2126" stroke-linecap="round" stroke-miterlimit="10" fill="none"/><g><rect x="0" y="32.22" width="11.59" height="26.09" fill="#FFD522"/><g><path d="M32.32 4.32C14.81 4.32 0.56 16.73 0.02 32.22L64.61 32.22C64.08 16.73 49.83 4.32 32.32 4.32Z" fill="#FFD522"/></g><g><path d="M2.21 22.66C1.69 23.85 1.26 25.08 0.91 26.35L63.72 26.35C63.38 25.09 62.95 23.86 62.42 22.66L2.21 22.66Z" fill="#E4E0E1"/></g><circle cx="5.19" cy="38.57" r="1.75" fill="#E4E0E1"/><circle cx="5.19" cy="45.33" r="1.75" fill="#E4E0E1"/><circle cx="5.19" cy="52.1" r="1.75" fill="#E4E0E1"/></g><path d="M6.72 19.96C8.46 19.96 9.37 19.27 10.17 18.67 10.94 18.09 11.61 17.58 13.02 17.58 14.43 17.58 15.1 18.09 15.87 18.67 16.67 19.28 17.58 19.96 19.32 19.96 21.06 19.96 21.97 19.27 22.77 18.67 23.54 18.09 24.21 17.58 25.62 17.58 27.03 17.58 27.7 18.09 28.47 18.67 29.27 19.28 30.18 19.96 31.92 19.96 33.66 19.96 34.57 19.27 35.37 18.67 36.14 18.09 36.81 17.58 38.22 17.58 39.63 17.58 40.3 18.09 41.07 18.67 41.87 19.28 42.78 19.96 44.52 19.96 46.26 19.96 47.17 19.27 47.98 18.67 48.75 18.09 49.42 17.58 50.83 17.58 52.24 17.58 52.91 18.09 53.68 18.67 54.48 19.28 55.39 19.96 57.14 19.96 58.72 19.96 59.62 19.4 60.37 18.84 60.19 18.56 60 18.28 59.81 18.01 59.11 18.53 58.44 18.96 57.14 18.96 55.73 18.96 55.06 18.45 54.29 17.87 53.49 17.26 52.58 16.58 50.83 16.58 49.08 16.58 48.18 17.27 47.37 17.87 46.6 18.45 45.93 18.96 44.52 18.96 43.11 18.96 42.44 18.45 41.67 17.87 40.87 17.26 39.96 16.58 38.22 16.58 36.48 16.58 35.57 17.27 34.77 17.87 34 18.45 33.33 18.96 31.92 18.96 30.51 18.96 29.84 18.45 29.07 17.87 28.27 17.26 27.36 16.58 25.62 16.58 23.88 16.58 22.97 17.27 22.17 17.87 21.4 18.45 20.73 18.96 19.32 18.96 17.91 18.96 17.24 18.45 16.47 17.87 15.67 17.26 14.76 16.58 13.02 16.58 11.28 16.58 10.37 17.27 9.57 17.87 8.8 18.45 8.13 18.96 6.72 18.96 5.74 18.96 5.12 18.71 4.58 18.37 4.39 18.65 4.21 18.93 4.04 19.21 4.69 19.62 5.5 19.96 6.72 19.96Z" fill="#E4E0E1"/><path d="M46.62 49.15 43.34 49.15C42.51 49.15 41.84 48.47 41.84 47.65L41.84 47.65C41.84 46.82 42.52 46.15 43.34 46.15L46.62 46.15C47.45 46.15 48.12 46.83 48.12 47.65L48.12 47.65C48.12 48.47 47.44 49.15 46.62 49.15Z" fill="#FC8165"/></g><g><g><g><path d="M96.19 28.12 93.89 20.2 68.68 71.6 73.67 74.05Z" fill="#FFE67D"/><path d="M86.23 23.23 63.7 69.16 68.68 71.6 93.89 20.2Z" fill="#FFF6CF"/></g><path d="M77.27 71.67 63.38 64.86C62.46 64.41 61.34 64.79 60.89 65.71L60.89 65.71C60.44 66.63 60.82 67.75 61.74 68.2L75.63 75.01C76.55 75.46 77.67 75.08 78.12 74.16L78.12 74.16C78.57 73.24 78.18 72.12 77.27 71.67Z" fill="#FFD522"/><rect x="61.95" y="69.05" width="7.11" height="18.92" fill="#FFD522" transform="matrix(0.8978 0.4403 -0.4403 0.8978 41.2626 -20.8222)"/><rect x="64.11" y="72.83" width="7.11" height="2.56" fill="#FFB127" transform="matrix(0.8978 0.4403 -0.4403 0.8978 39.542 -22.2248)"/></g><path d="M72.43 83.78C73.64 81.31 72.93 78.47 70.46 77.26 67.99 76.05 66.04 77.58 64.82 80.05 63.61 82.52 63.59 85 66.06 86.22 68.54 87.42 71.21 86.25 72.43 83.78Z" fill="#F4B68C"/></g><ellipse cx="61.7" cy="78.43" rx="2.98" ry="0.56" fill="#F4B68C" transform="matrix(0.4295 -0.9031 0.9031 0.4295 -35.6285 100.469)"/></g><g><g><path d="M43.2 67.97 17.31 67.97 30.25 85.87Z" fill="#404041"/><path d="M43.2 67.97 30.26 85.87 30.26 103.77C34.45 103.77 42.57 98.22 44.22 94.3 46.9 87.92 43.2 67.97 43.2 67.97Z" fill="#5E5E5E"/><path d="M17.31 67.97C17.31 67.97 13.6 87.91 16.29 94.3 17.94 98.22 26.05 103.77 30.25 103.77L30.25 85.87 17.31 67.97Z" fill="#5E5E5E"/></g><g><path d="M43.2 66.83 17.31 66.83 30.25 84.43Z" fill="#F2F2F2"/><path d="M43.2 66.83 30.26 84.43 30.26 102.03C34.45 102.03 42.57 96.58 44.22 92.72 46.9 86.44 43.2 66.83 43.2 66.83Z" fill="#D1D1D1"/><path d="M17.31 66.83C17.31 66.83 13.6 86.44 16.29 92.72 17.94 96.58 26.05 102.03 30.25 102.03L30.25 84.43 17.31 66.83Z" fill="#E4E0E1"/></g><path d="M30.25 99.17C27.23 99.17 20.13 94.43 18.92 91.6 17.38 88.01 18.47 77.12 19.71 69.7L40.8 69.7C42.03 77.13 43.12 88.01 41.59 91.6 40.37 94.43 33.28 99.17 30.25 99.17Z" fill="#BCBCBC"/><path d="M30.25 98.31C27.58 98.31 20.78 93.76 19.71 91.26 18.41 88.22 19.16 78.55 20.44 70.55L40.06 70.55C41.34 78.54 42.09 88.21 40.79 91.26 39.72 93.77 32.92 98.31 30.25 98.31Z" fill="#FFD522"/><g><path d="M40.85 91.09C42.06 87.88 41.32 78.42 40.06 70.56L30.25 70.56 30.25 91.09 40.85 91.09Z" fill="#FFD522"/><path d="M30.25 70.55 20.44 70.55C19.18 78.41 18.44 87.87 19.65 91.08L30.25 91.08 30.25 70.55Z" fill="#FFC024"/><path d="M30.25 91.09 30.25 98.32C30.25 98.32 30.25 98.32 30.25 98.32 32.92 98.32 39.72 93.77 40.79 91.27 40.81 91.22 40.83 91.15 40.85 91.1L30.25 91.1Z" fill="#FFC024"/><path d="M19.66 91.09C19.68 91.15 19.7 91.21 19.72 91.27 20.79 93.77 27.59 98.32 30.26 98.32L30.26 91.09 19.66 91.09Z" fill="#FFD522"/></g><g><circle cx="30.25" cy="76.32" r="1.85" fill="#E4E0E1"/><circle cx="30.25" cy="76.32" r="1.35" fill="#BCBCBC"/></g><g><circle cx="30.25" cy="82.25" r="1.85" fill="#E4E0E1"/><circle cx="30.25" cy="82.25" r="1.35" fill="#BCBCBC"/></g><g><circle cx="30.25" cy="88.19" r="1.85" fill="#E4E0E1"/><circle cx="30.25" cy="88.19" r="1.35" fill="#BCBCBC"/></g></g></svg>