<svg width="960.12" height="95.03" viewBox="0 0 960.12 95.03" xmlns="http://www.w3.org/2000/svg" xmlns:xlink="http://www.w3.org/1999/xlink" overflow="hidden"><defs></defs><g><rect x="0" y="15.97" width="960.12" height="79.05" fill="#965028"/><g><g><g><path d="M34.22 45.51 22.99 56.73C22.59 57.13 21.92 57.13 21.52 56.73L21.52 56.73C21.12 56.33 21.12 55.66 21.52 55.26L32.75 44.03C33.15 43.63 33.82 43.63 34.22 44.03L34.22 44.03C34.62 44.44 34.62 45.1 34.22 45.51Z" fill="#E29059"/><path d="M41.18 52.46 29.95 63.69C29.55 64.09 28.88 64.09 28.48 63.69L28.48 63.69C28.08 63.29 28.08 62.62 28.48 62.22L39.71 50.99C40.11 50.59 40.78 50.59 41.18 50.99L41.18 50.99C41.58 51.4 41.58 52.06 41.18 52.46Z" fill="#E29059"/><path d="M40.43 46.26 23.74 62.94C23.34 63.34 22.67 63.34 22.27 62.94L22.27 62.94C21.87 62.54 21.87 61.87 22.27 61.47L38.95 44.79C39.35 44.39 40.02 44.39 40.42 44.79L40.42 44.79C40.83 45.19 40.83 45.85 40.43 46.26Z" fill="#E29059"/></g><g><path d="M106.78 67.72 95.55 78.94C95.15 79.34 94.48 79.34 94.08 78.94L94.08 78.94C93.68 78.54 93.68 77.87 94.08 77.47L105.31 66.24C105.71 65.84 106.38 65.84 106.78 66.24L106.78 66.24C107.18 66.65 107.18 67.31 106.78 67.72Z" fill="#EFA470"/><path d="M113.74 74.67 102.51 85.9C102.11 86.3 101.44 86.3 101.04 85.9L101.04 85.9C100.64 85.5 100.64 84.83 101.04 84.43L112.27 73.2C112.67 72.8 113.34 72.8 113.74 73.2L113.74 73.2C114.14 73.61 114.14 74.27 113.74 74.67Z" fill="#EFA470"/><path d="M112.99 68.47 96.3 85.15C95.9 85.55 95.23 85.55 94.83 85.15L94.83 85.15C94.43 84.75 94.43 84.08 94.83 83.68L111.51 67C111.91 66.6 112.58 66.6 112.98 67L112.98 67C113.39 67.4 113.39 68.06 112.99 68.47Z" fill="#EFA470"/></g><g><path d="M231.93 48.98 220.7 60.21C220.3 60.61 219.63 60.61 219.23 60.21L219.23 60.21C218.83 59.81 218.83 59.14 219.23 58.74L230.46 47.51C230.86 47.11 231.53 47.11 231.93 47.51L231.93 47.51C232.33 47.92 232.33 48.58 231.93 48.98Z" fill="#E29059"/><path d="M238.89 55.94 227.66 67.17C227.26 67.57 226.59 67.57 226.19 67.17L226.19 67.17C225.79 66.77 225.79 66.1 226.19 65.7L237.42 54.47C237.82 54.07 238.49 54.07 238.89 54.47L238.89 54.47C239.29 54.87 239.29 55.54 238.89 55.94Z" fill="#E29059"/><path d="M238.13 49.74 221.45 66.42C221.05 66.82 220.38 66.82 219.98 66.42L219.98 66.42C219.58 66.02 219.58 65.35 219.98 64.95L236.66 48.27C237.06 47.87 237.73 47.87 238.13 48.27L238.13 48.27C238.54 48.67 238.54 49.33 238.13 49.74Z" fill="#E29059"/></g><circle cx="64.91" cy="47.11" r="2.42" fill="#EFA470"/><circle cx="81.02" cy="84.67" r="2.42" fill="#E29059"/><circle cx="128.34" cy="45.92" r="2.42" fill="#E29059"/><circle cx="236.77" cy="87.09" r="2.42" fill="#E29059"/><circle cx="162.67" cy="62.58" r="2.42" fill="#EFA470"/><circle cx="200.99" cy="45.92" r="2.42" fill="#E29059"/><circle cx="11.12" cy="47.09" r="2.42" fill="#E29059"/><circle cx="47.94" cy="66.37" r="1.37" fill="#E29059"/><circle cx="100.43" cy="39.13" r="1.37" fill="#E29059"/><circle cx="138.48" cy="55.5" r="1.37" fill="#E29059"/><circle cx="187.33" cy="44.69" r="1.37" fill="#E29059"/><circle cx="206.5" cy="56.87" r="1.37" fill="#EFA470"/><circle cx="150.26" cy="84.67" r="1.37" fill="#E29059"/><circle cx="22.61" cy="84.67" r="1.37" fill="#EFA470"/></g><g><g><path d="M358.77 67.72 347.54 78.95C347.14 79.35 346.47 79.35 346.07 78.95L346.07 78.95C345.67 78.55 345.67 77.88 346.07 77.48L357.3 66.25C357.7 65.85 358.37 65.85 358.77 66.25L358.77 66.25C359.17 66.65 359.17 67.31 358.77 67.72Z" fill="#EFA470"/><path d="M365.73 74.67 354.5 85.9C354.1 86.3 353.43 86.3 353.03 85.9L353.03 85.9C352.63 85.5 352.63 84.83 353.03 84.43L364.26 73.2C364.66 72.8 365.33 72.8 365.73 73.2L365.73 73.2C366.13 73.61 366.13 74.27 365.73 74.67Z" fill="#EFA470"/><path d="M364.97 68.47 348.29 85.15C347.89 85.55 347.22 85.55 346.82 85.15L346.82 85.15C346.42 84.75 346.42 84.08 346.82 83.68L363.5 67C363.9 66.6 364.57 66.6 364.97 67L364.97 67C365.38 67.4 365.38 68.06 364.97 68.47Z" fill="#EFA470"/></g><g><path d="M483.92 48.98 472.69 60.21C472.29 60.61 471.62 60.61 471.22 60.21L471.22 60.21C470.82 59.81 470.82 59.14 471.22 58.74L482.45 47.51C482.85 47.11 483.52 47.11 483.92 47.51L483.92 47.51C484.32 47.92 484.32 48.58 483.92 48.98Z" fill="#E29059"/><path d="M490.88 55.94 479.65 67.17C479.25 67.57 478.58 67.57 478.18 67.17L478.18 67.17C477.78 66.77 477.78 66.1 478.18 65.7L489.41 54.47C489.81 54.07 490.48 54.07 490.88 54.47L490.88 54.47C491.28 54.87 491.28 55.54 490.88 55.94Z" fill="#E29059"/><path d="M490.12 49.74 473.44 66.42C473.04 66.82 472.37 66.82 471.97 66.42L471.97 66.42C471.57 66.02 471.57 65.35 471.97 64.95L488.65 48.27C489.05 47.87 489.72 47.87 490.12 48.27L490.12 48.27C490.53 48.67 490.53 49.33 490.12 49.74Z" fill="#E29059"/></g><circle cx="316.9" cy="47.11" r="2.42" fill="#EFA470"/><circle cx="333.01" cy="84.67" r="2.42" fill="#E29059"/><circle cx="380.33" cy="45.92" r="2.42" fill="#E29059"/><circle cx="488.76" cy="87.09" r="2.42" fill="#E29059"/><circle cx="414.65" cy="62.58" r="2.42" fill="#EFA470"/><circle cx="452.98" cy="45.92" r="2.42" fill="#E29059"/><circle cx="263.11" cy="47.09" r="2.42" fill="#E29059"/><circle cx="299.93" cy="66.37" r="1.37" fill="#E29059"/><circle cx="352.42" cy="39.13" r="1.37" fill="#E29059"/><circle cx="390.46" cy="55.5" r="1.37" fill="#E29059"/><circle cx="439.32" cy="44.69" r="1.37" fill="#E29059"/><circle cx="458.49" cy="56.87" r="1.37" fill="#EFA470"/><circle cx="402.25" cy="84.67" r="1.37" fill="#E29059"/><circle cx="274.6" cy="84.67" r="1.37" fill="#EFA470"/></g></g><g><g><g><path d="M551.43 67.72 540.2 78.94C539.8 79.34 539.13 79.34 538.73 78.94L538.73 78.94C538.33 78.54 538.33 77.87 538.73 77.47L549.96 66.24C550.36 65.84 551.03 65.84 551.43 66.24L551.43 66.24C551.84 66.65 551.84 67.31 551.43 67.72Z" fill="#EFA470"/><path d="M558.39 74.67 547.16 85.9C546.76 86.3 546.09 86.3 545.69 85.9L545.69 85.9C545.29 85.5 545.29 84.83 545.69 84.43L556.92 73.2C557.32 72.8 557.99 72.8 558.39 73.2L558.39 73.2C558.79 73.61 558.79 74.27 558.39 74.67Z" fill="#EFA470"/><path d="M557.64 68.47 540.96 85.15C540.56 85.55 539.89 85.55 539.49 85.15L539.49 85.15C539.09 84.75 539.09 84.08 539.49 83.68L556.17 67C556.57 66.6 557.24 66.6 557.64 67L557.64 67C558.04 67.4 558.04 68.06 557.64 68.47Z" fill="#EFA470"/></g><g><path d="M676.58 48.98 665.35 60.21C664.95 60.61 664.28 60.61 663.88 60.21L663.88 60.21C663.48 59.81 663.48 59.14 663.88 58.74L675.11 47.51C675.51 47.11 676.18 47.11 676.58 47.51L676.58 47.51C676.98 47.92 676.98 48.58 676.58 48.98Z" fill="#E29059"/><path d="M683.54 55.94 672.31 67.17C671.91 67.57 671.24 67.57 670.84 67.17L670.84 67.17C670.44 66.77 670.44 66.1 670.84 65.7L682.07 54.47C682.47 54.07 683.14 54.07 683.54 54.47L683.54 54.47C683.94 54.87 683.94 55.54 683.54 55.94Z" fill="#E29059"/><path d="M682.79 49.74 666.1 66.42C665.7 66.82 665.03 66.82 664.63 66.42L664.63 66.42C664.23 66.02 664.23 65.35 664.63 64.95L681.31 48.27C681.71 47.87 682.38 47.87 682.78 48.27L682.78 48.27C683.19 48.67 683.19 49.33 682.79 49.74Z" fill="#E29059"/></g><circle cx="509.56" cy="47.11" r="2.42" fill="#EFA470"/><circle cx="525.67" cy="84.67" r="2.42" fill="#E29059"/><circle cx="572.99" cy="45.92" r="2.42" fill="#E29059"/><circle cx="681.42" cy="87.09" r="2.42" fill="#E29059"/><circle cx="607.32" cy="62.58" r="2.42" fill="#EFA470"/><circle cx="645.64" cy="45.92" r="2.42" fill="#E29059"/><circle cx="545.08" cy="39.13" r="1.37" fill="#E29059"/><circle cx="583.13" cy="55.5" r="1.37" fill="#E29059"/><circle cx="631.98" cy="44.69" r="1.37" fill="#E29059"/><circle cx="651.15" cy="56.87" r="1.37" fill="#EFA470"/><circle cx="594.91" cy="84.67" r="1.37" fill="#E29059"/></g><g><g><path d="M803.42 67.72 792.19 78.95C791.79 79.35 791.12 79.35 790.72 78.95L790.72 78.95C790.32 78.55 790.32 77.88 790.72 77.48L801.95 66.25C802.35 65.85 803.02 65.85 803.42 66.25L803.42 66.25C803.82 66.65 803.82 67.31 803.42 67.72Z" fill="#EFA470"/><path d="M810.38 74.67 799.15 85.9C798.75 86.3 798.08 86.3 797.68 85.9L797.68 85.9C797.28 85.5 797.28 84.83 797.68 84.43L808.91 73.2C809.31 72.8 809.98 72.8 810.38 73.2L810.38 73.2C810.78 73.61 810.78 74.27 810.38 74.67Z" fill="#EFA470"/><path d="M809.62 68.47 792.94 85.15C792.54 85.55 791.87 85.55 791.47 85.15L791.47 85.15C791.07 84.75 791.07 84.08 791.47 83.68L808.15 67C808.55 66.6 809.22 66.6 809.62 67L809.62 67C810.03 67.4 810.03 68.06 809.62 68.47Z" fill="#EFA470"/></g><g><path d="M928.57 48.98 917.34 60.21C916.94 60.61 916.27 60.61 915.87 60.21L915.87 60.21C915.47 59.81 915.47 59.14 915.87 58.74L927.1 47.51C927.5 47.11 928.17 47.11 928.57 47.51L928.57 47.51C928.97 47.92 928.97 48.58 928.57 48.98Z" fill="#E29059"/><path d="M935.53 55.94 924.3 67.17C923.9 67.57 923.23 67.57 922.83 67.17L922.83 67.17C922.43 66.77 922.43 66.1 922.83 65.7L934.06 54.47C934.46 54.07 935.13 54.07 935.53 54.47L935.53 54.47C935.93 54.87 935.93 55.54 935.53 55.94Z" fill="#E29059"/><path d="M934.77 49.74 918.09 66.42C917.69 66.82 917.02 66.82 916.62 66.42L916.62 66.42C916.22 66.02 916.22 65.35 916.62 64.95L933.3 48.27C933.7 47.87 934.37 47.87 934.77 48.27L934.77 48.27C935.18 48.67 935.18 49.33 934.77 49.74Z" fill="#E29059"/></g><circle cx="761.55" cy="47.11" r="2.42" fill="#EFA470"/><circle cx="777.66" cy="84.67" r="2.42" fill="#E29059"/><circle cx="824.98" cy="45.92" r="2.42" fill="#E29059"/><circle cx="933.41" cy="87.09" r="2.42" fill="#E29059"/><circle cx="859.3" cy="62.58" r="2.42" fill="#EFA470"/><circle cx="897.63" cy="45.92" r="2.42" fill="#E29059"/><circle cx="707.76" cy="47.09" r="2.42" fill="#E29059"/><circle cx="744.58" cy="66.37" r="1.37" fill="#E29059"/><circle cx="797.07" cy="39.13" r="1.37" fill="#E29059"/><circle cx="835.11" cy="55.5" r="1.37" fill="#E29059"/><circle cx="883.97" cy="44.69" r="1.37" fill="#E29059"/><circle cx="903.14" cy="56.87" r="1.37" fill="#EFA470"/><circle cx="846.9" cy="84.67" r="1.37" fill="#E29059"/><circle cx="719.25" cy="84.67" r="1.37" fill="#EFA470"/></g></g><g><g><path d="M36.57 20.67C52.42 20.67 52.42 27.29 68.27 27.29 84.12 27.29 84.12 20.67 99.97 20.67 115.82 20.67 115.82 27.29 131.67 27.29 147.52 27.29 147.52 20.67 163.37 20.67 179.22 20.67 179.22 27.29 195.07 27.29 210.92 27.29 210.92 20.67 226.77 20.67 242.62 20.67 242.62 27.29 258.47 27.29 274.32 27.29 274.32 20.67 290.17 20.67 306.02 20.67 306.02 27.29 321.87 27.29 337.72 27.29 337.72 20.67 353.57 20.67 369.42 20.67 369.42 27.29 385.27 27.29 401.12 27.29 401.12 20.67 416.97 20.67 432.82 20.67 432.82 27.29 448.67 27.29 464.52 27.29 464.52 20.67 480.37 20.67 496.22 20.67 496.22 27.29 512.08 27.29 527.93 27.29 527.93 20.67 543.78 20.67 559.63 20.67 559.63 27.29 575.49 27.29 591.34 27.29 591.34 20.67 607.19 20.67 623.04 20.67 623.04 27.29 638.89 27.29 654.74 27.29 654.74 20.67 670.6 20.67 686.45 20.67 686.45 27.29 702.31 27.29 718.16 27.29 718.16 20.67 734.01 20.67 749.86 20.67 749.86 27.29 765.71 27.29 781.56 27.29 781.56 20.67 797.41 20.67 813.26 20.67 813.26 27.29 829.12 27.29 844.97 27.29 844.97 20.67 860.83 20.67 876.69 20.67 876.69 27.29 892.54 27.29 908.39 27.29 908.39 20.67 924.25 20.67 940.11 20.67 940.11 27.29 955.96 27.29 957.48 27.29 958.84 27.23 960.1 27.12L960.1 5.5 0 5.5 0 27.04C1.45 27.19 3.05 27.28 4.87 27.28 20.72 27.29 20.72 20.67 36.57 20.67Z" fill="#FFA50A"/></g><g><path d="M36.57 17C52.42 17 52.42 23.62 68.27 23.62 84.12 23.62 84.12 17 99.97 17 115.82 17 115.82 23.62 131.67 23.62 147.52 23.62 147.52 17 163.37 17 179.22 17 179.22 23.62 195.07 23.62 210.92 23.62 210.92 17 226.77 17 242.62 17 242.62 23.62 258.47 23.62 274.32 23.62 274.32 17 290.17 17 306.02 17 306.02 23.62 321.87 23.62 337.72 23.62 337.72 17 353.57 17 369.42 17 369.42 23.62 385.27 23.62 401.12 23.62 401.12 17 416.97 17 432.82 17 432.82 23.62 448.67 23.62 464.52 23.62 464.52 17 480.37 17 496.22 17 496.22 23.62 512.08 23.62 527.93 23.62 527.93 17 543.78 17 559.63 17 559.63 23.62 575.49 23.62 591.34 23.62 591.34 17 607.19 17 623.04 17 623.04 23.62 638.89 23.62 654.74 23.62 654.74 17 670.6 17 686.45 17 686.45 23.62 702.31 23.62 718.16 23.62 718.16 17 734.01 17 749.86 17 749.86 23.62 765.71 23.62 781.56 23.62 781.56 17 797.41 17 813.26 17 813.26 23.62 829.12 23.62 844.97 23.62 844.97 17 860.83 17 876.69 17 876.69 23.62 892.54 23.62 908.39 23.62 908.39 17 924.25 17 940.11 17 940.11 23.62 955.96 23.62 957.48 23.62 958.84 23.56 960.1 23.45L960.1 1.83 0 1.83 0 23.37C1.45 23.52 3.05 23.61 4.87 23.61 20.72 23.62 20.72 17 36.57 17Z" fill="#821237"/></g><rect x="0" y="0" width="960.12" height="3.66" fill="#FED893"/></g></g></svg>