<svg width="30.94" height="30.94" viewBox="0 0 30.94 30.94" xmlns="http://www.w3.org/2000/svg" xmlns:xlink="http://www.w3.org/1999/xlink" overflow="hidden"><defs></defs><circle cx="15.47" cy="15.47" r="14.22" stroke="#231F20" stroke-width="2.5" stroke-miterlimit="10" fill="#FFAB40"/><circle cx="15.47" cy="15.47" r="10.06" fill="#FFD740"/><g><path d="M16.67 18.81C14.41 19.23 11.51 18.66 11.22 15.81 10.92 13.02 13.76 10.5 15.81 9.94 16.64 9.7 17.07 10.8 16.32 11.1 14.46 11.75 12.44 13.77 12.62 15.68 12.78 17.57 14.67 17.94 16.77 17.63 16.79 16.86 16.76 16.07 16.64 15.27 16.11 15.31 15.58 15.39 15.05 15.46 14.28 15.62 14.13 14.43 14.86 14.32 16.15 14.05 17.92 13.93 18.95 13.96 19.75 13.96 19.81 15.07 18.99 15.1 18.66 15.12 18.32 15.12 17.99 15.14 18.12 16.52 18.14 18.26 17.93 19.55 17.83 20.28 16.49 20.11 16.61 19.34L16.67 18.81Z"/></g></svg>