<svg width="468.2" height="430.95" viewBox="0 0 468.2 430.95" xmlns="http://www.w3.org/2000/svg" xmlns:xlink="http://www.w3.org/1999/xlink" overflow="hidden"><defs></defs><g><path d="M439.81 33.89 365.84 33.89 361.36 45.74 355.59 33.89 294.56 33.89 288.03 51.15 279.63 33.89 263.55 33.89 259.07 45.74 253.31 33.89 188.02 33.89 183.54 45.74 177.78 33.89 140.4 33.89 135.92 45.74 130.16 33.89 82.87 33.89 76.34 51.15 67.94 33.89 28.38 33.89C12.71 33.89 0 46.6 0 62.28L0 402.57C0 418.25 12.71 430.95 28.38 430.95L91.25 430.95 96.25 420.67 100.14 430.95 109.19 430.95 117.33 414.21 123.67 430.95 195.76 430.95 203.91 414.21 210.25 430.95 237.56 430.95 242.56 420.67 246.45 430.95 280.21 430.95 285.21 420.67 289.1 430.95 335.87 430.95 340.87 420.67 344.76 430.95 352.47 430.95 361.96 411.45 369.34 430.95 439.83 430.95C455.51 430.95 468.21 418.24 468.21 402.57L468.21 62.28C468.2 46.6 455.49 33.89 439.81 33.89Z" fill="#895634"/><g><path d="M439.81 26.02 365.84 26.02 361.36 37.87 355.59 26.02 294.56 26.02 288.03 43.28 279.63 26.02 263.55 26.02 259.07 37.87 253.31 26.02 188.02 26.02 183.54 37.87 177.78 26.02 140.4 26.02 135.92 37.87 130.16 26.02 82.87 26.02 76.34 43.28 67.94 26.02 28.38 26.02C12.71 26.02 0 38.73 0 54.4L0 394.7C0 410.38 12.71 423.08 28.38 423.08L91.25 423.08 96.25 412.8 100.14 423.08 109.19 423.08 117.33 406.34 123.67 423.08 195.76 423.08 203.91 406.34 210.25 423.08 237.56 423.08 242.56 412.8 246.45 423.08 280.21 423.08 285.21 412.8 289.1 423.08 335.87 423.08 340.87 412.8 344.76 423.08 352.47 423.08 361.96 403.58 369.34 423.08 439.83 423.08C455.51 423.08 468.21 410.37 468.21 394.7L468.21 54.4C468.2 38.73 455.49 26.02 439.81 26.02Z" fill="#FEEC9C"/><g><g><g><path d="M96.06 108.06 125.85 95.11 96.06 82.15 66.26 95.11Z" fill="#C48A62"/><g><path d="M105.22 104.27 117.12 74.04 86.89 85.95 74.99 116.18Z" fill="#C48A62"/><path d="M105.22 85.95 74.99 74.04 86.89 104.27 117.12 116.18Z" fill="#C48A62"/></g></g><g><path d="M96.06 124.9 109.01 95.11 83.1 95.11Z" fill="#704528"/><path d="M96.06 65.31 109.01 95.11 83.1 95.11Z" fill="#895634"/></g></g></g><g><g><path d="M22.82 373.43C22.82 369.76 26.91 367.18 30.97 368.23 42.64 371.26 51.15 380.64 51.15 391.73 51.15 402.83 42.64 412.2 30.97 415.23 26.91 416.28 22.82 413.7 22.82 410.03L22.82 373.43Z" fill="#E7B55E"/><path d="M25.58 0C11.45 0 0 7.12 0 21.25L0 394.85C0 380.72 11.45 373.6 25.58 373.6 39.71 373.6 51.16 380.72 51.16 394.85L51.16 21.25C51.15 7.12 39.7 0 25.58 0Z" fill="#F9D076"/></g><g><path d="M445.38 374.32C445.38 370.73 441.29 368.2 437.23 369.23 425.55 372.2 417.05 381.38 417.05 392.24 417.05 403.1 425.56 412.28 437.23 415.25 441.29 416.28 445.38 413.75 445.38 410.16L445.38 374.32Z" fill="#E7B55E"/><path d="M442.62 0C456.75 0 468.2 7.12 468.2 21.25L468.2 394.85C468.2 380.72 456.75 373.6 442.62 373.6 428.49 373.6 417.04 380.72 417.04 394.85L417.04 21.25C417.04 7.12 428.5 0 442.62 0Z" fill="#F9D076"/></g></g></g></g></svg>