<svg width="98" height="56.67" viewBox="0 0 98 56.67" xmlns="http://www.w3.org/2000/svg" xmlns:xlink="http://www.w3.org/1999/xlink" overflow="hidden"><defs></defs><path d="M90.15 34.21C90.17 33.91 90.18 33.61 90.18 33.3 90.18 24.95 83.41 18.18 75.06 18.18 73.47 18.18 71.95 18.42 70.51 18.88 70.51 18.83 70.51 18.77 70.51 18.72 70.51 8.38 62.13 0 51.79 0 43.55 0 36.56 5.32 34.06 12.72 31.89 11.42 29.34 10.66 26.62 10.66 18.62 10.66 12.13 17.15 12.13 25.15 12.13 26.07 12.22 26.97 12.38 27.84 5.38 28.86 0 34.89 0 42.18 0 50.18 6.49 56.67 14.49 56.67L86.47 56.67C92.84 56.67 98 51.5 98 45.14 98 40.06 94.71 35.75 90.15 34.21Z" fill="#FFFFFF"/></svg>