<svg width="81.74" height="72.15" viewBox="0 0 81.74 72.15" xmlns="http://www.w3.org/2000/svg" xmlns:xlink="http://www.w3.org/1999/xlink" overflow="hidden"><defs></defs><g><rect x="0" y="25.59" width="81.74" height="7.93" fill="#B54E2F"/><rect x="0" y="33.52" width="81.74" height="7.93" fill="#B54E2F"/><rect x="0" y="41.46" width="81.74" height="7.93" fill="#B54E2F"/><rect x="0" y="48.45" width="81.74" height="0.94" fill="#B54E2F"/><rect x="0" y="40.52" width="81.74" height="0.94" fill="#B54E2F"/><rect x="0" y="32.58" width="81.74" height="0.94" fill="#B54E2F"/><rect x="0" y="33.52" width="81.74" height="0.94" fill="#B54E2F"/><rect x="0" y="41.46" width="81.74" height="0.94" fill="#B54E2F"/><rect x="0" y="49.39" width="81.74" height="7.93" fill="#B54E2F"/><rect x="0" y="49.39" width="81.74" height="0.94" fill="#B54E2F"/><rect x="0" y="57.32" width="81.74" height="7.77" fill="#B54E2F"/><rect x="0" y="57.37" width="81.74" height="0.94" fill="#B54E2F"/><path d="M0.73 18.01 0 25.86 81.74 25.86 81.01 18.01Z" fill="#B54E2F"/><path d="M1.33 11.55 0.73 18.02 81.02 18.02 80.42 11.55C80.32 11.08 80.21 10.62 80.07 10.17L1.67 10.17C1.54 10.62 1.42 11.08 1.33 11.55Z" fill="#B54E2F"/><path d="M80.31 11.1C80.24 10.78 80.15 10.47 80.06 10.16L1.67 10.16C1.58 10.47 1.5 10.78 1.42 11.1L80.31 11.1Z" fill="#B54E2F"/><path d="M0.81 17.08 0.73 18.01 81.01 18.01 80.93 17.08Z" fill="#B54E2F"/><path d="M1.67 10.17 80.06 10.17C79.08 6.87 77.09 4.13 74.43 2.32L7.3 2.32C4.64 4.12 2.65 6.87 1.67 10.17Z" fill="#B54E2F"/><path d="M75.65 3.26C75.26 2.93 74.86 2.61 74.44 2.32L7.3 2.32C6.88 2.61 6.48 2.92 6.09 3.26L75.65 3.26Z" fill="#B54E2F"/><path d="M2 9.23C1.89 9.54 1.77 9.85 1.68 10.17L80.07 10.17C79.98 9.85 79.86 9.54 79.75 9.23L2 9.23Z" fill="#B54E2F"/><path d="M14.92 0C12.06 0 9.46 0.85 7.3 2.32L74.44 2.32C72.28 0.85 69.68 0 66.82 0L14.92 0Z" fill="#B54E2F"/><path d="M73.38 25.86 8.36 25.86 0 25.86 0 34.22 0 56.74 0 65.1 8.36 65.1 73.38 65.1 81.74 65.1 81.74 56.74 81.74 34.22 81.74 25.86 73.38 25.86ZM74.95 58.31 6.79 58.31 6.79 32.65 74.95 32.65 74.95 58.31Z" fill="#FFAB40"/><rect x="0" y="25.86" width="81.74" height="0.94" fill="#FFAB40"/><g><path d="M0 65.1 0 69.42C0 70.93 1.22 72.15 2.73 72.15L11.27 72.15C12.94 72.15 14.55 71.48 15.73 70.3L20.93 65.1 0 65.1Z" fill="#D47E0D"/><path d="M81.74 65.1 81.74 69.42C81.74 70.93 80.52 72.15 79.01 72.15L70.47 72.15C68.8 72.15 67.19 71.48 66.01 70.3L60.81 65.1 81.74 65.1Z" fill="#D47E0D"/></g><path d="M81.11 19.07 80.41 11.54C80.24 10.7 80.01 9.89 79.72 9.12 79.43 8.35 79.08 7.61 78.68 6.91 78.28 6.21 77.82 5.55 77.32 4.94 77.07 4.63 76.81 4.34 76.53 4.06 75.43 2.93 74.15 2.01 72.73 1.32 70.96 0.47 68.96 0 66.82 0 73.37 2.14 73.74 11.33 73.74 11.33L74.39 19.07 7.36 19.07 8 11.33C8 11.33 8.36 2.14 14.92 0 8.07 0 2.69 4.83 1.33 11.55L0.63 19.08 0.63 19.08 0 25.86 6.79 25.86 74.95 25.86 81.74 25.86 81.11 19.07 81.11 19.07Z" fill="#FFAB40"/><path d="M0 25.84 81.74 25.84 81.65 24.91 0.09 24.91Z" fill="#D48E35" opacity="0.7"/><rect x="6.79" y="31.71" width="68.16" height="0.94" fill="#D48E35" opacity="0.7"/><rect x="7.35" y="19.04" width="67.05" height="0.94" fill="#FFAB40"/><rect x="6.79" y="58.31" width="68.16" height="0.94" fill="#FFAB40"/><rect x="0" y="64.16" width="81.74" height="0.94" fill="#D48E35" opacity="0.7"/><path d="M60.8 65.1 61.74 66.03 81.74 66.03 81.74 65.1Z" fill="#D47E0D"/><path d="M20.94 65.1 0 65.1 0 66.03 20 66.03Z" fill="#D47E0D"/><g><path d="M43.77 35.79 37.97 35.79C34.84 35.79 32.31 33.25 32.31 30.13L32.31 24.42 49.44 24.42 49.44 30.13C49.44 33.25 46.9 35.79 43.77 35.79Z" fill="#FFD740"/><rect x="32.3" y="22.12" width="17.13" height="2.09" fill="#FFD740"/><g><rect x="32.3" y="24.21" width="17.13" height="0.39" fill="#B0942C"/></g><rect x="32.3" y="22.12" width="17.13" height="0.31" fill="#FFD740"/><path d="M46.47 35.24 35.27 35.24C33.63 35.24 32.31 33.91 32.31 32.28L32.31 32.82C32.31 34.46 33.64 35.78 35.27 35.78L46.48 35.78C48.12 35.78 49.44 34.45 49.44 32.82L49.44 32.28C49.44 33.92 48.11 35.24 46.47 35.24Z" fill="#E8C43A"/><g><rect x="36.7" y="22.12" width="0.26" height="2.29" fill="#B0942C"/></g><g><rect x="44.78" y="22.12" width="0.26" height="2.29" fill="#B0942C"/></g><path d="M42.77 28.23C42.77 27.18 41.92 26.33 40.87 26.33 39.82 26.33 38.97 27.18 38.97 28.23 38.97 28.86 39.28 29.42 39.75 29.76L39.75 31.72C39.75 32.33 40.25 32.83 40.86 32.83L40.86 32.83C41.47 32.83 41.97 32.33 41.97 31.72L41.97 29.76C42.46 29.41 42.77 28.86 42.77 28.23Z" fill="#524514"/><rect x="32.3" y="24.61" width="17.13" height="0.31" fill="#FFD740"/></g></g></svg>