<svg width="126.04" height="66.27" viewBox="0 0 126.04 66.27" xmlns="http://www.w3.org/2000/svg" xmlns:xlink="http://www.w3.org/1999/xlink" overflow="hidden"><defs></defs><path d="M0 51.3C0 59.57 6.7 66.27 14.97 66.27L105.91 66.27C117.03 66.27 126.04 57.26 126.04 46.14 126.04 35.02 117.03 26.01 105.91 26.01 105.9 26.01 105.89 26.01 105.89 26.01 105.37 11.56 93.5 0 78.91 0 67.5 0 57.75 7.08 53.8 17.09 51.12 16.05 48.21 15.47 45.16 15.47 32.51 15.47 22.16 25.34 21.4 37.8 19.45 36.87 17.27 36.33 14.97 36.33 6.7 36.33 0 43.03 0 51.3ZM66.03 50.74C66.39 50.94 66.76 51.12 67.13 51.3L65.7 51.3C65.82 51.11 65.93 50.93 66.03 50.74Z" fill="#FFFFFF"/></svg>