<svg width="99.54" height="55.38" viewBox="0 0 99.54 55.38" xmlns="http://www.w3.org/2000/svg" xmlns:xlink="http://www.w3.org/1999/xlink" overflow="hidden"><defs></defs><path d="M99.38 30.84C99.39 30.52 99.4 30.2 99.4 29.87L99.4 29.61 99.2 29.63C97.41 19.29 88.4 11.42 77.55 11.42 76.05 11.42 74.58 11.57 73.16 11.86 68.44 4.72 60.32 0 51.1 0 37.21 0 25.83 10.71 24.74 24.32 22.33 22.96 19.56 22.18 16.6 22.18 7.43 22.18 0 29.61 0 38.78L0 38.95C0 48.02 7.36 55.38 16.43 55.38L73.9 55.38C74.53 55.38 75.16 55.35 75.78 55.3 76.37 55.35 76.96 55.38 77.56 55.38 89.7 55.38 99.53 45.54 99.53 33.41 99.54 32.54 99.48 31.68 99.38 30.84Z" fill="#FFFFFF"/></svg>