<svg width="366.61" height="97.16" viewBox="0 0 366.61 97.16" xmlns="http://www.w3.org/2000/svg" xmlns:xlink="http://www.w3.org/1999/xlink" overflow="hidden"><defs></defs><linearGradient x1="69.8574" y1="162.031" x2="296.756" y2="-64.8679" gradientUnits="userSpaceOnUse" id="SVGID_1_"><stop offset="0"/><stop offset="0.2976" stop-color="#6D6E70"/><stop offset="0.5463"/><stop offset="0.7659" stop-color="#808184"/><stop offset="1"/></linearGradient><path d="M358.11 94.66 8.5 94.66C5.2 94.66 2.5 91.96 2.5 88.66L2.5 8.5C2.5 5.2 5.2 2.5 8.5 2.5L358.11 2.5C361.41 2.5 364.11 5.2 364.11 8.5L364.11 88.66C364.11 91.96 361.41 94.66 358.11 94.66Z" fill="#F1F1F2"/><path d="M358.11 94.66 8.5 94.66C5.2 94.66 2.5 91.96 2.5 88.66L2.5 8.5C2.5 5.2 5.2 2.5 8.5 2.5L358.11 2.5C361.41 2.5 364.11 5.2 364.11 8.5L364.11 88.66C364.11 91.96 361.41 94.66 358.11 94.66Z" stroke="url(#SVGID_1_)" stroke-width="5" stroke-miterlimit="10" fill="#FFFFFF"/><path d="M358.11 94.66 8.5 94.66C5.2 94.66 2.5 91.96 2.5 88.66L2.5 8.5C2.5 5.2 5.2 2.5 8.5 2.5L358.11 2.5C361.41 2.5 364.11 5.2 364.11 8.5L364.11 88.66C364.11 91.96 361.41 94.66 358.11 94.66Z" stroke="#FFFFFF" stroke-miterlimit="10" fill="#404041"/></svg>