<svg width="80.47" height="46.53" viewBox="0 0 80.47 46.53" xmlns="http://www.w3.org/2000/svg" xmlns:xlink="http://www.w3.org/1999/xlink" overflow="hidden"><defs></defs><path d="M74.02 28.09C74.03 27.84 74.04 27.59 74.04 27.34 74.04 20.48 68.48 14.92 61.62 14.92 60.32 14.92 59.06 15.12 57.89 15.49 57.89 15.45 57.89 15.4 57.89 15.36 57.9 6.88 51.02 0 42.53 0 35.77 0 30.03 4.37 27.97 10.44 26.18 9.37 24.1 8.75 21.86 8.75 15.29 8.75 9.96 14.08 9.96 20.65 9.96 21.41 10.03 22.14 10.17 22.86 4.42 23.7 0 28.65 0 34.63 0 41.2 5.33 46.53 11.9 46.53L71 46.53C76.23 46.53 80.47 42.29 80.47 37.06 80.47 32.89 77.77 29.35 74.02 28.09Z" fill="#FFFFFF"/></svg>