<svg width="1847.54" height="777.81" viewBox="0 0 1847.54 777.81" xmlns="http://www.w3.org/2000/svg" xmlns:xlink="http://www.w3.org/1999/xlink" overflow="hidden"><defs></defs><g><g><defs><rect x="454.35" y="79.99" width="960" height="540" id="SVGID_1_"/></defs><clipPath id="SVGID_2_"><use width="100%" height="100%" xlink:href="#SVGID_1_" overflow="visible"></use></clipPath><g clip-path="url(#SVGID_2_)"><g><rect x="436.09" y="2.67" width="982.09" height="654.73" fill="#4FBFEF" transform="matrix(1 0.00545163 -0.00545163 1 1.813 -5.0495)"/><g><path d="M459.82 354C512.38 358.15 566.74 353.74 620.81 347.35 648.78 344.05 679.49 339.56 703.99 352.28 756.23 379.4 844.74 405.03 909.71 384.95 976.72 364.24 1065.74 400.1 1120.09 357.15 1168.67 318.76 1236.21 365.61 1294.34 343.43 1322.25 332.79 1340.98 336.39 1368.52 344.91 1385.14 350.05 1401.47 354 1418.05 356.28L1419.01 180.82 1419.97 5.36 928.92 2.68 437.88 0 436.92 175.54 435.96 351.08C443.76 352.38 451.72 353.36 459.82 354Z" fill="#1AB2E6"/><path d="M437.88 0 437.19 127.24C449.06 128.33 460.51 231.57 472.47 231.63 474.08 231.64 475.67 245.89 477.38 245.9 483.81 246.77 490.36 247.44 497.03 247.89 540.51 250.81 585.69 248.43 628.57 247.33 631.45 247.26 634.36 247.2 637.27 247.15 656.81 246.83 677.36 247 694.95 255.82 739.14 277.9 808.76 298.18 863.29 287.13 920.47 275.55 993.06 300.49 1041.6 270.17 1051.56 263.91 1062.16 260.59 1073.15 258.93 1109.13 253.55 1150.94 269.09 1189.11 257.49 1212.25 250.46 1229.18 252.89 1252.11 258.57 1266.22 262.07 1280.16 264.69 1294.23 266.2 1310.11 266.11 1325.73 173.97 1336.46 165.83 1354.68 152.01 1386.69 142.39 1408.04 132.68 1411.61 131.06 1415.47 114.37 1419.36 113.75L1419.95 5.35 928.92 2.68 437.88 0Z" fill="#00ACE5"/><path d="M437.88 0 437.45 78.95C461.18 81.14 484.92 133.46 508.86 133.57 512.07 133.58 515.37 140.71 518.79 140.73 523.85 141.18 529.01 141.52 534.24 141.78 568.63 143.46 604.68 143.18 636.34 147.31 638.5 147.59 640.65 147.91 642.79 148.24 657 150.45 672.08 152.78 685.92 159.35 722.05 176.38 772.95 191.45 816.89 189.3 864.41 186.98 920.46 200.96 963.13 183.18 971.82 179.56 980.75 177.23 989.83 175.57 1018.87 170.34 1052.13 177.59 1083.91 171.54 1102.2 168.06 1117.45 169.34 1135.73 172.22 1147.34 174.05 1158.88 175.38 1170.44 176.11 1202.21 175.93 1232.63 142.22 1254.08 125.95 1290.52 98.31 1354.43 97.93 1397.15 78.52 1404.28 75.28 1411.87 65.37 1419.66 64.15L1419.98 5.35 928.92 2.68 437.88 0Z" fill="#00A6E4"/><path d="M1419.96 5.35 928.92 2.68 437.88 0 437.71 30.65C473.31 33.93 509.34 35.34 545.24 35.51 578.35 35.66 620.37 34.65 648.29 49.35 682.01 67.1 725.09 82.74 770.47 91.49 815.85 100.24 863.54 102.09 906.48 92.24 989.11 73.28 1107.13 106.36 1171.82 57.3 1226.48 15.84 1322.14 53.51 1386.21 24.39 1396.91 19.52 1408.23 16.4 1419.91 14.57L1419.96 5.35Z" fill="#009FE3"/></g><path d="M1417.22 507.04C1380.16 513.85 1343.13 520.9 1306.66 528.57 1236.12 543.39 1161.41 516.85 1091.04 535.29 1014.66 555.3 933.95 543.22 854.94 532.72 798.58 525.23 740.65 533.76 685.08 540.79 658.84 544.11 665.57 536.71 653.43 530.04 631.37 517.92 612.81 516.51 580.85 516.76 532.74 517.13 483.61 516.64 435.04 518.63L434.44 628.65 1416.52 634 1417.22 507.04Z" fill="#58C8F8"/><path d="M1416.85 575.44C1379.79 582.25 1342.76 589.3 1306.29 596.97 1235.75 611.79 1161.04 585.25 1090.67 603.69 1014.29 623.7 933.58 611.62 854.57 601.12 798.21 593.63 740.28 602.16 684.71 609.19 658.47 612.51 665.2 605.11 653.06 598.44 631 586.32 612.44 584.91 580.48 585.16 532.37 585.53 483.24 585.04 434.67 587.03L434.3 654.73 1416.38 660.08 1416.85 575.44Z" fill="#62D0FF"/></g><g><defs><rect x="436.09" y="2.67" width="982.09" height="654.73" id="SVGID_3_" transform="matrix(1 0.00545163 -0.00545163 1 1.813 -5.0495)"/></defs><clipPath id="SVGID_4_"><use width="100%" height="100%" xlink:href="#SVGID_3_" overflow="visible"></use></clipPath><path d="M533.48 255.49C507.41 217.99 653.47 319.76 698.48 341.41 743.49 363.06 656.29 353.56 656.29 353.56 656.29 353.56 746.75 394.21 788.4 405.92 830.05 417.63 907.98 429.55 896.5 429.48 885.02 429.41 864.46 429.31 864.46 429.31L872.9 434.19C872.9 434.19 780.53 409.5 792.58 416.82 804.63 424.14 804.59 432 757.56 408.77 710.53 385.54 679.7 383.56 698.96 399.99 718.22 416.42 659.76 381.03 632.65 364.56 605.54 348.09 590.43 346.19 619.31 371.74 648.19 397.29 699.39 432.03 667.44 416.14 635.48 400.25 622.86 386.27 622.22 393.52 621.58 400.77 644.43 422.06 608.26 402.51 572.09 382.97 505.88 328.19 519.75 335.52 533.62 342.85 559.53 359.01 548.12 343.99 536.71 328.97 551.16 340.53 571.64 355.16 592.12 369.78 572.89 347.91 573.56 335.82 574.23 323.73 651.98 368.29 610.47 330.58 568.94 292.88 541.28 266.72 533.48 255.49Z" fill="#93D0EF" clip-path="url(#SVGID_4_)"/><path d="M711.38 452.77C813.27 487.52 945.06 499.45 936.26 501.67 927.46 503.89 841.98 488.96 855.28 496.21 868.58 503.46 927.42 514.92 915.24 513.26 903.06 511.6 722.15 486.76 624.98 444.01 527.81 401.26 645.32 452.27 762.43 478.19 796.94 485.83 686.63 453.29 674.35 443.34 662.07 433.4 711.38 452.77 711.38 452.77Z" fill="#93D0EF" clip-path="url(#SVGID_4_)"/><path d="M946.45 414.44C934.93 419.82 997.82 418.95 1022.63 414.86 1047.44 410.76 1138.23 393.12 1155.18 388.38 1172.13 383.64 1117 405.1 1129.05 412.42 1141.1 419.74 1205.94 393.49 1232.6 383.36 1259.26 373.23 1327.39 296.36 1280.18 306.91 1232.96 317.46 1150.5 360.69 1124.46 367.73 1098.42 374.77 1149.24 369.6 1145.59 372.61 1141.95 375.61 1096.51 392.29 1072.32 393.37 1048.13 394.45 1051.77 391.44 1063.89 387.88 1076.01 384.32 1076 384.32 1076 384.32 1076 384.32 1100.27 369.34 1064.54 378.82 1028.82 388.3 1020.91 397.32 1031.8 394.97 1042.7 392.61 1062.74 401.93 1025.42 406.7 988.1 411.45 946.45 414.44 946.45 414.44Z" fill="#93D0EF" clip-path="url(#SVGID_4_)"/><path d="M1157.75 454.1C1137.67 460.71 1117.3 466.31 1096.67 470.91 1047 482 946.99 507.44 967.82 507.11 993.95 506.69 1008.28 504.72 1081.01 486.71 1153.74 468.69 1030.95 502.8 1059.02 499.89 1087.09 496.97 1176.23 480.45 1272.6 437.31 1368.97 394.17 1181.87 466.24 1159.49 466.11 1147.56 466.04 1260.82 430.16 1300.05 409.18 1318.89 399.1 1215.22 435.19 1157.75 454.1Z" fill="#93D0EF" clip-path="url(#SVGID_4_)"/><g clip-path="url(#SVGID_4_)"><g><path d="M855.46 350.45C860.49 348.24 856.03 339.99 851.39 341.34 851.39 341.34 852.81 337.76 850.37 334.74 847.93 331.71 843.16 332.7 841.43 331.45 839.7 330.19 839.14 326.93 835.93 326.63 832.72 326.33 827.42 329.45 826.04 327.72 824.66 325.99 822.1 321.28 819.12 321.89 816.14 322.49 812.89 322.38 811.25 321.23 809.62 320.08 810.29 312.12 802.4 310.76 794.51 309.4 791.91 311.58 789.87 309.01 787.83 306.44 791.39 302.32 788.01 301.49 784.62 300.65 786.26 296.16 783.48 296.88 780.7 297.6 782.79 290.95 778.13 289.88 773.47 288.81 770.53 290.56 770.53 290.56 770.53 290.56 783.72 274.49 765.93 266.4 748.13 258.3 744.85 273.95 743.13 274.47 743.13 274.47 740.39 266.64 733.95 269.6 727.51 272.55 729.6 279.02 729.6 279.02 729.6 279.02 727.72 273.37 721.99 273.33 716.26 273.29 718.67 278.22 716.51 278.28 714.35 278.34 713.08 271.85 709.4 272.47 705.73 273.09 702.81 273.8 700.97 270.09 699.13 266.39 698.55 261.51 693.67 262.41 688.79 263.31 686.07 263.73 682.13 260.72 678.2 257.71 677.86 254.75 674.14 255.52 670.42 256.29 668.74 254.03 668.74 254.03 668.74 254.03 670.37 235.53 655.06 233.28 639.75 231.03 634.75 239.26 630.68 235.11 626.62 230.96 629.92 225.59 620.84 224.51 611.75 223.43 634.63 205.75 612.5 198.74 612.5 198.74 628.82 182.64 611.82 171.15 594.82 159.66 583.34 169.31 583.34 169.31 583.34 169.31 577.39 158.92 570.37 163.42 570.37 163.42 571.7 151.88 562.66 145.42 553.62 138.96 545.39 142.32 545.39 142.32 545.39 142.32 550.67 134.23 538.38 129.74 526.09 125.25 523.1 132.94 523.1 132.94 523.1 132.94 509.66 118.45 503.49 130.1 497.31 141.76 491.98 129.42 485.96 131.84 479.94 134.26 479.12 143.85 479.12 143.85 479.12 143.85 477.75 138.37 470.97 138.41 464.19 138.45 461.84 144.96 461.84 144.96 461.84 144.96 453.29 135.37 444.47 138.87 435.65 142.38 435.17 150.69 435.17 150.69 435.17 150.69 435.64 149.02 428.47 146.73 421.31 144.44 422.71 152.7 422.71 152.7 422.71 152.7 423.05 144.76 410.1 141.88 397.14 139 395.89 148.9 387.35 146.32 378.8 143.74 377.27 133.66 366.85 132.06 356.43 130.47 353.77 136.01 353.77 136.01 353.77 136.01 348.29 127.48 341.61 134.42 341.61 134.42 338.11 124.85 327.47 128.71 316.83 132.57 319.4 141.34 319.4 141.34 319.4 141.34 312.99 133.98 307.54 139.75 302.1 145.52 306.32 152.12 306.32 152.12 306.32 152.12 300.12 143.77 296.44 148.43 292.76 153.1 285.25 147.06 284.73 150.44 284.22 153.81 274.95 150.55 274.12 155.48 273.29 160.41 290.82 163.67 289.64 167.58 288.45 171.49 298.46 176.07 298.46 176.07 298.46 176.07 297.48 182.84 306.05 185.43 314.62 188.02 317.81 182.46 317.81 182.46 317.81 182.46 316.12 194.75 335.74 198.74 355.36 202.73 355.24 187.29 355.24 187.29 355.24 187.29 356.12 200.49 368.07 201.14 380.02 201.8 383.66 197.24 383.66 197.24 383.66 197.24 378.65 216.42 406.09 227.28 433.53 238.14 444.06 233.8 444.06 233.8 444.06 233.8 443.49 245.36 459.74 250.21 475.99 255.06 484.6 250.38 484.6 250.38 484.6 250.38 490.75 266.64 504.58 268.94 518.41 271.24 523.92 264.56 523.92 264.56 523.92 264.56 530.19 278.63 543.26 271.7 543.26 271.7 542.68 278.67 556.82 279.37 570.96 280.07 562.17 280.38 573.23 285.05 584.29 289.72 593.58 286.62 593.58 286.62 593.58 286.62 596.85 299.47 613.8 300.54 630.75 301.6 627.63 287.88 627.63 287.88 627.63 287.88 633.89 296.47 641.87 289.83 641.87 289.83 639.89 302.58 655.14 305.5 670.39 308.42 673.98 302.19 673.98 302.19 673.98 302.19 672.05 316.74 689.34 315.02 689.34 315.02 684.75 322.57 698.02 325.27 698.02 325.27 703.71 334.48 714.57 331.83 725.43 329.19 722.79 320.86 722.79 320.86 722.79 320.86 725.75 328.05 731.58 323.02 731.58 323.02 728.24 334.74 740.93 335.07 753.62 335.4 756.73 329.4 760.84 334.23 764.95 339.06 775.7 339.56 775.7 339.56 775.7 339.56 773.39 345.77 785 349.4 796.61 353.03 805.81 348.25 805.81 348.25 805.81 348.25 808.02 355.13 816.71 352.19 825.4 349.26 826.79 346.99 826.79 346.99 826.79 346.99 828.21 353.87 839.18 353.36 850.15 352.85 849.78 349.19 849.78 349.19 849.78 349.19 851.24 352.31 855.46 350.45Z" fill="#FFFFFF"/><g><path d="M432.85 170.81C432.85 170.81 432.79 170.32 432.78 170.07L432.85 170.81Z" fill="#EEEEEE"/><path d="M737.26 314.55 737.28 314.52 737.26 314.55Z" fill="#EEEEEE"/><path d="M618.11 269.45C618.11 269.45 618.14 269.3 618.16 269.21L618.11 269.45Z" fill="#EEEEEE"/><path d="M381.26 153.25C379.99 152.35 378.86 151.21 378 149.79 377.99 149.79 379.55 151.23 381.26 153.25Z" fill="#EEEEEE"/><path d="M274.11 155.46C274.94 150.53 284.21 153.79 284.72 150.42 285.23 147.05 292.75 153.08 296.43 148.41 298.13 146.26 300.35 146.88 302.26 148.16 296.25 146.55 299.71 152.53 299.71 152.53 299.71 152.53 292.39 150.26 295.12 158.6 297.85 166.94 303.7 164.01 303.7 164.01 306.23 174.32 317.06 172.76 317.06 172.76 325.11 181.06 330.4 173.28 330.4 173.28 338.32 174.08 336.9 166.06 336.9 166.06 343.16 168.82 343.49 165.27 343.49 165.27 335.97 163.03 336.28 155.19 336.28 155.19 338.85 164.46 349.82 163.36 349.82 163.36 349.63 169.42 355.14 169.36 355.14 169.36 355.14 169.36 345.16 173.89 356.31 177.47 367.47 181.06 363.61 165.9 363.61 165.9 363.61 165.9 366.81 171.69 371.17 171.35 375.54 171.01 375.34 166.27 375.34 166.27 375.34 166.27 378.55 168.62 384.19 164.64 387.79 162.11 384.26 156.77 381.25 153.23 386.78 157.16 394.94 156.71 394.94 156.71 394.35 164.52 400.66 164.71 400.66 164.71 395.94 168.36 402.13 175.31 402.13 175.31 402.13 175.31 392.21 178.28 396.46 188.81 400.71 199.34 408.32 197.82 408.32 197.82 408.32 197.82 402.82 201.44 411.33 209.74 419.84 218.04 428.58 212.52 428.58 212.52 426.04 219.99 438.36 225.82 442.29 224.69 446.22 223.56 444.69 220.55 444.27 216.03 443.85 211.51 450.03 211.5 450.03 211.5 452.37 206.85 445.15 203.31 445.15 203.31 447.33 186.75 427.8 186.5 427.8 186.5 433.7 185.09 432.84 170.79 432.84 170.79 432.84 170.79 450.29 185.49 450.29 185.49 452.95 197.9 469.12 195.45 469.12 195.45 461.02 200.55 470.03 210.75 470.03 210.75 458.3 232.08 483.52 235.81 483.52 235.81 481.36 249.19 498.71 253.16 498.71 253.16 507.56 261.89 514.51 255.26 514.51 255.26 510.49 251.43 515.94 247.39 515.94 247.39 509.34 241.92 513.02 232.69 513.02 232.69 513.7 242.76 526.87 245.77 526.87 245.77 522.36 259.47 535.16 256.8 535.16 256.8 542.05 266.36 545.54 259.44 545.54 259.44 558.55 263.68 559.14 254.33 559.14 254.33 568.55 258.24 572.17 251.35 572.17 251.35 568.61 267.27 586.13 262.63 586.13 262.63 586.13 262.63 573.93 271.75 595.3 276.05 614.82 279.98 618.08 269.42 618.08 269.42 618.08 269.42 625.11 273.93 625.11 273.93 631.89 266.6 615.11 261.33 615.11 261.33 629.95 266.51 640.68 250.44 640.68 250.44 636.36 263.25 644.42 264.55 644.42 264.55 636.92 275.22 648.09 276.74 648.09 276.74 651.62 288.64 663.03 284.98 663.03 284.98 663.03 284.98 668.96 290.26 674.31 285.48 679.66 280.7 673.07 275.25 673.07 275.25 679.95 281.26 691.44 276.35 691.44 276.35 685.41 281.42 691.3 285.45 691.3 285.45 691.3 285.45 683.59 291.69 688.58 294.52 693.57 297.35 695.82 294.7 695.82 294.7 695.82 294.7 700.25 299.47 707.81 296.89 715.37 294.31 710.03 289.32 710.03 289.32 720.26 298.25 729.77 294.73 729.77 294.73 729.77 294.73 722.23 297.36 723.42 304.22 724.61 311.08 730.65 307.81 730.65 307.81 730.65 307.81 722.45 312.61 727.93 317.35 733.2 321.91 737.26 314.51 737.26 314.51 737.26 314.51 733.23 322.77 745.67 326.24 758.58 329.84 760.76 320.13 760.76 320.13 758.33 317.27 757.12 315.85 754.71 312.98 761.99 320.92 775.03 315.83 775.03 315.83 772.98 324.38 781.59 324.9 781.59 324.9 780.53 332.54 788.94 332.98 788.94 332.98 788.94 332.98 780.84 341.46 790.08 342.54 799.32 343.62 799.08 337.98 799.08 337.98 799.08 337.98 806.5 343.23 812.74 342.62 818.99 342.01 819.53 338.87 819.53 338.87 819.53 338.87 821.28 342.52 825.89 343.58 830.49 344.64 832.19 342.71 832.19 342.71 832.19 342.71 830.28 346.45 838.54 348.54 846.79 350.63 847.01 343.73 847.01 343.73 847.01 343.73 851.95 349.44 854.38 347.43 855.47 346.53 855.97 344.8 856.19 343.16 858.07 345.45 858.54 349.05 855.47 350.4 851.25 352.26 849.77 349.14 849.77 349.14 849.77 349.14 850.14 352.8 839.17 353.31 828.2 353.82 826.78 346.94 826.78 346.94 826.78 346.94 825.39 349.21 816.7 352.14 808.01 355.07 805.8 348.19 805.8 348.19 805.8 348.19 796.6 352.97 784.99 349.34 773.38 345.71 775.69 339.5 775.69 339.5 775.69 339.5 764.94 339 760.83 334.17 756.72 329.34 753.61 335.34 740.92 335.01 728.23 334.68 731.57 322.96 731.57 322.96 725.74 328 722.78 320.8 722.78 320.8 722.78 320.8 725.42 329.12 714.56 331.77 703.7 334.41 698.01 325.21 698.01 325.21 684.74 322.51 689.33 314.96 689.33 314.96 672.04 316.68 673.97 302.13 673.97 302.13 673.97 302.13 670.38 308.36 655.13 305.44 639.88 302.52 641.86 289.77 641.86 289.77 633.88 296.42 627.62 287.82 627.62 287.82 627.62 287.82 630.74 301.55 613.79 300.48 596.84 299.42 593.57 286.56 593.57 286.56 593.57 286.56 584.28 289.66 573.22 284.99 562.16 280.32 570.95 280.01 556.81 279.31 542.67 278.61 543.25 271.64 543.25 271.64 530.18 278.57 523.91 264.5 523.91 264.5 523.91 264.5 518.4 271.18 504.57 268.88 490.74 266.58 484.59 250.32 484.59 250.32 484.59 250.32 475.98 255 459.73 250.15 443.48 245.3 444.05 233.74 444.05 233.74 444.05 233.74 433.52 238.09 406.08 227.22 378.64 216.35 383.65 197.18 383.65 197.18 383.65 197.18 380.01 201.74 368.06 201.08 356.11 200.42 355.23 187.23 355.23 187.23 355.23 187.23 355.35 202.67 335.73 198.68 316.11 194.69 317.8 182.4 317.8 182.4 317.8 182.4 314.61 187.96 306.04 185.37 297.47 182.78 298.45 176.01 298.45 176.01 298.45 176.01 288.45 171.43 289.63 167.52 290.81 163.65 273.28 160.39 274.11 155.46Z" fill="#EEEEEE"/></g><path d="M544.02 244.93C544.02 244.93 553.21 228.21 573.57 236.96 573.57 236.96 578.14 232.15 583.28 235.13 583.28 235.13 576.62 226.25 586.68 225.15 586.68 225.15 589.35 214.34 602.23 222.98 602.23 222.98 599.5 216.72 587.66 214.68 587.66 214.68 582.03 203.91 591.04 201.84 591.04 201.84 588.2 191.37 596.4 190.62 592.12 189.19 589.98 188.47 585.71 187.03 585.71 187.03 583.2 195.72 576.53 191.86 576.53 191.86 575.59 202.06 565.46 198.88 565.46 198.88 565.41 203.65 558.99 202.7 558.99 202.7 569.24 209.33 564.97 216.03 564.97 216.03 562.29 219.05 559.2 214.05 559.2 214.05 562.55 218.36 555.96 220.5 555.96 220.5 552.85 228.33 545.66 218.47 545.66 218.47 548.8 222.44 544.53 228.92 544.52 228.92 547.1 236.34 544.02 244.93Z" fill="#EEEEEE"/><g><path d="M506.86 220.87C506.27 221.69 505.85 222.16 505.85 222.16 506.19 221.7 506.53 221.28 506.86 220.87Z" fill="#EEEEEE"/><path d="M524.57 213.87C524.57 213.87 523.67 213.67 522.46 213.2 523.8 213.46 524.57 213.87 524.57 213.87Z" fill="#EEEEEE"/><path d="M468.42 169.14C468.42 169.14 484.58 166.72 481.84 155.28 481.84 155.28 487.27 149.27 479.11 143.84 479.11 143.84 479.94 134.25 485.95 131.83 487.64 131.15 489.27 131.63 490.88 132.42 490.87 132.42 483.87 131.55 484.67 138.63 484.67 138.63 491.91 141.41 490.87 145.85 490.87 145.85 498.84 145.02 501.46 150.84 501.46 150.84 494.48 156.6 505.49 162.32 505.49 162.32 496.5 158.94 494.36 167.14 492.23 175.34 502.86 174.51 502.86 174.51 502.86 174.51 500.43 181 507.58 181.72 514.73 182.44 521.14 179.01 521.14 179.01 521.14 179.01 521.3 183.84 526.1 184.8 526.1 184.8 519.28 190.21 527.12 195.27 527.12 195.27 520.73 196.81 524.33 202.91 524.33 202.91 517.6 199.18 516.55 205.53 515.84 209.88 519.83 212.18 522.43 213.2 519.37 212.61 513.37 212.86 506.82 220.86 509.36 217.34 515.01 207.33 504.29 200.04 504.29 200.04 507.57 185.97 490.96 177.77 491 177.78 489.54 167.32 468.42 169.14Z" fill="#EEEEEE"/></g><path d="M528.64 181.41C528.64 181.41 535.43 184.82 535.01 174.43 535.01 174.43 545.62 169.29 541.05 160.93 541.05 160.93 551.63 166.3 553.3 157.96 553.3 157.96 549.74 165.33 555.47 168.94 555.47 168.94 548.53 168.73 553.07 175.75 553.07 175.75 545.47 170.18 545.91 177.05 545.03 174.5 544.58 173.23 543.71 170.68 543.71 170.68 541.76 174.18 538.32 175.93 538.31 175.94 537.73 188.22 528.64 181.41Z" fill="#EEEEEE"/></g><path d="M416.61 94.15C411.61 95.45 419.9 96.5 422.04 96.12 424.18 95.74 426.72 94.2 426.72 94.2 426.72 94.2 423.23 92.44 416.61 94.15Z" fill="#FFFFFF"/><g><path d="M337.26 265.79C337.26 265.79 330.56 260.83 335.6 256.11 340.64 251.39 345.92 260.54 345.92 260.54 345.92 260.54 346.61 257.4 351.78 258.22 356.95 259.04 357.81 263.07 357.81 263.07 357.81 263.07 358.88 252.54 368.85 253.29 378.82 254.04 379.89 262 379.89 262 379.89 262 380.13 255.94 387.97 258.25 387.97 258.25 389.3 251.28 397.07 255.36 404.85 259.44 400.76 264.61 400.76 264.61 400.76 264.61 403.41 264.54 405.69 267.05 407.97 269.56 405.02 273.15 405.02 273.15 405.02 273.15 409.96 265.38 421.11 270.03 432.26 274.67 427.15 278.99 427.15 278.99 427.15 278.99 435.78 275.34 436.21 285.92 436.21 285.92 438.24 280.38 447.11 283.11 455.98 285.84 453.51 292.56 453.51 292.56 453.51 292.56 455.87 291.42 457.74 295.07 459.61 298.71 457.93 301.01 457.93 301.01 457.93 301.01 461.21 298.86 463.17 304.11 463.17 304.11 468.32 301.31 471.26 307.13 471.26 307.13 479.01 310.45 474.88 313.65 474.88 313.65 482.13 313.39 481.27 318.03 480.41 322.66 472.32 318.34 472.32 318.34 472.32 318.34 472.67 324.11 466.77 321.47 460.87 318.83 461.12 314.63 461.12 314.63 461.12 314.63 459.27 325.24 447.41 321.88 435.54 318.52 437.53 311.33 437.53 311.33 437.53 311.33 430.84 324.66 414.22 319.28 397.59 313.9 399.36 300.68 399.36 300.68 399.36 300.68 394.42 304.86 387.51 299.56 380.6 294.26 382.92 289.49 382.92 289.49 382.92 289.49 379.38 292.62 370.98 289.15 362.57 285.68 365.43 279.76 365.43 279.76 365.43 279.76 359.13 284.69 353.71 279.43 348.3 274.17 349.66 270.61 349.66 270.61 349.66 270.61 346.77 273.29 342.18 271.1 337.54 268.9 337.26 265.79 337.26 265.79Z" fill="#FFFFFF"/><path d="M462.91 309.55C457.04 305.7 457.37 310.74 457.37 310.74 443.47 314.3 436.67 306.69 436.67 306.69 428.65 312.3 425.89 304.35 425.89 304.35 425.89 304.35 423.2 313.6 411.59 310.38 399.98 307.16 403.68 297.22 403.68 297.22 388.88 295.66 386.51 285.5 386.51 285.5 373.54 284.93 375.24 278.34 375.24 278.34 367.47 277.04 366.74 271.5 366.74 271.5 361.49 273.64 357.72 269.12 357.72 269.12 357.72 269.12 357.08 271.86 354.19 271.87 351.3 271.88 351.39 267.81 351.39 267.81 342.93 269.97 340.81 264.4 340.81 264.4 336.32 263.34 334.68 260.58 334.22 257.87 332.11 261.98 337.26 265.79 337.26 265.79 337.26 265.79 337.55 268.9 342.14 271.09 346.73 273.28 349.62 270.6 349.62 270.6 349.62 270.6 348.26 274.16 353.67 279.42 359.08 284.68 365.39 279.75 365.39 279.75 365.39 279.75 362.54 285.67 370.94 289.14 379.35 292.61 382.88 289.48 382.88 289.48 382.88 289.48 380.56 294.25 387.47 299.55 394.38 304.85 399.32 300.67 399.32 300.67 399.32 300.67 397.55 313.9 414.18 319.27 430.81 324.65 437.49 311.32 437.49 311.32 437.49 311.32 435.51 318.51 447.37 321.87 459.24 325.23 461.08 314.62 461.08 314.62 461.08 314.62 460.84 318.82 466.73 321.46 472.63 324.1 472.28 318.33 472.28 318.33 472.28 318.33 480.38 322.66 481.23 318.02 482.09 313.39 474.84 313.64 474.84 313.64 478.96 310.44 471.22 307.12 471.22 307.12 468.28 301.3 463.13 304.1 463.13 304.1 458.9 304.61 462.91 309.55 462.91 309.55Z" fill="#EEEEEE"/><path d="M415.01 301.55C415.01 301.55 418.7 294.78 409.62 291.18 409.62 291.18 408.98 285.24 404.28 284.17 404.28 284.17 411.98 285.62 414.43 281.44 414.43 281.44 419.88 283.06 422.21 280.19 422.21 280.19 419.05 285.72 423.95 286.97 423.95 286.97 425.44 293.38 430.82 289.66 430.82 289.66 434.07 297 439.02 296.75 439.02 296.75 443.65 301.5 448.39 300.34 448.39 300.34 442.32 303.34 438.44 300.27 438.44 300.27 430.68 299.03 428.69 294.83 428.69 294.83 426.02 295.76 425.95 300.06 425.95 300.05 419.27 296.85 415.01 301.55Z" fill="#EEEEEE"/></g><g><path d="M1017.51 453.38C1017.51 453.38 1007.15 452.75 1009.54 446.08 1011.93 439.41 1023.43 444.34 1023.43 444.34 1023.43 444.34 1022.16 441.32 1028.23 439.26 1034.3 437.2 1037.78 440.14 1037.78 440.14 1037.78 440.14 1032.24 430.68 1043.39 425.98 1054.54 421.28 1060.73 427.41 1060.73 427.41 1060.73 427.41 1057.15 422.18 1066.99 419.91 1066.99 419.91 1064.01 413.33 1074.9 412.58 1085.79 411.83 1084.67 418.38 1084.67 418.38 1084.67 418.38 1087.46 416.9 1091.47 417.78 1095.48 418.66 1094.61 423.27 1094.61 423.27 1094.61 423.27 1094.99 414.08 1109.79 411.93 1124.59 409.79 1121.87 416.18 1121.87 416.18 1121.87 416.18 1128.74 408.43 1135.88 417.07 1135.88 417.07 1134.55 411.33 1145.69 408.77 1156.83 406.21 1158.44 413.19 1158.44 413.19 1158.44 413.19 1160.22 410.95 1164.5 412.97 1168.78 414.99 1168.45 417.83 1168.45 417.83 1168.45 417.83 1170.57 414.24 1175.96 417.55 1175.96 417.55 1179.65 412.38 1186.43 415.63 1186.43 415.63 1196.71 414.13 1194.38 419.08 1194.38 419.08 1201.87 414.87 1203.9 419.2 1205.92 423.54 1194.64 424.39 1194.64 424.39 1194.64 424.39 1198.67 429.01 1190.76 430.05 1182.86 431.09 1180.45 427.45 1180.45 427.45 1180.45 427.45 1185.24 437.33 1170.55 441.03 1155.86 444.73 1153.37 437.62 1153.37 437.62 1153.37 437.62 1154.81 452.43 1133.74 456.98 1112.67 461.52 1106.06 449.46 1106.06 449.46 1106.06 449.46 1103.49 455.64 1092.74 454.92 1081.99 454.2 1081.41 448.93 1081.41 448.93 1081.41 448.93 1079.65 453.47 1068.46 455.07 1057.27 456.67 1056.53 450.15 1056.53 450.15 1056.53 450.15 1052.96 457.68 1043.81 456.14 1034.66 454.6 1033.83 450.87 1033.83 450.87 1033.83 450.87 1032.45 454.67 1026.13 455.27 1019.81 455.86 1017.51 453.38 1017.51 453.38Z" fill="#FFFFFF"/><path d="M1179.13 422.22C1170.49 422.23 1174.01 426.25 1174.01 426.25 1161.56 436.85 1149.52 434.2 1149.52 434.2 1144.58 443.27 1136.6 438.12 1136.6 438.12 1136.6 438.12 1139.65 447.34 1125.27 450.95 1110.89 454.56 1108.46 444.21 1108.46 444.21 1091.73 450.91 1082.71 443.64 1082.71 443.64 1068.52 450.15 1066.13 443.67 1066.13 443.67 1057.01 446.75 1052.69 442.47 1052.69 442.47 1048.44 447.08 1041.53 445.29 1041.53 445.29 1041.53 445.29 1042.6 447.94 1039.51 449.49 1036.43 451.04 1033.92 447.56 1033.92 447.56 1026.25 453.89 1020.41 450.31 1020.41 450.31 1014.92 451.81 1011.39 450.34 1009.17 448.29 1009.54 452.89 1017.49 453.37 1017.49 453.37 1017.49 453.37 1019.79 455.85 1026.11 455.26 1032.42 454.66 1033.81 450.86 1033.81 450.86 1033.81 450.86 1034.64 454.59 1043.79 456.13 1052.94 457.67 1056.51 450.14 1056.51 450.14 1056.51 450.14 1057.26 456.66 1068.44 455.06 1079.63 453.46 1081.39 448.92 1081.39 448.92 1081.39 448.92 1081.97 454.18 1092.72 454.91 1103.47 455.63 1106.04 449.45 1106.04 449.45 1106.04 449.45 1112.65 461.52 1133.72 456.97 1154.79 452.43 1153.35 437.61 1153.35 437.61 1153.35 437.61 1155.83 444.71 1170.53 441.02 1185.22 437.32 1180.43 427.44 1180.43 427.44 1180.43 427.44 1182.84 431.08 1190.74 430.04 1198.64 429 1194.62 424.38 1194.62 424.38 1194.62 424.38 1205.9 423.52 1203.88 419.19 1201.86 414.85 1194.36 419.07 1194.36 419.07 1196.69 414.12 1186.41 415.62 1186.41 415.62 1179.63 412.38 1175.94 417.54 1175.94 417.54 1171.77 420.29 1179.13 422.22 1179.13 422.22Z" fill="#EEEEEE"/><path d="M1123.28 441.7C1123.28 441.7 1122.9 434.03 1110.95 435.92 1110.95 435.92 1106.49 431.28 1100.81 432.92 1100.81 432.92 1109.92 429.97 1109.89 425.13 1109.89 425.13 1116.71 423.53 1117.38 419.86 1117.38 419.86 1117.52 426.22 1123.52 424.6 1123.52 424.6 1129.16 429.16 1132.52 423.12 1132.52 423.12 1140.62 427.5 1145.72 424.59 1145.72 424.59 1153.63 426.04 1157.93 422.48 1157.93 422.48 1153.4 428.31 1147.33 427.85 1147.33 427.85 1138.3 431.04 1133.53 428.61 1133.53 428.61 1131.28 430.84 1133.94 434.48 1133.94 434.48 1124.82 435.44 1123.28 441.7Z" fill="#EEEEEE"/></g><g><path d="M798.96 422.94C798.96 422.94 798.56 417.16 787.84 418.79 787.84 418.79 788.3 412.94 779.47 412.3 779.47 412.3 780.76 406.41 769.36 400.7 757.96 394.99 749.05 400.21 749.05 400.21 749.05 400.21 752.88 392.82 741.98 384.38 731.08 375.94 711.44 373.65 711.44 373.65 711.44 373.65 714.88 369.18 706.08 366.09 697.28 363 696.62 370.19 696.62 370.19 696.62 370.19 697.49 364.91 692.3 362.04 692.3 362.04 701.83 352.47 668.98 342.45 636.13 332.43 636.69 347.57 636.69 347.57 636.69 347.57 636.15 344.37 631.48 343.71 631.48 343.71 634.7 334.3 619.31 328.19 603.92 322.08 593.49 329.56 596.46 336.14 596.46 336.14 595.88 325.24 577.22 322.47 558.56 319.7 565.83 335.52 565.83 335.52 565.83 335.52 560.46 327.82 554.7 328.87 548.94 329.92 551.83 336.5 551.83 336.5 551.83 336.5 537.24 317.45 516.73 321.16 496.22 324.87 517.67 345.51 518.66 348.17 520.4 352.85 526.39 382.12 544.33 385.99 544.33 385.99 542.99 391.68 553.64 395.87 564.29 400.06 564.55 393.74 564.55 393.74 564.55 393.74 552.85 405.7 572.63 413.94 592.41 422.18 603.31 414.27 603.31 414.27 603.31 414.27 606.58 422.81 619.73 422.52 632.87 422.23 634.31 416.86 634.31 416.86 634.31 416.86 655.18 435.61 663.3 422.64 663.3 422.64 688.39 425.05 690.23 424.46 693.77 423.33 724.17 441.83 738.31 432.74 755.17 421.9 746.61 413.71 746.61 413.71 746.61 413.71 760.82 424.03 767.89 419.62 767.89 419.62 767.38 424.12 774.72 424.38 782.06 424.64 782.39 420.64 782.39 420.64 782.39 420.64 794.48 428.61 798.96 422.94Z" fill="#FFFFFF"/><g><path d="M565.03 349.31C565.77 349.37 566.24 349.43 566.24 349.43 565.82 349.4 565.42 349.35 565.03 349.31Z" fill="#EEEEEE"/><path d="M798.96 422.94C794.48 428.61 782.37 420.65 782.37 420.65 782.37 420.65 782.03 424.65 774.7 424.39 767.36 424.13 767.87 419.63 767.87 419.63 761.05 423.89 746.65 413.76 746.65 413.76 746.65 413.76 754.39 422.4 738.3 432.75 724.16 441.84 704.16 433.64 690.22 424.47 685.15 437.48 663.29 422.65 663.29 422.65 655.17 435.62 634.3 416.87 634.3 416.87 634.3 416.87 632.87 422.24 619.72 422.53 606.58 422.82 603.3 414.28 603.3 414.28 603.3 414.28 592.4 422.19 572.62 413.95 559.03 408.29 560.33 400.85 562.44 396.77 560.9 397.53 558.23 397.69 553.63 395.88 542.98 391.69 544.32 386 544.32 386 526.38 382.13 507.59 367.15 518.65 348.18 500.24 341.82 496.21 324.89 516.72 321.17 516.72 321.17 516.73 321.17 516.73 321.17 510.36 325.9 506.62 333.08 525.64 340.12 525.64 340.12 519.63 344.69 526.09 349.83 526.09 349.83 534.23 350.61 534.65 344.05 534.65 344.05 548.8 349.74 553.58 344 553.58 344 556.75 348.32 565.02 349.31 561.24 349 550.15 348.6 554.97 355.66 554.97 355.66 543.51 353.9 547.91 361.77 547.91 361.77 551.41 365.1 555.85 364.52 555.85 364.52 549.39 370.42 561.35 375.21 561.35 375.21 554.94 381.5 569.34 385.3 583.74 389.1 572.24 377.49 572.24 377.49 572.24 377.49 580.19 384.38 589.33 382.48 589.33 382.48 581.93 396.93 599.73 402 599.73 402 602.65 407.2 611.14 405.69 611.14 405.69 607.79 410.48 621.03 413.7 621.03 413.7 627.93 410.63 625.59 406.75 625.59 406.75 631.88 412.95 639.23 409.27 646.59 405.59 630.49 400.26 625.7 401.9 625.7 401.9 619.78 396.2 611.17 395.19 611.17 395.19 630.49 395.72 627.87 389.66 627.87 389.66 635.22 385.11 624.79 381.93 624.79 381.93 627.44 377.32 619.52 373.04 619.52 373.04 639.38 371.34 627.32 356.66 627.32 356.66 642.16 360.39 649.27 353.15 649.27 353.15 640.69 361.6 647.25 366.77 655.59 369.78 659.77 371.26 668.14 374.21 668.14 374.21 646.76 371.17 653.87 384.14 653.87 384.14 648.8 380.63 643.25 384.6 643.25 384.6 640.36 394.66 656.53 393.31 656.53 393.31 662.79 404.95 670.25 396.4 670.25 396.4 685.84 411.09 700.84 398.42 700.84 398.42 689.93 409.89 706.81 416.74 723.69 423.6 721.32 412.86 721.32 412.86 721.32 412.86 736.81 418.5 736.86 408.16 736.86 408.16 746 412.37 751.67 407.34 751.67 407.34 752.07 412.52 759.96 416.09 767.86 419.66 769.67 413.13 769.67 413.13 769.67 413.13 777.63 420.48 787.83 418.8 798.41 417.05 798.96 422.94 798.96 422.94Z" fill="#EEEEEE"/></g><path d="M714.99 403.12C714.99 403.12 721.28 397.97 717.79 394.22 717.79 394.22 723.07 392.25 720.83 387.81 720.83 387.81 730.17 391.11 731.82 387.42 731.82 387.42 731.79 390.87 736.28 393.14 736.28 393.14 730.26 392.51 730.36 397.21 730.36 397.21 724.97 394.5 723.03 397.42 723.02 397.42 721.06 402.06 714.99 403.12Z" fill="#EEEEEE"/><path d="M608.53 386.29C608.53 386.29 597.11 378.52 602.23 371.54 602.23 371.54 596.02 364.01 600.78 362.41 600.78 362.41 596.02 353.85 605.43 353.78 605.43 353.78 598.69 355.08 591.91 349.31 591.91 349.31 591.9 355.64 581.74 351.7 581.74 351.7 584.01 355.8 579.4 358.11 579.4 358.11 592.38 362.23 592.11 368.21 592.11 368.21 599.64 371.49 598.29 375.26 598.27 375.26 598 381.85 608.53 386.29Z" fill="#EEEEEE"/></g><path d="M698.97 198.6C695.38 200.4 706.56 201.32 708.74 202.39 710.92 203.46 715.1 207.58 721.35 208.59 721.35 208.59 725.36 215.49 734.33 213.88 734.33 213.88 737.97 220.3 743.45 221.86 748.92 223.42 755.05 220.89 755.05 220.89 755.05 220.89 756.81 227.06 767.09 230.48 777.38 233.91 781.64 232.46 781.64 232.46 781.64 232.46 787.63 237.49 793.45 235.67 793.45 235.67 797.71 241.53 808.35 244.88 818.99 248.23 825.36 242.24 829.47 244.5 833.58 246.76 843.18 248.1 840.18 244.21 837.19 240.31 831.81 240.11 831.81 240.11 831.81 240.11 838.32 236.88 830.97 229.05 823.62 221.22 814.58 226.02 814.58 226.02 814.58 226.02 817.41 222.75 812.09 220.8 812.09 220.8 814.07 217.52 809.07 214.68 804.07 211.84 801.66 215.51 801.66 215.51 801.66 215.51 804.03 211.15 800.2 208.24 796.38 205.33 791.6 208.4 791.6 208.4 791.6 208.4 791.39 196.03 766.84 190.05 742.29 184.07 745.05 202.05 745.05 202.05 745.05 202.05 742.01 198.68 735.75 198.58 729.49 198.48 731.55 205.17 731.55 205.17 731.55 205.17 726.55 199.41 721.91 198.78 717.27 198.15 715.62 200.94 715.62 200.94 715.62 200.94 713.95 197.79 710.16 197.93 705.7 198.21 703.45 198.34 698.97 198.6Z" fill="#FFFFFF"/><path d="M489.13 128.93C484.56 128.92 483.4 130.97 486.4 131.26 489.41 131.55 497.56 130.21 497.56 130.21 497.56 130.21 499.53 137.57 510.91 134.92 510.91 134.92 515.65 140.91 525.01 140.49 534.37 140.07 536.91 137.49 536.91 137.49 536.91 137.49 542.7 143.57 549.79 138.33 549.79 138.33 551.73 144.22 558.52 145.25 565.31 146.27 567.76 141.44 567.76 141.44 567.76 141.44 572.13 147.1 577.22 146.84 582.31 146.59 580.9 141.3 580.9 141.3 580.9 141.3 585.04 138.54 582.06 134.78 579.08 131.02 574.64 135.95 574.64 135.95 574.64 135.95 571.45 131.81 566.88 134.84 566.88 134.84 575.52 128.55 569.77 122.21 564.03 115.87 555.79 128.16 555.79 128.16 555.79 128.16 552.86 124.88 550.21 125.91 547.56 126.93 546.71 130.83 546.71 130.83 546.71 130.83 546.63 126.31 539.02 125.46 531.41 124.61 530.9 129.5 530.9 129.5 530.9 129.5 527.64 123.94 517.56 126.1 507.48 128.27 506.81 128.15 502.99 126.56 499.17 124.97 494.49 128.04 494.49 128.04 494.49 128.04 492.67 125.54 490.94 125.79 489.24 126.03 489.13 128.93 489.13 128.93Z" fill="#FFFFFF"/><path d="M655.87 181.85C649.51 184.32 658.04 188.23 664.9 189.4 671.75 190.58 681.81 193.54 681.81 193.54 681.81 193.54 671.41 175.82 655.87 181.85Z" fill="#FFFFFF"/><path d="M1009.48 304.9C1004.68 308.02 1013.09 307.11 1013.09 307.11 1016.09 305.08 1017.58 304.07 1020.57 302.03 1020.57 302.03 1015.62 300.92 1009.48 304.9Z" fill="#FFFFFF"/><path d="M455.3 349.46C460.66 347.64 463.22 357.76 468.68 359.87 474.14 361.99 492.65 368.09 491.56 371.1 490.47 374.11 485.79 373.46 479.89 369.46 473.99 365.45 473.85 366.39 463.26 362.12 452.66 357.85 450.21 351.19 455.3 349.46Z" fill="#FFFFFF"/><path d="M520.66 387.94C527.85 391.13 534.71 392.86 535.42 395.47 536.13 398.08 528.21 395.84 523.66 394.01 519.1 392.16 516.74 386.2 520.66 387.94Z" fill="#FFFFFF"/><path d="M390.63 321.01C395.77 318.5 408.77 326.66 408.62 330.23 408.47 333.79 405.44 333.07 401.97 332.26 398.5 331.45 400.94 328.71 396.67 328.17 392.4 327.63 384.23 324.13 390.63 321.01Z" fill="#FFFFFF"/><path d="M1360.48 371.32C1354.15 373.32 1356.81 383.13 1367.52 376.58 1378.23 370.02 1371.7 369.45 1371.7 369.45 1367.21 370.21 1364.96 370.58 1360.48 371.32Z" fill="#FFFFFF"/><path d="M1343.49 393.15C1334.26 397.19 1334.95 401.1 1338.51 400.78 1342.07 400.46 1347.33 399.39 1349.37 397.64 1351.41 395.89 1354.97 395.55 1353.83 393.35 1352.7 391.16 1349.27 390.62 1343.49 393.15Z" fill="#FFFFFF"/><path d="M1287.03 400.74C1280.42 401.18 1276.68 407.62 1283.59 407.38 1290.5 407.14 1300.32 405.6 1304.19 402.16 1308.06 398.72 1310.82 398.31 1306.92 396.27 1303.03 394.22 1287.03 400.74 1287.03 400.74Z" fill="#FFFFFF"/><path d="M1342.47 440.11C1339.65 441.38 1341.32 443.32 1350.21 441.24 1359.11 439.17 1361.12 437.15 1361.12 437.15 1361.12 437.15 1356.06 433.98 1342.47 440.11Z" fill="#FFFFFF"/><path d="M923.37 313.93C920.51 314.95 920.25 316.47 922.19 315.98 924.13 315.48 928.93 312.83 928.93 312.83 928.93 312.83 931.78 316.92 938.32 312.79 938.32 312.79 942.58 315.45 948.36 313.17 954.14 310.89 955.19 308.76 955.19 308.76 955.19 308.76 960.11 311.3 963.47 306.55 963.47 306.55 965.93 309.8 970.42 309.02 974.91 308.24 975.46 304.74 975.46 304.74 975.46 304.74 979.38 307.36 982.54 306.17 985.7 304.98 983.75 301.97 983.75 301.97 983.75 301.97 985.82 299.41 983.17 297.67 980.52 295.93 978.7 299.91 978.7 299.91 978.7 299.91 975.83 297.99 973.56 300.82 973.56 300.82 977.75 295.12 972.79 292.37 967.83 289.62 965.15 298.98 965.15 298.98 965.15 298.98 962.6 297.56 961.14 298.75 959.68 299.95 959.97 302.54 959.97 302.54 959.97 302.54 958.96 299.75 953.97 300.85 948.98 301.95 949.71 305.09 949.71 305.09 949.71 305.09 946.45 302.34 940.58 305.88 934.71 309.42 934.28 309.51 931.53 309.37 928.79 309.23 926.54 312.17 926.54 312.17 926.54 312.17 924.84 311.03 923.82 311.58 922.78 312.12 923.37 313.93 923.37 313.93Z" fill="#FFFFFF"/></g><g clip-path="url(#SVGID_4_)"><g><path d="M1181.91 469.85C1179.15 476.87 1191.36 473.3 1191.36 473.3 1191.36 473.3 1193.22 480.59 1200.18 474.62 1200.18 474.62 1213.5 492.63 1232.93 474.03 1232.93 474.03 1240 488.1 1248.31 484.14 1256.62 480.19 1259.94 510.43 1293.96 494.04 1293.96 494.04 1319.75 522.59 1343.09 488.91 1343.09 488.91 1347.52 503.17 1364.59 492.52 1364.59 492.52 1365.2 508.03 1395.34 501.16 1425.48 494.29 1421.73 475.7 1421.73 475.7 1421.73 475.7 1435.5 498.53 1461.12 491.24 1486.74 483.96 1485.6 459.17 1485.6 459.17 1485.6 459.17 1505.09 469.98 1521.94 454.91 1521.94 454.91 1538.39 460.4 1544.04 442.14 1549.7 423.89 1530.67 416.12 1530.67 416.12 1530.67 416.12 1530.1 403.73 1518.91 400.55 1507.72 397.37 1502.7 405.28 1502.7 405.28 1502.7 405.28 1500.32 392.72 1482.53 384.32 1464.74 375.92 1455.7 392.46 1455.7 392.46 1455.7 392.46 1457.64 381.91 1450.64 379.87 1443.64 377.83 1439.32 381.61 1439.32 381.61 1439.32 381.61 1436.71 370.42 1425.59 367.68 1414.47 364.94 1406.77 378.6 1406.77 378.6 1406.77 378.6 1408.86 371.9 1404.55 369.96 1400.24 368.02 1395.58 375.39 1395.58 375.39 1395.58 375.39 1390.83 367.69 1384.8 369.07 1378.77 370.44 1379.04 377.94 1379.04 377.94 1379.04 377.94 1375.22 358.96 1350.49 367.67 1325.76 376.38 1334 395.17 1334 395.17 1334 395.17 1329.74 387.8 1320.64 392.33 1311.54 396.86 1318.1 404.76 1318.1 404.76 1318.1 404.76 1306.38 392.3 1288.32 405.34 1270.27 418.37 1283.87 431.43 1283.87 431.43 1283.87 431.43 1272.75 422.89 1265.01 427.65 1257.27 432.41 1260.36 440.85 1260.36 440.85 1260.36 440.85 1255.4 426.01 1237.82 436.3 1220.24 446.59 1231.94 456.02 1231.94 456.02 1231.94 456.02 1218.53 444.18 1207.01 450.41 1195.49 456.64 1198.58 464.19 1198.58 464.19 1198.58 464.19 1191.1 459.99 1191.24 466.66 1191.22 466.63 1184.15 464.15 1181.91 469.85Z" fill="#FFFFFF"/><g><path d="M1353.87 409.22C1353.6 408.73 1353.32 408.24 1352.99 407.75 1352.99 407.75 1353.29 408.33 1353.87 409.22Z" fill="#EEEEEE"/><path d="M1191.22 466.63C1191.22 466.63 1191.29 466.03 1191.38 464.99 1191.26 465.44 1191.2 465.98 1191.22 466.63Z" fill="#EEEEEE"/><path d="M1398.28 410.09C1398.27 410.06 1398.26 410.03 1398.26 410.03 1398.26 410.03 1398.27 410.06 1398.28 410.09Z" fill="#EEEEEE"/><path d="M1506.94 415.25C1506.94 415.25 1507.85 416.16 1509.21 417.28 1508 416.01 1506.94 415.25 1506.94 415.25Z" fill="#EEEEEE"/><path d="M1530.66 416.12C1530.66 416.12 1537.88 420.77 1528.94 425.8 1520.01 430.83 1519.87 421 1519.87 421 1517.04 423.05 1512.1 419.67 1509.22 417.28 1511.51 419.69 1514.33 423.95 1511.56 428.48 1507.33 435.4 1499.1 430.4 1499.1 430.4 1499.1 430.4 1504.35 440.46 1494.79 441.47 1485.22 442.48 1482.82 432.91 1482.82 432.91 1482.82 432.91 1482.3 441.54 1477.43 439.98 1472.56 438.42 1476.01 427.76 1476.01 427.76 1475.32 417.28 1485 417.01 1485 417.01 1479.81 410.36 1482.57 401.22 1482.57 401.22 1476.14 410.55 1465.18 408.53 1465.18 408.53 1454.05 414.41 1447.44 407.56 1447.44 407.56 1441.53 411.25 1431.09 409.62 1431.09 409.62 1448.42 413.9 1443.91 432.71 1443.91 432.71 1453.9 422.44 1461.4 432.73 1461.4 432.73 1475.25 430.13 1470.66 441.03 1470.66 441.03 1466.1 450.53 1475.6 455.08 1475.6 455.08 1469.37 459.74 1464.88 455.34 1464.88 455.34 1452.49 462.8 1447.17 453.9 1447.17 453.9 1443.76 461.83 1436.35 458.81 1436.35 458.81 1436.35 458.81 1441.57 468.65 1434.75 472.48 1427.93 476.31 1421.32 469.46 1421.32 469.46 1407.47 475.76 1408.52 464.49 1408.52 464.49 1392.2 469.78 1396.93 458.4 1396.93 458.4 1396.93 458.4 1386.84 465.05 1381.97 457.46 1377.1 449.88 1390.56 447.12 1390.56 447.12 1378.28 439.53 1393.97 436.19 1393.97 436.19 1397.2 427.27 1409.99 430.84 1414.27 432.32 1396.29 425.33 1409.48 416.64 1409.48 416.64 1401.08 416.18 1398.55 410.68 1398.3 410.09 1398.59 410.8 1401.47 418.44 1393.62 421.86 1385.38 425.45 1385.37 419.43 1385.37 419.43 1385.37 419.43 1385.23 430.56 1376.67 429.1 1368.11 427.64 1371.31 418.35 1371.31 418.35 1361.73 419.46 1355.96 412.38 1353.88 409.22 1359.53 419.67 1352.28 430.08 1352.28 430.08 1369.01 427.5 1368.52 439.31 1368.52 439.31 1379.75 452.09 1364.04 457.77 1364.04 457.77 1365.46 469.47 1355.15 466.67 1355.15 466.67 1355.15 466.67 1364.06 476.41 1356.68 476.62 1349.3 476.83 1350.59 464.13 1350.59 464.13 1338.48 469.7 1335.39 455.61 1335.39 455.61 1333.76 469.07 1326.2 465.11 1326.2 465.11 1326.2 465.11 1329.16 475.3 1320.15 473.91 1311.14 472.52 1318.9 465.77 1318.9 465.77 1307.31 465.7 1307.45 454.57 1307.45 454.57 1306.37 468.63 1296.98 467.76 1296.98 467.76 1296.98 467.76 1303.91 479.66 1292.22 480.53 1280.53 481.4 1282.65 470.89 1282.65 470.89 1276.88 475.48 1274.51 472.14 1274.51 472.14 1271.62 468.42 1281.57 463.89 1281.57 463.89 1265.74 469.35 1256.82 456.51 1256.82 456.51 1256.82 456.51 1257.5 472.91 1248.24 472.95 1238.98 472.99 1239.23 465.54 1239.23 465.54 1227.75 469.16 1227.88 460.96 1227.88 460.96 1217.43 474.3 1203.54 468.25 1203.54 468.25 1195.89 472.67 1191.25 466.6 1191.25 466.6 1191.25 466.6 1184.18 464.12 1181.94 469.82 1179.18 476.84 1191.39 473.27 1191.39 473.27 1191.39 473.27 1193.25 480.56 1200.21 474.59 1200.21 474.59 1213.53 492.6 1232.96 474 1232.96 474 1240.03 488.07 1248.34 484.11 1256.65 480.16 1259.97 510.4 1293.99 494.01 1293.99 494.01 1319.78 522.56 1343.12 488.88 1343.12 488.88 1347.55 503.14 1364.62 492.49 1364.62 492.49 1365.23 508 1395.37 501.13 1425.51 494.26 1421.76 475.67 1421.76 475.67 1421.76 475.67 1435.53 498.5 1461.15 491.21 1486.77 483.93 1485.63 459.14 1485.63 459.14 1485.63 459.14 1505.12 469.95 1521.97 454.88 1521.97 454.88 1538.42 460.37 1544.07 442.11 1549.68 423.89 1530.66 416.12 1530.66 416.12Z" fill="#EEEEEE"/><path d="M1414.25 432.32C1414.7 432.5 1415.17 432.67 1415.66 432.84 1415.66 432.85 1415.13 432.63 1414.25 432.32Z" fill="#EEEEEE"/></g><path d="M1313.93 451.73C1313.93 451.73 1306.1 445.99 1298.66 451.77 1298.66 451.77 1299.63 446.06 1293.44 441.93 1293.44 441.93 1306.38 441.79 1303.42 431.6 1303.42 431.6 1312.53 424.64 1304.95 417.47 1304.95 417.47 1310.47 418.99 1314.27 411.87 1314.27 411.87 1308.91 419.18 1315.94 422.72 1315.94 422.72 1308.91 425.19 1315 431.66 1321.09 438.13 1326.31 429.92 1326.31 429.92 1326.31 429.92 1320.49 437.22 1323.32 443.54 1323.32 443.54 1314.56 437.75 1310.68 441.13 1306.8 444.5 1313.93 451.73 1313.93 451.73Z" fill="#EEEEEE"/></g><g><path d="M644.39 468.53C644.39 468.53 671.46 469.37 668.91 446.53 666.36 423.69 633.95 436.87 633.95 436.87 633.95 436.87 638.85 427.16 624.22 418.69 609.59 410.22 599.02 419.11 599.02 419.11 599.02 419.11 618.39 389.05 591.75 370.62 565.11 352.2 545.84 371.22 545.84 371.22 545.84 371.22 557.81 354.6 533.2 344.86 533.2 344.86 544.25 323.56 516.07 318.73 487.89 313.9 487.7 335.98 487.7 335.98 487.7 335.98 481.11 330.47 470.18 332.62 459.26 334.77 459.39 350.3 459.39 350.3 459.39 350.3 462.73 319.5 424.84 309.77 386.95 300.04 391.24 321.89 391.24 321.89 391.24 321.89 376.54 294.96 354.12 322.71 354.12 322.71 360.11 303.71 331.88 293.7 303.66 283.69 296.53 306.81 296.53 306.81 296.53 306.81 292.75 299.13 280.69 305.39 268.63 311.65 268.35 321.17 268.35 321.17 268.35 321.17 264.21 308.96 248.77 319.45 248.77 319.45 241.09 301.84 222.04 312.07 222.04 312.07 195.61 306.25 199.86 322.91 199.86 322.91 181.76 308.32 174.85 322.64 167.94 336.96 197.18 340.61 197.18 340.61 197.18 340.61 184.91 355.67 205.16 359.78 225.42 363.9 233.13 352.01 233.13 352.01 233.13 352.01 216.81 384.39 253.56 398.23 290.32 412.07 299.68 388.84 299.68 388.84 299.68 388.84 289.85 437.77 342.38 455.97 394.9 474.16 417.42 435.38 417.42 435.38 417.42 435.38 421.22 456.35 449.35 456 477.48 455.65 481.53 438.33 481.53 438.33 481.53 438.33 483.91 453.74 512.02 461.51 540.13 469.27 545.31 447.83 545.31 447.83 545.31 447.83 550.72 473.67 575.11 470.82 599.51 467.97 603.6 455.82 603.6 455.82 603.6 455.82 605.18 468.8 621.14 472.47 637.13 476.12 644.39 468.53 644.39 468.53Z" fill="#FFFFFF"/><path d="M238.63 334.68C261.27 335.53 250.43 348.62 250.43 348.62 278.8 385.2 311.17 377.9 311.17 377.9 320.25 408.75 343.16 392.71 343.16 392.71 343.16 392.71 331.31 422.88 366.97 437.12 402.63 451.37 413.6 417.44 413.6 417.44 453.98 442.67 480.7 420.43 480.7 420.43 514.39 444.99 523.69 424.09 523.69 424.09 545.82 436.36 559.13 423.2 559.13 423.2 567.81 439.55 586.58 435.31 586.58 435.31 586.58 435.31 582.46 443.85 589.62 449.79 596.78 455.72 605.07 444.82 605.07 444.82 621.59 467.86 638.51 457.57 638.51 457.57 651.87 464.05 661.76 460.18 668.6 454.02 665.14 469.18 644.4 468.54 644.4 468.54 644.4 468.54 637.14 476.13 621.18 472.46 605.22 468.79 603.64 455.81 603.64 455.81 603.64 455.81 599.55 467.96 575.15 470.81 550.75 473.66 545.35 447.82 545.35 447.82 545.35 447.82 540.17 469.26 512.06 461.5 483.95 453.74 481.57 438.32 481.57 438.32 481.57 438.32 477.52 455.65 449.39 455.99 421.26 456.34 417.46 435.37 417.46 435.37 417.46 435.37 394.94 474.16 342.42 455.96 289.9 437.77 299.72 388.83 299.72 388.83 299.72 388.83 290.35 412.07 253.6 398.22 216.84 384.39 233.16 352 233.16 352 233.16 352 225.45 363.89 205.19 359.77 184.93 355.65 197.21 340.6 197.21 340.6 197.21 340.6 167.97 336.95 174.88 322.63 181.79 308.31 199.89 322.9 199.89 322.9 195.64 306.23 222.07 312.06 222.07 312.06 241.13 301.83 248.8 319.44 248.8 319.44 258.7 328.98 238.63 334.68 238.63 334.68Z" fill="#EEEEEE"/><path d="M376.27 406.64C376.27 406.64 380.69 381.08 410.94 389.44 410.94 389.44 424.68 374.75 438.71 381.27 438.71 381.27 416.31 369.8 418.58 353.71 418.58 353.71 401.48 347.23 401.37 334.88 401.37 334.88 398.17 356.01 383.21 349.67 383.21 349.67 366.49 363.99 360.32 343.35 360.32 343.35 337.25 356.77 325.16 346.39 325.16 346.39 303.87 350.19 294.09 337.81 294.09 337.81 303.54 357.77 319.58 357.04 319.58 357.04 341.79 368.89 355.31 361.5 355.31 361.5 360.21 369.26 351.69 380.99 351.68 380.99 375.05 385.56 376.27 406.64Z" fill="#EEEEEE"/></g><g><path d="M962.95 615.33C959.42 626.13 977.46 619.67 977.46 619.67 977.46 619.67 980.91 630.47 990.84 620.86 990.84 620.86 1012.48 646.75 1040.03 617.07 1040.03 617.07 1051.91 637.59 1064.05 630.91 1076.19 624.23 1083.87 669.41 1133.58 641.75 1133.58 641.75 1174.9 682.38 1207 629.67 1207 629.67 1214.92 650.72 1239.66 633.18 1239.66 633.18 1241.95 656.44 1286.66 643.43 1331.37 630.42 1324.07 602.8 1324.07 602.8 1324.07 602.8 1346.8 635.9 1384.68 622.67 1422.56 609.44 1418.64 572.27 1418.64 572.27 1418.64 572.27 1448.92 586.8 1472.9 562.63 1472.9 562.63 1498.12 569.42 1505 541.47 1511.88 513.52 1482.58 503.53 1482.58 503.53 1482.58 503.53 1480.62 484.95 1463.51 481.16 1446.41 477.37 1439.56 489.71 1439.56 489.71 1439.56 489.71 1434.86 471.04 1407.37 459.98 1379.88 448.93 1367.76 474.61 1367.76 474.61 1367.76 474.61 1369.74 458.57 1359.03 456.13 1348.32 453.68 1342.16 459.76 1342.16 459.76 1342.16 459.76 1337.23 443.17 1320.27 440.03 1303.31 436.89 1292.94 458.13 1292.94 458.13 1292.94 458.13 1295.48 447.87 1288.83 445.33 1282.18 442.8 1275.82 454.28 1275.82 454.28 1275.82 454.28 1267.99 443.13 1259.05 445.73 1250.11 448.33 1251.17 459.58 1251.17 459.58 1251.17 459.58 1243.74 431.37 1207.33 446.67 1170.92 461.97 1184.98 489.49 1184.98 489.49 1184.98 489.49 1177.93 478.79 1164.63 486.4 1151.33 494.01 1161.91 505.31 1161.91 505.31 1161.91 505.31 1143.17 487.62 1117.19 508.82 1091.21 530.02 1112.82 548.45 1112.82 548.45 1112.82 548.45 1095.34 536.6 1084.13 544.44 1072.92 552.28 1078.31 564.7 1078.31 564.7 1078.31 564.7 1069.53 542.83 1044.01 559.86 1018.49 576.89 1036.93 590.03 1036.93 590.03 1036.93 590.03 1015.71 573.42 998.94 583.81 982.17 594.2 987.49 605.28 987.49 605.28 987.49 605.28 975.87 599.63 976.67 609.64 976.66 609.66 965.81 606.56 962.95 615.33Z" fill="#FFFFFF"/><g><path d="M1216.13 508.88C1215.69 508.16 1215.22 507.45 1214.68 506.74 1214.68 506.74 1215.17 507.59 1216.13 508.88Z" fill="#EEEEEE"/><path d="M976.66 609.66C976.66 609.66 976.71 608.75 976.76 607.18 976.62 607.87 976.58 608.69 976.66 609.66Z" fill="#EEEEEE"/><path d="M1282.99 506.25C1282.97 506.2 1282.95 506.16 1282.95 506.16 1282.95 506.16 1282.96 506.2 1282.99 506.25Z" fill="#EEEEEE"/><path d="M1446.83 504.34C1446.83 504.34 1448.27 505.62 1450.43 507.2 1448.49 505.38 1446.83 504.34 1446.83 504.34Z" fill="#EEEEEE"/><path d="M1482.57 503.54C1482.57 503.54 1493.83 509.88 1480.85 518.25 1467.86 526.61 1466.78 511.84 1466.78 511.84 1462.71 515.18 1454.98 510.53 1450.43 507.2 1454.08 510.62 1458.7 516.78 1454.94 523.83 1449.19 534.61 1436.37 527.82 1436.37 527.82 1436.37 527.82 1445.16 542.48 1430.87 544.85 1416.57 547.22 1412.11 533.04 1412.11 533.04 1412.11 533.04 1412.09 546.07 1404.63 544.15 1397.17 542.23 1401.41 525.91 1401.41 525.91 1399.44 510.22 1413.98 508.95 1413.98 508.95 1405.58 499.42 1408.92 485.42 1408.92 485.42 1400.07 500.01 1383.41 497.96 1383.41 497.96 1367.19 507.79 1356.64 498.08 1356.64 498.08 1348.08 504.15 1332.24 502.62 1332.24 502.62 1358.67 507.51 1353.57 536.2 1353.57 536.2 1367.68 519.87 1379.87 534.67 1379.87 534.67 1400.46 529.54 1394.53 546.32 1394.53 546.32 1388.52 561.01 1403.21 567.01 1403.21 567.01 1394.26 574.58 1387.12 568.36 1387.12 568.36 1369.16 580.68 1360.37 567.77 1360.37 567.77 1355.95 580 1344.54 576.11 1344.54 576.11 1344.54 576.11 1353.27 590.45 1343.35 596.81 1333.44 603.17 1322.89 593.46 1322.89 593.46 1302.63 604.16 1303.19 587.12 1303.19 587.12 1279.13 596.53 1285.23 579 1285.23 579 1285.23 579 1270.65 589.89 1262.65 578.92 1254.65 567.95 1274.65 562.61 1274.65 562.61 1255.51 552.3 1278.81 545.87 1278.81 545.87 1282.88 532.17 1302.42 536.4 1308.99 538.25 1281.33 529.34 1300.4 515.1 1300.4 515.1 1287.73 515.16 1283.43 507.1 1283.01 506.25 1283.51 507.29 1288.53 518.53 1277.01 524.37 1264.93 530.49 1264.39 521.44 1264.39 521.44 1264.39 521.44 1265.17 538.19 1252.17 536.76 1239.17 535.33 1243.16 521.07 1243.16 521.07 1228.85 523.6 1219.54 513.46 1216.14 508.88 1225.57 524.09 1215.59 540.39 1215.59 540.39 1240.52 535.03 1240.83 552.83 1240.83 552.83 1258.85 571.05 1235.73 580.99 1235.73 580.99 1238.9 598.45 1223.15 595.17 1223.15 595.17 1223.15 595.17 1237.41 609.02 1226.34 610 1215.27 610.97 1216.07 591.76 1216.07 591.76 1198.36 601.21 1192.45 580.29 1192.45 580.29 1191.19 600.68 1179.48 595.4 1179.48 595.4 1179.48 595.4 1184.84 610.46 1171.16 609.18 1157.49 607.89 1168.55 597.05 1168.55 597.05 1151.12 597.98 1150.34 581.23 1150.34 581.23 1149.97 602.46 1135.77 601.99 1135.77 601.99 1135.77 601.99 1147.24 619.26 1129.75 621.62 1112.25 623.97 1114.5 607.98 1114.5 607.98 1106.23 615.4 1102.37 610.59 1102.37 610.59 1097.7 605.25 1112.26 597.56 1112.26 597.56 1088.95 607.18 1074.39 588.66 1074.39 588.66 1074.39 588.66 1076.86 613.27 1062.95 614.14 1049.04 615.02 1048.74 603.81 1048.74 603.81 1031.8 610.28 1031.26 597.94 1031.26 597.94 1016.74 618.93 995.31 611.07 995.31 611.07 984.2 618.4 976.68 609.68 976.68 609.68 976.68 609.68 965.83 606.58 962.97 615.35 959.44 626.15 977.48 619.69 977.48 619.69 977.48 619.69 980.93 630.49 990.86 620.88 990.86 620.88 1012.5 646.77 1040.05 617.09 1040.05 617.09 1051.93 637.61 1064.07 630.93 1076.21 624.25 1083.89 669.43 1133.6 641.77 1133.6 641.77 1174.92 682.4 1207.02 629.69 1207.02 629.69 1214.94 650.74 1239.68 633.2 1239.68 633.2 1241.97 656.46 1286.68 643.45 1331.39 630.44 1324.09 602.82 1324.09 602.82 1324.09 602.82 1346.82 635.92 1384.7 622.69 1422.58 609.46 1418.66 572.29 1418.66 572.29 1418.66 572.29 1448.93 586.82 1472.92 562.65 1472.92 562.65 1498.14 569.44 1505.02 541.49 1511.87 513.53 1482.57 503.54 1482.57 503.54Z" fill="#EEEEEE"/><path d="M1308.97 538.25C1309.67 538.47 1310.38 538.7 1311.14 538.91 1311.14 538.91 1310.33 538.63 1308.97 538.25Z" fill="#EEEEEE"/></g><path d="M1159.85 576.35C1159.85 576.35 1147.57 568.42 1136.89 577.76 1136.89 577.76 1137.85 569.09 1128.16 563.42 1128.16 563.42 1147.61 562.06 1142.25 546.99 1142.25 546.99 1155.34 535.71 1143.29 525.61 1143.29 525.61 1151.72 527.4 1156.81 516.36 1156.81 516.36 1149.41 527.82 1160.29 532.53 1160.29 532.53 1149.94 536.87 1159.68 546.06 1169.41 555.25 1176.53 542.44 1176.53 542.44 1176.53 542.44 1168.43 553.94 1173.24 563.19 1173.24 563.19 1159.55 555.26 1154.02 560.68 1148.49 566.1 1159.85 576.35 1159.85 576.35Z" fill="#EEEEEE"/></g><g><path d="M2.07 644.6C18.69 663.81 29.51 676.31 43.99 666.48 58.48 656.65 67 689.17 85.71 681.09 104.42 673.02 103.62 704.13 128.56 700.14 153.5 696.14 158.79 653.02 169.81 661.07 169.81 661.07 172.61 702.6 216.5 707.22 260.39 711.84 300.23 702.39 321.27 672.01 321.27 672.01 326.92 694.17 345.52 687.54 364.12 680.91 352.74 718.02 393.19 720.1 433.64 722.18 462.69 701.51 462.69 701.51 462.69 701.51 460.38 733.54 499.78 740.01 539.19 746.48 548.54 717.43 572.34 719.15 596.14 720.87 604.94 739.63 629.52 730.53 654.1 721.43 664.31 710.57 664.31 710.57 664.31 710.57 659.24 730.5 672.18 732.16 685.11 733.82 691.6 724.29 691.6 724.29 691.6 724.29 680.37 739.28 698.39 750.73 716.41 762.18 785.25 762.81 778.52 735.49 778.52 735.49 786.29 748.38 803.24 744.53 820.19 740.68 810.26 727.64 810.26 727.64 810.26 727.64 825.65 745.38 836.53 735.31 836.53 735.31 838.73 755.07 854.8 753.33 854.8 753.33 852.92 779.3 901.61 777.74 950.3 776.18 955.07 740.28 955.07 740.28 955.07 740.28 962.84 753.17 975.42 739.58 975.42 739.58 986.48 757.05 1005.34 756.97 1024.2 756.88 1025.86 733.8 1025.86 733.8 1025.86 733.8 1031.2 750.14 1047.39 746.96 1047.39 746.96 1044.34 759.07 1065.2 761.3 1086.06 763.53 1103.54 752.47 1091.14 733.45 1091.14 733.45 1106.63 749.8 1120.09 744.24 1133.54 738.69 1140.2 726.84 1140.2 726.84 1140.2 726.84 1140.7 750.08 1170.07 744.95 1199.44 739.82 1184.67 723.53 1184.67 723.53 1184.67 723.53 1202.39 729.16 1207.39 720.1 1212.4 711.04 1224.54 723.51 1231.71 714.61 1238.88 705.7 1223.64 695.9 1203.54 703.15 1203.54 703.15 1210.31 679.71 1180.88 685.56 1180.88 685.56 1182.5 663.2 1155.5 665.6 1128.5 668 1135.7 678.67 1135.7 678.67 1135.7 678.67 1120.41 659.44 1105.41 676.48 1105.41 676.48 1106.25 654.79 1078.23 651.32 1050.21 647.85 1039.94 659.43 1039.94 659.43 1039.94 659.43 1037.71 640.18 1011.88 646.41 1011.88 646.41 1017.04 625.15 996.9 622.97 996.9 622.97 1000.44 573.92 926.91 588.19 926.91 588.19 921.93 566.8 899.67 573.9 899.67 573.9 899.54 545.61 863.16 547.34 863.16 547.34 862.58 505.25 795.02 517.04 795.02 517.04 765.26 497.49 742.2 525.55 742.2 525.55 737.69 497.67 711.71 516.1 711.71 516.1 721.57 489.99 694.37 485.12 667.17 480.25 652.01 499.46 652.01 499.46 652.01 499.46 670.69 461.66 628.61 441.94 586.53 422.22 556.48 446.88 556.48 446.88 556.48 446.88 537.43 429.55 523.5 451.75 523.5 451.75 507.23 436.07 491.71 450.18 491.71 450.18 491.28 416.02 457.34 424.11 457.34 424.11 465.28 384.47 420.81 387.78 376.34 391.09 367.14 428.13 367.14 428.13 367.14 428.13 323.01 396.67 298.5 444.92 298.5 444.92 282.34 427.8 262.23 445.2 262.23 445.2 214.16 388.08 175.77 447.65 137.39 507.23 207.28 533.3 207.28 533.3 207.28 533.3 174.76 541.83 183.4 562.75 192.04 583.67 229.45 577.68 229.45 577.68 229.45 577.68 208.93 590.7 215.93 604.25 215.93 604.25 194.81 595.47 188.46 613.14 188.46 613.14 157.4 601.47 142.8 633.04 142.8 633.04 133.28 614.23 114.47 623.74 95.66 633.26 79.65 613.97 66.03 631.84 52.41 649.71 40.48 624.19 28.99 632.79 17.53 641.37-7.3 633.77 2.07 644.6Z" fill="#FFFFFF"/><g><path d="M219.32 616.29C218.72 616.11 218.09 615.95 217.38 615.83 217.38 615.83 218.08 616.02 219.32 616.29Z" fill="#EEEEEE"/><path d="M1150.8 704.62C1150.77 703.2 1150.54 702.23 1150.54 702.23 1150.54 702.23 1150.53 703.19 1150.8 704.62Z" fill="#EEEEEE"/><path d="M158.44 649.55C157.68 649.14 156.83 648.77 155.87 648.47 155.87 648.47 156.82 648.95 158.44 649.55Z" fill="#EEEEEE"/><path d="M1.44 643.82C1.63 644.07 1.83 644.32 2.07 644.6 18.69 663.81 29.51 676.31 43.99 666.48 58.48 656.65 67 689.17 85.71 681.09 104.42 673.02 103.62 704.13 128.56 700.14 143.46 697.75 151.35 681.39 157.64 670.33 131.68 680.54 130.93 663.72 130.93 663.72 107.94 670.29 97.03 650.26 97.03 650.26 82.06 668.03 56.07 655.08 56.07 655.08 45.89 661.55 36.92 651.35 36.92 651.35 21.28 655.56 9.3 650.02 1.44 643.82Z" fill="#EEEEEE"/><path d="M1180.9 685.54C1180.9 685.54 1180.96 684.66 1180.85 683.28 1180.8 684.68 1180.9 685.54 1180.9 685.54Z" fill="#EEEEEE"/><path d="M1203.55 703.13C1203.55 703.13 1210.32 679.69 1180.89 685.54 1199.91 685.25 1195.55 696.21 1189.9 701.1 1184.25 705.99 1179.42 699.46 1179.42 699.46 1179.42 699.46 1191.05 715.75 1170.65 716.93 1155.27 717.82 1151.64 709.01 1150.79 704.62 1150.87 708.84 1149.09 717.02 1133.67 715.58 1113.06 713.65 1114.45 700.51 1114.45 700.51 1108.41 716.85 1091.7 709.9 1091.7 709.9 1092.81 731.17 1076.63 729.12 1076.63 729.12 1074.3 736.9 1063.13 738.74 1060.29 729.26 1057.44 719.78 1069.4 719.32 1069.4 719.32 1057.46 707.42 1075.64 687.99 1075.64 687.99 1067.48 697.11 1052.45 691.17 1052.45 691.17 1054.38 676.74 1040.61 671.77 1040.61 671.77 1040.61 671.77 1052.77 686.77 1042.01 689.09 1031.25 691.4 1024.67 684.75 1024.67 684.75 1020.07 705.61 1001.91 700.32 1001.91 700.32 1001.91 700.32 1012.43 719.62 994.3 720.08 976.17 720.54 984.17 702.13 984.17 702.13 984.17 702.13 975.87 712.57 969.44 703.71 963.02 694.86 975.23 684.7 975.23 684.7 961.86 692.56 956.5 687.32 956.5 687.32 944.97 712.53 924.9 703.14 924.9 703.14 924.9 703.14 928.09 720.15 905.66 718.97 883.23 717.79 893.28 700.86 893.28 700.86 867.27 706.49 867.13 690.14 867.13 690.14 843.35 695.48 846.09 675.82 846.09 675.82 837 667.22 847.04 662.7 847.04 662.7 836.84 663.34 834.06 659.06 834.06 659.06 836.42 644.66 822.43 642.77 822.43 642.77 833.44 649.3 821.26 659.02 821.26 659.02 821.26 659.02 833.42 674.02 819.36 685.37 805.3 696.71 798.37 688.71 798.37 688.71 798.37 688.71 804.92 701.98 787.66 702.5 770.41 703.02 766.25 687.27 766.25 687.27 766.25 687.27 768.72 702.02 753.59 703.57 738.47 705.13 732.71 693.23 732.71 693.23 732.71 693.23 726.46 706.46 714.51 700.74 702.56 695.02 704.05 680.56 704.05 680.56 704.05 680.56 695.85 696.3 686.23 682.8 676.61 669.3 693.84 663.04 693.84 663.04 664.27 644.57 696.75 628.82 696.75 628.82 704.65 629.39 705.21 640.03 705.21 640.03 709.02 623.97 730.76 622.45 730.76 622.45 693.81 620.66 699.03 597.2 699.03 597.2 691.44 628.88 665.89 616 665.89 616 665.89 616 670.33 633.98 661.99 633.38 653.65 632.78 656.79 619.76 656.79 619.76 656.79 619.76 638.21 632.54 623.44 623.09 608.67 613.64 620.01 597.24 620.01 597.24 620.01 597.24 598.79 609.83 591.9 601.39 585.01 592.95 592.6 585.55 592.6 585.55 582.4 592.32 563.71 588.32 563.71 588.32 588.67 597.19 575.33 616.97 575.33 616.97 600.57 628.06 582.43 647.06 582.43 647.06 582.43 647.06 597.77 642.43 594.37 658.96 590.97 675.49 576.92 668.29 576.92 668.29 572.39 682.09 558.66 676.68 558.66 676.68 555.22 706.01 534.55 692.6 534.55 692.6 534.55 692.6 538.84 706.59 523.98 704.54 509.12 702.49 513.07 690.61 513.07 690.61 489.92 687.17 494.95 672.53 494.95 672.53 479.77 668.78 494.43 655.28 494.43 655.28 459.33 652.3 466.6 625.02 466.6 625.02 481.35 622.55 477.28 611.67 477.28 611.67 497.49 606.95 498.81 594.68 498.81 594.68 483.14 609.88 467.94 600.4 467.94 600.4 476.27 613.36 457.98 622.19 457.98 622.19 457.98 622.19 461.32 637 451.88 645.59 442.43 654.18 427.85 648.27 427.85 648.27 427.85 648.27 432.39 664.93 420.24 668.03 408.1 671.13 404.72 656.76 404.72 656.76 387.24 666.53 382.12 639.68 382.12 639.68 382.12 639.68 375.98 663.52 355.26 650.98 334.53 638.45 357.45 620.68 357.45 620.68 335.6 605.42 370.52 592.49 370.52 592.49 333.98 578.81 376.53 564.23 376.53 564.23 343.1 556.52 338.65 581.36 338.65 581.36 352 598.22 323.73 604.56 323.73 604.56 321.51 629.12 303.61 620.32 303.61 620.32 303.61 620.32 328.15 653.44 298.63 652.63 269.11 651.82 284.47 628.65 284.47 628.65 264.55 629.42 264.19 609.97 264.19 609.97 250.56 622.12 226.32 617.87 219.35 616.33 233.56 620.59 218.74 640.24 218.74 640.24 241.26 646.28 227.46 666.2 227.46 666.2 227.46 666.2 242.93 672 228.24 679.85 213.55 687.69 213.07 676.03 213.07 676.03 185.87 679.8 190.7 661.87 190.7 661.87 174.24 663.59 180.97 649.87 180.97 649.87 172.28 653.77 162.89 651.22 158.47 649.58 163.42 652.27 164.42 657.18 164.23 661.27 166.01 659.88 167.83 659.64 169.85 661.1 169.85 661.1 172.65 702.63 216.54 707.25 260.43 711.87 300.27 702.42 321.31 672.04 321.31 672.04 326.96 694.2 345.56 687.57 364.16 680.94 352.78 718.05 393.23 720.13 433.68 722.21 462.73 701.54 462.73 701.54 462.73 701.54 460.42 733.57 499.82 740.04 539.23 746.51 548.58 717.46 572.38 719.18 596.18 720.9 604.98 739.66 629.56 730.56 654.14 721.46 664.35 710.6 664.35 710.6 664.35 710.6 659.28 730.53 672.22 732.19 684.33 733.74 690.79 725.48 691.56 724.43 690.63 725.75 681.27 739.85 698.43 750.76 716.45 762.21 785.29 762.84 778.56 735.52 778.56 735.52 786.33 748.41 803.28 744.56 820.23 740.71 810.3 727.67 810.3 727.67 810.3 727.67 825.69 745.41 836.57 735.34 836.57 735.34 838.77 755.1 854.84 753.36 854.84 753.36 852.96 779.33 901.65 777.77 950.34 776.21 955.11 740.31 955.11 740.31 955.11 740.31 962.88 753.2 975.46 739.61 975.46 739.61 986.52 757.08 1005.38 757 1024.24 756.91 1025.9 733.83 1025.9 733.83 1025.9 733.83 1031.24 750.17 1047.43 746.99 1047.43 746.99 1044.38 759.1 1065.25 761.33 1086.11 763.56 1103.59 752.5 1091.19 733.48 1091.19 733.48 1106.68 749.82 1120.14 744.27 1133.59 738.72 1140.25 726.87 1140.25 726.87 1140.25 726.87 1140.75 750.11 1170.12 744.98 1199.49 739.85 1184.72 723.56 1184.72 723.56 1184.72 723.56 1202.44 729.19 1207.44 720.13 1212.44 711.07 1224.59 723.54 1231.76 714.64 1238.9 705.68 1223.65 695.88 1203.55 703.13Z" fill="#EEEEEE"/></g><path d="M301.32 541.38C301.32 541.38 279.74 548.93 278.84 531.72 278.84 531.72 276.37 521.36 262.93 521.99 262.93 521.99 273.41 510.42 258.68 506.68 243.94 502.94 241.5 514.55 241.5 514.55 241.5 514.55 243.93 503.21 232.59 504.4 232.59 504.4 248.76 495.78 246.29 485.42 246.29 485.42 264.48 500.67 282.55 488.04 282.55 488.04 273.44 502.92 290.76 507.93 290.76 507.93 281.81 513.18 283.51 519.2 285.22 525.22 295.32 518.98 295.32 518.98 295.32 518.98 282.34 538.93 301.32 541.38Z" fill="#EEEEEE"/><path d="M465.12 542.49C465.12 542.49 447.69 531.58 437.93 540.53 437.93 540.53 444.38 525.45 433 519.81 433 519.81 461.98 526.73 467.28 512.64 472.59 498.55 457.12 497.44 457.12 497.44 457.12 497.44 476.78 492.43 474.69 476.74 474.69 476.74 478.22 494.68 494.41 493.17 494.41 493.17 475.97 496.13 484.04 510.64 484.03 510.63 453.67 522.9 465.12 542.49Z" fill="#EEEEEE"/><g><path d="M742.22 525.52C742.22 525.52 741.65 522.01 739.75 518.31 740.65 522.58 742.22 525.52 742.22 525.52Z" fill="#EEEEEE"/><path d="M926.48 603.2C974.86 586.37 996.91 622.95 996.91 622.95 996.91 622.95 1000.45 573.9 926.92 588.17 926.92 588.17 921.94 566.78 899.68 573.88 895.96 588.6 884.53 582.98 884.53 582.98 892.07 567.65 872.59 562.82 872.59 562.82 873.48 556.1 863.18 547.31 863.18 547.31 863.18 547.31 862.6 505.22 795.04 517.01 795.04 517.01 765.28 497.46 742.22 525.52 772.56 511.62 803.6 531.04 803.6 531.04 818.3 527.81 827.66 539.21 827.66 539.21 848.11 538.01 853.05 551.23 853.05 551.23 864.36 550.44 865.34 566.59 865.34 566.59 881.68 570.45 873.47 587.54 873.47 587.54L876.98 598.31C871.8 610.59 859.7 607.45 859.7 607.45 859.7 607.45 869.82 623.19 854.12 625.27 838.43 627.35 835.05 614.78 835.05 614.78 818.59 620.02 812.13 605.62 812.13 605.62 816.07 617.9 800.27 621.38 800.27 621.38 784.17 606.82 808.19 593.34 808.19 593.34 786.6 602.83 775.67 590.99 775.67 590.99 785.69 608.12 773.23 624.79 773.23 624.79 791.29 619.66 797.6 636.2 797.6 636.2 812.54 629.78 822.41 642.78 822.41 642.78 832.05 622 859.86 642.31 859.86 642.31 879.13 642.63 877.44 658.59 877.44 658.59 907.87 654.47 900.89 675.29 900.89 675.29 919.11 653.02 949.76 666.49 949.76 666.49L920.3 644C897.18 645.01 902.07 629.28 902.07 629.28 875.8 622.02 895.35 603.61 895.35 603.61 910.88 589.17 926.48 603.2 926.48 603.2Z" fill="#EEEEEE"/></g></g><g><path d="M771.31 689.9C763.81 684.02 774.65 671.24 781.87 675.48 781.87 675.48 780.95 668.62 786.31 664.26 791.67 659.9 799.27 663.57 802.71 662.06 806.15 660.55 808.46 655.04 813.99 655.83 819.51 656.62 827.09 664.29 830.15 661.82 833.21 659.36 839.54 652.15 844.29 654.47 849.04 656.78 854.56 657.96 857.81 656.64 861.06 655.32 863.42 641.05 877.32 642.07 891.22 643.1 894.63 648.07 899.22 644.48 903.81 640.88 899.67 632.1 905.77 632.13 911.87 632.16 911.15 623.58 915.52 626.09 919.89 628.59 919.39 616.01 927.77 616.25 936.15 616.49 940.32 620.89 940.32 620.89 940.32 620.89 925.26 586.7 959.4 580.79 993.54 574.88 991.67 603.83 994.33 605.56 994.33 605.56 1002.78 593.22 1012.26 601.47 1021.74 609.72 1015.02 619.97 1015.02 619.97 1015.02 619.97 1020.98 611.05 1030.68 613.77 1040.38 616.49 1033.86 623.89 1037.48 625.05 1041.09 626.21 1046.49 615.57 1052.38 618.46 1058.27 621.35 1062.83 624.04 1067.81 618.54 1072.79 613.04 1076.27 604.87 1084.06 608.91 1091.85 612.95 1096.22 615.07 1104.43 611.88 1112.64 608.69 1114.76 603.74 1120.65 607.01 1126.54 610.28 1130.56 607.25 1130.56 607.25 1130.56 607.25 1137.6 574.32 1164.82 578.66 1192.04 583 1195.95 599.98 1205.13 595.08 1214.3 590.18 1211.7 579.09 1227.7 582.31 1243.7 585.53 1214.69 542.19 1256.47 542.77 1256.47 542.77 1237.52 505.75 1273.44 495.85 1309.36 485.95 1323.51 509.36 1323.51 509.36 1323.51 509.36 1339.95 495.17 1349.29 507.06 1349.29 507.06 1353.93 486.54 1373.46 481.07 1392.99 475.6 1405.12 486.47 1405.12 486.47 1405.12 486.47 1401.03 469.38 1425.06 469.51 1449.09 469.64 1449.36 484.62 1449.36 484.62 1449.36 484.62 1481.83 468.78 1484.84 492.47 1487.85 516.17 1505 498.85 1513.67 506.91 1522.33 514.97 1517.37 531.66 1517.37 531.66 1517.37 531.66 1523.34 523.33 1534.8 527.92 1546.27 532.51 1545.85 545.04 1545.85 545.04 1545.85 545.04 1566.8 534.71 1579.27 546.62 1591.74 558.53 1586.79 572.78 1586.79 572.78 1586.79 572.78 1587.16 569.65 1600.73 570.77 1614.31 571.89 1606.23 584.73 1606.23 584.73 1606.23 584.73 1611.18 571.18 1634.84 575.48 1658.5 579.79 1653.53 597.17 1669.54 599 1685.55 600.83 1695.39 585.21 1713.82 590.19 1732.25 595.17 1732.54 606.31 1732.54 606.31 1732.54 606.31 1747.92 596.29 1753.75 612.69 1753.75 612.69 1766.71 599.53 1781.26 613.88 1795.81 628.24 1784.94 640.72 1784.94 640.72 1784.94 640.72 1801 633.49 1805.45 647.1 1809.9 660.71 1798.02 668.3 1798.02 668.3 1798.02 668.3 1814.44 659.33 1816.82 669.8 1819.2 680.26 1835.94 676.17 1834.17 682.08 1832.4 687.99 1849.8 689.83 1847.31 698.52 1844.82 707.21 1814.22 699.04 1813.14 706.34 1812.06 713.65 1792.55 713.54 1792.55 713.54 1792.55 713.54 1789 725.36 1773.34 723.19 1757.68 721.02 1756.7 709.52 1756.7 709.52 1756.7 709.52 1750.31 730.87 1715.88 723.13 1681.45 715.38 1692.73 690.02 1692.73 690.02 1692.73 690.02 1681.82 711.2 1662.01 703.78 1642.2 696.36 1639.47 686.24 1639.47 686.24 1639.47 686.24 1634.05 721.38 1582.17 720.75 1530.28 720.12 1516.08 706.11 1516.08 706.11 1516.08 706.11 1509.36 725.82 1479.77 723.45 1450.18 721.08 1439.11 707.78 1439.11 707.78 1439.11 707.78 1418.78 731.35 1394.78 726.69 1370.78 722.03 1365.84 707.38 1365.84 707.38 1365.84 707.38 1347.07 727.48 1329.76 707.88 1329.76 707.88 1326.56 720.05 1302.92 712.96 1279.28 705.87 1293.52 711.52 1272.62 713.14 1251.72 714.76 1238.19 704.25 1238.19 704.25 1238.19 704.25 1225.54 724.38 1197.03 716.91 1168.51 709.44 1181.17 687.57 1181.17 687.57 1181.17 687.57 1166.13 698.98 1156.47 683.26 1156.47 683.26 1152.86 706.22 1126.06 703.29 1099.26 700.36 1096.54 687.81 1096.54 687.81 1096.54 687.81 1092.22 713.9 1064.42 702.26 1064.42 702.26 1068.17 717.6 1044.84 715.73 1044.84 715.73 1030.84 728.89 1014.18 719.05 997.52 709.21 1005.95 696.02 1005.95 696.02 1005.95 696.02 997.53 707.12 990.28 695.59 990.28 695.59 990.16 717.53 968.95 712.19 947.74 706.85 945.36 695 936.27 701.56 927.18 708.13 909.09 704.2 909.09 704.2 909.09 704.2 910.07 716.05 889.17 717.32 868.27 718.6 855.1 706.34 855.1 706.34 855.1 706.34 848.42 717.45 835.24 708.67 822.05 699.89 820.69 695.36 820.69 695.36 820.69 695.36 815.4 706.82 797.32 701.5 779.24 696.18 781.36 689.92 781.36 689.92 781.36 689.92 777.61 694.83 771.31 689.9Z" fill="#FFFFFF"/><g><path d="M1576.87 608.04C1577.08 607.65 1577.3 607.26 1577.5 606.85 1577.5 606.85 1577.26 607.28 1576.87 608.04Z" fill="#EEEEEE"/><path d="M984.86 678.18C984.85 678.14 984.85 678.11 984.85 678.11 984.85 678.11 984.85 678.14 984.86 678.18Z" fill="#EEEEEE"/><path d="M1207.14 661.1C1207.16 660.96 1207.18 660.82 1207.2 660.67 1207.19 660.67 1207.17 660.83 1207.14 661.1Z" fill="#EEEEEE"/><path d="M1674.63 614.88C1677.38 614.29 1680.06 613.23 1682.5 611.49 1682.5 611.49 1678.9 612.76 1674.63 614.88Z" fill="#EEEEEE"/><path d="M1847.29 698.52C1849.78 689.83 1832.37 687.99 1834.15 682.08 1835.92 676.17 1819.19 680.26 1816.8 669.8 1815.7 664.98 1811.63 664.29 1807.56 664.94 1818.52 666.89 1808.35 674.05 1808.35 674.05 1808.35 674.05 1821.89 675.92 1811.13 687.5 1800.37 699.08 1793.21 689.84 1793.21 689.84 1781.32 704.84 1765.1 694.16 1765.1 694.16 1745.93 701.79 1743.17 685.09 1743.17 685.09 1729.76 680.54 1737.97 668.37 1737.97 668.37 1725.76 668.3 1727.83 662.21 1727.83 662.21 1741.72 664.03 1747.02 650.92 1747.02 650.92 1735.96 664.29 1718.91 654.43 1718.91 654.43 1714.78 664.58 1705.85 660.46 1705.85 660.46 1705.85 660.46 1718.8 675.18 1698.05 673.04 1677.3 670.89 1694.52 648.6 1694.52 648.6 1694.52 648.6 1685.12 655.88 1678.22 652.17 1671.32 648.47 1675.03 640.75 1675.03 640.75 1675.03 640.75 1668.1 642.34 1661.65 631.72 1657.54 624.95 1667.14 618.59 1674.65 614.87 1662.7 617.42 1649.55 610.89 1649.55 610.89 1645 624.3 1634.44 620.17 1634.44 620.17 1639.68 629.56 1624.58 636.81 1624.58 636.81 1624.58 636.81 1638.76 648.69 1624.44 663.27 1610.11 677.85 1598.76 670.05 1598.76 670.05 1598.76 670.05 1605.22 679.85 1585.64 687.89 1566.06 695.92 1555.56 680.81 1555.56 680.81 1554.67 695.05 1530.64 696.55 1524.97 692.04 1519.3 687.53 1523.8 683.49 1527.5 676.18 1531.2 668.87 1521.05 664.75 1521.05 664.75 1520.29 655.38 1534.54 654.24 1534.54 654.24 1542.03 624.97 1574.52 637.77 1574.52 637.77 1565.75 631.38 1574.42 612.9 1576.91 608.04 1566.82 626.49 1537.98 620.88 1537.98 620.88 1525.26 639.94 1500.1 625.15 1500.1 625.15 1510.2 639.05 1488.57 650.32 1488.57 650.32 1494.03 693.91 1450.12 683.9 1450.12 683.9 1445.1 707.89 1414.19 703.65 1414.19 703.65 1394.19 712.9 1386.95 697.4 1386.95 697.4 1395.93 693.38 1389.47 683.17 1389.47 683.17 1403.75 677.96 1403.44 660.04 1403.44 660.04 1396.02 676.69 1372.43 673.71 1372.43 673.71 1371.47 699.76 1352 687.44 1352 687.44 1334.84 699.56 1333.28 685.71 1333.28 685.71 1309.27 685.17 1313.83 668.91 1313.83 668.91 1295.91 670.03 1293.95 656.18 1293.95 656.18 1290.53 685.47 1264.17 667.42 1264.17 667.42 1264.17 667.42 1279.11 689.89 1241.28 685.21 1206.71 680.93 1206.88 664 1207.17 661.11 1205.87 671.66 1192.95 665 1192.95 665 1185.71 648.68 1216.65 648.85 1216.65 648.85 1188.97 649.51 1179.79 616.08 1179.79 616.08 1180.06 640.5 1165.83 638.39 1165.83 638.39 1172.63 660.82 1153.11 657.45 1153.11 657.45 1140.8 676.11 1123.77 663.8 1123.77 663.8 1123.77 663.8 1111.12 669.84 1104.67 658.81 1098.22 647.78 1112.09 641.75 1112.09 641.75 1097.4 648.59 1080.65 634.25 1080.65 634.25 1088.18 646.1 1076.22 650.1 1076.22 650.1 1076.22 650.1 1085.91 664.81 1076.13 667.2 1066.35 669.59 1063.94 663.88 1063.94 663.88 1063.94 663.88 1054.14 669.93 1042.78 661.73 1031.43 653.53 1042.86 647.48 1042.86 647.48 1021.23 657.95 1007.04 647.28 1007.04 647.28 1007.04 647.28 1018.39 655.48 1013.04 666.85 1007.69 678.22 999.18 669.62 999.18 669.62 999.18 669.62 1010.51 681.89 999.08 687.53 988.08 692.95 985.11 679.2 984.9 678.16 985.11 679.26 987.62 694.4 965.26 694.67 942.06 694.95 942.97 677.04 942.97 677.04L956.46 667.34C940.53 677.84 921.07 663.08 921.07 663.08 920.58 678.95 905.94 676.02 905.94 676.02 904.24 689.85 890.01 686.92 890.01 686.92 890.01 686.92 899.68 705.29 883.82 703.17 867.96 701.05 870.86 691.29 870.86 691.29 870.86 691.29 856.17 697.32 846.02 693.61 835.86 689.9 836.3 684.18 836.3 684.18 836.3 684.18 831.79 689.85 823.65 689.81 815.51 689.77 813.5 685.68 813.5 685.68 813.5 685.68 815.09 693.02 800.43 693.34 785.77 693.67 788.28 681.47 788.28 681.47 788.28 681.47 777.65 689.55 774.42 685.06 772.97 683.04 772.84 679.79 773.14 676.83 769.05 680.12 766.8 686.27 771.37 689.85 777.67 694.78 781.41 689.88 781.41 689.88 781.41 689.88 779.29 696.14 797.37 701.46 815.45 706.78 820.74 695.32 820.74 695.32 820.74 695.32 822.11 699.85 835.29 708.63 848.48 717.41 855.15 706.3 855.15 706.3 855.15 706.3 868.32 718.56 889.22 717.28 910.12 716 909.14 704.16 909.14 704.16 909.14 704.16 927.23 708.09 936.32 701.52 945.41 694.95 947.78 706.81 969 712.15 990.21 717.49 990.33 695.55 990.33 695.55 997.58 707.08 1006 695.98 1006 695.98 1006 695.98 997.57 709.17 1014.23 719.01 1030.89 728.85 1044.89 715.69 1044.89 715.69 1068.21 717.56 1064.47 702.21 1064.47 702.21 1092.27 713.85 1096.59 687.76 1096.59 687.76 1096.59 687.76 1099.31 700.31 1126.11 703.24 1152.91 706.17 1156.52 683.21 1156.52 683.21 1166.18 698.93 1181.22 687.52 1181.22 687.52 1181.22 687.52 1168.56 709.39 1197.08 716.86 1225.6 724.33 1238.24 704.2 1238.24 704.2 1238.24 704.2 1251.76 714.72 1272.67 713.09 1293.57 711.46 1279.33 705.81 1302.97 712.91 1326.61 720 1329.81 707.83 1329.81 707.83 1347.12 727.43 1365.89 707.33 1365.89 707.33 1365.89 707.33 1370.83 721.98 1394.83 726.64 1418.83 731.3 1439.16 707.73 1439.16 707.73 1439.16 707.73 1450.23 721.02 1479.82 723.4 1509.41 725.77 1516.13 706.06 1516.13 706.06 1516.13 706.06 1530.33 720.07 1582.22 720.7 1634.11 721.33 1639.52 686.19 1639.52 686.19 1639.52 686.19 1642.25 696.3 1662.06 703.73 1681.87 711.15 1692.78 689.97 1692.78 689.97 1692.78 689.97 1681.5 715.33 1715.93 723.08 1750.36 730.83 1756.75 709.47 1756.75 709.47 1756.75 709.47 1757.73 720.97 1773.39 723.14 1789.05 725.31 1792.6 713.49 1792.6 713.49 1792.6 713.49 1812.1 713.6 1813.19 706.29 1814.21 699.04 1844.81 707.22 1847.29 698.52Z" fill="#EEEEEE"/></g><path d="M1344.57 661.85C1344.57 661.85 1339.31 627.68 1300.11 630.73 1300.11 630.73 1295.27 619.82 1284.92 621.94 1284.92 621.94 1301.31 610.6 1285.02 602.89 1285.02 602.89 1286.76 582.76 1260.05 590.24 1260.05 590.24 1268.26 581.03 1289.47 584.41 1289.47 584.41 1305.34 569.26 1291.23 560.47 1291.23 560.47 1302.2 544.2 1288.63 538.14L1308.98 538.25C1308.98 538.25 1308.13 554.57 1321.75 551.93 1321.75 551.93 1317.3 569.87 1336.34 570.52 1336.34 570.52 1333.57 578.67 1344.99 580.91 1344.99 580.91 1323.73 586.09 1326.92 600.06 1326.92 600.06 1329.6 606.81 1337.81 600.12 1337.81 600.12 1329.62 605.45 1339.37 613.06 1339.37 613.06 1339.83 628.23 1357.86 615.81 1357.86 615.81 1350.21 620.67 1353.41 634.29 1353.43 634.29 1344.66 645.38 1344.57 661.85Z" fill="#EEEEEE"/><g><path d="M1421.07 643.82C1421.53 645.58 1421.93 646.63 1421.93 646.63 1421.66 645.66 1421.37 644.73 1421.07 643.82Z" fill="#EEEEEE"/><path d="M1395.95 620.91C1395.95 620.91 1397.58 621.14 1399.88 621.08 1397.5 620.69 1395.95 620.91 1395.95 620.91Z" fill="#EEEEEE"/><path d="M1518.63 581.3C1518.63 581.3 1493.03 566.58 1505.2 549.11 1505.2 549.11 1499.93 535.38 1517.37 531.65 1517.37 531.65 1522.34 514.96 1513.67 506.9 1511.24 504.64 1508.14 504.38 1504.87 504.65 1504.88 504.65 1517.4 507.82 1511.35 519.21 1511.35 519.21 1497.2 519.13 1496.07 527.29 1496.07 527.29 1483.04 520.69 1474.83 528.81 1474.83 528.81 1482.92 543.01 1460.59 545.61 1460.59 545.61 1478.01 545.7 1476.29 560.94 1474.57 576.17 1457.2 567.91 1457.2 567.91 1457.2 567.91 1457.13 580.43 1444.63 577.09 1432.13 573.76 1423.47 563.91 1423.47 563.91 1423.47 563.91 1420.16 571.98 1411.46 570.61 1411.46 570.61 1419.55 584.03 1403.2 587.75 1403.2 587.75 1412.96 594.33 1403.12 602.45 1403.12 602.45 1416.74 600.32 1414.5 611.75 1412.97 619.57 1404.85 620.98 1399.88 621.09 1405.35 622 1415.24 626.17 1421.07 643.82 1419.07 636.26 1415.91 615.7 1438.46 610.16 1438.46 610.16 1441.87 584.15 1475.09 581.07 1475.09 581.07 1484.43 564.24 1518.63 581.3Z" fill="#EEEEEE"/></g><path d="M1409.33 563.29C1409.33 563.29 1395.71 564.85 1402.89 547.47 1402.89 547.47 1388.01 532.15 1401 520.79 1401 520.79 1379.62 523.39 1381.88 508.17 1381.88 508.17 1383.43 522.87 1371.44 525.53 1371.44 525.53 1383.39 529.41 1371.37 538.59 1371.37 538.59 1387.72 533.78 1382.76 545.18L1390.43 535.72C1390.43 535.72 1391.59 542.86 1396.35 547.98 1396.35 547.98 1389.7 569.17 1409.33 563.29Z" fill="#EEEEEE"/></g></g></g></g></g><path d="M1358.91 245.1C1358.92 244.85 1358.93 244.6 1358.93 244.35 1358.93 237.49 1353.37 231.93 1346.51 231.93 1345.21 231.93 1343.95 232.13 1342.78 232.5 1342.78 232.46 1342.78 232.41 1342.78 232.37 1342.78 223.88 1335.9 217 1327.41 217 1320.65 217 1314.91 221.37 1312.85 227.44 1311.06 226.37 1308.98 225.75 1306.74 225.75 1300.17 225.75 1294.84 231.08 1294.84 237.65 1294.84 238.41 1294.91 239.14 1295.05 239.86 1289.3 240.69 1284.88 245.65 1284.88 251.63 1284.88 258.2 1290.21 263.53 1296.78 263.53L1355.89 263.53C1361.12 263.53 1365.36 259.29 1365.36 254.06 1365.36 249.9 1362.66 246.36 1358.91 245.1Z" fill="#FFFFFF"/><g><g><g><g><g><path d="M1216.54 161.58 1196.41 161.58 1206.47 139.76Z" fill="#1B75BB"/><path d="M1219.28 216.85 1194.25 216.85 1196.28 159.7 1216.38 159.7Z" fill="#F1F1F2"/><g><rect x="1196.28" y="157.04" width="3.66" height="5.87" fill="#F1F1F2"/><rect x="1201.77" y="157.04" width="3.66" height="5.87" fill="#F1F1F2"/><rect x="1207.26" y="157.04" width="3.66" height="5.87" fill="#F1F1F2"/><rect x="1212.75" y="157.04" width="3.66" height="5.87" fill="#F1F1F2"/></g><rect x="1193.5" y="159.73" width="25.95" height="4.51" fill="#F1F1F2"/></g><g><g><path d="M1208.76 174.01 1204.7 174.01 1204.7 169.33C1204.7 168.21 1205.61 167.3 1206.73 167.3L1206.73 167.3C1207.85 167.3 1208.76 168.21 1208.76 169.33L1208.76 174.01Z" fill="#2A2B63"/><rect x="1203.63" y="173.59" width="6.21" height="1.27" fill="#A4BFFA"/></g></g><g><rect x="1198.23" y="189.91" width="5.49" height="1.7" fill="#88A3F6" opacity="0.37"/><rect x="1200.06" y="188.21" width="5.49" height="1.7" fill="#88A3F6" opacity="0.37"/><rect x="1197.93" y="164.55" width="3.13" height="1.36" fill="#88A3F6" opacity="0.37"/><rect x="1211.12" y="177.23" width="3.29" height="1.33" fill="#88A3F6" opacity="0.37"/><rect x="1209.38" y="203.07" width="3.29" height="1.33" fill="#88A3F6" opacity="0.37"/></g></g><path d="M1205.1 137.84 1206.47 134.32 1207.93 138.06C1208.06 138.4 1208.34 138.68 1208.68 138.81L1211.12 139.76 1208.9 140.62C1208.42 140.81 1208.03 141.19 1207.84 141.68L1206.47 145.2 1205.01 141.46C1204.88 141.12 1204.6 140.84 1204.26 140.71L1201.82 139.76 1204.04 138.9C1204.53 138.71 1204.92 138.33 1205.1 137.84Z" fill="#E7FF00"/></g><g><g><path d="M1275.51 207.51 1255.39 207.51 1265.45 185.69Z" fill="#1B75BB"/><path d="M1278.25 262.78 1253.23 262.78 1255.26 205.62 1275.35 205.62Z" fill="#E2E2E2"/><g><rect x="1255.26" y="202.97" width="3.66" height="5.87" fill="#E2E2E2"/><rect x="1260.75" y="202.97" width="3.66" height="5.87" fill="#E2E2E2"/><rect x="1266.23" y="202.97" width="3.66" height="5.87" fill="#E2E2E2"/><rect x="1271.72" y="202.97" width="3.66" height="5.87" fill="#E2E2E2"/></g><rect x="1252.48" y="205.66" width="25.95" height="4.51" fill="#E2E2E2"/></g><g><g><path d="M1267.74 219.93 1263.68 219.93 1263.68 215.25C1263.68 214.13 1264.59 213.22 1265.71 213.22L1265.71 213.22C1266.83 213.22 1267.74 214.13 1267.74 215.25L1267.74 219.93Z" fill="#2A2B63"/><rect x="1262.61" y="219.52" width="6.21" height="1.27" fill="#A4BFFA"/></g></g><g><rect x="1257.2" y="235.84" width="5.49" height="1.7" fill="#88A3F6" opacity="0.37"/><rect x="1259.03" y="234.14" width="5.49" height="1.7" fill="#88A3F6" opacity="0.37"/><rect x="1256.91" y="210.48" width="3.13" height="1.36" fill="#88A3F6" opacity="0.37"/><rect x="1270.09" y="223.16" width="3.29" height="1.33" fill="#88A3F6" opacity="0.37"/></g></g><g><g><path d="M1157.56 207.51 1137.44 207.51 1147.5 185.69Z" fill="#1B75BB"/><path d="M1160.3 262.78 1135.28 262.78 1137.31 205.62 1157.4 205.62Z" fill="#E2E2E2"/><g><rect x="1137.31" y="202.97" width="3.66" height="5.87" fill="#E2E2E2"/><rect x="1142.8" y="202.97" width="3.66" height="5.87" fill="#E2E2E2"/><rect x="1148.28" y="202.97" width="3.66" height="5.87" fill="#E2E2E2"/><rect x="1153.77" y="202.97" width="3.66" height="5.87" fill="#E2E2E2"/></g><rect x="1134.53" y="205.66" width="25.95" height="4.51" fill="#E2E2E2"/></g><g><g><path d="M1149.79 219.93 1145.73 219.93 1145.73 215.25C1145.73 214.13 1146.64 213.22 1147.76 213.22L1147.76 213.22C1148.88 213.22 1149.79 214.13 1149.79 215.25L1149.79 219.93Z" fill="#2A2B63"/><rect x="1144.66" y="219.52" width="6.21" height="1.27" fill="#A4BFFA"/></g></g><g><rect x="1139.25" y="235.84" width="5.49" height="1.7" fill="#88A3F6" opacity="0.37"/><rect x="1141.08" y="234.14" width="5.49" height="1.7" fill="#88A3F6" opacity="0.37"/><rect x="1138.96" y="210.48" width="3.13" height="1.36" fill="#88A3F6" opacity="0.37"/><rect x="1152.14" y="223.16" width="3.29" height="1.33" fill="#88A3F6" opacity="0.37"/></g></g><g><g><path d="M1250.84 196.05 1223.57 196.05 1237.2 166.48Z" fill="#1B75BB"/><path d="M1254.56 260.3 1220.63 260.3 1223.39 193.5 1250.62 193.5Z" fill="#F1F1F2"/><g><rect x="1223.39" y="189.9" width="4.96" height="7.95" fill="#88A3F6"/><rect x="1230.83" y="189.9" width="4.96" height="7.95" fill="#88A3F6"/><rect x="1238.27" y="189.9" width="4.96" height="7.95" fill="#F1F1F2"/><rect x="1245.71" y="189.9" width="4.96" height="7.95" fill="#F1F1F2"/></g><rect x="1219.62" y="193.55" width="35.17" height="6.12" fill="#F1F1F2"/></g><path d="M1236.2 260.18 1219.57 260.18 1223.14 199.55 1219.51 199.55 1219.51 193.43 1223.5 193.43 1223.5 193.38 1223.5 189.78 1228.46 189.78 1228.46 193.38 1230.94 193.38 1230.94 189.78 1235.9 189.78 1235.9 193.38 1237.19 193.38" fill="#F1F1F2"/><g><g><path d="M1240.3 212.9 1234.8 212.9 1234.8 206.56C1234.8 205.04 1236.03 203.81 1237.55 203.81L1237.55 203.81C1239.07 203.81 1240.3 205.04 1240.3 206.56L1240.3 212.9Z" fill="#2A2B63"/><rect x="1233.35" y="212.33" width="8.41" height="1.73" fill="#A4BFFA"/></g><g><path d="M1240.3 228.45 1234.8 228.45 1234.8 222.11C1234.8 220.59 1236.03 219.36 1237.55 219.36L1237.55 219.36C1239.07 219.36 1240.3 220.59 1240.3 222.11L1240.3 228.45Z" fill="#2A2B63"/><rect x="1233.35" y="227.88" width="8.41" height="1.73" fill="#A4BFFA"/></g></g><g><rect x="1226.02" y="234.45" width="7.44" height="2.3" fill="#88A3F6" opacity="0.37"/><rect x="1228.5" y="232.16" width="7.44" height="2.3" fill="#88A3F6" opacity="0.37"/><rect x="1225.62" y="200.08" width="4.24" height="1.84" fill="#88A3F6" opacity="0.37"/><rect x="1243.5" y="217.27" width="4.46" height="1.8" fill="#88A3F6" opacity="0.37"/><rect x="1241.14" y="252.29" width="4.46" height="1.8" fill="#88A3F6" opacity="0.37"/></g></g><g><path d="M1189.92 196.05 1162.65 196.05 1176.29 166.48Z" fill="#1B75BB"/><g><path d="M1193.86 260.3 1158.75 260.3 1162.69 193.5 1189.92 193.5Z" fill="#F1F1F2"/><g><rect x="1162.65" y="189.9" width="4.96" height="7.95" fill="#F1F1F2"/><rect x="1170.09" y="189.9" width="4.96" height="7.95" fill="#F1F1F2"/><rect x="1177.53" y="189.9" width="4.96" height="7.95" fill="#88A3F6"/><rect x="1184.97" y="189.9" width="4.96" height="7.95" fill="#88A3F6"/></g><rect x="1158.75" y="193.55" width="35.17" height="6.12" fill="#F1F1F2"/></g><path d="M1177.23 260.3 1193.86 260.3 1190.29 199.67 1193.92 199.67 1193.92 193.55 1189.93 193.55 1189.92 193.5 1189.92 189.9 1184.97 189.9 1184.97 193.5 1182.49 193.5 1182.49 189.9 1177.53 189.9 1177.53 193.5 1176.24 193.5" fill="#F1F1F2"/><g><g><path d="M1179.04 212.9 1173.54 212.9 1173.54 206.56C1173.54 205.04 1174.77 203.81 1176.29 203.81L1176.29 203.81C1177.81 203.81 1179.04 205.04 1179.04 206.56L1179.04 212.9Z" fill="#2A2B63"/><rect x="1172.08" y="212.33" width="8.41" height="1.73" fill="#A4BFFA"/></g><g><path d="M1179.04 228.45 1173.54 228.45 1173.54 222.11C1173.54 220.59 1174.77 219.36 1176.29 219.36L1176.29 219.36C1177.81 219.36 1179.04 220.59 1179.04 222.11L1179.04 228.45Z" fill="#2A2B63"/><rect x="1172.08" y="227.88" width="8.41" height="1.73" fill="#A4BFFA"/></g></g><g><rect x="1162.65" y="252.71" width="7.44" height="2.3" fill="#88A3F6" opacity="0.37"/><rect x="1165.13" y="250.41" width="7.44" height="2.3" fill="#88A3F6" opacity="0.37"/><rect x="1164.61" y="218.34" width="4.24" height="1.84" fill="#88A3F6" opacity="0.37"/><rect x="1182.49" y="235.53" width="4.46" height="1.8" fill="#88A3F6" opacity="0.37"/></g></g><g><g><rect x="1189.75" y="214.35" width="33.46" height="45.96" fill="#E2E2E2"/><g><rect x="1189.75" y="208.64" width="4.96" height="7.95" fill="#E2E2E2"/><rect x="1196.87" y="208.64" width="4.96" height="7.95" fill="#E2E2E2"/><rect x="1204" y="208.64" width="4.96" height="7.95" fill="#E2E2E2"/><rect x="1211.12" y="208.64" width="4.96" height="7.95" fill="#E2E2E2"/><rect x="1218.24" y="208.64" width="4.96" height="7.95" fill="#E2E2E2"/></g><path d="M1206.48 233.49 1206.48 233.49C1209.9 233.49 1212.68 236.27 1212.68 239.69L1212.68 260.31 1200.28 260.31 1200.28 239.69C1200.28 236.26 1203.06 233.49 1206.48 233.49Z" fill="#2A2B63"/></g><g><g><rect x="1193.51" y="224.53" width="8.32" height="3" fill="#F1F1F2"/><rect x="1196.12" y="226.95" width="8.32" height="3" fill="#F1F1F2"/></g><g><rect x="1215.55" y="239.85" width="6.33" height="3" fill="#F1F1F2"/><rect x="1216.88" y="242.46" width="6.33" height="3" fill="#F1F1F2"/></g><g><rect x="1189.75" y="250.51" width="6.33" height="3" fill="#F1F1F2"/><rect x="1192.23" y="253.51" width="6.33" height="3" fill="#F1F1F2"/></g></g><rect x="1186.19" y="218.88" width="40.58" height="6.1" fill="#1B75BB"/></g></g></g><g><path d="M1414.25 318.4C1408.26 324.8 1404.32 328.95 1399.2 325.52 1394.08 322.09 1390.82 333.01 1384.19 330.1 1377.56 327.19 1377.59 337.72 1368.68 336.07 1359.77 334.42 1358.36 319.77 1354.34 322.34 1354.34 322.34 1352.86 336.38 1337.05 337.21 1321.24 338.04 1307.07 334.02 1300.14 323.31 1300.14 323.31 1297.69 330.67 1291.18 328 1284.66 325.33 1287.98 338.15 1273.42 337.82 1258.86 337.48 1248.97 329.64 1248.97 329.64 1248.97 329.64 1248.99 340.54 1234.65 341.49 1220.31 342.44 1217.81 332.32 1209.23 332.06 1200.66 331.81 1196.89 337.8 1188.39 333.8 1179.89 329.81 1176.64 325.74 1176.64 325.74 1176.64 325.74 1177.75 332.64 1173.06 332.68 1168.37 332.72 1166.4 329.25 1166.4 329.25 1166.4 329.25 1169.88 334.75 1162.99 337.85 1156.1 340.95 1131.35 338.09 1134.88 329.23 1134.88 329.23 1131.57 333.2 1125.66 331.11 1119.75 329.02 1123.86 325.11 1123.86 325.11 1123.86 325.11 1117.59 330.32 1114.15 326.42 1114.15 326.42 1112.5 332.94 1106.82 331.56 1106.82 331.56 1106.33 340.41 1088.93 337.34 1071.53 334.27 1071.6 321.94 1071.6 321.94 1071.6 321.94 1068.18 325.82 1064.38 320.58 1064.38 320.58 1059.55 325.81 1052.82 324.69 1046.09 323.58 1046.71 315.76 1046.71 315.76 1046.71 315.76 1043.94 320.91 1038.34 318.88 1038.34 318.88 1038.78 323.11 1031.21 322.59 1023.64 322.07 1018.04 317.29 1023.51 311.72 1023.51 311.72 1017.07 316.21 1012.61 313.5 1008.14 310.8 1006.47 306.42 1006.47 306.42 1006.47 306.42 1004.93 314.14 994.8 310.5 984.67 306.86 990.91 302.41 990.91 302.41 990.91 302.41 984.29 303.09 983.08 299.74 981.87 296.39 976.8 299.71 974.82 296.26 972.85 292.81 978.83 290.61 985.48 294.37 985.48 294.37 984.53 286.15 994.54 290.03 994.54 290.03 995.32 282.51 1004.67 285.05 1014.02 287.59 1010.87 290.67 1010.87 290.67 1010.87 290.67 1017.35 285.24 1021.67 291.85 1021.67 291.85 1022.61 284.59 1032.66 285.13 1042.71 285.67 1045.69 290.11 1045.69 290.11 1045.69 290.11 1047.5 283.83 1056.26 287.39 1056.26 287.39 1055.57 280.01 1062.75 280.41 1062.75 280.41 1064 263.96 1089.01 272.58 1089.01 272.58 1091.78 265.7 1099.21 269.2 1099.21 269.2 1100.59 259.78 1113.17 262.13 1113.17 262.13 1115.25 248.17 1138.19 255.18 1138.19 255.18 1149.29 249.96 1156.18 260.35 1156.18 260.35 1158.83 251.2 1167.15 258.45 1167.15 258.45 1164.75 249.3 1174.35 248.75 1183.95 248.2 1188.5 255.22 1188.5 255.22 1188.5 255.22 1183.45 241.85 1198.62 236.76 1213.79 231.67 1223.31 240.93 1223.31 240.93 1223.31 240.93 1230.39 235.72 1234.54 243.63 1234.54 243.63 1240.6 238.86 1245.56 244.07 1245.56 244.07 1246.66 232.61 1258.12 236.28 1258.12 236.28 1256.45 222.75 1271.6 225.02 1286.75 227.29 1289.09 239.95 1289.09 239.95 1289.09 239.95 1304.88 230.33 1312.44 247.11 1312.44 247.11 1318.32 241.66 1324.98 247.9 1324.98 247.9 1342.34 229.47 1354.86 250.12 1367.38 270.77 1342.73 278.57 1342.73 278.57 1342.73 278.57 1354.02 281.94 1350.72 288.88 1347.42 295.82 1334.3 293.19 1334.3 293.19 1334.3 293.19 1341.35 297.92 1338.69 302.39 1338.69 302.39 1346.27 299.76 1348.29 305.82 1348.29 305.82 1359.4 302.32 1364.26 313.17 1364.26 313.17 1367.82 306.94 1374.41 310.37 1381 313.79 1386.83 307.43 1391.55 313.59 1396.27 319.74 1400.67 311.21 1404.71 314.2 1408.75 317.22 1417.62 314.8 1414.25 318.4Z" fill="#FFFFFF"/><g><path d="M1337.32 306.46C1337.53 306.41 1337.76 306.36 1338.01 306.33 1338.01 306.34 1337.76 306.39 1337.32 306.46Z" fill="#EEEEEE"/><path d="M1004.01 298.38C1004.1 297.91 1004.24 297.6 1004.24 297.6 1004.24 297.6 1004.19 297.92 1004.01 298.38Z" fill="#EEEEEE"/><path d="M1358.52 318.6C1358.8 318.47 1359.1 318.36 1359.45 318.27 1359.45 318.27 1359.1 318.42 1358.52 318.6Z" fill="#EEEEEE"/><path d="M1414.48 318.14C1414.41 318.22 1414.34 318.31 1414.25 318.4 1408.26 324.8 1404.32 328.95 1399.2 325.52 1394.08 322.09 1390.82 333.01 1384.19 330.1 1377.56 327.19 1377.59 337.72 1368.68 336.07 1363.36 335.08 1360.7 329.45 1358.58 325.63 1367.74 329.43 1368.18 323.74 1368.18 323.74 1376.32 326.24 1380.39 319.57 1380.39 319.57 1385.58 325.73 1394.96 321.58 1394.96 321.58 1398.55 323.85 1401.81 320.47 1401.81 320.47 1407.35 322 1411.66 320.2 1414.48 318.14Z" fill="#EEEEEE"/><path d="M994.52 290.06C994.52 290.06 994.55 289.76 994.67 289.31 994.61 289.78 994.52 290.06 994.52 290.06Z" fill="#EEEEEE"/><path d="M985.46 294.4C985.46 294.4 984.51 286.18 994.52 290.06 987.83 288.71 988.7 292.63 990.4 294.64 992.1 296.65 994.2 294.79 994.2 294.79 994.2 294.79 989.1 299.44 996.25 301.18 1001.64 302.49 1003.45 299.78 1004.01 298.38 1003.73 299.78 1003.88 302.62 1009.43 303.13 1016.84 303.8 1017.1 299.33 1017.1 299.33 1018.3 305.15 1024.62 303.87 1024.62 303.87 1023.03 310.89 1028.9 311.2 1028.9 311.2 1029.3 313.94 1033.17 315.23 1034.7 312.24 1036.23 309.25 1032.01 308.38 1032.01 308.38 1036.9 305.14 1031.53 297.56 1031.53 297.56 1033.91 301.1 1039.55 300.01 1039.55 300.01 1039.65 295.08 1044.78 294.24 1044.78 294.24 1044.78 294.24 1039.67 298.53 1043.35 299.94 1047.03 301.35 1049.71 299.5 1049.71 299.5 1050.23 306.73 1056.95 306.01 1056.95 306.01 1056.95 306.01 1052.21 311.86 1058.63 313.04 1065.05 314.22 1063.15 307.62 1063.15 307.62 1063.15 307.62 1065.57 311.57 1068.3 308.97 1071.02 306.37 1067.21 302.3 1067.21 302.3 1071.54 305.67 1073.71 304.21 1073.71 304.21 1076.54 313.27 1084.15 311.2 1084.15 311.2 1084.15 311.2 1082.2 316.73 1090.24 317.51 1098.28 318.29 1095.49 312.09 1095.49 312.09 1104.47 315.31 1105.27 309.83 1105.27 309.83 1113.47 312.81 1113.37 306.07 1113.37 306.07 1116.97 303.63 1113.62 301.63 1113.62 301.63 1117.2 302.34 1118.37 301.04 1118.37 301.04 1118.17 296.1 1123.19 296.14 1123.19 296.14 1119.02 297.81 1122.9 301.64 1122.9 301.64 1122.9 301.64 1117.93 306.09 1122.44 310.56 1126.94 315.03 1129.75 312.67 1129.75 312.67 1129.75 312.67 1126.86 316.82 1132.98 317.79 1139.1 318.76 1141.22 313.65 1141.22 313.65 1141.22 313.65 1139.74 318.49 1145.07 319.68 1150.4 320.87 1152.91 317.12 1152.91 317.12 1152.91 317.12 1154.63 321.84 1159.1 320.42 1163.57 319 1163.58 314.08 1163.58 314.08 1163.58 314.08 1165.92 319.71 1169.83 315.57 1173.75 311.43 1167.86 308.62 1167.86 308.62 1179.03 303.63 1168.1 297.01 1168.1 297.01 1165.29 296.88 1164.69 300.43 1164.69 300.43 1163.95 294.88 1156.35 293.45 1156.35 293.45 1169.44 294.43 1168.48 286.3 1168.48 286.3 1169.95 297.25 1179.45 293.94 1179.45 293.94 1179.45 293.94 1177.24 299.81 1180.21 299.93 1183.18 300.05 1182.53 295.56 1182.53 295.56 1182.53 295.56 1188.65 300.58 1194.18 297.95 1199.71 295.32 1196.26 289.38 1196.26 289.38 1196.26 289.38 1203.32 294.39 1206.02 291.79 1208.72 289.19 1206.29 286.44 1206.29 286.44 1209.65 289.08 1216.36 288.37 1216.36 288.37 1207.3 290.51 1211.37 297.61 1211.37 297.61 1202.11 300.47 1207.91 307.49 1207.91 307.49 1207.91 307.49 1202.62 305.39 1203.29 311.07 1203.96 316.75 1209.19 314.83 1209.19 314.83 1210.37 319.63 1215.43 318.28 1215.43 318.28 1215.76 328.27 1223.55 324.45 1223.55 324.45 1223.55 324.45 1221.61 329.03 1226.98 328.82 1232.35 328.61 1231.27 324.48 1231.27 324.48 1239.63 324.06 1238.23 318.96 1238.23 318.96 1243.74 318.17 1238.89 313.16 1238.89 313.16 1251.44 313.23 1249.57 303.8 1249.57 303.8 1244.42 302.54 1246.15 298.99 1246.15 298.99 1239.14 296.8 1239.02 292.62 1239.02 292.62 1244.11 298.22 1249.75 295.47 1249.75 295.47 1246.47 299.59 1252.7 303.1 1252.7 303.1 1252.7 303.1 1251.13 308 1254.26 311.16 1257.4 314.32 1262.73 312.73 1262.73 312.73 1262.73 312.73 1260.71 318.23 1264.96 319.6 1269.21 320.97 1270.75 316.21 1270.75 316.21 1276.74 319.96 1279.17 311.03 1279.17 311.03 1279.17 311.03 1280.84 319.23 1288.47 315.49 1296.1 311.75 1288.32 305.22 1288.32 305.22 1296.38 300.59 1284.3 295.4 1284.3 295.4 1297.48 291.67 1282.8 285.72 1282.8 285.72 1294.72 283.93 1295.76 292.38 1295.76 292.38 1290.72 297.77 1300.56 300.54 1300.56 300.54 1300.87 308.87 1307.38 306.29 1307.38 306.29 1307.38 306.29 1298.04 316.96 1308.56 317.3 1319.08 317.64 1314.01 309.49 1314.01 309.49 1321.06 310.14 1321.51 303.58 1321.51 303.58 1326.13 307.94 1334.8 306.92 1337.29 306.52 1332.2 307.73 1337.17 314.6 1337.17 314.6 1329.08 316.27 1333.69 323.22 1333.69 323.22 1333.69 323.22 1328.08 324.91 1333.21 327.81 1338.35 330.71 1338.69 326.77 1338.69 326.77 1348.36 328.49 1346.86 322.34 1346.86 322.34 1352.71 323.17 1350.48 318.43 1350.48 318.43 1353.52 319.87 1356.9 319.14 1358.49 318.65 1356.7 319.49 1356.28 321.13 1356.31 322.52 1355.69 322.03 1355.04 321.92 1354.31 322.39 1354.31 322.39 1352.83 336.43 1337.02 337.26 1321.21 338.09 1307.04 334.07 1300.11 323.36 1300.11 323.36 1297.66 330.72 1291.15 328.05 1284.64 325.38 1287.95 338.2 1273.39 337.87 1258.83 337.53 1248.94 329.69 1248.94 329.69 1248.94 329.69 1248.96 340.59 1234.62 341.54 1220.28 342.49 1217.78 332.37 1209.2 332.11 1200.63 331.86 1196.86 337.85 1188.36 333.85 1179.86 329.86 1176.61 325.79 1176.61 325.79 1176.61 325.79 1177.72 332.69 1173.03 332.73 1168.64 332.77 1166.39 329.34 1166.39 329.34 1166.39 329.34 1169.52 334.95 1162.96 337.9 1156.07 341 1131.32 338.14 1134.85 329.28 1134.85 329.28 1131.54 333.25 1125.63 331.16 1119.72 329.07 1123.83 325.16 1123.83 325.16 1123.83 325.16 1117.56 330.37 1114.12 326.47 1114.12 326.47 1112.47 332.99 1106.79 331.61 1106.79 331.61 1106.3 340.46 1088.9 337.39 1071.5 334.32 1071.57 321.99 1071.57 321.99 1071.57 321.99 1068.15 325.87 1064.35 320.63 1064.35 320.63 1059.52 325.86 1052.79 324.74 1046.06 323.63 1046.68 315.81 1046.68 315.81 1046.68 315.81 1043.91 320.96 1038.31 318.93 1038.31 318.93 1038.75 323.16 1031.18 322.64 1023.61 322.12 1018.01 317.34 1023.48 311.77 1023.48 311.77 1017.04 316.26 1012.58 313.55 1008.11 310.85 1006.44 306.47 1006.44 306.47 1006.44 306.47 1004.9 314.19 994.77 310.55 984.64 306.91 990.88 302.46 990.88 302.46 990.88 302.46 984.26 303.14 983.05 299.79 981.84 296.44 976.77 299.76 974.79 296.31 972.82 292.84 978.81 290.64 985.46 294.4Z" fill="#EEEEEE"/></g><path d="M1309.65 279.66C1309.65 279.66 1317.08 282.64 1317.7 276.85 1317.7 276.85 1318.74 273.41 1323.43 273.87 1323.43 273.87 1319.97 269.77 1325.17 268.78 1330.37 267.79 1331.04 271.74 1331.04 271.74 1331.04 271.74 1330.37 267.87 1334.31 268.47 1334.31 268.47 1328.81 265.28 1329.84 261.83 1329.84 261.83 1323.24 266.66 1317.18 262.04 1317.18 262.04 1320.1 267.25 1313.96 268.59 1313.96 268.59 1316.99 270.54 1316.29 272.53 1315.59 274.53 1312.17 272.22 1312.17 272.22 1312.17 272.22 1316.35 279.22 1309.65 279.66Z" fill="#EEEEEE"/><path d="M1252.27 276C1252.27 276 1258.65 272.82 1261.83 276.1 1261.83 276.1 1259.96 270.85 1264.08 269.25 1264.08 269.25 1253.78 270.78 1252.31 265.88 1250.84 260.98 1256.25 261.05 1256.25 261.05 1256.25 261.05 1249.55 258.8 1250.7 253.57 1250.7 253.57 1248.98 259.52 1243.4 258.52 1243.4 258.52 1249.73 260.06 1246.52 264.71 1246.53 264.72 1256.79 269.73 1252.27 276Z" fill="#EEEEEE"/><g><path d="M1156.17 260.4C1156.17 260.4 1156.51 259.25 1157.32 258.08 1156.83 259.48 1156.17 260.4 1156.17 260.4Z" fill="#EEEEEE"/><path d="M1088.41 277.66C1072.28 269.5 1062.73 280.44 1062.73 280.44 1062.73 280.44 1063.98 263.99 1088.99 272.61 1088.99 272.61 1091.76 265.73 1099.19 269.23 1099.79 274.35 1104.05 273.04 1104.05 273.04 1102.13 267.53 1109.16 266.89 1109.16 266.89 1109.16 264.6 1113.15 262.16 1113.15 262.16 1113.15 262.16 1115.23 248.2 1138.17 255.21 1138.17 255.21 1149.27 249.99 1156.16 260.38 1146.17 254.42 1134.59 259.52 1134.59 259.52 1129.62 257.77 1125.87 261.14 1125.87 261.14 1118.81 259.78 1116.49 263.95 1116.49 263.95 1112.59 263.14 1111.51 268.49 1111.51 268.49 1105.63 268.98 1107.7 275.1 1107.7 275.1 1107.01 276.47 1106.66 277.16 1105.97 278.53 1107.22 282.9 1111.61 282.45 1111.61 282.45 1111.61 282.45 1107.34 287.23 1112.76 288.69 1118.19 290.15 1119.94 286.1 1119.94 286.1 1125.49 288.64 1128.39 284.11 1128.39 284.11 1126.48 288.04 1131.89 289.94 1131.89 289.94 1138.17 285.8 1130.3 280.17 1130.3 280.17 1137.46 284.35 1141.8 280.86 1141.8 280.86 1137.58 286.16 1141.26 292.31 1141.26 292.31 1135.11 289.78 1132.19 295.03 1132.19 295.03 1127.19 292.19 1123.15 296.08 1123.15 296.08 1120.65 288.66 1109.96 294.11 1109.96 294.11 1103.15 293.27 1103.01 298.68 1103.01 298.68 1092.45 295.77 1093.94 303.08 1093.94 303.08 1088.54 294.69 1077.08 297.56 1077.08 297.56 1081.69 295.19 1083.99 294 1088.57 291.61 1096.67 293.16 1095.69 287.63 1095.69 287.63 1105.28 286.55 1099.26 279.38 1099.26 279.38 1094.54 273.78 1088.41 277.66 1088.41 277.66Z" fill="#EEEEEE"/></g></g></g></svg>