<svg width="96.85" height="107.74" viewBox="0 0 96.85 107.74" xmlns="http://www.w3.org/2000/svg" xmlns:xlink="http://www.w3.org/1999/xlink" overflow="hidden"><defs></defs><g><g><path d="M32.56 98.42 35.97 98.42 35.97 105.25 35.97 106.3 35.97 107.76 27.57 107.76C27.57 107.76 30.82 105.1 32.56 104.08L32.56 98.42Z" fill="#7DE2AA" fill-rule="evenodd" clip-rule="evenodd"/><path d="M34.41 98.42 35.98 98.42 35.98 105.24 35.98 106.29 35.98 107.74 34.41 107.74Z" fill="#7DE2AA" fill-rule="evenodd" clip-rule="evenodd"/><path d="M61.59 98.42 58.18 98.42 58.18 105.25 58.18 106.3 58.18 107.76 66.58 107.76C66.58 107.76 63.33 105.1 61.59 104.08L61.59 98.42Z" fill="#7DE2AA" fill-rule="evenodd" clip-rule="evenodd"/><path d="M59.74 98.42 58.18 98.42 58.18 105.24 58.18 106.29 58.18 107.74 59.74 107.74Z" fill="#7DE2AA" fill-rule="evenodd" clip-rule="evenodd"/><path d="M9.17 21.23C0.33 33.15 0 47.31 0 47.31 2.41 45.44 4.8 43.59 7.2 41.73 4.66 50.94 2.28 67.78 10.15 74.52 10.8 70.54 11.46 66.57 12.11 62.6 11.06 81.35 32.18 111.11 41.56 97.25 44.76 92.51 46.94 86.78 48.43 80.42 49.93 86.78 52.11 92.51 55.3 97.25 64.68 111.1 85.8 81.35 84.75 62.6 85.4 66.57 86.06 70.54 86.71 74.52 94.6 67.79 92.2 50.94 89.66 41.73 92.06 43.6 94.46 45.45 96.86 47.31 96.86 47.31 96.53 33.15 87.7 21.23 66.72-7.08 30.13-7.08 9.17 21.23L9.17 21.23Z" fill="#7CD8A1" fill-rule="evenodd" clip-rule="evenodd"/><path d="M9.17 21.23C0.33 33.15 0 47.31 0 47.31 2.41 45.44 4.8 43.59 7.2 41.73 4.66 50.94 2.28 67.78 10.15 74.52 10.8 70.54 11.46 66.57 12.11 62.6 11.65 70.95 15.58 81.48 20.91 89.37 22.47 89.5 24.06 89.58 25.66 89.58 33.24 89.58 40.48 88.06 47.11 85.32 47.6 83.73 48.04 82.11 48.43 80.42 48.73 81.73 49.08 83.03 49.45 84.28 68.96 75.14 82.51 55.09 82.51 31.83 82.51 24.79 81.27 18.04 78.99 11.81 57.66-6.61 27.47-3.48 9.17 21.23L9.17 21.23Z" fill="#7DE2AA" fill-rule="evenodd" clip-rule="evenodd"/><path d="M65.14 23.16C68.42 23.16 71.08 25.82 71.08 29.09 71.08 32.37 68.42 35.03 65.14 35.03 61.86 35.03 59.2 32.37 59.2 29.09 59.2 25.82 61.85 23.16 65.14 23.16L65.14 23.16Z" fill="#404041" fill-rule="evenodd" clip-rule="evenodd"/><path d="M71.01 29.99C71.06 30.27 71.08 30.57 71.08 30.88 71.08 34.16 68.42 36.82 65.14 36.82 61.86 36.82 59.2 34.16 59.2 30.88 59.2 30.57 59.23 30.27 59.27 29.99 59.71 32.85 62.17 35.03 65.14 35.03 68.11 35.03 70.59 32.84 71.01 29.99L71.01 29.99Z" fill="#688F3D" fill-rule="evenodd" clip-rule="evenodd"/><path d="M63.72 25.55C65.07 25.55 66.17 26.65 66.17 28.01 66.17 29.36 65.07 30.46 63.72 30.46 62.36 30.46 61.26 29.36 61.26 28.01 61.26 26.65 62.36 25.55 63.72 25.55L63.72 25.55Z" fill="#FFFFFF" fill-rule="evenodd" clip-rule="evenodd"/><path d="M32.59 23.16C35.87 23.16 38.53 25.82 38.53 29.09 38.53 32.37 35.87 35.03 32.59 35.03 29.31 35.03 26.65 32.37 26.65 29.09 26.65 25.82 29.31 23.16 32.59 23.16L32.59 23.16Z" fill="#404041" fill-rule="evenodd" clip-rule="evenodd"/><path d="M38.46 29.99C38.5 30.27 38.53 30.57 38.53 30.88 38.53 34.16 35.87 36.82 32.59 36.82 29.31 36.82 26.65 34.16 26.65 30.88 26.65 30.57 26.68 30.27 26.72 29.99 27.16 32.85 29.62 35.03 32.59 35.03 35.57 35.03 38.04 32.84 38.46 29.99L38.46 29.99Z" fill="#688F3D" fill-rule="evenodd" clip-rule="evenodd"/><path d="M31.16 25.55C32.52 25.55 33.62 26.65 33.62 28.01 33.62 29.36 32.52 30.46 31.16 30.46 29.81 30.46 28.71 29.36 28.71 28.01 28.71 26.65 29.81 25.55 31.16 25.55L31.16 25.55Z" fill="#FFFFFF" fill-rule="evenodd" clip-rule="evenodd"/><path d="M49.14 47.13C60.81 47.13 70.28 47.4 70.28 47.73 70.28 48.06 60.81 48.33 49.14 48.33 37.47 48.33 28.01 48.07 28.01 47.73 28.01 47.4 37.47 47.13 49.14 47.13L49.14 47.13Z" fill="#404041" fill-rule="evenodd" clip-rule="evenodd"/><path d="M36.54 47.73C36.54 47.03 33.6 39.37 33.6 39.37L30.61 47.73 36.54 47.73Z" fill="#FFFFFF" fill-rule="evenodd" clip-rule="evenodd"/><path d="M36.54 47.73C36.54 47.03 33.6 39.37 33.6 39.37L33.43 47.73 36.54 47.73Z" fill="#E5E5E5" fill-rule="evenodd" clip-rule="evenodd"/><path d="M68.28 47.73C68.28 47.03 65.33 39.37 65.33 39.37L62.35 47.73 68.28 47.73Z" fill="#FFFFFF" fill-rule="evenodd" clip-rule="evenodd"/><path d="M68.28 47.73C68.28 47.03 65.33 39.37 65.33 39.37L65.16 47.73 68.28 47.73Z" fill="#E5E5E5" fill-rule="evenodd" clip-rule="evenodd"/></g><path d="M36.2 107.74 25.61 107.74C24.88 107.74 24.29 107.14 24.29 106.42L24.29 105.24C24.29 104.51 24.89 103.92 25.61 103.92L36.2 103.92C36.93 103.92 37.52 104.52 37.52 105.24L37.52 106.42C37.52 107.15 36.92 107.74 36.2 107.74Z" fill="#62CC8D"/><path d="M68.74 107.74 58.16 107.74C57.43 107.74 56.84 107.14 56.84 106.42L56.84 105.24C56.84 104.51 57.44 103.92 58.16 103.92L68.74 103.92C69.47 103.92 70.06 104.52 70.06 105.24L70.06 106.42C70.06 107.15 69.47 107.74 68.74 107.74Z" fill="#62CC8D"/></g></svg>