<svg width="140.13" height="140.13" viewBox="0 0 140.13 140.13" xmlns="http://www.w3.org/2000/svg" xmlns:xlink="http://www.w3.org/1999/xlink" overflow="hidden"><defs></defs><g><g><path d="M37.28 76.6C31.99 82.34 32.84 99.94 35.33 108.95L70.06 70.07C70.07 70.07 43.21 70.18 37.28 76.6Z" fill="#FFFFFF"/><path d="M70.07 137.7C68.42 125.53 70.07 70.06 70.07 70.06L35.34 108.94C35.52 109.59 35.73 110.17 35.97 110.67 40.7 120.47 71.53 148.48 70.07 137.7Z" fill="#ADEA4E"/></g><g><path d="M76.6 102.85C82.34 108.14 99.94 107.29 108.95 104.8L70.07 70.07C70.07 70.07 70.18 96.92 76.6 102.85Z" fill="#FFFFFF"/><path d="M137.7 70.07C125.53 71.72 70.06 70.07 70.06 70.07L108.94 104.8C109.59 104.62 110.17 104.41 110.67 104.17 120.47 99.43 148.48 68.6 137.7 70.07Z" fill="#ADEA4E"/></g><g><path d="M102.85 63.53C108.14 57.79 107.29 40.19 104.8 31.18L70.07 70.07C70.07 70.07 96.92 69.95 102.85 63.53Z" fill="#FFFFFF"/><path d="M70.07 2.43C71.72 14.6 70.07 70.07 70.07 70.07L104.8 31.19C104.62 30.54 104.41 29.96 104.17 29.46 99.43 19.66 68.6-8.35 70.07 2.43Z" fill="#ADEA4E"/></g><g><path d="M63.53 37.28C57.79 31.99 40.19 32.84 31.18 35.33L70.06 70.06C70.07 70.07 69.95 43.21 63.53 37.28Z" fill="#FFFFFF"/><path d="M2.43 70.07C14.6 68.42 70.07 70.07 70.07 70.07L31.18 35.33C30.53 35.51 29.95 35.72 29.45 35.96 19.66 40.7-8.35 71.53 2.43 70.07Z" fill="#ADEA4E"/></g><circle cx="70.07" cy="70.07" r="6.88" fill="#929497"/><circle cx="70.07" cy="70.07" r="4.87" fill="#ADEA4E"/><path d="M97.44 76.48C97.44 76.96 97.44 77.35 97.44 77.35 97.44 77.35 97.44 76.96 97.44 76.48 97.44 76 97.44 75.61 97.44 75.61 97.44 75.61 97.44 76 97.44 76.48Z" fill="#FFF100"/></g></svg>