<svg width="101.99" height="96.8" viewBox="0 0 101.99 96.8" xmlns="http://www.w3.org/2000/svg" xmlns:xlink="http://www.w3.org/1999/xlink" overflow="hidden"><defs></defs><g><g><path d="M21.07 34.28C21.03 34.77 21.05 35.28 20.94 35.74L20.87 35.78C21.11 35.9 21.71 35.61 22.01 35.59 22.42 35.56 22.94 35.76 22.84 35.23 22.67 34.31 21.75 33.79 21.28 33.04 21.23 33.44 21.1 33.85 21.07 34.28Z" fill="#245984"/><path d="M70.52 40.79 70.67 40.79C70.62 40.75 70.57 40.72 70.52 40.69 70.53 40.72 70.52 40.75 70.52 40.79Z" fill="#3A6E2A"/><path d="M86.19 46.01 85.12 45.66C82.24 44.89 78.96 44.93 75.95 44.81 69.27 44.54 62.87 45.76 56.95 48.75 50.74 51.88 43.74 57.58 41.56 64.59 40.03 69.51 38.91 75.21 39.76 80.38 40.66 85.86 43.62 91.25 43.64 96.81 46.68 96.09 48.99 92.36 52.15 91.24 52.15 91.24 54.61 92.83 57.73 90.04 61.94 86.27 66.18 81.92 71.22 80.44 76.81 78.79 78.97 72.8 81.92 70.94 84.26 65.24 81.16 64.09 83.44 59.83 86.31 54.46 84.65 50.55 86.19 46.01Z" fill="#2A699E"/><path d="M57.74 90.03C59.21 88.72 60.68 87.33 62.19 86.03 62.28 83.94 62.6 81.84 62.89 79.72 63.23 77.26 63.72 74.33 62.69 71.96 62.24 70.92 59.59 68.99 59.59 68.99 58.75 71.6 58.72 76.78 58.11 79.45 57.52 82.02 56.96 84.6 56.58 87.21 56.44 88.15 56.3 89.1 56.27 90.05 56.25 90.63 56.31 90.84 56.31 90.86 56.34 90.9 56.37 90.95 56.4 90.99 56.82 90.76 57.27 90.45 57.74 90.03Z" fill="#245984"/><path d="M59.76 71.29C59.81 77.47 59.73 84.54 58.13 89.67 59.17 88.74 60.21 87.78 61.26 86.85 61.48 85.07 61.75 83.3 61.99 81.51 62.37 78.7 60.38 73.72 59.76 71.29Z" fill="#29475F"/><path d="M76.89 67.43C76.21 70.75 76.17 74.15 75.96 77.52 78.4 75.13 80 72.15 81.93 70.93 84.27 65.23 81.17 64.08 83.45 59.82 86.32 54.45 84.66 50.54 86.2 46L85.13 45.65C85.04 45.63 84.95 45.61 84.87 45.59 83.11 46.62 81.42 47.75 79.75 48.93 80.98 48.94 82.09 49.22 83.27 49.59 84.58 50.01 84.88 51.5 84.28 52.42 83.05 58.06 78.04 61.77 76.89 67.43Z" fill="#245984"/><path d="M84.84 56.27C83.38 58.9 81.73 61.42 80.05 63.91 79.15 67.46 78.18 71 77.36 74.57 78.91 71.78 80.74 69.29 82.85 66.99 82.93 64.33 81.82 62.87 83.45 59.83 84.11 58.57 84.54 57.4 84.84 56.27Z" fill="#29475F"/><path d="M42.86 69.72C42.74 69.74 42.63 69.74 42.52 69.74 42.36 76.25 42.35 82.76 42.25 89.27 43.01 91.76 43.63 94.26 43.64 96.8 45.07 96.46 46.34 95.45 47.62 94.36 47.59 93.95 47.56 93.54 47.52 93.12 47.37 91.2 47.27 89.19 46.6 87.36 46.04 85.83 45.05 84.34 44.75 82.72 43.72 77.31 45.68 72.87 48.83 68.86 46.88 69.24 44.89 69.41 42.86 69.72Z" fill="#245984"/><path d="M64.94 83.79C66.06 82.95 67.21 82.2 68.41 81.59 68.48 80.2 68.57 78.8 68.73 77.42 69.11 74.06 70.1 71.31 71.16 68.14 72.1 65.3 71.38 62.3 72.29 59.5 73.01 57.29 74 55.31 74.54 53.14 73.26 53.91 71.64 54.4 70.3 54.41 68.67 54.42 67 54.21 65.43 54.78 65.53 54.74 60.81 55.96 62 56.48 62.31 56.5 63.58 56.85 63.85 56.95 64 57.01 67.64 56.81 67.64 56.81 65.06 63.19 65.77 72.5 65.35 79.24 65.25 80.75 65.12 82.28 64.94 83.79Z" fill="#245984"/><path d="M64.94 83.79C65.22 83.58 65.51 83.37 65.8 83.17 65.9 80.47 66.24 77.79 66.5 75.09 66.78 72.18 66.86 69.26 67.4 66.39 68.32 61.45 69.41 57.96 73.27 54.62 73.58 54.35 73.92 54.21 74.26 54.17 74.36 53.83 74.47 53.49 74.55 53.14 73.27 53.91 71.65 54.4 70.31 54.41 68.68 54.42 67.01 54.21 65.44 54.78 65.54 54.74 60.82 55.96 62.01 56.48 62.32 56.5 63.59 56.85 63.86 56.95 64.01 57.01 67.65 56.81 67.65 56.81 65.07 63.19 65.78 72.5 65.36 79.24 65.25 80.75 65.12 82.28 64.94 83.79Z" fill="#29475F"/><path d="M54.08 75.69C55.39 72.09 54.93 68.51 57.37 64.94 57.92 64.13 61.7 59.62 61.85 58.68 59.1 59.73 51.12 65.22 49.61 67.84 49.94 70.72 50.24 73.62 50.21 76.52 50.18 79.44 49.82 82.32 50.19 85.25 50.47 87.4 50.87 89.55 51.16 91.7 51.42 91.56 51.7 91.43 51.97 91.32 51.78 89.03 52.33 86.8 52.66 84.5 53.11 81.45 53.01 78.63 54.08 75.69Z" fill="#245984"/><path d="M56.57 62.52C56.59 62.38 56.6 62.24 56.62 62.1 53.87 63.15 51.11 65.22 49.6 67.84 49.93 70.72 50.23 73.62 50.2 76.52 50.17 79.44 49.81 82.32 50.18 85.25 50.46 87.4 50.86 89.55 51.15 91.7 51.38 91.57 51.62 91.46 51.86 91.36 51.57 85.96 51.42 80.55 51.54 75.14 51.66 69.96 54.04 66.76 56.57 62.52Z" fill="#29475F"/><path d="M42.47 64.97C40.07 58.68 30.54 53.15 24.7 50.51 18.85 47.87 10.99 47.99 4.7 47.78 3 47.72 1.65 47.66 0.13 47.19 0.2 52.25 0.46 57.66 2.87 61.95 3.87 63.72 5 70.46 7.1 74.28 8.51 76.86 9.91 76.25 12.11 77.11 15.56 78.45 17.35 83.3 23.21 86.42 25.3 87.53 26.64 90.43 30.98 91.8 33.46 92.59 36.48 92 36.48 92 39 92.98 39.12 95.32 43.65 96.81 43.72 91.77 43.2 86.6 43.13 81.24 43.05 76.4 44.16 69.42 42.47 64.97Z" fill="#4897D3"/><path d="M19.48 83.81C20.53 84.73 21.73 85.63 23.21 86.41 24.47 87.08 25.46 88.4 26.99 89.64 25.85 86.94 24.78 84.22 24.05 81.38 23.1 77.69 22.71 73.79 21.65 70.12 21.64 70.16 21.64 70.2 21.63 70.23 22.18 72.08 22.44 74.4 22.24 76.65 22.31 79.78 21.7 82.68 19.48 83.81Z" fill="#2B5B7D"/><path d="M42.86 70.44C42.09 69.86 40.88 68.95 39.87 68.73 39.88 68.81 39.9 68.9 39.92 69.01 39.96 69.13 40 69.26 40.04 69.38 40.17 69.49 40.3 69.62 40.42 69.78 43.39 73.83 42.29 78.82 42.52 83.49 42.72 87.52 43.31 91.53 43.64 95.54 43.62 90.9 43.19 86.14 43.12 81.23 43.08 78.18 43.5 74.29 43.4 70.72 43.21 70.66 43.03 70.57 42.86 70.44Z" fill="#3C7DAE"/><path d="M39.9 94.75C39.57 91.41 39.12 88.08 38.95 84.71 38.87 83.17 38.98 81.5 39.03 79.83 38.13 77.05 37.21 74.29 36.79 71.41 36.04 69.39 35.37 67.1 36.8 65.93 37.18 65.62 37.58 65.4 37.98 65.25 37.72 65.09 37.44 64.96 37.12 64.86 36.05 65.49 34.88 65.92 33.65 66.17 35.84 71.99 36.86 78.11 36.84 84.26 36.87 84.32 36.89 84.37 36.91 84.43 37.26 85.49 37.02 86.73 36.82 87.81 36.84 87.9 36.85 88 36.85 88.1 36.86 89.47 36.84 90.78 36.67 92.08 38.04 92.68 38.7 93.71 39.9 94.75Z" fill="#3C7DAE"/><path d="M0.7 47.35C0.51 47.3 0.32 47.25 0.12 47.19 0.19 52.25 0.45 57.66 2.86 61.95 3.86 63.72 4.99 70.46 7.09 74.28 7.91 75.77 8.72 76.2 9.69 76.46 7.57 72.2 3.73 65.7 5.94 61.34 4.62 60.44 2.63 58.11 2.63 58.11 2.63 58.5 1.67 55.59 1.45 52.45 1.37 51 1.36 49.57 1.51 48.12 1.22 47.88 0.95 47.63 0.7 47.35Z" fill="#3C7DAE"/><path d="M16.26 80.55C16.33 78.3 16.46 76.04 16.44 73.78 16.39 68.64 14.07 63.69 15.9 58.68 15.47 58.28 15.11 57.86 14.79 57.42 13.66 56.79 12.67 55.96 11.51 55.46 11.5 56.18 11.45 56.89 11.37 57.6 11.38 57.68 11.39 57.76 11.4 57.84 12.48 60.69 13 63.63 13.55 66.67 13.62 66.81 13.68 66.96 13.71 67.13 13.85 67.85 14 68.56 14.13 69.28 14.29 69.52 14.39 69.82 14.42 70.17 14.63 73.16 15 76.09 14.85 79.07 15.31 79.52 15.77 80.01 16.26 80.55Z" fill="#3C7DAE"/><path d="M13.54 51.9C11.92 51.66 7.94 51.2 7.58 51.22 7.91 54.11 8.21 57.04 9.02 59.85 9.88 62.82 11.45 65.43 12.46 68.33 13.68 71.82 14.33 75.43 14.86 79.06 15.14 79.34 15.43 79.64 15.72 79.95 15.5 74.07 15.1 68.18 13.78 62.47 13.02 59.19 12.68 58.12 12.38 56.03 12.65 55.64 13.82 51.96 13.54 51.9Z" fill="#4078B5"/><path d="M13.54 51.9C11.92 51.66 2.86 48.95 2.5 48.97 3.74 51.03 6.9 52.56 8.04 52.86 10.96 53.84 10.97 55.76 11.54 58.02 12.29 60.99 12.99 64.01 13.64 67.01 14.49 70.94 15.4 75.34 15.4 79.62 15.5 79.73 15.61 79.84 15.71 79.95 15.49 74.07 15.09 68.18 13.77 62.47 13.01 59.19 12.73 58.01 12.43 55.92 12.71 55.53 13.82 51.96 13.54 51.9Z" fill="#245984"/><path d="M40.77 63.44C37.8 63.56 28.57 62.31 29.3 64.17 31.43 67.17 33.65 71.62 35.15 80.1 35.86 84.09 35.95 87.98 36.47 91.99 36.64 92.07 37.11 92.3 37.26 92.39 37.45 90.25 37.7 88.11 37.85 85.94 38.27 79.84 36.15 73.04 35.52 67 35.52 66.99 39.82 64.69 40.77 63.44Z" fill="#4078B5"/><path d="M40.77 63.44C37.8 63.56 23.61 58.22 20.81 59.26L24.25 61.65C27.31 62.77 32.2 66.94 32.19 67.08 32.89 67.5 35.57 73.5 36.09 75.97 37.17 81.1 37.73 86.93 36.86 92.17 37 92.24 37.14 92.32 37.27 92.39 37.46 90.25 37.71 88.11 37.86 85.94 38.28 79.84 36.16 73.04 35.53 67 35.52 66.99 39.82 64.69 40.77 63.44Z" fill="#245984"/><path d="M69.16 63.78C68.95 65.72 70.02 75.51 69.54 77.33 71.36 77.24 70.89 76.83 72.71 76.62 74.18 76.46 77.34 68.83 78.76 68.27 80.17 67.71 83 65.93 83.86 64.62 84.7 63.35 84.61 62.32 85.26 60.95 85.92 59.55 86.62 59.56 87.54 58.31 88.48 57.02 86.53 52.62 86.53 52.62L79.38 55.33C78.62 55.67 77.83 55.95 77.06 56.27 76.64 56.44 76.22 56.62 75.81 56.79 74.15 57.52 72.46 58.2 70.72 58.75 70.66 58.77 70.61 58.77 70.56 58.78 70.43 58.84 70.3 58.85 70.18 58.83L70.03 58.88C70.03 58.88 70.1 60.83 70.02 61.33 69.88 62.21 69.26 62.87 69.16 63.78Z" fill="#3073AA"/><path d="M72.96 72.09C72.56 73.63 72.24 75.16 72.06 76.72 72.24 76.68 72.45 76.65 72.71 76.62 72.87 76.6 73.05 76.49 73.25 76.31 73.89 73.42 75.22 70.79 76.57 68.07 77.57 66.04 78.35 64 79.05 61.86 79.37 60.9 79.93 60.35 78.26 60.23 77.38 60.17 76.52 60.13 75.64 60.11 76.82 61.63 77.88 62.79 76.85 65 75.74 67.4 73.63 69.51 72.96 72.09Z" fill="#4086CC"/><path d="M72.86 76.59C74.38 75.99 77.39 68.82 78.77 68.27 80.18 67.71 83.01 65.93 83.87 64.62 84.71 63.35 84.62 62.32 85.27 60.95 85.93 59.55 86.63 59.56 87.55 58.31 88.49 57.02 86.54 52.62 86.54 52.62 86.54 52.4 81.86 54.37 78.25 57.4 77.49 58.27 78.2 60.53 78.22 60.77 78.42 63.6 77.91 65.09 75.8 68.26 74.09 70.81 73.26 73.63 72.86 76.59Z" fill="#2E5A7A"/><path d="M72.86 76.59C73.54 76.33 74.51 74.76 75.5 73.05 74.7 70.15 76.8 67.39 78.58 64.98 79.1 63.13 79.53 61.26 80.4 59.57 80.38 59.55 80.35 59.54 80.33 59.52 80.15 59.38 79.97 59.26 79.78 59.14 79.23 58.97 78.57 59.26 77.95 59.39 78.04 60.06 78.21 60.65 78.22 60.76 78.42 63.59 77.91 65.08 75.8 68.25 74.09 70.81 73.26 73.63 72.86 76.59Z" fill="#245984"/><path d="M65.14 85.84C66.08 85.14 66.53 80.76 67.23 77.64 67.84 74.91 71.69 71.02 71.74 68.2L71.61 68.33C69.76 66.82 67.72 68.54 66.13 69.17 63.99 70.03 61.63 69.34 59.59 68.98 59.48 70.61 59.91 72.96 60.1 74.75 60.3 76.7 61.19 84.96 61.26 86.85 62.71 87.34 63.79 86.85 65.14 85.84Z" fill="#2E5A7A"/><path d="M65.28 75.25C66.37 72.42 69.45 71.5 71.49 69.5 71.62 69.1 71.7 68.72 71.72 68.35 69.89 69.99 67.45 71.18 65.04 71.47 65.04 71.53 65.03 71.6 65.01 71.66 63.61 76.65 63.35 81.73 63.3 86.87 63.75 86.72 64.19 86.48 64.67 86.16 64.64 83.9 64.74 81.65 64.85 79.39 64.92 78.11 64.81 76.48 65.28 75.25Z" fill="#245984"/><path d="M63.8 86.68C63.74 80.81 64.57 74.2 66.4 68.61 64.37 69.23 61.49 69.32 59.59 68.98 59.48 70.61 59.91 72.96 60.1 74.75 60.3 76.7 61.19 84.96 61.26 86.85 62.2 87.17 62.99 87.07 63.8 86.68Z" fill="#3073AA"/><path d="M63.26 86.9C63.44 86.84 63.62 86.77 63.8 86.68 63.76 81.94 64.31 76.73 65.49 71.95 64.56 72.05 63.58 71.98 62.79 71.65 64.2 73.62 64.11 75.6 63.75 77.91 63.28 80.9 63.28 83.89 63.26 86.9Z" fill="#4086CC"/><path d="M9.45 66.32C9.67 68.34 10.98 71.09 11.87 73 12.72 74.82 13.56 76.68 14.54 79.43 14.75 79.43 15.19 79.63 15.4 79.61 15.34 77.21 15.4 75.26 14.95 72.88 14 67.81 13.49 65.94 12.84 63.41 11.78 64.14 10.65 65.83 9.45 66.32Z" fill="#2B5B7D"/><path d="M12.93 63.77C12.9 63.66 12.87 63.54 12.84 63.43 11.78 64.15 10.65 65.83 9.46 66.33 9.68 68.35 10.99 71.1 11.88 73.01 12.73 74.83 13.57 76.69 14.55 79.44 14.6 79.44 14.67 79.45 14.75 79.47 14.04 76.68 13.4 73.9 12.6 71.12 12.3 70.07 11.76 68.7 12 67.56 12.26 66.27 12.85 65.11 12.93 63.77Z" fill="#2A526F"/><path d="M4.74 64.75C6.56 67.16 8.69 69.45 9.88 72.17 10.85 74.37 12.09 78.77 14.54 79.44 13.54 75.65 11.58 70.66 10.78 67.86 10.34 66.37 7.53 61.83 4.74 64.75Z" fill="#4078B5"/><path d="M4.74 64.75C4.74 64.75 4.74 64.75 4.74 64.75L4.69 64.8C4.71 64.78 4.72 64.77 4.74 64.75Z" fill="#4078B5"/><path d="M4.74 64.75C4.78 64.8 4.82 64.85 4.85 64.9 4.96 64.89 5.08 64.91 5.2 64.96 9.07 66.58 10.59 68.7 11.8 72.62 12.42 74.62 13.22 76.43 14.14 78.3 14.2 78.43 14.27 78.57 14.33 78.72 13.29 75.04 11.52 70.49 10.76 67.86 10.34 66.37 7.53 61.83 4.74 64.75Z" fill="#4390DD"/><path d="M40.05 91.07C39.89 87.3 41.33 82.93 42.07 79.41 40.12 79.49 39.77 77.03 39.16 75.46 38.57 73.94 38.17 71.93 37.66 70.63L37.44 70.52C38.05 72.26 38.11 74.37 38.66 76.25 38.89 77.05 39.12 77.87 39.46 78.63 39.58 78.91 39.69 79.26 39.92 79.5 40.16 79.76 40.69 79.78 40.81 80.04 41.02 80.48 40.48 81.66 40.34 82.17 40.08 83.14 39.95 83.81 39.96 84.84 39.98 85.98 40.04 87.12 40.01 88.26 39.97 89.11 39.68 90.28 40.05 91.07Z" fill="#4078B5"/><path d="M20.55 64.3C20.4 63.57 20.18 59.99 19.96 59.28 19.38 58.91 18.3 59 17.64 58.79 17.24 58.67 15.77 58.49 15.98 58.71L15.87 58.6C16.11 59.3 15.93 63.75 15.95 64.47 16.41 64.37 17.18 61.61 17.7 61.65 17.79 63.01 18 64.33 17.63 65.5 19.05 66.3 18.55 67.54 18.44 68.91 18.31 70.48 19.37 69.57 19.29 71.14 19.23 72.44 18.23 76.12 18.43 77.41 18.43 77.41 19.46 80.04 19.43 80.81 19.43 80.93 19.47 80.85 19.54 80.64 18.58 77.24 19.62 73.83 20.59 70.5 20.56 69.83 20.54 69.15 20.56 68.47 20.57 67.99 20.58 67.51 20.59 67.03 20.28 65.35 20.63 66.01 20.55 64.3Z" fill="#2B5B7D"/><path d="M70.64 37.05C65.82 32.02 59.55 32.01 55.62 28.66 53.67 27 44.91 22.9 42.58 21.39 37.34 24.63 33.46 24.64 31.2 27.74 28.97 30.8 24.42 31.22 21.26 33.1 21.44 33.53 21.86 34.56 22.08 35.02 18.03 34.37 13.07 38.71 9.21 41.35 5.85 43.67 0 47.02 0 47.02 4.51 51.8 8.34 52.58 12.85 53.19 13.18 54.03 11.99 55.36 12.63 56.72 14.6 60.97 28.8 62.6 32.23 66.41 33.06 67.33 37.27 65.13 37.27 65.13 37.28 65.9 35.53 66.98 35.53 66.98 39.73 69.33 41.75 71.73 43.55 71.44 45.3 71.16 50.05 68.21 51.59 67.23 54.59 65.3 55.53 63.31 58.76 62.04 62.71 60.48 64.8 60.37 67.66 56.78 66.02 56.64 64.55 56.3 62.87 56.36 66.97 54.4 71.86 55.66 75.96 53.13 79.22 51.12 82.46 46.78 86.21 45.99 84.92 44.65 81.57 42.19 73.3 38.34L68.17 39.32C68.75 38.86 70.15 37.63 70.64 37.05Z" fill="#97D3FF"/><path d="M23.56 41.76C30.61 40.12 37.8 39.33 45 38.76 53.16 38.12 61.36 37.77 69.54 38.13 69.99 37.72 70.41 37.31 70.63 37.04 65.81 32.01 59.54 32 55.61 28.65 53.67 27 44.91 22.9 42.58 21.39 37.34 24.63 33.46 24.64 31.2 27.74 28.97 30.8 24.42 31.22 21.26 33.1 21.44 33.53 21.86 34.56 22.08 35.02 18.03 34.37 13.07 38.71 9.21 41.35 5.85 43.67 0 47.02 0 47.02 1.82 48.95 3.53 50.22 5.22 51.1 5.46 50.93 5.71 50.77 5.95 50.6 10.35 45.59 17.25 43.22 23.56 41.76Z" fill="#82C3F9" opacity="0.43"/><path d="M22.7 61.42C21.8 61.31 20.91 61.18 20.02 61.01 19.92 61.01 19.83 61 19.73 61 20.89 61.41 22.1 61.81 23.3 62.21 23.23 62.17 23.17 62.14 23.1 62.1 22.83 61.93 22.72 61.68 22.7 61.42Z" fill="#476FE6"/><path d="M53.86 64.7C52.37 66.21 45.52 70.27 43.44 70.69 41.91 70.99 41.32 69.21 37.22 67.22 36.26 66.75 38.33 64.79 38.46 64.34 37.01 64.57 35.63 65.03 34.23 65.64 33.66 65.89 32.33 65.88 31.9 65.47 28.38 62.1 19.06 60.34 16.57 59.31 15.19 58.74 13.17 57.53 12.96 55.96 12.83 55.02 13.33 54.24 13.61 53.34 14.01 52.04 11.84 52.34 11.2 52.21 8.81 51.73 2.42 49.77 0.01 47L8.66841e-15 47C4.51 51.78 8.34 52.56 12.85 53.17 13.18 54.01 11.99 55.34 12.63 56.7 14.6 60.95 28.8 62.58 32.23 66.39 33.06 67.31 37.27 65.11 37.27 65.11 37.28 65.88 35.53 66.96 35.53 66.96 39.73 69.31 41.75 71.71 43.55 71.42 45.3 71.14 50.05 68.19 51.59 67.21 54.59 65.28 55.53 63.29 58.76 62.02 62.71 60.46 64.8 60.35 67.66 56.76 66.02 56.62 64.55 56.28 62.87 56.34 66.97 54.38 71.86 55.64 75.96 53.11 78.57 51.5 81.17 48.4 84.03 46.82 82 47.31 80.18 49.17 78.51 50.39 76.12 52.14 74.22 53.68 71.2 54.13 69.31 54.42 64.12 55.1 63.24 55.65 62.45 56.15 61.74 56.57 62.63 56.62 64.93 56.77 66.75 57.22 66.75 57.22 62.76 60.83 58.41 60.7 57.22 61.47 55.88 62.39 54.95 63.59 53.86 64.7Z" fill="#D7F7FF"/><path d="M83.46 62.89C83.31 63.45 83.61 64.58 83.45 65.14 83.62 64.96 83.76 64.79 83.87 64.63 84.71 63.36 84.62 62.33 85.27 60.96 85.93 59.56 86.63 59.57 87.55 58.32 88.49 57.03 86.54 52.63 86.54 52.63 86.54 52.59 86.38 52.63 86.12 52.72 85.68 53.77 85.09 54.77 84.3 55.49 84.86 56.62 85.48 58.09 85.38 58.36 84.62 60.35 83.92 61.48 83.46 62.89Z" fill="#245984"/><path d="M79.85 66.28C81.29 63.32 82.76 60.4 83.38 57.14 81.91 57.52 79.72 56.94 78.22 57.21 77.73 57.79 80.64 58.32 80.88 58.95 80.88 58.95 80.74 60.35 80.67 60.83 80.38 62.65 80.13 64.47 79.85 66.28Z" fill="#29475F"/><path d="M79.22 57.61C79.55 57.43 83.09 57.57 83.46 57.4 85.89 56.24 85.95 54.93 86.54 53.87 87.39 52.35 85.5 51.75 83.07 52.02 80.34 55.25 74.38 57.47 70.01 58.89 71.35 60.21 73.53 59.09 74.63 59.83 76.3 60.96 78.2 60.77 78.2 60.77 78.2 60.77 80.15 59.61 80.86 58.95 81.25 58.61 78.59 57.95 79.22 57.61Z" fill="#57A9D5"/><path d="M78.2 60.36C77.41 60.47 75.45 59.44 74.63 59.36 73.11 59.21 73.63 59.49 72.11 59.23 71.6 59.15 70.87 58.82 70.37 58.77 70.25 58.81 70.14 58.85 70.02 58.88 71.36 60.2 73.54 59.08 74.64 59.82 76.31 60.95 78.21 60.76 78.21 60.76 78.21 60.76 80.16 59.6 80.87 58.94 81.24 58.6 78.59 57.94 79.22 57.6 79.55 57.42 83.09 57.56 83.46 57.39 85.49 56.43 85.87 55.35 86.28 54.41 85.28 56 84.09 57.06 80.41 56.65 80.4 56.65 80.4 56.65 80.39 56.65 79.66 56.78 78.98 56.97 78.25 57.25 78.22 57.26 78.19 57.27 78.16 57.27 78.56 57.64 78.88 58.23 79.45 58.41 81.01 58.93 78.78 60.28 78.2 60.36Z" fill="#75C5F2"/><path d="M66.32 72.06C67.45 71.59 71.23 69.63 71.7 68.52 72.35 66.96 67.03 66.39 65.79 66.88 65.79 66.88 64.07 67.86 63.21 68.24 62.18 68.7 60.74 69.23 59.6 69 59.69 69.28 59.93 69.81 60.19 70.1 61.47 71.54 64.57 72.79 66.32 72.06Z" fill="#57A9D5"/><path d="M66.32 72.06C67.3 71.65 70.25 70.13 71.33 69.01 68.11 71.54 62.67 72.38 59.97 69.03 59.84 69.02 59.71 69.01 59.59 68.99 59.68 69.27 59.92 69.8 60.18 70.09 61.47 71.54 64.57 72.79 66.32 72.06Z" fill="#75C5F2"/><path d="M6.11 65.31C7.79 65.69 9.37 66.9 10.77 67.86 11.68 66.64 12.86 65.21 12.83 63.42 11.64 62.94 10.2 62.27 9.47 61.22 6.88 62.4 2.37 64.83 6.11 65.31Z" fill="#69B8ED"/><path d="M10.14 66.86C9.34 66.17 7.32 65.31 5.57 64.97 4.69 64.79 4.82 64.46 4.74 64.31 4.54 64.78 4.86 65.16 6.11 65.32 7.79 65.7 9.37 66.91 10.77 67.87 11.66 66.69 12.79 65.29 12.83 63.56 12.45 64.69 12.22 65.03 11.65 66.03 11.39 66.48 10.55 67.22 10.14 66.86Z" fill="#ABEDFF"/><path d="M29.06 70.01C28.39 70.73 28.02 71.33 27.63 72.23 26.68 74.43 26.21 76.04 26.79 78.53 27.49 81.54 28.6 84.38 29.64 87.29 30.35 89.28 31.4 93.01 33.23 94.26 33.96 93.58 34.89 92.87 35.51 92.09 34.29 88.74 33.6 84.46 33.18 80.77 32.75 77.02 32.07 73.13 31.72 69.44 30.9 69.12 29.56 69.48 29.06 70.01Z" fill="#2B5B7D"/><path d="M31.78 69.9C31.76 69.75 31.74 69.6 31.73 69.45 30.9 69.12 29.56 69.48 29.07 70.02 28.4 70.74 28.03 71.34 27.64 72.24 26.69 74.44 26.22 76.05 26.8 78.54 27.5 81.55 28.61 84.39 29.65 87.3 30.36 89.29 31.41 93.02 33.24 94.27 33.86 93.7 34.61 93.1 35.2 92.45 32.81 90.67 32.62 87.35 31.52 84.42 30.61 82 29.88 79.63 29.88 77.01 29.88 74.51 30.98 72.64 31.63 70.28 31.66 70.15 31.72 70.02 31.78 69.9Z" fill="#2A526F"/><path d="M27.58 71.38C26.51 70.75 24.85 70.49 23.67 69.75 22.63 69.11 17.79 67.04 16.55 67.18 16.81 70.79 20.25 75.2 21.83 79.04 23.53 83.18 24.85 85.86 26.06 90.13 26.49 91.64 29.63 91.29 31.15 94.15L33.22 94.27C33.22 94.27 32.74 91.43 32.4 90.31 31.97 88.89 29.57 80.43 28.95 77.68 28.56 75.89 29.23 72.35 27.58 71.38Z" fill="#4078B5"/><path d="M28.49 72.7C27.62 72.98 26.68 73.02 25.74 73.01 28.61 75.57 29.32 80.19 30.02 83.82 30.71 87.43 32.17 90.76 33.03 94.27L33.24 94.28C33.24 94.28 32.76 91.44 32.42 90.32 31.99 88.9 29.59 80.44 28.97 77.69 28.67 76.39 28.93 74.19 28.49 72.7Z" fill="#4390DD"/><path d="M16.84 66.36C15.53 67.58 19.03 71.58 21 72.54 23.05 73.54 25.81 73.7 28.05 73.41 30.09 73.16 31.82 69.28 31.82 69.28 30.61 68.5 27.98 68.21 26.09 67 23.64 65.42 20.62 63.8 20.62 63.8 19.27 65.11 18.11 65.17 16.84 66.36Z" fill="#69B8ED"/><path d="M16.84 66.36C15.53 67.58 19.03 71.58 21 72.54 23.05 73.54 25.81 73.7 28.05 73.41 29.66 73.21 31.09 70.74 31.61 69.72 28.95 73.07 26.5 73.53 21.41 71.79 19.88 71.26 16.39 69.06 17.21 66.05 17.08 66.15 16.96 66.24 16.84 66.36Z" fill="#ABEDFF"/><path d="M53.22 29.13C53.29 29.09 53.36 29.06 53.44 29.05 53.38 28.89 53.3 28.72 53.21 28.55L53.22 29.13Z" fill="#30B850"/><g><path d="M41.95 42.98C43.35 42.08 49.9 43.04 51.8 43.5 57.56 44.9 63.4 44.23 72.21 44.99 76.33 45.34 79.22 43.57 79.52 42.99 78.98 40.89 66.56 36.9 64.13 36.46 59.53 35.64 54.88 37.03 50.34 37.6 47.35 37.97 44.39 38.57 41.47 39.05 39.48 39.37 37.19 39.27 35.31 40.14 33.7 40.88 32.86 42.16 31.62 43.33 30.66 44.23 25.7 43.84 25.22 45.01 29.66 48.38 37.39 47.37 40.92 47.15 41.73 47.09 44.03 45.21 42.46 44.18 41.55 43.58 41.78 43.09 41.95 42.98Z" fill="#2875A0" opacity="0.44"/><g><path d="M46.6 8.82C40.84 13.06 38.44 14.4 36.32 21.26 34.66 26.61 33.63 33.3 31.15 38.31 31.81 40.3 42.83 41.14 45.19 41.03 49.54 40.83 59.84 37.34 59.93 37.12 61.76 32.96 58.73 21.89 57.19 17.66 56.16 14.82 54.74 11.81 53.34 9.2 50.97 4.79 50.38 6.05 46.6 8.82Z" fill="#97D3FF"/><path d="M36.31 21.26C34.71 26.41 33.7 32.8 31.41 37.74 33.52 37.66 35.64 37.52 37.71 37.15 39.95 36.75 42.19 36.18 44.39 35.54 46.21 34.73 47.98 33.82 49.55 32.63 51.88 30.86 53.09 28.87 53.58 26.74 51.32 28.79 48.39 28.98 45.5 27.68 42.47 26.32 39.84 23.56 39.42 20.18 39.13 17.81 39.84 15.33 41 13.14 38.92 15.08 37.57 17.21 36.31 21.26Z" fill="#7DCAF9"/><path d="M34.84 36.54C34.95 36.57 35.06 36.59 35.17 36.62 41.19 36.6 48.29 35.54 52.53 31.39 57.89 26.15 54.56 18.06 51.82 11.22 51.85 12.7 51.78 14.2 51.74 15.64 51.66 18.97 53.27 22.17 51.96 25.34 50.67 28.48 46.34 31.35 43.39 32.8 43.14 32.93 42.88 33.05 42.62 33.17 40.27 34.55 37.45 35.36 34.85 35.54 34.86 35.69 34.86 35.86 34.84 36.03 34.82 36.22 34.83 36.38 34.84 36.54Z" fill="#B4E7FC"/><path d="M32.65 34.6C32.21 35.9 31.71 37.15 31.14 38.31 31.8 40.3 42.82 41.14 45.18 41.03 49.53 40.83 59.83 37.34 59.92 37.12 61.75 32.96 58.72 21.89 57.18 17.66 56.15 14.82 54.73 11.81 53.33 9.2 52.06 6.83 51.3 6.1 50.29 6.35 51.12 7.81 51.45 9.43 51.61 11.11 51.95 12.83 52.1 14.6 52.3 16.36 52.62 19.19 53.14 21.98 53.32 24.82 53.6 29.31 36.75 38.27 32.65 34.6Z" fill="#69AFED"/><path d="M52.45 34.73C49.92 36.95 45.83 37.27 42.61 37.67 39.11 38.1 35.08 38.48 31.98 36.47 31.98 36.46 31.97 36.46 31.97 36.46 31.71 37.1 31.44 37.71 31.15 38.31 31.81 40.3 42.83 41.14 45.19 41.03 49.54 40.83 59.84 37.34 59.93 37.12 61.76 32.96 58.73 21.89 57.19 17.66 56.16 14.82 54.74 11.81 53.34 9.2 52.07 6.83 51.31 6.1 50.3 6.35 50.68 7.02 50.95 7.71 51.15 8.44 52.15 10.27 52.8 12.2 53.23 14.3 53.8 17.13 54.72 19.93 55.11 22.8 55.62 26.54 55.6 31.97 52.45 34.73Z" fill="#55A6D8"/><path d="M59.92 37.13C61.75 32.97 58.72 21.9 57.18 17.67 56.15 14.83 54.73 11.82 53.33 9.21 52.06 6.84 51.3 6.11 50.29 6.36 50.29 6.36 50.29 6.36 50.29 6.36 50.68 6.55 56.93 21.46 57.26 24.52 58.05 31.89 52.56 39.24 52.48 39.56 56.3 38.51 59.86 37.25 59.92 37.13Z" fill="#2875A0"/><path d="M40.8 14.97C40.33 15.91 40.48 17.96 40.69 19.05 40.9 18.09 40.8 16.75 41.56 15.6 42.25 14.55 43.42 13.5 44.41 12.67 45.36 11.88 46.54 10.88 47.71 10.39 49.03 9.84 50.27 10.08 49.48 8.09 47.97 8.47 46.05 9.96 44.64 10.83 43.2 11.74 41.24 13.25 40.8 14.97Z" fill="#B4E7FC"/></g><g opacity="0.49"><path d="M46.11 21.36C45.97 20.39 45.79 19.36 45.28 18.5 44.91 17.87 44.38 17.32 43.61 17.51 42.88 17.7 42.23 18.22 41.67 18.71 41.05 19.25 40.49 19.84 39.94 20.45 38.44 22.14 37.07 23.95 35.87 25.87 35.54 26.41 35.21 26.96 34.9 27.51 34.78 27.73 34.64 27.95 34.47 28.14 34.37 28.52 34.28 28.91 34.18 29.29 33.83 30.65 33.47 32 33.04 33.34 32.67 34.54 32.25 35.73 31.76 36.89 31.64 37.18 31.5 37.48 31.37 37.77 31.31 37.91 31.08 38.23 31.14 38.37 31.21 38.52 31.33 38.65 31.45 38.76 32.3 39.47 33.59 39.72 34.64 39.95 37.17 40.52 39.79 40.79 42.38 40.95 43.26 41 44.16 41.06 45.04 41.03 45.42 41.02 45.81 40.98 46.19 40.93 46.43 40.9 46.84 40.95 46.86 40.68 46.89 40.38 46.91 40.07 46.93 39.76 46.94 39.52 47.02 37.03 46.98 37.04 46.94 34.49 46.68 31.96 46.56 29.41 46.46 26.73 46.48 24.04 46.11 21.36Z" fill="#2875A0"/><path d="M47 37.05C47 37.05 46.99 36.3 47 37.05L47 37.05Z" fill="#2875A0"/></g><path d="M72.05 24.76C70.22 24.08 67.26 24.55 65.29 24.28 60.91 23.7 56.56 21.79 53.87 26.2 52.54 28.37 51.7 31.42 51.02 33.88 50.41 36.07 48.56 39.26 48.79 41.54 48.79 41.54 52.34 42.95 54.29 42.9 57.84 42.8 59.34 42.07 62.04 43.49 64.18 44.62 66.72 43.5 69.1 43.59 71.52 43.68 74.65 44.42 76.98 43.44 76.86 38.99 75.29 34.45 74.55 30.01 74.1 27.37 74.59 25.72 72.05 24.76Z" fill="#97D3FF"/><path d="M64.67 30.66C60.67 30.31 56.76 29.24 53.48 26.88 52.37 28.98 51.62 31.67 51 33.88 50.39 36.07 48.54 39.26 48.77 41.54 48.77 41.54 52.32 42.95 54.27 42.9 57.82 42.8 59.32 42.07 62.02 43.49 64.16 44.62 66.7 43.5 69.08 43.59 71.5 43.68 74.63 44.42 76.96 43.44 76.84 38.99 75.27 34.45 74.53 30.01 74.21 28.07 74.38 26.67 73.5 25.68 71.32 26.75 67.94 30.95 64.67 30.66Z" fill="#7DCAF9"/><path d="M60.74 39.44C61.02 38.87 63.91 33.63 64.27 33.1 65.32 31.53 66.73 30.55 68.36 29.66 70.26 28.62 71.95 27.2 73.5 25.69 71.31 26.75 67.93 30.96 64.66 30.67 60.8 30.33 57.02 29.32 53.82 27.12 55.43 28.8 57.52 30.32 59.63 31.22 60.98 31.8 62.05 31.2 62.72 32.68 62.93 33.11 60.65 39.03 60.74 39.44Z" fill="#B4E7FC"/><path d="M64.59 31.45C62.26 31 59.54 30.36 57.42 29.23L57.42 29.36C59.13 30.38 61.49 31.23 63.38 32.27 63.67 33.71 62.24 34.9 62.14 36.17 63.05 35.48 64.44 32.52 64.59 31.45Z" fill="#EBFAFF"/><path d="M52.85 32.79C52.14 33.72 52.05 35.02 51.44 36.03 50.75 37.17 50.03 38.29 49.46 39.49L49.46 39.62C49.2 40.35 49.47 40.87 50.03 41.23 53.31 37.92 57.12 35.42 61.23 33.42 60.99 32.23 60.08 32.5 58.95 32.46 56.96 32.38 54.15 31.09 52.85 32.79Z" fill="#62C0EF"/><path d="M50.8 41.65C50.47 41.91 54.77 42.68 55.37 42.67 56.79 42.67 58.19 41.57 59.61 41.47 60.18 40 59.74 38.17 59.68 36.65 57.23 36.47 53.18 41.01 50.8 41.65Z" fill="#62C0EF"/><path d="M68.07 30.78C67.17 30.22 63.08 39.2 59.64 40.54 50.83 43.94 49.19 39.5 49.02 39.42 48.83 40.17 48.72 40.9 48.78 41.55 48.78 41.55 52.33 42.96 54.28 42.91 57.83 42.81 59.33 42.08 62.03 43.5 64.17 44.63 66.71 43.51 69.09 43.6 71.51 43.69 74.64 44.43 76.97 43.45 76.85 39 75.28 34.46 74.54 30.02 74.23 28.14 74.38 26.76 73.58 25.78 72.75 26.87 71.69 27.67 70.73 28.72 69.98 29.55 70.06 30.3 70.02 31.4 69.94 33.8 70.59 38.91 68.2 39.76 65.42 40.75 69.3 31.53 68.07 30.78Z" fill="#69AFED"/><path d="M66.51 34.58C66 33.67 65.36 38.48 64.71 39.1 63.04 40.67 61.39 41.51 59.61 42.69 60.36 42.79 61.13 43.02 62.03 43.5 63.44 44.25 65.03 44.01 66.64 43.79 65.28 40.56 66.97 35.4 66.51 34.58Z" fill="#389CCE"/><path d="M71.13 30.76C71.12 35.08 71.23 39.5 70.28 43.67 72.47 43.87 75.01 44.26 76.97 43.44 76.85 38.99 75.28 34.45 74.54 30.01 74.26 28.32 74.35 27.04 73.8 26.08 72.77 27.54 71.66 29.06 71.13 30.76Z" fill="#2875A0"/><path d="M74.76 43.92C73.93 41.86 73.12 39.79 72.58 37.67 72.24 39.73 71.78 41.77 71.04 43.75 72.26 43.87 73.55 44 74.76 43.92Z" fill="#1D6291"/><path d="M71.64 31.2C71.43 32.45 71.48 34 71.59 35.24 72.31 34.15 71.79 32.6 72.21 31.35 72.52 30.41 73.97 29 73.48 28.06L73.48 27.79C73.16 28.68 71.84 29.94 71.64 31.2Z" fill="#448AAF"/><path d="M59.81 26.17C61.5 25.45 64.05 24.77 65.87 24.53L65.6 24.53C64.76 24.18 63.1 24.18 62.08 24.04 60.94 23.88 59.6 23.62 58.48 23.92 59.25 24.39 60.75 24.3 61.13 25.11 60.54 25.26 59.97 25.55 59.42 25.87 59.54 25.99 59.63 26.07 59.81 26.17Z" fill="#7DCAF9"/><path d="M66.51 25.33C63.93 25.28 60.92 26.09 58.61 27.2L58.75 27.33C57.13 28.71 64.74 30.16 66.17 29.42 64.45 29.18 62.06 28.85 60.54 28.09 61.03 26.76 65.18 25.47 66.51 25.33Z" fill="#B4E7FC"/><path d="M27.65 39.73C26.18 39.46 24.76 39.26 23.27 39.16 21.28 39.03 19.33 39.31 17.33 39.24 16.54 39.21 15.24 38.98 14.48 38.77 12.57 39.18 15.25 40.71 16.03 40.87 17.28 41.13 19.7 40.94 20.99 41.19 23.22 41.61 23.4 42.31 25.65 42.4 26.36 42.43 30.52 41.18 29.81 40.13 29.62 39.83 27.94 39.78 27.65 39.73Z" fill="#2875A0" opacity="0.44"/><g><path d="M32.95 22.34C32.54 21.05 32.04 17.96 31.44 17.81 30.48 17.58 28.88 16.24 27.82 16.14 26.36 19.99 26.51 24.03 26.77 28.25 27.03 32.44 28.78 36.34 29.12 40.48 29.33 43 29.6 43.5 32.07 43.11 33.68 42.85 34.91 42.75 35.8 42.6 36.72 42.45 40.42 42.66 40.76 41.72 41.1 40.78 38.36 38.08 38.04 37.11 37.58 35.72 37.02 34.64 36.64 33.25 35.66 29.55 34.1 26 32.95 22.34Z" fill="#2875A0"/><path d="M22.68 16.47C20.67 17.16 20.15 19.23 19.63 21.24 18.32 26.38 16.29 34.28 14.34 39.14 18.4 41.44 19.83 40.22 22.42 40.45 25.88 40.75 27.87 43.89 32.06 43.12 31.5 34.77 28.66 24.54 27.81 16.15 26.16 16.08 24.15 15.96 22.68 16.47Z" fill="#69AFED"/><path d="M14.34 39.14C14.58 39.27 14.8 39.39 15.02 39.5 16.35 36.95 17.22 34.25 18.15 31.54 18.98 29.14 20.18 26.85 20.96 24.44 21.77 21.97 21.61 19.2 22.16 16.69 20.57 17.53 20.09 19.41 19.63 21.23 18.32 26.38 16.29 34.29 14.34 39.14Z" fill="#7DCAF9"/><path d="M23.71 26.2C22.21 29.22 21.76 32.57 20.68 35.81 20.12 37.48 19.45 39.05 18.65 40.56 19.97 40.62 21.03 40.33 22.43 40.45 22.91 40.49 23.36 40.6 23.8 40.73 24 38.68 24.85 36.52 24.17 34.57 23.07 31.35 23.82 28.99 23.71 26.2Z" fill="#B4E7FC"/><path d="M23.8 25.83C22.9 27.59 22.21 29.53 21.47 31.03 19.93 34.13 18.41 37.22 16.64 40.18 19.07 40.97 20.4 40.27 22.43 40.45 22.65 40.47 22.86 40.5 23.07 40.54 23.69 37.42 23.04 34.16 23.23 30.99 23.32 29.29 23.63 27.56 23.8 25.83Z" fill="#389CCE"/><path d="M23.8 25.83C23.6 26.22 23.41 26.62 23.24 27.02 23.31 27.25 22.65 31.87 22.64 32.16 22.45 35.53 23.56 37.46 20.56 38.43 19.28 38.85 18.65 40.18 18.21 40.52 19.75 40.69 20.89 40.31 22.44 40.45 22.66 40.47 22.87 40.5 23.08 40.54 23.7 37.42 23.05 34.16 23.24 30.99 23.32 29.29 23.63 27.56 23.8 25.83Z" fill="#2875A0"/><path d="M32.07 43.12C31.51 34.77 28.67 24.54 27.82 16.15 26.26 16.09 24.39 15.99 22.95 16.4 24.01 16.35 25.08 16.5 26.17 16.63 27.14 16.75 27.79 17.85 27.82 18.73 27.97 23.37 29.17 28.01 30.03 32.55 30.68 35.99 31.48 39.79 30.43 43.22 30.93 43.25 31.48 43.22 32.07 43.12Z" fill="#B4E7FC"/></g><g><path d="M26.39 31.81C25.72 35.92 24.95 39.98 24.99 44.35L25.22 45.01C25.81 45.27 26.97 45.69 28.2 45.95 29.8 46.3 31.81 45.18 32.57 44.37 33.5 43.38 33.63 39.79 33.98 38.33 34.55 36.02 35.84 33.45 33.22 32.06 31.66 31.22 28.18 31.06 26.39 31.81Z" fill="#7DCAF9"/><path d="M26.56 31.75C26.5 31.77 26.45 31.79 26.39 31.81 25.72 35.92 24.95 39.98 24.99 44.35L25.22 45.01C25.6 45.18 26.23 45.41 26.96 45.63 26.04 44.69 25.47 43.37 25.48 42.07 25.52 38.74 25.98 35.25 26.51 31.96 26.52 31.89 26.54 31.82 26.56 31.75Z" fill="#62C0EF"/><path d="M28.21 45.95C29.81 46.29 31.82 45.17 32.58 44.37 33.51 43.38 33.64 39.79 33.99 38.33 34.56 36.02 35.85 33.45 33.23 32.06 31.66 31.22 28.18 31.06 26.39 31.82 26.37 31.94 26.35 32.06 26.33 32.18 26.54 32.29 26.74 32.44 26.93 32.65 29.23 35.14 29.22 38.86 28.85 42.06 28.7 43.38 28.53 44.69 28.21 45.95Z" fill="#62C0EF"/><path d="M30.23 33.2C30.12 37.08 29.35 42.22 28.45 45.99 29.98 46.29 31.85 45.12 32.57 44.36 33.5 43.37 33.63 39.78 33.98 38.32 34.4 36.61 35.22 34.76 34.55 33.35 32.98 33.75 31.83 32.88 30.23 33.2Z" fill="#389CCE"/><path d="M30.23 33.2C30.17 35.32 29.91 37.82 29.54 40.27 29.6 39.91 29.67 39.55 29.75 39.19 30.08 37.74 30.45 36.37 31.49 35.27 32.26 34.45 33.45 34.23 34.44 33.79 34.52 33.76 34.6 33.72 34.68 33.7 34.64 33.58 34.61 33.46 34.55 33.35 32.98 33.75 31.83 32.88 30.23 33.2Z" fill="#2F88AF"/><path d="M26.39 31.81C26.39 31.84 26.38 31.86 26.38 31.89 26.69 31.97 26.98 32.12 27.27 32.36 27.93 32.91 28.68 33.5 29.25 34.14 29.49 34.42 29.73 34.78 30 35.09 31.56 34.66 33.06 34 34.57 33.36 34.33 32.86 33.92 32.41 33.24 32.05 31.66 31.22 28.18 31.06 26.39 31.81Z" fill="#97D3FF"/><path d="M30.13 34.23C29.36 33.94 27.07 31.81 26.85 31.65 26.69 31.7 26.53 31.75 26.39 31.81 26.39 31.84 26.38 31.86 26.38 31.89 26.69 31.97 26.98 32.12 27.27 32.36 27.93 32.91 28.68 33.5 29.25 34.14 29.49 34.42 29.73 34.78 30 35.09 31.56 34.66 33.06 34 34.57 33.36 34.54 33.31 34.52 33.26 34.49 33.21 34.41 33.25 31.36 34.7 30.13 34.23Z" fill="#EBFAFF"/></g></g><path d="M42.48 59.22C42.38 59.24 42.27 59.25 42.15 59.26 41.67 59.28 41.2 59.29 40.73 59.3 39.34 59.44 37.86 59.71 36.49 59.59 35.94 59.54 35.4 59.42 34.88 59.26 34.66 59.26 34.44 59.25 34.23 59.25 33.25 59.23 28.24 58.7 29.46 60.74 30.54 61.71 31.33 62.44 32.42 62.49 38.34 62.74 40.04 61.55 42.07 61.34 44.57 61.07 47.15 61.9 49.67 61.76 50.94 61.69 52.16 61.38 53.45 61.44 54.13 61.47 56.85 61.96 55.58 60.59 55 59.96 53.06 60.05 52.29 59.86 51.35 59.63 45.61 59.21 42.48 59.22Z" fill="#2875A0" opacity="0.44"/><g><path d="M44.86 46.65 45.05 46.65C45.05 46.63 45.04 46.61 45.04 46.59 44.98 46.69 44.92 46.63 44.86 46.65Z" fill="#58A5DA"/><path d="M50.97 59.6C50.62 58.93 50.37 58.2 50.03 57.51 49.88 57.2 49.77 56.82 49.53 56.58 49.28 56.32 48.87 56.29 48.6 56.03 48.2 55.64 48.32 55.59 48.46 55.02 48.53 54.72 48.64 54.4 48.71 54.1 48.86 53.46 49.08 52.75 49.45 52.18 49.13 52.07 48.41 52.06 48.16 51.85 47.97 51.69 47.93 51.11 47.89 50.85 47.76 50.03 47.66 49.11 47.98 48.36 47.1 47.85 45.82 47.44 45.13 46.66L45.06 46.66C45.26 47.35 44.75 48.26 44.47 48.92 44.01 49.96 42.97 51.35 42.89 52.46 42.86 52.94 43.04 53.65 43.11 54.16 43.21 54.94 43.26 55.81 43.53 56.56 43.9 57.59 44.39 58.67 44.87 59.65 45.11 60.14 45.53 60.76 45.42 61.29 47.18 61.06 49.36 60.57 50.97 59.6Z" fill="#69AFED"/><path d="M50.4 59.91C49.61 60.08 48.8 59.92 48.08 59.19 47.06 58.17 47.18 56.68 47.5 55.39 47.61 54.96 47.84 54.4 47.67 53.96 47.47 53.48 46.73 53.11 46.48 52.62 45.65 51.01 45.55 49.3 46.13 47.58 46.15 47.53 46.17 47.48 46.18 47.44 45.78 47.21 45.4 46.96 45.12 46.64L45.05 46.64C45.25 47.33 44.74 48.24 44.46 48.9 44 49.94 42.96 51.33 42.88 52.44 42.85 52.92 43.03 53.63 43.1 54.14 43.2 54.92 43.25 55.79 43.52 56.54 43.89 57.57 44.38 58.65 44.86 59.63 45.1 60.12 45.52 60.74 45.41 61.27 46.97 61.09 48.87 60.68 50.4 59.91Z" fill="#57A1CF"/><path d="M45.17 46.54C44.35 46.66 43.49 46.89 42.66 47.08 42.11 47.21 41.55 47.24 41.01 47.38 40.62 47.48 40.58 47.56 40.48 47.97 40.26 48.91 40.14 49.83 39.97 50.78 39.71 52.14 39.33 53.49 39.09 54.86 38.84 56.25 38.3 57.76 37.65 59 38.02 59.35 38.77 59.49 39.27 59.64 39.88 59.83 40.37 60 40.95 60.12 42.41 60.4 44.15 60.49 45.45 61.26 45.67 60.61 45.67 59.75 45.75 59.05 45.89 57.81 45.93 56.53 46.19 55.31 46.27 54.96 46.41 54.62 46.28 54.31 46.12 53.94 45.7 53.64 45.46 53.32 45 52.68 44.76 52.18 44.79 51.42 44.82 50.54 44.84 49.66 44.87 48.79 44.92 48.05 45.22 47.23 45.17 46.54Z" fill="#62C0EF"/><path d="M40.6 47.62C40.55 47.7 40.52 47.81 40.48 47.98 40.26 48.92 40.14 49.84 39.97 50.79 39.71 52.15 39.33 53.5 39.09 54.87 38.84 56.26 38.3 57.77 37.65 59.01 38.02 59.36 38.77 59.5 39.27 59.65 39.88 59.84 40.37 60.01 40.95 60.13 41.75 60.28 42.62 60.38 43.47 60.56 42.38 59.98 40.82 59.33 40.11 58.47 38.86 56.95 39.48 55.44 39.75 53.58 40.05 51.59 40.26 49.6 40.6 47.62Z" fill="#62AEE1"/><path d="M44.48 60.82C44.82 60.94 45.15 61.08 45.46 61.26 45.68 60.61 45.68 59.75 45.76 59.05 45.9 57.81 45.94 56.53 46.2 55.31 46.28 54.96 46.42 54.62 46.29 54.31 46.13 53.94 45.71 53.64 45.47 53.32 45.01 52.68 44.77 52.18 44.8 51.42 44.83 50.54 44.85 49.66 44.88 48.79 44.92 48.06 45.22 47.24 45.17 46.55 44.35 46.67 43.49 46.9 42.66 47.09 42.11 47.22 41.55 47.25 41.01 47.39 40.64 47.49 40.58 47.56 40.5 47.93 40.87 47.85 43.69 47.33 44.1 47.3 45.61 47.2 44.22 50.84 44.39 52.21 44.59 53.92 45.42 53.56 45.47 55.33 45.52 57.05 45.26 58.73 44.71 60.35 44.65 60.51 44.57 60.67 44.48 60.82Z" fill="#B4E7FC"/></g><g><path d="M33.49 56.32C33 57.31 30.55 58.6 30.88 59.68 31.09 60.36 33.07 61.93 33.07 61.93 33.62 62.12 38.28 62.1 39.24 61.76 40.18 61.43 41.45 61.08 41.53 60.59 40.88 58.63 40.47 56.22 38.11 55.99 35.67 55.76 33.77 55.77 33.49 56.32Z" fill="#B4E7FC"/><path d="M33.42 56.45C32.79 57.42 30.56 58.65 30.88 59.68 31.09 60.36 33.07 61.93 33.07 61.93 33.62 62.12 38.28 62.1 39.24 61.76 40.18 61.43 41.45 61.08 41.53 60.59 41.1 59.29 40.77 57.79 39.91 56.87 39.06 57.11 37.55 57.46 36.71 57.67 36.17 57.81 34.05 57.15 33.42 56.45Z" fill="#EBFAFF"/><path d="M36.27 58.11C36.26 58.11 36.25 58.12 36.24 58.12 36.52 58.91 37.12 59.65 37.52 60.37 37.8 60.89 38.08 61.41 38.36 61.93 38.75 61.89 39.06 61.84 39.25 61.77 40.19 61.44 41.46 61.09 41.54 60.6 41.09 59.25 40.76 57.69 39.82 56.77 39.67 56.83 39.52 56.89 39.38 56.95 38.34 57.38 37.36 57.84 36.27 58.11Z" fill="#4EA1DA"/><path d="M39.83 56.79C39.82 56.78 39.82 56.77 39.81 56.77 39.66 56.83 39.51 56.89 39.37 56.95 38.34 57.38 37.36 57.85 36.26 58.11 36.25 58.11 36.24 58.12 36.23 58.12 36.51 58.91 37.11 59.65 37.51 60.37 37.79 60.89 38.07 61.41 38.35 61.93 38.74 61.89 39.05 61.84 39.24 61.77 39.39 61.72 39.55 61.66 39.7 61.61 39.33 61.13 39.03 60.6 38.86 60.06 38.54 59.01 38.75 57.97 39.45 57.14 39.57 57.01 39.7 56.89 39.83 56.79Z" fill="#4997CD"/><path d="M35.94 57.93C34.96 57.74 33.95 57.28 33.42 56.44 32.8 57.41 30.56 58.64 30.88 59.68 31.09 60.36 33.07 61.93 33.07 61.93 33.62 62.12 38.28 62.1 39.24 61.76 39.28 61.75 39.32 61.73 39.36 61.72 39.16 61.48 38.97 61.22 38.79 60.96 38.1 59.93 37.33 58.98 36.61 58 36.39 57.99 36.17 57.98 35.94 57.93Z" fill="#72C5F7"/><path d="M32.64 57.42C32.69 57.35 32.76 57.27 32.83 57.17 32.92 57.06 33.01 56.95 33.11 56.84 33.22 56.72 33.34 56.6 33.45 56.48 33.44 56.47 33.43 56.46 33.42 56.44 32.8 57.41 30.56 58.64 30.88 59.68 31.09 60.36 33.07 61.93 33.07 61.93 33.21 61.98 33.64 62.01 34.21 62.03 33.64 61.84 33.03 61.56 32.64 61.13 31.71 60.1 31.46 58.57 32.54 57.51 32.58 57.48 32.6 57.45 32.64 57.42Z" fill="#4EA1DA" opacity="0.39"/><path d="M36.2 57.97C36.04 59.25 36.15 60.36 35.11 61.36 34.83 61.63 34.52 61.85 34.18 62.03 35.77 62.08 38.53 62.01 39.24 61.76 39.28 61.75 39.32 61.73 39.36 61.72 39.16 61.48 38.97 61.22 38.79 60.96 38.1 59.93 37.33 58.98 36.61 58 36.47 58 36.34 57.99 36.2 57.97Z" fill="#5BB6E8"/><path d="M38.79 60.96C38.24 60.15 38.67 60.79 38.79 60.96L38.79 60.96Z" fill="#52A1D4"/><path d="M34.18 62.04C35.15 62.07 36.13 62.06 37.1 62.02 37.85 61.99 38.65 61.98 39.36 61.73 39.16 61.49 38.97 61.23 38.79 60.97 38.83 61.03 38.82 61.01 38.79 60.97 38.45 60.46 38.08 59.97 37.71 59.48 37.51 59.21 37.31 58.95 37.11 58.68 36.99 58.53 36.73 58.02 36.54 58.01 36.56 58.05 38.69 60.76 38.17 61.62 37.82 62.18 34.5 61.86 34.18 62.04Z" fill="#52A1D4"/><path d="M38.79 60.96 38.79 60.96C38.82 61 38.83 61.02 38.79 60.96Z" fill="#52A1D4"/></g><path d="M4.38 46.4C4.44 46.88 5.6 47.34 5.97 47.64 7 48.5 7.81 49.3 9.13 49.67 10.46 50.04 12.41 49.59 13.74 49.4 14.87 49.24 17.22 49.15 18.08 48.51 16.35 47.34 13.99 47.13 12.04 46.65 10 46.15 7.97 45.08 5.94 45.82L5.94 45.72C5.44 45.53 4.29 45.65 4.38 46.4Z" fill="#2875A0" opacity="0.44"/><g><path d="M9.89 40.68C8.78 40.92 7.36 40.8 6.98 41.96 6.78 42.59 6.66 43.23 6.42 43.87 6.16 44.53 5.71 45.11 5.53 45.79 5.58 46.34 6.62 47.1 7.04 47.5 7.66 48.1 8.41 48.8 9.2 49.13 9.97 49.45 10.8 49 11.64 48.83 12.45 48.67 13.67 48.74 14.37 48.37 13.97 47.29 13.58 46.33 13.33 45.21 13.11 44.21 13.25 42.49 12.76 41.67 12.09 40.57 10.99 40.44 9.89 40.68Z" fill="#58A5DA"/><path d="M9.89 40.68C8.78 40.92 7.36 40.8 6.98 41.96 6.91 42.17 6.85 42.39 6.79 42.61 7.25 43.09 7.67 43.63 8.08 44.24 8.79 45.28 8.98 46.11 10.32 46.1 10.86 46.1 11.39 46.11 11.92 46.11 12.08 44.54 12.23 42.99 12.59 41.47 11.93 40.56 10.91 40.46 9.89 40.68Z" fill="#6FC9F7"/><path d="M10.26 44.96C8.56 42.53 7.12 41.66 7.12 41.66 7.07 41.75 7.02 41.85 6.98 41.96 6.91 42.17 6.85 42.39 6.79 42.61 7.25 43.09 7.67 43.63 8.08 44.24 8.79 45.28 8.98 46.11 10.32 46.1 10.86 46.1 11.39 46.11 11.92 46.11 12.08 44.54 12.23 42.99 12.59 41.47 12.54 41.41 12.49 41.34 12.44 41.29 12.44 41.29 11.83 44.29 11.75 44.52 11.76 44.53 10.46 45.24 10.26 44.96Z" fill="#EBFAFF"/><path d="M12.07 45.05C11.56 45.06 11.03 45.12 10.7 45.26 10.35 45.42 10 45.52 9.67 45.55 9.35 46.66 9.15 47.78 8.79 48.91 8.93 48.99 9.06 49.07 9.19 49.12 9.96 49.44 10.79 48.99 11.63 48.82 12.44 48.66 13.66 48.73 14.36 48.36 14.14 47.77 13.93 47.21 13.73 46.65 13.13 46.19 12.61 45.57 12.07 45.05Z" fill="#418BBB"/><path d="M9.67 45.56C9.35 46.67 9.15 47.79 8.79 48.92 8.93 49 9.06 49.08 9.19 49.13 9.24 49.15 9.29 49.17 9.34 49.18 9.39 48.8 9.46 48.43 9.56 48.06 9.64 47.77 9.76 47.5 9.89 47.25 10.02 46.93 10.21 46.64 10.45 46.39 10.58 46.23 10.71 46.08 10.86 45.93 11.21 45.57 11.73 45.34 12.26 45.24 12.2 45.18 12.13 45.11 12.07 45.06 11.56 45.07 11.03 45.13 10.7 45.27 10.35 45.43 10 45.53 9.67 45.56Z" fill="#3B84B4"/><path d="M9.92 45.03C9.56 44.61 9.17 44.21 8.83 43.76 8.55 43.39 8.28 43.01 8 42.64 7.66 42.35 7.36 42.02 7.12 41.65 7.07 41.74 7.02 41.84 6.98 41.95 6.78 42.58 6.66 43.22 6.42 43.86 6.16 44.52 5.71 45.1 5.53 45.78 5.58 46.33 6.62 47.09 7.04 47.49 7.66 48.09 8.41 48.79 9.19 49.12 9.36 47.91 9.81 46.73 10.22 45.45 10.18 45.35 10.14 45.26 10.08 45.17 10.19 45.39 10.14 45.34 9.92 45.03Z" fill="#5AA6DB"/></g></g><g><path d="M101.85 62.01C100.66 63.44 99.88 64.37 98.75 63.7 97.62 63.04 97.07 65.39 95.63 64.85 94.19 64.32 94.33 66.54 92.42 66.31 90.51 66.07 90.03 62.99 89.21 63.58 89.21 63.58 89.07 66.57 85.73 66.94 82.39 67.31 79.34 66.63 77.74 64.45 77.74 64.45 77.31 66.04 75.9 65.55 74.49 65.07 75.35 67.74 72.26 67.85 69.17 67.96 66.98 66.42 66.98 66.42 66.98 66.42 67.12 68.73 64.09 69.11 61.07 69.49 60.41 67.37 58.59 67.43 56.77 67.48 56.05 68.8 54.2 68.06 52.35 67.32 51.61 66.5 51.61 66.5 51.61 66.5 51.93 67.95 50.94 68.01 49.95 68.08 49.49 67.36 49.49 67.36 49.49 67.36 50.3 68.48 48.87 69.22 47.45 69.96 42.17 69.66 42.81 67.74 42.81 67.74 42.16 68.62 40.88 68.25 39.6 67.88 40.43 67 40.43 67 40.43 67 39.17 68.18 38.39 67.4 38.39 67.4 38.12 68.8 36.9 68.58 36.9 68.58 36.9 70.46 33.18 70.03 29.46 69.59 29.32 66.98 29.32 66.98 29.32 66.98 28.64 67.84 27.77 66.78 27.77 66.78 26.81 67.95 25.37 67.79 23.93 67.64 23.97 65.97 23.97 65.97 23.97 65.97 23.45 67.09 22.24 66.73 22.24 66.73 22.38 67.62 20.78 67.6 19.17 67.58 17.93 66.64 19.02 65.39 19.02 65.39 17.71 66.42 16.73 65.9 15.75 65.38 15.34 64.48 15.34 64.48 15.34 64.48 15.11 66.13 12.92 65.49 10.73 64.84 12 63.82 12 63.82 12 63.82 10.61 64.05 10.31 63.35 10.01 62.66 8.98 63.42 8.52 62.71 8.06 62 9.3 61.46 10.75 62.18 10.75 62.18 10.45 60.45 12.62 61.15 12.62 61.15 12.69 59.55 14.7 59.97 16.71 60.39 16.08 61.08 16.08 61.08 16.08 61.08 17.39 59.85 18.38 61.2 18.38 61.2 18.49 59.65 20.62 59.64 22.75 59.63 23.44 60.54 23.44 60.54 23.44 60.54 23.75 59.19 25.65 59.83 25.65 59.83 25.41 58.28 26.94 58.27 26.94 58.27 27 54.77 32.4 56.29 32.4 56.29 32.9 54.8 34.52 55.45 34.52 55.45 34.7 53.44 37.39 53.78 37.39 53.78 37.66 50.8 42.6 52 42.6 52 44.89 50.76 46.47 52.87 46.47 52.87 46.92 50.9 48.77 52.33 48.77 52.33 48.15 50.42 50.17 50.19 52.2 49.96 53.25 51.39 53.25 51.39 53.25 51.39 52.01 48.62 55.17 47.36 58.32 46.1 60.45 47.94 60.45 47.94 60.45 47.94 61.89 46.75 62.86 48.37 62.86 48.37 64.08 47.29 65.2 48.33 65.2 48.33 65.29 45.89 67.76 46.53 67.76 46.53 67.24 43.69 70.48 43.98 73.72 44.27 74.37 46.93 74.37 46.93 74.37 46.93 77.59 44.7 79.4 48.16 79.4 48.16 80.58 46.93 82.06 48.17 82.06 48.17 85.51 44.05 88.42 48.27 91.33 52.49 86.2 54.45 86.2 54.45 86.2 54.45 88.63 55.02 88.02 56.53 87.41 58.04 84.6 57.65 84.6 57.65 84.6 57.65 86.15 58.57 85.64 59.54 85.64 59.54 87.21 58.89 87.72 60.15 87.72 60.15 90.03 59.27 91.19 61.51 91.19 61.51 91.87 60.15 93.31 60.79 94.75 61.43 95.9 60.01 96.98 61.26 98.06 62.51 98.88 60.64 99.78 61.23 100.67 61.83 102.52 61.21 101.85 62.01Z" fill="#FFFFFF"/><g><path d="M85.41 60.43C85.45 60.42 85.5 60.4 85.56 60.39 85.55 60.4 85.5 60.41 85.41 60.43Z" fill="#EEEEEE"/><path d="M14.72 62.82C14.73 62.72 14.76 62.65 14.76 62.65 14.76 62.65 14.75 62.72 14.72 62.82Z" fill="#EEEEEE"/><path d="M90.05 62.74C90.11 62.71 90.17 62.68 90.24 62.66 90.24 62.66 90.17 62.7 90.05 62.74Z" fill="#EEEEEE"/><path d="M101.89 61.96C101.88 61.98 101.86 62 101.85 62.02 100.66 63.45 99.88 64.38 98.75 63.71 97.62 63.05 97.07 65.4 95.63 64.86 94.19 64.33 94.33 66.55 92.42 66.32 91.28 66.18 90.65 65.02 90.15 64.23 92.14 64.92 92.16 63.71 92.16 63.71 93.91 64.14 94.69 62.68 94.69 62.68 95.86 63.92 97.8 62.93 97.8 62.93 98.59 63.37 99.24 62.61 99.24 62.61 100.43 62.86 101.32 62.43 101.89 61.96Z" fill="#EEEEEE"/><path d="M12.61 61.18C12.61 61.18 12.61 61.12 12.63 61.02 12.63 61.12 12.61 61.18 12.61 61.18Z" fill="#EEEEEE"/><path d="M10.75 62.21C10.75 62.21 10.45 60.48 12.62 61.18 11.19 60.98 11.42 61.8 11.8 62.2 12.18 62.6 12.61 62.18 12.61 62.18 12.61 62.18 11.59 63.23 13.12 63.51 14.28 63.72 14.63 63.13 14.73 62.82 14.69 63.12 14.76 63.72 15.94 63.76 17.52 63.81 17.52 62.86 17.52 62.86 17.85 64.08 19.17 63.73 19.17 63.73 18.92 65.24 20.17 65.23 20.17 65.23 20.29 65.8 21.12 66.03 21.41 65.38 21.7 64.73 20.79 64.59 20.79 64.59 21.79 63.84 20.56 62.3 20.56 62.3 21.11 63.02 22.29 62.72 22.29 62.72 22.25 61.68 23.33 61.43 23.33 61.43 23.33 61.43 22.3 62.4 23.1 62.65 23.9 62.9 24.44 62.48 24.44 62.48 24.64 64 26.05 63.77 26.05 63.77 26.05 63.77 25.12 65.07 26.49 65.24 27.86 65.41 27.38 64.04 27.38 64.04 27.38 64.04 27.94 64.85 28.49 64.26 29.03 63.68 28.18 62.86 28.18 62.86 29.14 63.52 29.58 63.18 29.58 63.18 30.29 65.06 31.88 64.53 31.88 64.53 31.88 64.53 31.53 65.73 33.25 65.79 34.96 65.86 34.3 64.58 34.3 64.58 36.24 65.15 36.34 63.98 36.34 63.98 38.11 64.51 38.01 63.08 38.01 63.08 38.74 62.52 38.01 62.14 38.01 62.14 38.78 62.25 39.01 61.96 39.01 61.96 38.91 60.92 39.97 60.86 39.97 60.86 39.11 61.26 39.98 62.03 39.98 62.03 39.98 62.03 38.98 63.03 39.99 63.93 41 64.82 41.56 64.29 41.56 64.29 41.56 64.29 41 65.21 42.31 65.33 43.62 65.46 44 64.35 44 64.35 44 64.35 43.75 65.39 44.89 65.58 46.03 65.77 46.52 64.94 46.52 64.94 46.52 64.94 46.94 65.92 47.87 65.56 48.8 65.21 48.74 64.16 48.74 64.16 48.74 64.16 49.3 65.32 50.08 64.4 50.86 63.48 49.58 62.95 49.58 62.95 51.88 61.76 49.49 60.49 49.49 60.49 48.89 60.5 48.81 61.26 48.81 61.26 48.59 60.09 46.96 59.89 46.96 59.89 49.75 59.94 49.44 58.23 49.44 58.23 49.89 60.53 51.86 59.71 51.86 59.71 51.86 59.71 51.46 60.98 52.09 60.97 52.72 60.96 52.53 60.02 52.53 60.02 52.53 60.02 53.89 61.01 55.03 60.38 56.17 59.75 55.37 58.54 55.37 58.54 55.37 58.54 56.93 59.51 57.47 58.93 58.01 58.35 57.46 57.79 57.46 57.79 58.2 58.31 59.62 58.08 59.62 58.08 57.73 58.64 58.68 60.1 58.68 60.1 56.75 60.82 58.07 62.23 58.07 62.23 58.07 62.23 56.92 61.85 57.14 63.04 57.36 64.23 58.44 63.76 58.44 63.76 58.75 64.76 59.8 64.41 59.8 64.41 59.99 66.52 61.59 65.62 61.59 65.62 61.59 65.62 61.24 66.61 62.37 66.5 63.51 66.39 63.23 65.53 63.23 65.53 64.99 65.34 64.64 64.27 64.64 64.27 65.8 64.03 64.71 63.03 64.71 63.03 67.37 62.89 66.86 60.92 66.86 60.92 65.75 60.72 66.08 59.94 66.08 59.94 64.57 59.56 64.49 58.68 64.49 58.68 65.64 59.8 66.8 59.15 66.8 59.15 66.16 60.06 67.52 60.73 67.52 60.73 67.52 60.73 67.25 61.79 67.95 62.42 68.65 63.05 69.76 62.65 69.76 62.65 69.76 62.65 69.4 63.84 70.32 64.08 71.24 64.32 71.5 63.29 71.5 63.29 72.82 64.01 73.22 62.09 73.22 62.09 73.22 62.09 73.67 63.81 75.24 62.92 76.81 62.03 75.08 60.75 75.08 60.75 76.73 59.67 74.11 58.72 74.11 58.72 76.86 57.77 73.67 56.69 73.67 56.69 76.17 56.17 76.5 57.94 76.5 57.94 75.5 59.14 77.62 59.61 77.62 59.61 77.79 61.37 79.14 60.74 79.14 60.74 79.14 60.74 77.29 63.11 79.53 63.06 81.76 63 80.59 61.34 80.59 61.34 82.09 61.39 82.11 60 82.11 60 83.14 60.87 84.97 60.54 85.49 60.43 84.43 60.75 85.56 62.14 85.56 62.14 83.87 62.59 84.93 64.01 84.93 64.01 84.93 64.01 83.76 64.44 84.89 64.99 86.01 65.54 86.04 64.7 86.04 64.7 88.11 64.94 87.72 63.66 87.72 63.66 88.97 63.76 88.44 62.79 88.44 62.79 89.1 63.06 89.81 62.86 90.14 62.74 89.77 62.94 89.7 63.29 89.73 63.59 89.59 63.49 89.45 63.48 89.3 63.59 89.3 63.59 89.16 66.58 85.82 66.95 82.48 67.32 79.43 66.64 77.83 64.46 77.83 64.46 77.4 66.05 75.99 65.56 74.58 65.08 75.44 67.75 72.35 67.86 69.26 67.97 67.07 66.43 67.07 66.43 67.07 66.43 67.21 68.74 64.18 69.12 61.16 69.5 60.5 67.38 58.68 67.44 56.86 67.49 56.14 68.81 54.29 68.07 52.44 67.33 51.7 66.51 51.7 66.51 51.7 66.51 52.02 67.96 51.03 68.02 50.1 68.08 49.58 67.38 49.58 67.38 49.58 67.38 50.31 68.53 48.96 69.24 47.54 69.98 42.26 69.68 42.9 67.76 42.9 67.76 42.25 68.64 40.97 68.27 39.69 67.9 40.52 67.02 40.52 67.02 40.52 67.02 39.26 68.2 38.48 67.42 38.48 67.42 38.21 68.82 36.99 68.6 36.99 68.6 36.99 70.48 33.27 70.05 29.55 69.61 29.41 67 29.41 67 29.41 67 28.73 67.86 27.86 66.8 27.86 66.8 26.9 67.97 25.46 67.81 24.02 67.66 24.06 65.99 24.06 65.99 24.06 65.99 23.54 67.11 22.33 66.75 22.33 66.75 22.47 67.64 20.87 67.62 19.26 67.6 18.02 66.66 19.11 65.41 19.11 65.41 17.8 66.44 16.82 65.92 15.84 65.4 15.43 64.5 15.43 64.5 15.43 64.5 15.2 66.15 13.01 65.51 10.82 64.87 12.09 63.84 12.09 63.84 12.09 63.84 10.7 64.07 10.4 63.37 10.1 62.68 9.07 63.44 8.61 62.73 8.05 62.03 9.29 61.5 10.75 62.21Z" fill="#EEEEEE"/></g><path d="M79.22 55.1C79.22 55.1 80.83 55.64 80.89 54.41 80.89 54.41 81.07 53.67 82.07 53.71 82.07 53.71 81.29 52.89 82.38 52.61 83.47 52.34 83.66 53.17 83.66 53.17 83.66 53.17 83.47 52.36 84.31 52.44 84.31 52.44 83.11 51.83 83.28 51.09 83.28 51.09 81.94 52.19 80.6 51.29 80.6 51.29 81.28 52.36 80 52.72 80 52.72 80.67 53.1 80.54 53.53 80.42 53.96 79.66 53.52 79.66 53.52 79.66 53.52 80.63 54.92 79.22 55.1Z" fill="#EEEEEE"/><path d="M67.02 55.03C67.02 55.03 68.33 54.28 69.05 54.93 69.05 54.93 68.59 53.84 69.44 53.45 69.44 53.45 67.28 53.9 66.91 52.88 66.54 51.86 67.68 51.81 67.68 51.81 67.68 51.81 66.23 51.42 66.41 50.29 66.41 50.29 66.12 51.57 64.93 51.43 64.93 51.43 66.29 51.68 65.67 52.7 65.67 52.71 67.9 53.65 67.02 55.03Z" fill="#EEEEEE"/><g><path d="M46.48 52.91C46.48 52.91 46.54 52.66 46.69 52.41 46.61 52.7 46.48 52.91 46.48 52.91Z" fill="#EEEEEE"/><path d="M32.34 57.4C28.82 55.87 26.94 58.3 26.94 58.3 26.94 58.3 27 54.8 32.4 56.32 32.4 56.32 32.9 54.83 34.52 55.48 34.71 56.56 35.6 56.23 35.6 56.23 35.13 55.09 36.61 54.86 36.61 54.86 36.58 54.37 37.4 53.81 37.4 53.81 37.4 53.81 37.67 50.83 42.61 52.03 42.61 52.03 44.9 50.79 46.48 52.9 44.29 51.76 41.9 52.98 41.9 52.98 40.83 52.67 40.07 53.43 40.07 53.43 38.56 53.23 38.12 54.14 38.12 54.14 37.28 54.02 37.12 55.16 37.12 55.16 35.88 55.34 36.4 56.61 36.4 56.61 36.27 56.91 36.21 57.06 36.08 57.36 36.4 58.27 37.32 58.12 37.32 58.12 37.32 58.12 36.47 59.18 37.64 59.43 38.81 59.67 39.13 58.79 39.13 58.79 40.34 59.26 40.9 58.27 40.9 58.27 40.54 59.13 41.71 59.46 41.71 59.46 42.99 58.51 41.25 57.41 41.25 57.41 42.82 58.21 43.69 57.42 43.69 57.42 42.86 58.59 43.72 59.85 43.72 59.85 42.39 59.39 41.83 60.54 41.83 60.54 40.74 60 39.93 60.87 39.93 60.87 39.31 59.33 37.11 60.62 37.11 60.62 35.66 60.53 35.69 61.67 35.69 61.67 33.42 61.18 33.82 62.71 33.82 62.71 32.57 61 30.18 61.75 30.18 61.75 31.13 61.19 31.6 60.91 32.54 60.35 34.27 60.58 34 59.42 34 59.42 36.02 59.07 34.65 57.63 34.65 57.63 33.59 56.5 32.34 57.4 32.34 57.4Z" fill="#EEEEEE"/></g></g><g><path d="M6.11 6.89C6.11 6.89 4.08 6.56 4.69 5.29 5.3 4.02 7.46 5.23 7.46 5.23 7.46 5.23 7.27 4.6 8.51 4.32 9.75 4.04 10.37 4.69 10.37 4.69 10.37 4.69 9.47 2.71 11.76 2.01 14.05 1.31 15.15 2.64 15.15 2.64 15.15 2.64 14.55 1.54 16.54 1.29 16.54 1.29 16.09-0.07 18.25 0 20.41 0.07 20.06 1.34 20.06 1.34 20.06 1.34 20.64 1.1 21.41 1.36 22.18 1.62 21.92 2.51 21.92 2.51 21.92 2.51 22.18 0.7 25.14 0.58 28.1 0.46 27.44 1.66 27.44 1.66 27.44 1.66 28.95 0.27 30.18 2.12 30.18 2.12 30.03 0.96 32.28 0.68 34.53 0.4 34.7 1.81 34.7 1.81 34.7 1.81 35.1 1.4 35.9 1.89 36.7 2.38 36.58 2.93 36.58 2.93 36.58 2.93 37.07 2.26 38.07 3.03 38.07 3.03 38.9 2.09 40.17 2.86 40.17 2.86 42.23 2.77 41.67 3.7 41.67 3.7 43.23 3.02 43.54 3.92 43.85 4.82 41.61 4.76 41.61 4.76 41.61 4.76 42.31 5.75 40.73 5.8 39.15 5.85 38.75 5.08 38.75 5.08 38.75 5.08 39.5 7.13 36.52 7.56 33.55 7.99 33.2 6.54 33.2 6.54 33.2 6.54 33.18 9.49 28.94 9.96 24.69 10.43 23.63 7.92 23.63 7.92 23.63 7.92 23 9.09 20.89 8.73 18.81 8.35 18.8 7.3 18.8 7.3 18.8 7.3 18.36 8.16 16.12 8.25 13.88 8.34 13.87 7.04 13.87 7.04 13.87 7.04 13.01 8.45 11.24 7.96 9.47 7.47 9.38 6.72 9.38 6.72 9.38 6.72 9.03 7.44 7.77 7.43 6.52 7.42 6.11 6.89 6.11 6.89Z" fill="#FFFFFF"/><path d="M38.61 4.01C36.91 3.84 37.52 4.7 37.52 4.7 34.85 6.54 32.53 5.77 32.53 5.77 31.37 7.46 29.9 6.28 29.9 6.28 29.9 6.28 30.32 8.16 27.41 8.58 24.5 9 24.23 6.91 24.23 6.91 20.79 7.89 19.16 6.28 19.16 6.28 16.23 7.28 15.89 5.95 15.89 5.95 14.03 6.37 13.26 5.44 13.26 5.44 12.33 6.26 11 5.77 11 5.77 11 5.77 11.16 6.31 10.52 6.56 9.89 6.81 9.47 6.07 9.47 6.07 7.83 7.17 6.75 6.34 6.75 6.34 5.64 6.53 4.97 6.17 4.57 5.72 4.55 6.63 6.11 6.89 6.11 6.89 6.11 6.89 6.51 7.43 7.77 7.44 9.03 7.45 9.38 6.73 9.38 6.73 9.38 6.73 9.47 7.48 11.24 7.97 13.01 8.46 13.87 7.05 13.87 7.05 13.87 7.05 13.89 8.35 16.12 8.26 18.36 8.16 18.8 7.3 18.8 7.3 18.8 7.3 18.81 8.35 20.91 8.71 23.02 9.07 23.65 7.9 23.65 7.9 23.65 7.9 24.71 10.41 28.96 9.94 33.21 9.47 33.22 6.52 33.22 6.52 33.22 6.52 33.57 7.97 36.54 7.54 39.51 7.11 38.77 5.06 38.77 5.06 38.77 5.06 39.17 5.83 40.75 5.78 42.33 5.73 41.63 4.74 41.63 4.74 41.63 4.74 43.87 4.8 43.56 3.9 43.25 3 41.69 3.68 41.69 3.68 42.25 2.75 40.19 2.84 40.19 2.84 38.92 2.06 38.09 3.01 38.09 3.01 37.2 3.48 38.61 4.01 38.61 4.01Z" fill="#EEEEEE"/><path d="M27.21 6.72C27.21 6.72 27.29 5.2 24.9 5.33 24.9 5.33 24.12 4.32 22.96 4.53 22.96 4.53 24.82 4.13 24.91 3.18 24.91 3.18 26.29 3 26.49 2.29 26.49 2.29 26.39 3.55 27.6 3.35 27.6 3.35 28.62 4.36 29.4 3.24 29.4 3.24 30.91 4.27 31.97 3.8 31.97 3.8 33.5 4.25 34.42 3.63 34.42 3.63 33.41 4.69 32.22 4.48 32.22 4.48 30.38 4.93 29.48 4.35 29.48 4.35 28.99 4.74 29.44 5.52 29.45 5.52 27.64 5.52 27.21 6.72Z" fill="#EEEEEE"/></g></g></svg>