<svg width="603.88" height="211.15" viewBox="0 0 603.88 211.15" xmlns="http://www.w3.org/2000/svg" xmlns:xlink="http://www.w3.org/1999/xlink" overflow="hidden"><defs></defs><g><linearGradient x1="9.4845" y1="113.036" x2="591.328" y2="113.036" gradientUnits="userSpaceOnUse" id="SVGID_2_"><stop offset="0" stop-color="#D0D2D3"/><stop offset="0.2593" stop-color="#BBBDBF"/><stop offset="0.5265" stop-color="#D0D2D3"/><stop offset="0.8122" stop-color="#BBBDBF"/><stop offset="0.9921" stop-color="#D0D2D3"/></linearGradient><g><linearGradient x1="4.7394" y1="8.3295" x2="599.086" y2="182.02" gradientUnits="userSpaceOnUse" id="SVGID_1_"><stop offset="0" stop-color="#F1F1F2"/><stop offset="0.2593" stop-color="#D0D2D3"/><stop offset="0.5265" stop-color="#F1F1F2"/><stop offset="0.8122" stop-color="#D0D2D3"/><stop offset="0.9921" stop-color="#F1F1F2"/></linearGradient><path d="M594.81 183.31 6 183.31C2.7 183.31 0 180.61 0 177.31L0 12.16C0 8.86 2.7 6.16 6 6.16L594.81 6.16C598.11 6.16 600.81 8.86 600.81 12.16L600.81 177.31C600.81 180.61 598.11 183.31 594.81 183.31Z" fill="url(#SVGID_1_)"/></g><path d="M584.58 15.67 16.23 15.67C12.93 15.67 10.23 18.37 10.23 21.67L10.23 167.8C10.23 171.1 12.93 173.8 16.23 173.8L48.2 173.8C48.2 173.8 47.25 200.15 33.42 210.4 53.92 205.79 70.83 180.24 73.9 173.8L584.58 173.8C587.88 173.8 590.58 171.1 590.58 167.8L590.58 21.67C590.58 18.37 587.88 15.67 584.58 15.67Z" stroke="url(#SVGID_2_)" stroke-width="1.5" stroke-linecap="round" stroke-linejoin="round" stroke-miterlimit="10" fill="#FFFFFF"/><g><linearGradient x1="548.119" y1="-11.5968" x2="616.475" y2="34.9043" gradientUnits="userSpaceOnUse" id="SVGID_3_"><stop offset="0" stop-color="#F1F1F2"/><stop offset="0.2593" stop-color="#D0D2D3"/><stop offset="0.5265" stop-color="#F1F1F2"/><stop offset="0.8122" stop-color="#D0D2D3"/><stop offset="0.9921" stop-color="#F1F1F2"/></linearGradient><linearGradient x1="572.532" y1="15.6736" x2="603.88" y2="15.6736" gradientUnits="userSpaceOnUse" id="SVGID_4_"><stop offset="0" stop-color="#D0D2D3"/><stop offset="0.2593" stop-color="#BBBDBF"/><stop offset="0.5265" stop-color="#D0D2D3"/><stop offset="0.8122" stop-color="#BBBDBF"/><stop offset="0.9921" stop-color="#D0D2D3"/></linearGradient><path d="M597.13 30.6 579.28 30.6C575.98 30.6 573.28 27.9 573.28 24.6L573.28 6.75C573.28 3.45 575.98 0.75 579.28 0.75L597.13 0.75C600.43 0.75 603.13 3.45 603.13 6.75L603.13 24.6C603.13 27.9 600.43 30.6 597.13 30.6Z" stroke="url(#SVGID_4_)" stroke-width="1.5" stroke-miterlimit="10" fill="url(#SVGID_3_)"/><g><line x1="593.45" y1="10.74" x2="583.58" y2="20.61" stroke="#58595B" stroke-width="2" stroke-linecap="round" stroke-miterlimit="10" fill="none"/><line x1="593.45" y1="20.61" x2="583.58" y2="10.74" stroke="#58595B" stroke-width="2" stroke-linecap="round" stroke-miterlimit="10" fill="none"/></g></g></g></svg>