<svg width="226.33" height="45.82" viewBox="0 0 226.33 45.82" xmlns="http://www.w3.org/2000/svg" xmlns:xlink="http://www.w3.org/1999/xlink" overflow="hidden"><defs></defs><g><path d="M63.02 38.48C62.94 34.3 63.9 30.34 65.64 26.84 64.75 26.74 63.85 26.68 62.93 26.7 61.95 26.72 61 26.83 60.05 26.97 56.26 20.73 49.37 16.61 41.55 16.75 33.67 16.89 26.89 21.33 23.35 27.78 22.43 27.68 21.5 27.61 20.55 27.63 10.02 27.81 1.43 35.69 0 45.82L65.13 45.82C63.84 43.98 63.08 41.59 63.02 38.48Z" fill="#29B473"/><path d="M161.85 45.82 226.33 45.82C226.26 38.48 220.51 32.37 213.08 31.97 212.46 31.94 211.86 31.96 211.26 32 209.08 27.64 204.69 24.54 199.47 24.26 197.95 24.18 196.49 24.35 195.1 24.72 193.05 20.01 188.48 16.6 183.01 16.31 177.62 16.02 172.79 18.82 170.21 23.15 169.1 22.8 167.94 22.57 166.73 22.5 164.27 22.37 161.93 22.89 159.86 23.9 162.09 27.57 163.41 31.86 163.5 36.46 163.55 39.76 162.96 42.91 161.85 45.82Z" fill="#29B473"/><path d="M65.13 45.82 161.86 45.82C162.96 42.91 163.56 39.76 163.5 36.46 163.42 31.86 162.09 27.57 159.86 23.9 155.37 16.51 147.19 11.63 137.92 11.8 136.76 11.82 135.63 11.93 134.52 12.1 130.02 4.71 121.84-0.16 112.57 0 103.24 0.17 95.19 5.42 91 13.06 89.91 12.94 88.81 12.88 87.69 12.9 78 13.08 69.7 18.72 65.65 26.83 63.91 30.33 62.95 34.29 63.03 38.47 63.08 41.59 63.84 43.98 65.13 45.82Z" fill="#1F9B5D"/></g></svg>