<svg width="78.09" height="75.85" viewBox="0 0 78.09 75.85" xmlns="http://www.w3.org/2000/svg" xmlns:xlink="http://www.w3.org/1999/xlink" overflow="hidden"><defs></defs><g><path d="M68.41 75.85 9.67 75.85C4.35 75.85 0 71.49 0 66.17L0 9.67C0 4.35 4.35 0 9.67 0L68.41 0C73.73 0 78.08 4.35 78.08 9.67L78.08 66.17C78.09 71.49 73.73 75.85 68.41 75.85Z" fill="#A6A8AB"/><path d="M64.95 72.49 13.13 72.49C7.81 72.49 3.46 68.14 3.46 62.82L3.46 13.03C3.46 7.71 7.81 3.36 13.13 3.36L64.95 3.36C70.27 3.36 74.62 7.71 74.62 13.03L74.62 62.81C74.63 68.13 70.27 72.49 64.95 72.49Z" fill="#D0D2D3"/><rect x="13.79" y="11.64" width="51.67" height="14.11" fill="#A6A8AB"/><line x1="20.32" y1="18.7" x2="58.53" y2="18.7" stroke="#FFFFFF" stroke-miterlimit="10" fill="#231F20"/><line x1="20.32" y1="31.75" x2="58.53" y2="31.75" stroke="#FFFFFF" stroke-miterlimit="10" fill="#231F20"/><line x1="20.32" y1="36.03" x2="58.53" y2="36.03" stroke="#FFFFFF" stroke-miterlimit="10" fill="#231F20"/><line x1="20.32" y1="40.31" x2="58.53" y2="40.31" stroke="#FFFFFF" stroke-miterlimit="10" fill="#231F20"/></g></svg>