<svg width="88.17" height="144.2" viewBox="0 0 88.17 144.2" xmlns="http://www.w3.org/2000/svg" xmlns:xlink="http://www.w3.org/1999/xlink" overflow="hidden"><defs></defs><g><g><rect x="57.26" y="134.5" width="7.71" height="7.71" fill="#093447" transform="matrix(-1 -4.53025e-11 4.53025e-11 -1 122.225 276.704)"/><path d="M54.28 144.18 64.75 144.18C65.81 144.18 66.68 143.31 66.68 142.25L66.68 142.25C66.68 141.19 65.81 140.32 64.75 140.32L54.28 140.32C53.22 140.32 52.35 141.19 52.35 142.25L52.35 142.25C52.35 143.31 53.22 144.18 54.28 144.18Z" fill="#2570A7"/></g><g><rect x="33.97" y="134.5" width="7.71" height="7.71" fill="#093447" transform="matrix(-1 -4.55384e-11 4.55384e-11 -1 75.6397 276.704)"/><path d="M30.99 144.18 41.46 144.18C42.52 144.18 43.39 143.31 43.39 142.25L43.39 142.25C43.39 141.19 42.52 140.32 41.46 140.32L30.99 140.32C29.93 140.32 29.06 141.19 29.06 142.25L29.06 142.25C29.06 143.31 29.93 144.18 30.99 144.18Z" fill="#2570A7"/></g><path d="M13.45 115.05 29.46 107.51 28.13 97.77 9.49 107.32Z" fill="#164E6C"/><path d="M31.5 136.75 67.06 136.75C70.36 136.75 73.06 134.05 73.06 130.75L73.06 96.94C73.06 93.64 70.36 90.94 67.06 90.94L31.5 90.94C28.2 90.94 25.5 93.64 25.5 96.94L25.5 130.75C25.5 134.05 28.2 136.75 31.5 136.75Z" fill="#2570A7"/><rect x="25.5" y="118.01" width="30.17" height="3" fill="#FDB82D" transform="matrix(-1 -4.51049e-11 4.51049e-11 -1 81.1613 239.023)"/><g><path d="M72.9 91.23C74.48 92.1 75.99 93.4 77.1 94.71 81.91 100.41 82.38 109.31 78.01 115.46 78 115.47 77.99 115.48 77.98 115.5 76.61 117.41 74.83 119.02 72.76 120.15 69.8 121.76 66.42 122.64 63.08 123.02 60.45 123.32 55.38 123.95 53.42 121.7 52.12 120.22 51.98 117.72 53.12 116.1 54.37 114.32 56.73 114.27 58.67 113.9 62.73 113.13 70.76 111.6 70.09 105.37 69.58 100.63 60.19 97.01 64.22 93.9 68.1 90.93 69.77 89.51 72.9 91.23Z" fill="#164E6C"/><circle cx="54.03" cy="117.89" r="5.46" fill="#F4B68C"/></g><circle cx="37" cy="119.51" r="3.03" fill="#FDB82D"/><circle cx="37" cy="119.51" r="2.14" fill="#F05A28"/><g><path d="M36.87 122.31 38.68 125.12C38.81 125.32 39.08 125.38 39.28 125.25L39.28 125.25C39.48 125.12 39.54 124.85 39.41 124.65L37.6 121.84C37.47 121.64 37.2 121.58 37 121.71L37 121.71C36.8 121.84 36.74 122.11 36.87 122.31Z" fill="#FDB82D"/><path d="M37.13 122.31 35.32 125.12C35.19 125.32 34.92 125.38 34.72 125.25L34.72 125.25C34.52 125.12 34.46 124.85 34.59 124.65L36.4 121.84C36.53 121.64 36.8 121.58 37 121.71L37 121.71C37.2 121.84 37.26 122.11 37.13 122.31Z" fill="#FDB82D"/></g><ellipse cx="46.11" cy="90.94" rx="19.66" ry="15.82" fill="#4C231D"/><ellipse cx="13.56" cy="110.2" rx="1.16" ry="3.65" fill="#F4B68C" transform="matrix(1 -0.00658101 0.00658101 1 -0.7249 0.0916)"/><g><path d="M13.56 142.34C13.56 143.36 12.72 144.2 11.7 144.2 10.68 144.2 9.84 143.36 9.84 142.34L9.84 100.08 13.56 100.08 13.56 142.34Z" fill="#333333"/><path d="M11.7 90.53C12.72 90.53 13.56 91.37 13.56 92.39L13.56 100.08 9.84 100.08 9.84 92.39C9.84 91.37 10.68 90.53 11.7 90.53Z" fill="#666666"/></g><g><path d="M5.26 111.19C5.11 108.44 6.42 106.13 8.51 106.02 10.6 105.91 11.53 108.09 11.68 110.85 11.83 113.61 11.13 115.88 9.05 115.99 6.97 116.1 5.41 113.95 5.26 111.19Z" fill="#F4B68C"/></g><g><path d="M11.7 73.06C14.88 79 17.46 81.58 23.4 84.76L11.7 84.76 11.7 73.06Z" fill="#FFC257"/><path d="M23.41 84.77C17.47 87.95 14.89 90.53 11.71 96.47L11.71 84.77 23.41 84.77Z" fill="#F28E3D"/><path d="M11.7 96.47C8.52 90.53 5.94 87.95 0 84.77L11.7 84.77 11.7 96.47Z" fill="#FFC257"/><path d="M11.7 73.06 11.7 84.76 0 84.76C5.94 81.58 8.52 79 11.7 73.06Z" fill="#FFD48F"/></g><g><g><g><path d="M17.8 72.8C17.8 57.62 30.11 45.31 45.29 45.31 60.47 45.31 77.58 58.95 77.58 74.13 77.58 89.31 60.47 100.28 45.29 100.28 30.11 100.28 17.8 87.98 17.8 72.8Z" fill="#F4B68C"/></g><g><line x1="56.66" y1="67.6" x2="45.24" y2="67.6" stroke="#E2E2E2" stroke-width="2" stroke-linecap="round" stroke-miterlimit="10" fill="#FFFFFF"/><circle cx="47.68" cy="71.89" r="1.58" fill="#231F20"/></g><g><line x1="17.48" y1="67.6" x2="28.89" y2="67.6" stroke="#E2E2E2" stroke-width="2" stroke-linecap="round" stroke-miterlimit="10" fill="#FFFFFF"/><circle cx="24.87" cy="71.89" r="1.58" fill="#231F20"/></g><line x1="41.51" y1="89.23" x2="30.94" y2="89.23" stroke="#E87654" stroke-width="1.2126" stroke-linecap="round" stroke-miterlimit="10" fill="none"/><path d="M36.23 78.97C41.63 78.97 46.01 81.86 46.01 85.43L26.45 85.43C26.45 81.86 30.83 78.97 36.23 78.97Z" fill="#E2E2E2"/><path d="M34.58 80.47 37.86 80.47C38.69 80.47 39.36 79.79 39.36 78.97L39.36 78.97C39.36 78.14 38.68 77.47 37.86 77.47L34.58 77.47C33.75 77.47 33.08 78.15 33.08 78.97L33.08 78.97C33.08 79.8 33.76 80.47 34.58 80.47Z" fill="#FC8165"/></g><path d="M79.39 98.31C79.39 98.31 79.84 66 78.94 60.2 78.04 54.4 74.48 51.51 74.48 51.51L62.96 51.17C62.96 51.17 67.25 53.96 69.53 56.34 72.92 59.87 69.61 81.81 69.61 81.81 69.61 81.81 54.05 97.45 41.34 97.45 28.63 97.45 22.35 87.94 19.04 80.47 19.26 84.68 25.73 111.54 43.35 112.43 60.97 113.32 73.77 91.75 73.77 91.75 73.77 91.75 77.45 94.52 79.39 98.31Z" fill="#E2E2E2"/><circle cx="70.77" cy="76.01" r="5.81" fill="#F4B68C"/><circle cx="70.77" cy="76.01" r="2.55" fill="#FC8165"/></g><g><path d="M63.36 51.19 74.48 51.52C74.48 51.52 77.4 53.9 78.62 58.66L21.71 58.66C23.44 55.78 25.69 53.25 28.32 51.18L63.34 51.18C63.35 51.18 63.36 51.19 63.36 51.19Z" fill="#404041" opacity="0.2"/><g><path d="M50.28 53.09 17.67 53.09 24.63 46.73 50.28 0 75.93 46.73 82.89 53.09Z" fill="#2570A7"/><path d="M50.28 0 75.93 46.73 82.89 53.09C82.89 53.09 75.72 53.09 68.81 53.09L50.28 0Z" fill="#1F5682"/><path d="M14.72 53.09 85.83 53.09C87.11 53.09 88.17 54.14 88.17 55.43L88.17 55.43C88.17 56.71 87.12 57.77 85.83 57.77L14.72 57.77C13.44 57.77 12.38 56.72 12.38 55.43L12.38 55.43C12.38 54.14 13.44 53.09 14.72 53.09Z" fill="#FDB82D"/></g></g><g><circle cx="49.86" cy="12.67" r="2.62" fill="#FFC257"/><circle cx="44.83" cy="21.72" r="1.34" fill="#FFC257"/><circle cx="30.94" cy="47.43" r="1.34" fill="#FFC257"/><circle cx="42.14" cy="42.34" r="6.43" fill="#FFC257"/><circle cx="56.66" cy="27.92" r="4.31" fill="#FFC257"/><circle cx="64.97" cy="45.31" r="2.61" fill="#FFC257"/></g></g></svg>