<svg width="126.04" height="66.27" viewBox="0 0 126.04 66.27" xmlns="http://www.w3.org/2000/svg" xmlns:xlink="http://www.w3.org/1999/xlink" overflow="hidden"><defs></defs><path d="M111.07 36.33C108.76 36.33 106.59 36.87 104.64 37.8 103.88 25.34 93.53 15.47 80.88 15.47 77.83 15.47 74.92 16.05 72.24 17.09 68.29 7.08 58.54 0 47.13 0 32.54 0 20.67 11.56 20.15 26.02 20.14 26.02 20.13 26.02 20.13 26.02 9.01 26.02 0 35.03 0 46.15 0 57.27 9.01 66.28 20.13 66.28L111.07 66.28C119.34 66.28 126.04 59.58 126.04 51.31 126.04 43.04 119.34 36.33 111.07 36.33ZM60.33 51.3 58.9 51.3C59.27 51.12 59.64 50.93 60 50.74 60.11 50.93 60.22 51.11 60.33 51.3Z" fill="#FFFFFF"/></svg>