<svg width="84.82" height="93.69" viewBox="0 0 84.82 93.69" xmlns="http://www.w3.org/2000/svg" xmlns:xlink="http://www.w3.org/1999/xlink" overflow="hidden"><defs></defs><g><linearGradient x1="-27.5758" y1="-37.3107" x2="-9.632" y2="-37.3107" gradientUnits="userSpaceOnUse" id="SVGID_1_" gradientTransform="matrix(0.9985 0.0557 -0.0557 0.9985 79.4898 63.5473)"><stop offset="0.0545" stop-color="#FFC931"/><stop offset="0.3879" stop-color="#FFAA00"/><stop offset="1" stop-color="#FF6315"/></linearGradient><linearGradient x1="-25.492" y1="-50.3453" x2="-25.4084" y2="-50.3453" gradientUnits="userSpaceOnUse" id="SVGID_2_" gradientTransform="matrix(0.9985 0.0557 -0.0557 0.9985 79.4898 63.5473)"><stop offset="0.0545" stop-color="#FFC931"/><stop offset="0.3879" stop-color="#FFAA00"/><stop offset="1" stop-color="#FF6315"/></linearGradient><linearGradient x1="-37.7342" y1="-61.4181" x2="-37.7342" y2="6.2133" gradientUnits="userSpaceOnUse" id="SVGID_3_" gradientTransform="matrix(0.9985 0.0557 -0.0557 0.9985 79.4898 63.5473)"><stop offset="0.0545" stop-color="#FFC931"/><stop offset="0.3879" stop-color="#FFAA00"/><stop offset="1" stop-color="#FF6315"/></linearGradient><path d="M54.36 18.98C54.29 21.72 55.55 23.34 56.77 25.67 58.48 28.91 60.57 31.95 63.23 34.54 64.16 35.44 70.25 39.81 71.18 38.35 71.67 37.58 69.96 35.69 69.39 35.28 67.95 34.23 67.61 34.47 66.83 32.79 65.69 30.33 63.81 29.23 62.37 27.08 60.94 24.96 60.92 22.36 60.02 20 59.24 17.95 57.66 13.64 56.92 11.94 57.05 12.98 54.39 17.77 54.36 18.98Z" fill="url(#SVGID_1_)"/><path d="M56.92 11.95C56.91 11.87 56.89 11.81 56.85 11.78 56.87 11.83 56.9 11.89 56.92 11.95Z" fill="url(#SVGID_2_)"/><path d="M21.42 31.28C21.35 31.75 21.34 32.25 21.2 32.69L21.13 32.72C21.36 32.86 21.96 32.61 22.25 32.61 22.65 32.61 23.14 32.85 23.08 32.32 22.97 31.41 22.11 30.84 21.71 30.08 21.64 30.47 21.48 30.87 21.42 31.28Z" fill="#6B0C03"/><path d="M69.13 40.99 69.27 41C69.22 40.96 69.18 40.92 69.13 40.89 69.13 40.92 69.13 40.96 69.13 40.99Z" fill="#6B0C03"/><path d="M67.64 40.65C68.18 40.7 68.69 40.58 69.13 40.89 69.21 39.7 69.46 38.53 69.51 37.38 69.2 37.27 68.34 37.9 68.02 38.04 67.4 38.32 66.76 38.5 66.27 38.99 65.81 39.44 65.56 39.85 66.19 40.23 66.64 40.5 67.13 40.6 67.64 40.65Z" fill="#6B0C03"/><path d="M84.02 47.14 83 46.72C80.26 45.78 77.06 45.59 74.13 45.27 67.64 44.55 61.34 45.3 55.36 47.81 49.1 50.43 41.9 55.51 39.3 62.18 37.47 66.86 36 72.34 36.47 77.43 36.97 82.83 39.49 88.27 39.12 93.69 42.13 93.2 44.63 89.72 47.79 88.85 47.79 88.85 50.08 90.56 53.31 88.06 57.66 84.68 62.09 80.74 67.1 79.63 72.66 78.41 75.17 72.72 78.17 71.11 80.83 65.72 77.9 64.39 80.4 60.4 83.56 55.38 82.21 51.46 84.02 47.14Z" fill="#7A0D05"/><path d="M51.86 88.77C51.89 88.82 51.91 88.86 51.94 88.91 52.38 88.71 52.83 88.44 53.31 88.06 54.83 86.88 56.35 85.63 57.91 84.46 58.14 82.43 58.6 80.41 59.03 78.37 59.52 76 60.21 73.18 59.37 70.8 59.01 69.76 56.55 67.69 56.55 67.69 55.55 70.17 55.18 75.22 54.39 77.78 53.64 80.24 52.92 82.72 52.37 85.23 52.17 86.14 51.97 87.05 51.88 87.97 51.83 88.55 51.87 88.76 51.86 88.77Z" fill="#6B0C03"/><path d="M56.56 69.96C56.19 75.98 55.63 82.86 53.73 87.75 54.8 86.91 55.88 86.05 56.97 85.21 57.3 83.5 57.69 81.79 58.04 80.07 58.59 77.34 57 72.37 56.56 69.96Z" fill="#560202"/><path d="M73.5 67.36C72.61 70.54 72.34 73.85 71.91 77.12 74.45 74.96 76.21 72.17 78.17 71.11 80.83 65.72 77.9 64.39 80.4 60.4 83.56 55.37 82.21 51.45 84.02 47.13L83 46.72C82.92 46.69 82.83 46.67 82.75 46.65 80.97 47.53 79.24 48.52 77.54 49.55 78.73 49.64 79.8 49.99 80.93 50.44 82.17 50.93 82.37 52.41 81.71 53.26 80.14 58.67 75.01 61.93 73.5 67.36Z" fill="#6B0C03"/><path d="M82 57.04C80.39 59.5 78.62 61.84 76.81 64.16 75.69 67.56 74.51 70.93 73.47 74.35 75.16 71.74 77.12 69.44 79.33 67.34 79.59 64.76 78.61 63.26 80.4 60.41 81.14 59.23 81.64 58.12 82 57.04Z" fill="#560202"/><path d="M40.22 67.27C40.11 67.28 39.99 67.28 39.88 67.27 39.28 73.6 38.83 79.94 38.29 86.27 38.86 88.75 39.3 91.23 39.13 93.7 40.55 93.47 41.85 92.57 43.17 91.6 43.17 91.2 43.17 90.8 43.16 90.39 43.15 88.51 43.18 86.54 42.66 84.72 42.22 83.19 41.36 81.67 41.17 80.08 40.54 74.74 42.74 70.56 46.09 66.86 44.17 67.08 42.22 67.11 40.22 67.27Z" fill="#6B0C03"/><path d="M60.76 82.47C61.91 81.73 63.08 81.08 64.28 80.57 64.44 79.22 64.63 77.87 64.88 76.53 65.48 73.28 66.64 70.67 67.88 67.66 68.99 64.97 68.49 61.99 69.57 59.33 70.42 57.23 71.52 55.37 72.19 53.29 70.89 53.95 69.28 54.32 67.98 54.23 66.4 54.13 64.78 53.81 63.21 54.26 63.31 54.23 58.64 55.09 59.75 55.68 60.05 55.71 61.27 56.14 61.52 56.26 61.66 56.32 65.22 56.38 65.22 56.38 62.27 62.42 62.33 71.53 61.46 78.06 61.27 79.54 61.04 81.02 60.76 82.47Z" fill="#6B0C03"/><path d="M60.76 82.47C61.05 82.28 61.34 82.1 61.64 81.93 61.93 79.31 62.43 76.72 62.87 74.11 63.34 71.3 63.62 68.46 64.33 65.7 65.56 60.96 66.87 57.63 70.85 54.64 71.17 54.4 71.51 54.29 71.84 54.27 71.97 53.95 72.09 53.62 72.19 53.29 70.89 53.95 69.28 54.32 67.98 54.23 66.4 54.13 64.78 53.81 63.21 54.26 63.31 54.23 58.64 55.09 59.75 55.68 60.05 55.71 61.27 56.14 61.52 56.26 61.66 56.32 65.22 56.38 65.22 56.38 62.27 62.42 62.33 71.53 61.46 78.06 61.27 79.54 61.04 81.02 60.76 82.47Z" fill="#560202"/><path d="M50.74 73.88C52.2 70.44 51.95 66.93 54.5 63.57 55.08 62.8 59 58.6 59.19 57.7 56.45 58.58 48.39 63.52 46.79 65.99 46.95 68.81 47.11 71.66 46.93 74.48 46.75 77.33 46.24 80.12 46.46 82.99 46.62 85.1 46.89 87.22 47.07 89.33 47.34 89.2 47.6 89.09 47.88 89 47.81 86.76 48.46 84.62 48.92 82.39 49.5 79.45 49.54 76.69 50.74 73.88Z" fill="#6B0C03"/><path d="M54.06 61.2C54.09 61.07 54.11 60.93 54.14 60.8 51.39 61.63 48.56 63.46 46.91 65.9 47.03 68.73 47.13 71.57 46.9 74.39 46.67 77.24 46.12 80.02 46.29 82.88 46.41 84.99 46.65 87.11 46.79 89.23 47.02 89.12 47.27 89.03 47.51 88.95 47.59 83.67 47.82 78.4 48.3 73.14 48.77 68.11 51.31 65.15 54.06 61.2Z" fill="#560202"/><path d="M40.16 62.62C38.26 56.33 29.35 50.3 23.85 47.33 18.34 44.36 10.68 43.94 4.56 43.3 2.91 43.13 1.59 42.98 0.15 42.42-0.12 47.35-0.25 52.63 1.81 56.97 2.66 58.76 3.31 65.4 5.08 69.26 6.28 71.87 7.68 71.37 9.77 72.36 13.04 73.91 14.45 78.75 19.94 82.18 21.9 83.4 23.01 86.31 27.14 87.95 29.5 88.89 32.48 88.52 32.48 88.52 34.87 89.64 34.82 91.93 39.13 93.69 39.55 88.79 39.39 83.73 39.68 78.5 39.95 73.78 41.51 67.07 40.16 62.62Z" fill="#AA2805"/><path d="M16.5 79.39C17.46 80.36 18.56 81.31 19.95 82.17 21.13 82.91 22 84.26 23.42 85.57 22.49 82.86 21.64 80.14 21.12 77.33 20.45 73.68 20.33 69.85 19.55 66.2 19.54 66.24 19.53 66.27 19.52 66.31 19.93 68.15 20.03 70.42 19.67 72.61 19.52 75.67 18.73 78.44 16.5 79.39Z" fill="#7C1D04"/><path d="M40.17 67.97C39.46 67.35 38.34 66.39 37.38 66.1 37.39 66.18 37.4 66.27 37.41 66.38 37.44 66.51 37.47 66.63 37.51 66.75 37.63 66.87 37.75 67 37.85 67.16 40.46 71.31 39.05 76.09 38.96 80.66 38.88 84.6 39.17 88.53 39.23 92.47 39.53 87.95 39.43 83.29 39.69 78.5 39.85 75.53 40.53 71.77 40.68 68.28 40.5 68.21 40.33 68.11 40.17 67.97Z" fill="#CC2206"/><path d="M35.63 91.44C35.54 88.16 35.32 84.89 35.39 81.6 35.42 80.1 35.64 78.48 35.8 76.85 35.11 74.08 34.4 71.33 34.19 68.5 33.6 66.48 33.11 64.2 34.57 63.17 34.96 62.89 35.36 62.71 35.77 62.59 35.53 62.41 35.26 62.27 34.96 62.16 33.88 62.7 32.71 63.04 31.49 63.19 33.22 69.01 33.8 75.04 33.36 81.02 33.38 81.08 33.4 81.14 33.42 81.19 33.68 82.24 33.37 83.44 33.1 84.47 33.11 84.56 33.12 84.65 33.11 84.75 33.03 86.08 32.91 87.36 32.66 88.61 33.96 89.3 34.53 90.34 35.63 91.44Z" fill="#CC2206"/><path d="M0.7 42.61C0.52 42.55 0.33 42.48 0.15 42.41-0.12 47.34-0.25 52.62 1.81 56.96 2.66 58.75 3.31 65.39 5.08 69.25 5.78 70.76 6.54 71.23 7.46 71.55 5.69 67.27 2.4 60.68 4.85 56.59 3.63 55.63 1.85 53.22 1.85 53.22 1.83 53.6 1.09 50.7 1.09 47.63 1.11 46.22 1.2 44.82 1.45 43.42 1.17 43.17 0.93 42.91 0.7 42.61Z" fill="#CC2206"/><path d="M13.59 76C13.81 73.81 14.09 71.62 14.23 69.42 14.53 64.41 12.61 59.44 14.74 54.68 14.35 54.26 14.03 53.82 13.75 53.37 12.7 52.68 11.79 51.8 10.69 51.23 10.63 51.93 10.54 52.62 10.41 53.3 10.41 53.38 10.42 53.46 10.42 53.54 11.27 56.39 11.58 59.29 11.91 62.28 11.96 62.41 12.01 62.57 12.03 62.74 12.12 63.45 12.22 64.16 12.29 64.86 12.43 65.11 12.51 65.4 12.51 65.75 12.51 68.67 12.67 71.55 12.31 74.44 12.73 74.93 13.15 75.44 13.59 76Z" fill="#CC2206"/><path d="M12.9 47.92C11.34 47.57 7.5 46.85 7.14 46.85 7.26 49.69 7.36 52.56 7.95 55.34 8.58 58.29 9.93 60.94 10.72 63.83 11.67 67.31 12.06 70.87 12.33 74.44 12.59 74.73 12.84 75.04 13.1 75.37 13.28 69.63 13.3 63.87 12.41 58.22 11.9 54.97 11.64 53.91 11.49 51.86 11.77 51.5 13.16 48 12.9 47.92Z" fill="#871307"/><path d="M12.9 47.92C11.34 47.57 2.7 44.31 2.35 44.31 3.42 46.41 6.39 48.11 7.47 48.48 10.25 49.64 10.12 51.51 10.52 53.75 11.05 56.69 11.53 59.68 11.96 62.64 12.52 66.52 13.1 70.87 12.81 75.03 12.9 75.15 13 75.25 13.09 75.37 13.27 69.63 13.29 63.87 12.4 58.22 11.89 54.97 11.69 53.81 11.55 51.76 11.83 51.4 13.16 48 12.9 47.92Z" fill="#6B0C03"/><path d="M38.61 61.02C35.72 60.94 26.81 59.09 27.4 60.95 29.26 64.02 31.13 68.49 32.01 76.86 32.42 80.79 32.25 84.58 32.48 88.53 32.64 88.62 33.08 88.87 33.22 88.97 33.54 86.9 33.94 84.83 34.23 82.73 35.06 76.81 33.45 70.05 33.25 64.13 33.26 64.11 37.6 62.16 38.61 61.02Z" fill="#871307"/><path d="M38.61 61.02C35.72 60.94 22.26 54.77 19.47 55.59L22.66 58.15C25.56 59.45 30.04 63.85 30.02 63.97 30.68 64.43 32.87 70.45 33.21 72.89 33.91 77.96 34.06 83.67 32.85 88.72 32.98 88.8 33.11 88.88 33.23 88.96 33.55 86.89 33.95 84.82 34.24 82.72 35.07 76.8 33.46 70.04 33.26 64.12 33.26 64.11 37.6 62.16 38.61 61.02Z" fill="#6B0C03"/><path d="M66.23 63.29C65.89 65.16 66.26 74.77 65.67 76.51 67.45 76.55 67.02 76.11 68.81 76.04 70.25 75.98 73.85 68.77 75.27 68.32 76.68 67.87 79.56 66.33 80.49 65.11 81.39 63.93 81.38 62.93 82.1 61.64 82.83 60.32 83.52 60.38 84.5 59.22 85.51 58.03 83.91 53.61 83.91 53.61L76.77 55.76C76.01 56.04 75.22 56.26 74.45 56.52 74.03 56.66 73.61 56.8 73.2 56.94 71.52 57.54 69.84 58.09 68.1 58.5 68.04 58.51 67.99 58.51 67.94 58.52 67.81 58.57 67.68 58.57 67.56 58.54L67.41 58.58C67.41 58.58 67.35 60.48 67.24 60.96 67.03 61.81 66.39 62.41 66.23 63.29Z" fill="#9B2405"/><path d="M69.36 71.64C68.87 73.11 68.45 74.58 68.17 76.09 68.35 76.07 68.55 76.05 68.81 76.04 68.97 76.03 69.15 75.93 69.36 75.77 70.18 73 71.65 70.53 73.15 67.97 74.27 66.07 75.16 64.13 76 62.09 76.37 61.18 76.96 60.68 75.34 60.45 74.49 60.33 73.65 60.23 72.8 60.15 73.84 61.71 74.8 62.91 73.64 65 72.38 67.26 70.19 69.16 69.36 71.64Z" fill="#B53512"/><path d="M68.95 76.01C70.47 75.53 73.89 68.75 75.27 68.32 76.68 67.87 79.56 66.33 80.49 65.11 81.39 63.93 81.38 62.93 82.1 61.64 82.83 60.32 83.52 60.38 84.5 59.22 85.51 58.03 83.91 53.61 83.91 53.61 83.92 53.4 79.23 54.99 75.52 57.7 74.72 58.5 75.26 60.75 75.26 60.98 75.26 63.76 74.66 65.17 72.39 68.11 70.55 70.47 69.55 73.16 68.95 76.01Z" fill="#771305"/><path d="M68.95 76.01C69.63 75.8 70.68 74.34 71.76 72.75 71.18 69.87 73.41 67.33 75.3 65.1 75.93 63.34 76.49 61.54 77.44 59.96 77.42 59.94 77.4 59.93 77.38 59.91 77.22 59.77 77.05 59.63 76.87 59.5 76.34 59.3 75.68 59.54 75.08 59.62 75.12 60.28 75.24 60.86 75.24 60.97 75.24 63.75 74.64 65.16 72.37 68.1 70.55 70.47 69.55 73.16 68.95 76.01Z" fill="#6B0C03"/><path d="M60.81 84.48C61.78 83.86 62.51 79.62 63.4 76.64 64.18 74.02 68.2 70.5 68.44 67.76L68.3 67.87C66.61 66.27 64.5 67.81 62.91 68.32 60.76 69.01 58.51 68.18 56.55 67.69 56.33 69.27 56.59 71.59 56.65 73.35 56.71 75.26 57.01 83.36 56.96 85.2 58.34 85.78 59.42 85.38 60.81 84.48Z" fill="#771305"/><path d="M61.66 74.19C62.91 71.51 65.98 70.83 68.11 69.02 68.26 68.64 68.37 68.27 68.42 67.92 66.53 69.4 64.07 70.38 61.71 70.51 61.7 70.57 61.69 70.63 61.66 70.69 59.96 75.45 59.36 80.38 58.96 85.38 59.41 85.27 59.86 85.07 60.34 84.78 60.47 82.58 60.72 80.39 60.98 78.2 61.12 76.94 61.12 75.35 61.66 74.19Z" fill="#6B0C03"/><path d="M59.45 85.21C59.79 79.49 61.05 73.11 63.22 67.8 61.2 68.27 58.39 68.15 56.56 67.7 56.34 69.28 56.6 71.6 56.66 73.36 56.72 75.27 57.02 83.37 56.97 85.21 57.86 85.58 58.63 85.53 59.45 85.21Z" fill="#9B2405"/><path d="M58.9 85.38C59.08 85.34 59.26 85.28 59.44 85.21 59.72 80.59 60.62 75.56 62.09 70.99 61.17 71.03 60.23 70.89 59.48 70.52 60.72 72.53 60.49 74.46 59.98 76.68 59.33 79.55 59.13 82.46 58.9 85.38Z" fill="#B53512"/><path d="M7.92 61.68C7.99 63.66 9.08 66.43 9.82 68.35 10.52 70.18 11.22 72.04 11.98 74.79 12.18 74.81 12.6 75.03 12.81 75.03 12.91 72.69 13.1 70.8 12.83 68.44 12.25 63.43 11.88 61.59 11.42 59.08 10.34 59.72 9.12 61.28 7.92 61.68Z" fill="#7C1D04"/><path d="M11.48 59.43C11.46 59.32 11.44 59.2 11.42 59.09 10.34 59.72 9.13 61.28 7.93 61.68 8 63.66 9.09 66.43 9.83 68.35 10.53 70.18 11.23 72.04 11.99 74.79 12.04 74.8 12.11 74.81 12.18 74.84 11.68 72.08 11.25 69.32 10.66 66.56 10.43 65.51 10 64.15 10.32 63.06 10.66 61.82 11.32 60.74 11.48 59.43Z" fill="#60210C"/><path d="M3.44 59.83C5.04 62.3 6.96 64.67 7.94 67.4 8.73 69.61 9.64 73.97 11.97 74.79 11.26 71.03 9.69 66.05 9.1 63.27 8.79 61.79 6.37 57.18 3.44 59.83Z" fill="#871307"/><path d="M3.44 59.83C3.44 59.83 3.44 59.83 3.44 59.83L3.39 59.87C3.41 59.86 3.43 59.85 3.44 59.83Z" fill="#871307"/><path d="M3.44 59.83C3.47 59.88 3.51 59.93 3.54 59.98 3.65 59.98 3.77 60.01 3.88 60.06 7.54 61.9 8.87 64.07 9.78 67.96 10.24 69.95 10.9 71.77 11.67 73.65 11.72 73.78 11.78 73.92 11.82 74.07 11.06 70.42 9.65 65.86 9.09 63.26 8.79 61.79 6.37 57.18 3.44 59.83Z" fill="#BC270A"/><path d="M36.02 87.86C36.12 84.18 37.82 80.02 38.79 76.65 36.89 76.6 36.71 74.17 36.22 72.61 35.75 71.09 35.5 69.1 35.09 67.81L34.88 67.69C35.35 69.43 35.27 71.49 35.67 73.35 35.84 74.15 36.01 74.96 36.29 75.72 36.39 76 36.47 76.35 36.68 76.6 36.9 76.87 37.41 76.92 37.51 77.18 37.69 77.62 37.08 78.74 36.91 79.22 36.59 80.15 36.42 80.79 36.36 81.8 36.3 82.91 36.28 84.03 36.17 85.13 36.08 85.96 35.72 87.07 36.02 87.86Z" fill="#871307"/><path d="M18.87 60.47C18.77 59.75 18.8 56.25 18.64 55.54 18.1 55.14 17.04 55.16 16.42 54.91 16.04 54.76 14.61 54.48 14.81 54.72L14.71 54.61C14.89 55.3 14.42 59.62 14.39 60.33 14.84 60.26 15.79 57.63 16.29 57.7 16.28 59.03 16.4 60.33 15.96 61.45 17.29 62.33 16.71 63.5 16.51 64.82 16.27 66.34 17.37 65.52 17.19 67.05 17.04 68.31 15.82 71.83 15.92 73.1 15.92 73.1 16.74 75.72 16.66 76.48 16.65 76.59 16.7 76.52 16.78 76.32 16.08 72.94 17.32 69.7 18.49 66.52 18.51 65.87 18.53 65.2 18.59 64.54 18.63 64.07 18.68 63.61 18.72 63.14 18.53 61.47 18.83 62.14 18.87 60.47Z" fill="#7C1D04"/><path d="M69.49 37.36C65.15 32.13 59.04 31.7 55.45 28.17 53.67 26.42 45.42 21.83 43.25 20.21 37.93 23.01 34.15 22.75 31.74 25.62 29.36 28.45 24.9 28.55 21.7 30.16 21.85 30.59 22.19 31.62 22.36 32.08 18.47 31.17 13.33 35.06 9.41 37.37 5.99 39.38 0.06 42.25 0.06 42.25 4.13 47.21 7.79 48.23 12.15 49.13 12.42 49.97 11.17 51.18 11.69 52.56 13.32 56.83 27.03 59.39 30.11 63.33 30.86 64.28 35.1 62.43 35.1 62.43 35.06 63.18 33.28 64.11 33.28 64.11 37.21 66.68 39.02 69.16 40.78 69 42.5 68.84 47.33 66.3 48.9 65.44 51.95 63.77 53 61.89 56.23 60.88 60.18 59.64 62.23 59.67 65.25 56.37 63.66 56.12 62.25 55.69 60.61 55.63 64.74 54 69.41 55.57 73.58 53.38 76.89 51.65 80.34 47.64 84.05 47.13 82.88 45.74 79.8 43.11 72.01 38.81L66.95 39.41C67.53 38.99 68.97 37.9 69.49 37.36Z" fill="#E02107"/><path d="M21.16 57.81C20.3 57.64 19.43 57.46 18.58 57.23 18.49 57.22 18.39 57.21 18.3 57.2 19.4 57.68 20.55 58.15 21.69 58.62 21.63 58.58 21.57 58.54 21.51 58.5 21.25 58.32 21.15 58.06 21.16 57.81Z" fill="#EF5F2E"/><path d="M51.27 63.14C49.71 64.51 42.77 68 40.72 68.26 39.2 68.45 38.76 66.68 34.9 64.46 34 63.94 36.15 62.17 36.31 61.74 34.88 61.87 33.51 62.22 32.1 62.72 31.52 62.93 30.23 62.82 29.84 62.4 26.65 58.88 17.69 56.53 15.34 55.36 14.04 54.71 12.15 53.39 12.05 51.86 11.99 50.94 12.53 50.21 12.86 49.36 13.34 48.12 11.2 48.26 10.58 48.09 8.28 47.46 2.2 45.11 0.05 42.25 0.05 42.25 0.04 42.25 0.04 42.25 4.11 47.21 7.77 48.23 12.13 49.13 12.4 49.97 11.15 51.18 11.67 52.56 13.3 56.83 27.01 59.39 30.09 63.33 30.84 64.28 35.08 62.43 35.08 62.43 35.04 63.18 33.26 64.11 33.26 64.11 37.19 66.68 39 69.16 40.76 69 42.48 68.84 47.31 66.3 48.88 65.44 51.93 63.77 52.98 61.89 56.21 60.88 60.16 59.64 62.21 59.67 65.23 56.37 63.64 56.12 62.23 55.69 60.59 55.63 64.72 54 69.39 55.57 73.56 53.38 76.21 51.99 78.96 49.15 81.85 47.81 79.84 48.15 77.94 49.83 76.23 50.91 73.78 52.46 71.83 53.82 68.86 54.06 67 54.22 61.9 54.53 61 55 60.2 55.43 59.48 55.79 60.34 55.91 62.56 56.21 64.31 56.78 64.31 56.78 60.18 60.02 55.96 59.6 54.74 60.27 53.39 61.02 52.41 62.13 51.27 63.14Z" fill="#FF917B"/><path d="M80.21 63.39C80.03 63.93 80.24 65.05 80.04 65.58 80.21 65.42 80.36 65.26 80.48 65.11 81.38 63.93 81.37 62.93 82.09 61.64 82.82 60.32 83.51 60.38 84.49 59.22 85.5 58.03 83.9 53.61 83.9 53.61 83.9 53.57 83.75 53.6 83.49 53.67 82.98 54.66 82.35 55.59 81.53 56.24 82 57.38 82.5 58.85 82.38 59.1 81.52 61 80.75 62.05 80.21 63.39Z" fill="#6B0C03"/><path d="M76.46 66.45C78.07 63.67 79.7 60.92 80.52 57.79 79.06 58.07 76.97 57.35 75.48 57.51 74.96 58.05 77.77 58.76 77.95 59.38 77.95 59.38 77.72 60.73 77.61 61.2 77.23 62.95 76.86 64.7 76.46 66.45Z" fill="#560202"/><path d="M76.44 57.97C76.77 57.82 80.21 58.2 80.58 58.05 83.03 57.09 83.17 55.81 83.82 54.82 84.75 53.4 82.95 52.69 80.57 52.78 77.69 55.74 71.74 57.49 67.39 58.57 68.6 59.94 70.8 59 71.82 59.8 73.38 61.02 75.23 60.96 75.23 60.96 75.23 60.96 77.2 59.96 77.95 59.37 78.34 59.07 75.81 58.25 76.44 57.97Z" fill="#B7230F"/><path d="M75.26 60.57C74.49 60.62 72.64 59.49 71.85 59.36 70.38 59.11 70.87 59.42 69.41 59.06 68.92 58.94 68.23 58.57 67.75 58.49 67.63 58.52 67.51 58.55 67.4 58.58 68.61 59.95 70.81 59.01 71.83 59.81 73.39 61.03 75.24 60.97 75.24 60.97 75.24 60.97 77.21 59.97 77.96 59.38 78.35 59.07 75.81 58.25 76.45 57.97 76.78 57.82 80.22 58.2 80.59 58.05 82.63 57.25 83.07 56.23 83.54 55.34 82.45 56.82 81.22 57.77 77.67 57.12 77.67 57.12 77.66 57.12 77.65 57.12 76.93 57.19 76.26 57.34 75.53 57.56 75.5 57.57 75.47 57.57 75.44 57.58 75.81 57.97 76.08 58.56 76.62 58.78 78.09 59.37 75.83 60.53 75.26 60.57Z" fill="#D63B2B"/><path d="M62.9 71.15C64.03 70.77 67.85 69.12 68.37 68.07 69.11 66.59 63.96 65.68 62.73 66.07 62.73 66.07 60.98 66.9 60.13 67.21 59.1 67.59 57.65 68 56.56 67.7 56.63 67.98 56.83 68.51 57.06 68.81 58.21 70.31 61.15 71.74 62.9 71.15Z" fill="#B7230F"/><path d="M62.9 71.15C63.88 70.82 66.86 69.54 67.99 68.52 64.68 70.77 59.33 71.21 56.93 67.77 56.8 67.75 56.68 67.73 56.56 67.7 56.63 67.98 56.83 68.51 57.06 68.81 58.21 70.31 61.15 71.74 62.9 71.15Z" fill="#D63B2B"/><path d="M4.75 60.47C6.36 60.95 7.81 62.24 9.11 63.27 10.08 62.15 11.33 60.83 11.42 59.09 10.29 58.54 8.93 57.79 8.3 56.72 5.69 57.69 1.14 59.75 4.75 60.47Z" fill="#D82F0E"/><path d="M8.57 62.26C7.83 61.53 5.93 60.56 4.25 60.1 3.4 59.87 3.55 59.55 3.49 59.4 3.26 59.85 3.55 60.23 4.75 60.47 6.36 60.95 7.81 62.24 9.11 63.27 10.06 62.18 11.26 60.9 11.41 59.21 10.96 60.28 10.72 60.6 10.1 61.54 9.81 61.97 8.94 62.63 8.57 62.26Z" fill="#FF917B"/><path d="M26.77 66.62C26.07 67.28 25.66 67.84 25.23 68.69 24.16 70.77 23.58 72.29 23.98 74.77 24.46 77.74 25.35 80.6 26.16 83.49 26.71 85.48 27.48 89.18 29.18 90.52 29.94 89.91 30.89 89.28 31.54 88.56 30.58 85.22 30.21 81.01 30.04 77.38 29.88 73.7 29.48 69.87 29.4 66.25 28.61 65.87 27.29 66.12 26.77 66.62Z" fill="#7C1D04"/><path d="M29.42 66.69C29.42 66.54 29.4 66.39 29.4 66.25 28.62 65.87 27.29 66.13 26.77 66.62 26.07 67.28 25.66 67.84 25.23 68.69 24.16 70.77 23.58 72.29 23.98 74.77 24.46 77.74 25.35 80.6 26.16 83.49 26.71 85.48 27.48 89.18 29.18 90.52 29.82 90 30.59 89.47 31.21 88.88 29.01 86.99 29.04 83.74 28.17 80.82 27.45 78.4 26.9 76.04 27.08 73.5 27.25 71.06 28.45 69.32 29.24 67.06 29.29 66.92 29.35 66.8 29.42 66.69Z" fill="#60210C"/><path d="M25.23 67.84C24.23 67.15 22.64 66.78 21.54 65.99 20.58 65.29 16 62.95 14.79 63.01 14.79 66.54 17.84 71.07 19.12 74.92 20.5 79.07 21.6 81.76 22.49 86.01 22.8 87.51 25.89 87.38 27.17 90.28L29.18 90.54C29.18 90.54 28.91 87.75 28.65 86.63 28.33 85.22 26.57 76.82 26.15 74.1 25.88 72.3 26.77 68.9 25.23 67.84Z" fill="#96110B"/><path d="M26.02 69.19C25.15 69.4 24.24 69.38 23.32 69.31 25.94 72 26.32 76.54 26.75 80.13 27.18 83.69 28.37 87.04 28.97 90.5L29.18 90.53C29.18 90.53 28.91 87.74 28.65 86.62 28.33 85.21 26.57 76.81 26.15 74.09 25.95 72.8 26.35 70.67 26.02 69.19Z" fill="#BC270A"/><path d="M15.12 62.22C13.76 63.32 16.9 67.45 18.74 68.52 20.67 69.64 23.35 69.98 25.54 69.85 27.54 69.74 29.5 66.09 29.5 66.09 28.37 65.24 25.83 64.79 24.07 63.47 21.79 61.77 18.96 59.98 18.96 59.98 17.57 61.17 16.43 61.16 15.12 62.22Z" fill="#D82F0E"/><path d="M15.12 62.22C13.76 63.32 16.9 67.45 18.74 68.52 20.67 69.64 23.35 69.98 25.54 69.85 27.13 69.76 28.68 67.45 29.26 66.5 26.44 69.58 24.03 69.87 19.19 67.82 17.74 67.21 14.48 64.82 15.5 61.95 15.37 62.03 15.25 62.12 15.12 62.22Z" fill="#FF917B"/><path d="M45.99 63.58C45.99 63.56 45.98 63.53 45.98 63.51L45.78 63.71C45.86 63.68 45.93 63.63 45.99 63.58Z" fill="#88442E"/><path d="M44.94 59.5 44.83 59.56C44.86 59.57 44.89 59.57 44.92 59.58 44.92 59.55 44.93 59.52 44.94 59.5Z" fill="#7E3E29"/><path d="M22.77 43.47C22.16 43.3 21.11 43.58 19.63 44.01L19.03 42.81C18.98 43.12 18.73 43.55 18.61 43.91 18.43 44.47 18.42 44.55 17.9 44.69 16.96 44.94 15.95 45.05 14.97 45.17 14.16 45.28 12.88 45.28 12.17 45.63 11.62 45.9 11.07 46.67 10.62 47.09 11.13 46.8 11.71 46.56 12.24 46.28 12.75 46.01 13.29 46.02 13.87 45.98 13.89 46.83 13.85 47.78 13.72 48.58 13.92 47.89 14.38 47.15 14.33 46.43 14.61 46.54 14.83 46.71 15.11 46.81 14.95 46.56 14.78 46.13 14.57 45.92 15.83 45.81 17.09 45.73 18.34 45.62 18.67 44.73 22.05 44.07 22.77 43.47Z" fill="#770303"/><path d="M47.63 46.27C46.93 46.5 46.07 47.59 45.23 48.1 44.98 47.02 44.68 45.98 44.65 44.88 44.13 47.56 44.43 48.9 41.67 50.04 41.61 49.28 41.41 48.56 41.21 47.8 41.97 47.05 42.83 45.69 43.34 45.23 42.46 45.79 41.95 46.55 41.02 46.97 40.89 46.82 40.87 46.65 40.76 46.5L40.17 46.16C41.6 48.67 39.59 50.28 37.95 51.87 38.97 51.32 40.01 51.18 41.01 50.61 40.33 52.35 40.45 53.25 39.17 54.49 38.18 55.45 35.93 56.19 35.56 57.54 37.53 57.99 36.59 59.35 35.43 60.18 35.81 61.15 36.81 61.38 37.22 62.24 37.59 63.01 37.34 64.29 37.41 65.08 38.34 63.8 38.35 62.83 37.7 61.75 36.69 60.08 36.18 60.61 37.66 58.81 37.39 58.47 37.34 57.82 37.07 57.47 38.47 56.74 39.86 55.73 40.87 54.55 42.04 54.99 43.18 55.26 44.36 55.48 42.48 54.4 39.6 54.26 41.48 51.57 42.71 49.81 45.78 49.2 47.63 46.27Z" fill="#770303"/><path d="M26.97 48.98C26.82 48.25 27.91 47.33 27.75 46.6 26.79 47.18 27.17 46.97 26.53 47.48L26.63 47.3C25.35 49.81 24.68 50.27 23.37 52.76 22.81 52.67 22.25 52.64 21.71 52.68 22.2 52.83 22.71 53.01 23.17 53.26 22.16 54.54 21.52 56.23 20.56 57.45 22.01 55.63 23.21 53.73 24.39 52.72 25.02 52.18 25.48 52.27 26.33 51.93 25.91 51.83 25.11 51.86 24.66 51.94 24.79 51.26 25.46 50.36 25.91 49.96 26.7 49.24 29.26 48.92 30.3 48.91 29.86 48.85 29.49 48.72 29.07 48.62 29.61 48.26 30.17 47.9 30.68 47.5 29.86 47.4 27.72 48.6 26.97 48.98Z" fill="#770303"/><path d="M51.39 52.68C52.96 52.64 54.72 55 56.19 54.51 54.87 54 53.3 52.71 51.9 52.5 52.52 52.37 53.41 52.19 53.98 51.88 53.18 51.88 52.33 51.97 51.49 52.08 51.54 51.76 51.61 51.42 51.64 51.09 52.42 50.93 53.25 50.76 54.03 50.56 53.52 50.51 52.86 50.45 52.29 50.35 52.28 49.6 54.98 47.29 55.52 46.82 55.02 46.68 54.49 45.23 53.98 45.09 54 45.2 54.38 46.75 54.33 46.81L52.23 48.13C52.08 49.27 51.14 50.4 50.81 51.46 50.39 51.61 49.96 51.82 49.55 52.07 49.36 51.94 49.17 51.72 48.86 51.38 49 50.96 49.05 50.44 49.34 50.08 48.97 50.5 48.57 50.88 48.4 51.37 48.06 50.84 47.46 50.13 46.85 49.9 47.52 50.52 48.11 51.48 48.68 52.17 47.99 52.91 47.2 53.99 46.33 54.5L46.35 54.67C46.37 54.55 46.39 54.9 46.4 54.98 46.72 54.6 47.24 54.44 47.63 54.2 47.8 54.9 47.69 55.75 48.01 56.37 47.75 56.76 47.45 57.14 47.14 57.51 46.87 57.78 46.55 58.08 46.39 58.35 45.82 58.92 45.21 59.45 44.57 59.91 44.89 60.47 45.24 61.04 45.65 61.58 45.22 62.85 43.51 63.81 42.79 64.98 43.31 64.72 43.67 64.29 44.13 63.97 44.52 64.6 44.76 65.6 45.06 66.27 44.92 65.53 44.48 64.15 44.65 63.43 44.7 63.21 45.7 62.24 45.81 61.79 46.27 62.36 46.79 62.88 47.4 63.28 46.66 62.6 45.76 61.24 45.26 60.33 45.57 59.86 46 59.22 46.49 58.59 46.95 58.81 47.59 58.82 48.1 58.95 47.97 58.49 47.67 57.98 47.37 57.58 47.77 57.16 48.19 56.81 48.56 56.62 48.48 55.89 48.03 54.28 48.5 53.7 48.86 53.3 50.87 52.7 51.39 52.68Z" fill="#770303"/><path d="M36.44 1.94C30.81 7.1 30.81 14.3 29.32 19.76 27.54 26.27 24.98 31.78 18.49 34.82 15.64 36.03 10.98 36.64 11.2 39.17 11.43 41.71 15.19 41.27 16.83 41.94 19.47 43.02 23.15 43.91 26.11 43.82 27.55 43.78 29.19 43.24 30.65 43.72 31.74 44.08 32.87 45.03 33.96 45.5 37.2 46.88 41.23 47.26 44.82 46.96 46.42 46.83 48.3 46.1 49.62 46.32 50.99 46.55 52.56 47.67 54.07 47.98 57.79 48.74 61.08 48.59 64.4 46.98 67.76 45.35 73.84 45 76.37 43.25 78.21 41.41 67.03 36.42 61.88 29.76 56.24 22.45 56.03 16.4 53.39 9.99 52.1 6.87 50.69 3.89 47.82 1.91 45.37 0.18 38.6-0.04 36.44 1.94Z" fill="#E02107"/><path d="M21.46 43.33C23.05 43.66 24.66 43.85 26.1 43.81 27.54 43.77 29.18 43.23 30.64 43.71 31.73 44.07 32.86 45.02 33.95 45.49 34.93 45.91 39.92 46.74 41.01 46.98 40.99 39.41 38.96 31.33 37.56 23.81 34.72 27.12 33.56 31.58 30.97 35.1 28.53 38.42 25.05 41.17 21.46 43.33Z" fill="#AF0202"/><path d="M37.94 14.93C37.12 14.03 32.53 11.6 31.21 11.2 30.41 14.17 30.03 17.16 29.33 19.76 27.55 26.27 24.99 31.78 18.5 34.82 15.65 36.03 10.99 36.64 11.21 39.17 11.44 41.71 15.2 41.27 16.84 41.94 19.48 43.02 23.16 43.91 26.12 43.82 26.98 43.79 27.96 40.71 26.8 40.52 24.2 40.1 22.03 39.13 22.04 37.56 22.08 32.77 27.35 30.44 29.32 26.61 30.65 23.99 34.95 18 37.94 14.93Z" fill="#CC1717"/><path d="M44.25 43.55C40.19 43.43 36.36 44.26 32.58 42.47 30.29 41.39 28.39 40.13 25.69 40.62 24.52 40.84 23.32 40.97 22.13 41.01 19.57 41.09 16.74 41.03 14.32 40.11 12.91 39.57 12 38.86 11.48 38.06 11.28 38.39 11.17 38.75 11.21 39.17 11.44 41.71 15.2 41.27 16.84 41.94 19.48 43.02 23.16 43.91 26.12 43.82 27.56 43.78 29.2 43.24 30.66 43.72 31.75 44.08 32.88 45.03 33.97 45.5 37.21 46.88 41.24 47.26 44.83 46.96 46.43 46.83 48.31 46.1 49.63 46.32 51 46.55 52.57 47.67 54.08 47.98 57.8 48.74 61.09 48.59 64.41 46.98 67.77 45.35 73.85 45 76.38 43.25 78.22 41.41 67.04 36.42 61.89 29.76 56.38 22.62 56.05 16.67 53.57 10.43 50.48 12.2 50.18 18.65 47.27 15.74 43.73 12.21 41.09 19.81 40.9 19.89 40.64 25.5 46.16 29.63 48.67 34.45 49.75 36.53 52.27 39.42 50.7 41.6 49.03 43.92 47.02 43.64 44.25 43.55Z" fill="#CC1717"/><path d="M62.2 44.72C59.52 45.19 57.94 47.49 55.33 48.08 55.22 48.1 55.11 48.12 55 48.13 58.35 48.68 61.36 48.44 64.4 46.97 67.76 45.34 73.84 44.99 76.37 43.24 78.21 41.4 67.03 36.41 61.88 29.75 56.72 23.07 56.1 17.44 54.02 11.62 48.88 13.62 48.69 19.93 49.28 25.31 49.35 25.38 49.41 25.46 49.45 25.58 50.62 28.48 52.77 26.59 55.12 27.29 56.83 27.8 57.94 28.66 58.79 30.24 60.27 32.98 61.84 34.47 64.39 36.13 65.78 37.05 67.01 37.97 67.74 39.5 68.26 40.6 68.04 42.53 67.15 43.4 65.71 44.82 64.06 44.4 62.2 44.72Z" fill="#AF0202"/><path d="M74.2 44.14C76.95 42.53 79.04 43.98 81.57 44.75 81.56 42.32 79.22 39.43 76.83 38.98 75.36 38.7 74.87 39.23 73.6 39.95 71.97 40.86 71.11 40.74 69.44 39.99 66.67 38.75 64.59 37.9 61.65 37.46 58.73 37.02 56.49 35.94 56.06 32.9 55.73 30.57 54.51 29.22 53.51 27.13 52.82 25.69 52.49 24.2 52.21 22.72 52.15 19.45 51.82 15.68 53.27 14.26 54.72 13.66 56.1 18.94 56.54 19.57 61.45 17.27 53.61 4.86 50.45 2.48 47.24 0.07 43.08-0.71 37.49 0.68 32.61 1.89 32.47 4.5 29.91 13.25 27.95 19.96 24.91 25.87 27.22 25.75 29.86 25.62 30.79 13.03 33.55 13.27 33.74 15.9 32.63 18.95 31.89 21.58 30.49 25.19 29.57 27.91 28.65 29.93 26.83 33.96 21.43 31.95 17.33 34.21 15.07 35.46 12.79 36.32 10.35 36.17 7.68 36.01 4.68 37.17 4.15 40.18 5.83 39.22 10.23 39.7 12.28 39.82 14.96 39.98 17.84 39.94 19.86 37.98 21.01 36.87 21.06 36.39 22.9 36.34 24.3 36.3 27.31 36.77 31.33 32.88 32.84 30.81 33.91 27.73 34.58 24.97 35.23 24.34 35.79 23.88 36.09 24.02 36.8 24.31 35.42 28.49 35.14 31.43 34.04 34.48 33.1 37.73 30.82 40.19 28.39 42.81 25.14 44.39 21.83 45.57 18.46 46.77 14.78 46.04 11.6 47.49 8.15 49.06 8.37 52.86 8.98 56.04 9.25 57.44 9.42 59.85 11 60.55 13.36 61.6 13.14 58.48 12.6 55.68 12.03 51.83 16.41 52.08 19.73 51.28 23.22 50.44 27.13 45.96 30.85 46.64 33.07 47.02 24.18 51.52 26.96 52.14 35.62 54.08 36.71 43.3 37.32 41.01 37.67 39.7 38.99 36.11 40.1 32.85 40.84 34.14 42.08 35.1 42.6 36.56 43.16 38.14 42.85 39.41 42.53 40.98 41.96 43.75 41.84 46.8 44.55 48.5 47.11 50.09 50.19 49.73 51.33 53.16 51.77 54.49 51.63 55.8 51.15 57.05 50.73 58.13 49.88 59.11 50.44 60.36 50.92 61.45 52.19 61.37 52.58 62.48 53.04 63.77 51.85 65.21 51.65 66.42 50.95 70.73 55.13 66.18 55.89 64.75 56.81 63.04 58.77 58.92 57.3 57.27 55.25 55.44 54.63 53.55 54.67 51.05 54.73 47.81 52.62 46.6 50.03 45.17 47.27 43.65 45.96 41.39 45.99 38.35 46.02 35.63 47.33 32.54 46.25 29.86 45.66 28.41 44.05 27.72 43.53 26.17 43.17 25.09 43.94 20.03 44.15 19.1 48.93 15.54 46.41 24.44 48.05 26.87 48.05 26.89 48.05 26.92 48.04 26.95L48.14 27.01C48.38 27.34 48.65 27.62 48.96 27.83 49.91 28.93 50.89 30.12 50.84 31.56 50.83 31.52 50.82 31.48 50.79 31.44 50.81 31.49 50.82 31.54 50.84 31.59 50.84 31.62 50.85 31.66 50.84 31.69 50.85 31.65 50.84 31.62 50.84 31.59 51.67 34.16 49.23 36.59 52.71 38.5 54.92 39.71 58.32 38.91 60.25 40.68 62.39 42.63 60.48 45.73 63.19 47.45 65.45 48.88 66.33 47.02 68.89 48.08 69.92 48.5 73.49 51.46 74.22 52.36 74.92 53.23 74.5 55.4 75.69 55.42 76.69 55.43 77.76 52.93 78.03 52.22 78.65 50.57 78.42 50.17 77.32 49.09 76.45 48.24 75.59 47.41 74.72 46.55 73.49 45.33 72.56 45.1 74.2 44.14Z" fill="url(#SVGID_3_)"/><path d="M37.43 1.78C36.86 1.91 36.29 2.11 35.73 2.39 34.76 3.54 33.94 5.08 37.27 6.59 38.25 7.03 45.1 7.84 47.75 7.23 51.19 6.44 51.31 4.48 50.4 3.4 50.27 3.32 49.75 3 49.61 2.94 46.37 1.48 43.03 0.74 37.43 1.78Z" fill="#FFA80D"/><path d="M43.69 4.73C41.71 5.1 39.44 3.59 37.59 2.53 36.78 2.47 34.99 2.23 34.99 3.24 34.99 3.26 34.95 3.26 34.94 3.27 34.78 4.29 35.26 5.41 37.28 6.49 38.25 7.01 45.1 7.91 47.76 7.14 49.46 6.65 50.45 5.89 50.91 5.09 50.91 4.74 50.89 4.4 50.84 4.06 49.82 2.42 44.81 4.52 43.69 4.73Z" fill="#F98B06"/><g><path d="M4.44 38.4C3.77 39.44 0.74 40.65 1.05 41.85 1.25 42.62 3.5 44.49 3.5 44.49 4.14 44.74 9.72 45.1 10.89 44.82 12.05 44.54 13.59 44.26 13.73 43.73 13.1 41.54 12.8 38.88 10 38.43 7.09 37.96 4.81 37.82 4.44 38.4Z" fill="#D83827"/><path d="M4.34 38.53C3.52 39.54 0.76 40.69 1.05 41.84 1.25 42.61 3.5 44.48 3.5 44.48 4.14 44.73 9.72 45.09 10.89 44.81 12.05 44.53 13.59 44.25 13.73 43.72 13.31 42.27 13.04 40.61 12.08 39.53 11.04 39.73 9.21 39.98 8.19 40.14 7.52 40.24 5.04 39.35 4.34 38.53Z" fill="#FF8A8A"/><path d="M7.62 40.58C7.6 40.58 7.59 40.58 7.58 40.59 7.85 41.47 8.52 42.33 8.93 43.15 9.22 43.74 9.53 44.33 9.81 44.92 10.28 44.91 10.66 44.87 10.88 44.82 12.04 44.54 13.58 44.26 13.72 43.73 13.29 42.23 13.01 40.5 11.97 39.42 11.79 39.47 11.61 39.52 11.43 39.58 10.15 39.95 8.94 40.38 7.62 40.58Z" fill="#8C190A"/><path d="M11.98 39.43C11.98 39.42 11.97 39.42 11.97 39.41 11.79 39.46 11.61 39.51 11.43 39.57 10.16 39.95 8.95 40.38 7.63 40.58 7.61 40.58 7.6 40.58 7.59 40.59 7.86 41.47 8.53 42.33 8.94 43.15 9.23 43.74 9.54 44.33 9.82 44.92 10.29 44.91 10.67 44.87 10.89 44.82 11.07 44.77 11.27 44.73 11.46 44.68 11.05 44.13 10.74 43.53 10.58 42.93 10.27 41.76 10.61 40.65 11.51 39.79 11.65 39.65 11.81 39.54 11.98 39.43Z" fill="#772003"/><path d="M7.24 40.36C6.08 40.07 4.91 39.48 4.33 38.53 3.52 39.54 0.74 40.7 1.04 41.85 1.24 42.62 3.49 44.49 3.49 44.49 4.13 44.74 9.71 45.1 10.88 44.82 10.93 44.81 10.98 44.79 11.03 44.78 10.81 44.49 10.6 44.2 10.41 43.9 9.67 42.73 8.82 41.62 8.03 40.49 7.77 40.46 7.5 40.43 7.24 40.36Z" fill="#AD1505"/><path d="M3.33 39.53C3.4 39.46 3.48 39.38 3.58 39.27 3.7 39.16 3.81 39.04 3.94 38.94 4.09 38.82 4.23 38.69 4.38 38.57 4.37 38.56 4.35 38.54 4.34 38.52 3.53 39.53 0.75 40.69 1.05 41.84 1.25 42.61 3.5 44.48 3.5 44.48 3.67 44.55 4.18 44.62 4.85 44.68 4.18 44.42 3.48 44.07 3.04 43.57 2.01 42.37 1.83 40.68 3.2 39.62 3.25 39.59 3.28 39.56 3.33 39.53Z" fill="#841203" opacity="0.39"/><path d="M7.55 40.42C7.26 41.81 7.3 43.02 5.98 44.03 5.63 44.3 5.24 44.51 4.82 44.69 6.72 44.88 10.02 45.03 10.88 44.81 10.93 44.8 10.98 44.78 11.03 44.77 10.81 44.48 10.6 44.19 10.41 43.89 9.67 42.72 8.82 41.61 8.03 40.48 7.87 40.47 7.71 40.45 7.55 40.42Z" fill="#AF0202"/><path d="M10.41 43.9C10.41 43.9 10.4 43.9 10.41 43.9 10.38 43.85 10.33 43.78 10.28 43.7 10.32 43.76 10.35 43.82 10.41 43.9Z" fill="#BE4922"/><path d="M10.28 43.7C10 43.26 10.14 43.48 10.28 43.7L10.28 43.7Z" fill="#BE4922"/><path d="M4.81 44.69C5.97 44.8 7.14 44.87 8.31 44.9 9.2 44.93 10.16 44.98 11.03 44.77 10.81 44.49 10.6 44.2 10.41 43.9 10.44 43.94 10.44 43.95 10.41 43.89 10.41 43.89 10.41 43.89 10.41 43.9 10.41 43.89 10.41 43.89 10.4 43.88 10.03 43.3 9.64 42.73 9.24 42.17 9.02 41.86 8.8 41.55 8.58 41.25 8.45 41.07 8.17 40.49 7.95 40.47 7.98 40.52 10.31 43.65 9.62 44.55 9.15 45.15 5.21 44.53 4.81 44.69Z" fill="#891506"/><path d="M10.41 43.91C10.41 43.9 10.41 43.9 10.41 43.91 10.44 43.96 10.44 43.95 10.41 43.91Z" fill="#891506"/><path d="M10.4 43.89C10.4 43.9 10.41 43.9 10.4 43.89 10.45 43.96 10.44 43.94 10.4 43.89Z" fill="#BE4922"/></g><g><path d="M63.33 53.48C64.08 53.81 64.9 53.4 65.72 53.25 66.52 53.11 67.71 53.21 68.41 52.87 68.05 51.8 67.68 50.86 67.47 49.75 67.28 48.77 67.46 47.08 67.01 46.27 66.39 45.16 65.32 45.01 64.24 45.21 63.15 45.41 61.76 45.26 61.36 46.39 61.14 47 61.02 47.62 60.76 48.25 60.49 48.89 60.03 49.45 59.84 50.11 59.88 50.65 60.88 51.42 61.27 51.82 61.86 52.44 62.58 53.14 63.33 53.48Z" fill="#7F2209"/><path d="M64.53 50.54C65.05 50.55 65.57 50.58 66.1 50.6 66.3 49.07 66.48 47.54 66.87 46.08 66.24 45.17 65.24 45.04 64.24 45.22 63.15 45.42 61.76 45.27 61.36 46.4 61.29 46.61 61.23 46.81 61.16 47.02 61.59 47.51 62 48.05 62.38 48.66 63.04 49.7 63.21 50.51 64.53 50.54Z" fill="#D83827"/><path d="M64.53 50.54C65.05 50.55 65.57 50.58 66.1 50.6 66.3 49.07 66.48 47.54 66.87 46.08 66.83 46.01 66.78 45.95 66.73 45.89 66.73 45.89 66.04 48.98 65.96 49.22 65.96 49.22 64.62 49.71 64.44 49.43 62.84 47 61.51 46.12 61.51 46.12 61.45 46.21 61.41 46.3 61.37 46.41 61.3 46.62 61.24 46.82 61.17 47.03 61.6 47.52 62.01 48.06 62.39 48.67 63.04 49.7 63.21 50.51 64.53 50.54Z" fill="#F9756B"/><path d="M65.73 53.25C66.53 53.11 67.72 53.21 68.42 52.87 68.22 52.29 68.03 51.73 67.85 51.18 67.27 50.7 66.77 50.08 66.26 49.56 65.76 49.55 65.24 49.6 64.92 49.74 64.57 49.89 64.23 49.97 63.9 50 63.56 51.08 63.33 52.17 62.95 53.27 63.08 53.35 63.21 53.43 63.34 53.49 64.08 53.81 64.91 53.4 65.73 53.25Z" fill="#6D1808"/><path d="M63.72 52.45C63.81 52.16 63.93 51.91 64.07 51.66 64.2 51.35 64.39 51.07 64.64 50.83 64.77 50.68 64.91 50.53 65.05 50.39 65.4 50.04 65.92 49.83 66.44 49.75 66.38 49.69 66.32 49.62 66.26 49.56 65.76 49.55 65.24 49.6 64.92 49.74 64.57 49.89 64.23 49.97 63.9 50 63.56 51.08 63.33 52.17 62.95 53.27 63.08 53.35 63.21 53.43 63.34 53.49 63.39 53.51 63.44 53.53 63.49 53.54 63.55 53.16 63.62 52.79 63.72 52.45Z" fill="#631A02"/><path d="M63.33 53.48C63.53 52.3 63.99 51.15 64.43 49.91 64.39 49.82 63.72 48.78 63.4 48.34 63.13 47.97 62.59 47.48 62.33 47.1 62 46.81 61.72 46.48 61.5 46.11 61.44 46.2 61.39 46.29 61.36 46.4 61.14 47.01 61.02 47.63 60.76 48.26 60.49 48.9 60.03 49.46 59.84 50.12 59.88 50.66 60.88 51.43 61.27 51.83 61.86 52.44 62.58 53.14 63.33 53.48Z" fill="#A30404"/></g><path d="M40.25 6C37.12 5.73 36.12 3.96 35.73 3.3 35.33 4.68 36.74 6.39 38.18 7.07 39.81 7.84 43.13 7.9 44.88 7.81 45.21 7.79 49.84 7.05 49.99 4.1 49.99 4.1 48.81 5.11 47.26 5.77 45.6 6.31 44.45 6.54 40.25 6Z" fill="#DD5E00"/><path d="M36.43 2.73C36.26 4.72 40.13 2.39 41.4 2.29 43.59 2.11 45.71 3.26 47.72 2.98 49.7 1.36 37.23-0.3 36.43 2.73Z" fill="#F9E316"/><g><linearGradient x1="-49.9849" y1="-55.8137" x2="-49.9849" y2="-36.2088" gradientUnits="userSpaceOnUse" id="SVGID_4_" gradientTransform="matrix(0.9985 0.0557 -0.0557 0.9985 79.4898 63.5473)"><stop offset="0.0545" stop-color="#FFFC3C"/><stop offset="0.4606" stop-color="#FFEC21"/><stop offset="1" stop-color="#FFAD2C"/></linearGradient><linearGradient x1="-33.0277" y1="-41.2448" x2="-33.0277" y2="5.1579" gradientUnits="userSpaceOnUse" id="SVGID_5_" gradientTransform="matrix(0.9985 0.0557 -0.0557 0.9985 79.4898 63.5473)"><stop offset="0.0545" stop-color="#FFFC3C"/><stop offset="0.4606" stop-color="#FFEC21"/><stop offset="1" stop-color="#FFAD2C"/></linearGradient><linearGradient x1="-36.8112" y1="-55.9727" x2="-36.8112" y2="-4.2164" gradientUnits="userSpaceOnUse" id="SVGID_6_" gradientTransform="matrix(0.9985 0.0557 -0.0557 0.9985 79.4898 63.5473)"><stop offset="0.0545" stop-color="#FFFC3C"/><stop offset="0.4606" stop-color="#FFEC21"/><stop offset="1" stop-color="#FFAD2C"/></linearGradient><path d="M34.36 5.13C31.61 6.92 30.81 11.47 29.91 14.27 29.08 16.86 26.74 21.74 27.83 24.4 29.15 23.41 29.36 20.13 29.71 18.51 30.21 16.25 30.76 14.21 31.53 12.06 31.9 11.04 32.14 10.01 32.72 9.11 33.62 7.69 33.49 8.09 34.89 8.17 35.72 8.21 37.09 8.93 36.59 7.15 36.39 6.4 34.94 5.41 34.36 5.13Z" fill="url(#SVGID_4_)"/><path d="M52.94 67.23C54.08 66.53 54.71 65.06 55.08 63.83 55.68 61.87 55.22 61.87 54.17 60.41 52.62 58.27 53.74 55.17 53.37 52.57 53.01 49.94 51.52 48.08 49.26 46.64 46.78 45.05 45.19 43.51 44.47 40.57 43.65 37.21 44.89 33.29 43.33 30.02 42.5 28.29 41.76 27.64 41.58 25.71 41.42 23.99 41.82 21.95 41.49 20.25 40.1 19.47 39.82 21.8 39.79 22.78 40.04 25.69 39.49 29.05 41.7 31.2 44.54 33.96 42.78 43.75 45.58 45.86 47.17 47.06 51.47 49.27 51.63 51.1 51.71 51.97 52.23 55.6 52.11 56.44 52 57.24 51.33 58.16 51.27 58.87 51.09 61.11 53.67 60.38 53.86 62.52 54.03 64.2 52.24 65.26 52.94 67.23Z" fill="url(#SVGID_5_)"/><path d="M52.19 11.25C53.86 11.37 54.7 12.11 55.43 13.55 56.03 14.73 56.65 16.16 57.11 17.41 57.61 18.77 57.34 20.62 58.67 21.5 58.15 20.22 58.31 18.65 57.9 17.37 57.46 15.96 56.78 14.66 56.32 13.26 56 12.29 55.21 10.8 54.85 9.95 53.73 7.3 52.4 5.1 50.37 6.22 49.99 9.13 43.97 9.44 41.83 9.44 38.12 9.43 35.85 7.79 34.77 12.23 34.76 12.36 34.75 12.5 34.74 12.63 34.11 14.5 33.81 16.85 33.53 18.54 33.02 21.59 31.52 23.39 30.27 26.14 29.21 28.48 29.6 30.91 27.13 32.39 24.68 33.86 22.48 33.91 19.72 34.4 17.79 34.75 16.52 35.78 14.81 36.61 12.94 37.53 11.12 36.76 9.3 37.4 10.62 39.33 15.21 36.96 16.78 36.23 19.18 35.12 21.26 35.06 23.75 34.41 29.28 32.97 30.79 28.22 33.28 23.87 34.2 22.25 34.79 20.45 35.26 18.6 35.58 18.81 35.98 18.93 36.11 19.24 36.6 20.42 35.76 22.11 35.74 23.44 35.71 24.64 35.92 25.88 35.89 27.16 35.79 32.42 34.4 36.54 30.94 40.38 29.18 42.34 27.15 43.05 24.81 44.03 23.65 44.52 22.85 45.49 21.73 45.99 20.63 46.49 18.9 46.41 17.75 46.65 15.54 47.11 12.85 47.81 10.73 48.73 8.32 49.78 6.85 53.6 9.47 55.41 10.27 53.93 9.36 51.83 10.32 50.34 11.95 47.81 15.72 48.85 18.18 48.45 20.74 48.03 23.89 46.52 26.35 45.58 27.97 44.96 29.31 44.91 30.59 43.55 31.45 42.64 32.07 41.45 32.88 40.46 34.81 38.12 35.44 35.62 36.28 32.67 37.87 27.06 37.23 20.9 38.66 15.27 39.46 12.12 41.02 11.51 44.05 10.97 44.38 10.91 44.9 10.85 45.52 10.8 49.93 12.99 46.25 21.63 48.42 25.33 49.04 26.39 50.31 27.15 50.7 28.33 51.05 29.41 50.91 31.11 51.01 32.24 51.34 35.81 51.71 36.25 54.91 37.64 56.47 38.32 58.54 38.91 59.96 39.87 61.68 41.02 61.65 42.54 62.04 44.34 63.46 44.42 63.77 42.39 63.57 41.21 64.23 41.38 64.93 41.46 65.56 41.65 66.7 41.99 67.75 42.55 68.87 42.93 69.89 43.68 70.94 44.44 71.82 45.48 72.89 46.74 74.17 50.24 76.19 49.9 76.34 48.64 74.52 47.47 73.69 46.64 72.37 45.31 72.36 44.48 71.92 43.07 72.37 42.66 73 41.93 73.56 41.61 74.66 41 77.63 41.82 78.79 41.36 79.57 41.05 77.39 40.06 76.66 39.74 76.03 39.46 75.39 39.83 74.82 40.06 74.05 40.37 73.85 40.25 73.26 40.71 72.58 41.25 71.7 41.5 70.94 41.42 69.55 41.27 68.18 41.35 66.94 40.72 65.71 40.09 64.55 39.47 63.23 39.01 62.59 38.78 60.73 37.81 60.07 37.83 58.52 36.89 56.82 36.12 55.78 35.86 53.8 35.36 52.8 33.85 52.49 31.9 51.88 30.25 52.21 26.78 49.87 24.49 48.81 23.45 49.1 20.93 49.39 19.55 49.76 17.72 50.57 16.41 50.26 14.42 50.13 13.58 49.89 13 49.73 12.47 50.33 11.69 50.59 11.14 52.19 11.25Z" fill="url(#SVGID_6_)"/></g></g></svg>