<svg width="81.74" height="81.87" viewBox="0 0 81.74 81.87" xmlns="http://www.w3.org/2000/svg" xmlns:xlink="http://www.w3.org/1999/xlink" overflow="hidden"><defs></defs><g><path d="M15.69 1.22 66.06 1.22C63.25 0.4 60.88 0 60.88 0L40.87 0 20.86 0C20.86 0 18.5 0.4 15.69 1.22Z" fill="#D48E35"/><path d="M60.37 0C41.3 0 40.62 0 40.62 0L40.62 0C40.62 0 39.94 0 20.86 0 1.78 0 0 9.23 0 9.23L40.62 9.23 40.62 9.23 81.75 9.23C81.74 9.23 79.45 0 60.37 0Z" fill="#FFAB40"/><path d="M0 9.23 81.74 9.23C81.74 9.23 81.63 8.81 81.29 8.16L0.39 8.16C0.08 8.81 0 9.23 0 9.23Z" fill="#D48E35" opacity="0.7"/><path d="M40.87 9.23 0 9.23 3.78 22.41 40.87 22.41 77.96 22.41 81.74 9.23Z" fill="#825720"/><path d="M72.74 22.41 40.87 22.41 9 22.41 6.79 11.36 40.87 11.36 74.95 11.36Z" fill="#3D1A11"/><path d="M9 22.41 9 21.11 8.1 11.36 6.79 11.36Z" fill="#5C3D17"/><path d="M72.74 22.41 72.74 21.11 73.64 11.36 74.95 11.36Z" fill="#5C3D17"/><rect x="9" y="21.11" width="63.73" height="1.3" fill="#5C3D17"/><g><path d="M47.67 8.04 34.07 8.04 34.44 6.82 47.31 6.82Z" fill="#FFD740"/><path d="M34.44 6.82 34.38 6.99 47.36 6.99 47.31 6.82Z" fill="#FFD740"/><path d="M47.17 18.5 34.57 18.5C32.55 18.5 31.44 16.73 32.02 14.8L34.02 8.16 47.7 8.16 49.7 14.8C50.3 16.73 49.19 18.5 47.17 18.5Z" fill="#FFD740"/><path d="M47.25 17.79 34.5 17.79C32.64 17.79 31.61 16.19 32.14 14.43L31.97 14.99C31.42 16.83 32.46 18.49 34.36 18.49L47.39 18.49C49.29 18.49 50.33 16.82 49.78 14.99L49.61 14.43C50.14 16.19 49.11 17.79 47.25 17.79Z" fill="#E8C43A"/><g><path d="M37.75 8.16 37.54 8.16 37.74 6.82 37.94 6.82Z" fill="#B0942C"/></g><g><path d="M44.2 8.16 43.99 8.16 43.81 6.82 44 6.82Z" fill="#B0942C"/></g><path d="M42.56 10.82C42.51 10.03 41.75 9.42 40.87 9.42 39.99 9.42 39.23 10.03 39.18 10.82 39.15 11.32 39.4 11.78 39.83 12.07L39.76 13.86C39.74 14.47 40.23 14.99 40.87 14.99L40.87 14.99C41.51 14.99 42.01 14.47 41.98 13.86L41.91 12.07C42.34 11.78 42.6 11.32 42.56 10.82Z" fill="#524514"/><path d="M33.99 8.28 33.93 8.48 47.81 8.48 47.75 8.28Z" fill="#FFD740"/></g><path d="M7.65 5.22 74.09 5.22C72.37 3.4 68.97 2.07 66.05 1.22L15.69 1.22C12.77 2.08 9.37 3.4 7.65 5.22Z" fill="#B54E2F"/><path d="M7.65 5.22 74.09 5.22C72.37 3.4 68.97 2.07 66.05 1.22L15.69 1.22C12.77 2.08 9.37 3.4 7.65 5.22Z" fill="#B54E2F"/><path d="M74.09 5.22C72.37 3.4 68.97 2.07 66.05 1.22L15.69 1.22C12.77 2.08 9.38 3.4 7.65 5.22 7.28 5.62 6.98 6.03 6.79 6.48L40.87 6.48 74.95 6.48C74.76 6.03 74.46 5.62 74.09 5.22Z" fill="#B54E2F"/><path d="M6.81 6.43 74.92 6.43C74.83 6.23 74.72 6.04 74.59 5.86L7.14 5.86C7.01 6.04 6.9 6.23 6.81 6.43Z" fill="#B54E2F"/><path d="M7.14 5.85 74.6 5.85C74.46 5.65 74.31 5.46 74.14 5.28L7.61 5.28C7.43 5.46 7.28 5.65 7.14 5.85Z" fill="#B54E2F"/><path d="M10 3.48 71.73 3.48C71.37 3.28 71 3.09 70.61 2.91L11.11 2.91C10.74 3.09 10.36 3.28 10 3.48Z" fill="#B54E2F"/><path d="M11.12 2.91 70.62 2.91C70.19 2.71 69.75 2.52 69.3 2.34L12.44 2.34C11.99 2.51 11.55 2.71 11.12 2.91Z" fill="#B54E2F"/><rect x="0" y="35.58" width="81.74" height="0.94" fill="#FFAB40"/><path d="M40.87 35.58 81.74 35.58 77.96 22.41 40.87 22.41 3.78 22.41 0 35.58Z" fill="#A16C28"/><path d="M72.74 24.54 40.87 24.54 9 24.54 6.79 35.58 40.87 35.58 74.95 35.58Z" fill="#4D2115"/><rect x="9" y="24.54" width="63.73" height="1.3" fill="#734D1D"/><path d="M9 24.54 9 25.84 8.1 35.58 6.79 35.58Z" fill="#734D1D"/><path d="M72.74 24.54 72.74 25.84 73.64 35.58 74.95 35.58Z" fill="#734D1D"/><g><path d="M18.43 33.14C18.9 36.32 16.18 39.28 12.29 39.28 8.4 39.28 5.68 36.32 6.15 33.14 6.56 30.38 9.28 28.41 12.29 28.41 15.3 28.41 18.02 30.39 18.43 33.14Z" fill="#B8AE19"/><path d="M18.31 32.33C18.76 35.38 16.1 38.21 12.29 38.21 8.48 38.21 5.82 35.38 6.27 32.33 6.66 29.68 9.34 27.77 12.29 27.77 15.24 27.77 17.92 29.68 18.31 32.33Z" fill="#FFEE00"/><path d="M12.29 37.75C8.61 37.75 6 35.08 6.31 32.16 6.3 32.22 6.28 32.28 6.27 32.34 5.82 35.39 8.48 38.22 12.29 38.22 16.09 38.22 18.76 35.39 18.31 32.34 18.3 32.28 18.28 32.22 18.27 32.16 18.59 35.08 15.98 37.75 12.29 37.75Z" fill="#E0D100" opacity="0.7"/><path d="M12.29 28C15.21 28 17.85 29.87 18.32 32.48 18.31 32.43 18.31 32.38 18.31 32.33 17.92 29.68 15.24 27.77 12.29 27.77 9.34 27.77 6.67 29.68 6.27 32.33 6.26 32.38 6.26 32.43 6.26 32.48 6.74 29.87 9.38 28 12.29 28Z" fill="#FFF78C"/><path d="M16.12 32.71C16.3 34.62 14.59 36.3 12.29 36.3 9.99 36.3 8.29 34.62 8.46 32.71 8.62 30.97 10.33 29.66 12.29 29.66 14.25 29.66 15.96 30.97 16.12 32.71Z" fill="#FFF78C"/><path d="M16.09 32.37C16.26 34.24 14.57 35.89 12.3 35.89 10.03 35.89 8.33 34.24 8.51 32.37 8.67 30.65 10.36 29.37 12.3 29.37 14.23 29.36 15.93 30.65 16.09 32.37Z" fill="#DECF00"/><path d="M12.29 29.76C14.17 29.76 15.81 30.96 16.09 32.6 16.09 32.52 16.09 32.45 16.08 32.37 15.92 30.65 14.23 29.37 12.29 29.37 10.35 29.37 8.66 30.66 8.5 32.37 8.49 32.45 8.49 32.52 8.49 32.6 8.78 30.96 10.42 29.76 12.29 29.76Z" fill="#D1C300" opacity="0.3"/></g><g><path d="M29.82 26.75C30.29 29.93 27.57 32.89 23.68 32.89 19.79 32.89 17.07 29.93 17.54 26.75 17.95 23.99 20.67 22.02 23.68 22.02 26.68 22.02 29.41 23.99 29.82 26.75Z" fill="#B8AE19"/><path d="M29.7 25.94C30.15 28.99 27.49 31.82 23.68 31.82 19.88 31.82 17.21 28.99 17.66 25.94 18.05 23.29 20.73 21.38 23.68 21.38 26.63 21.38 29.3 23.29 29.7 25.94Z" fill="#FFEE00"/><path d="M23.68 31.35C20 31.35 17.39 28.68 17.7 25.76 17.69 25.82 17.67 25.88 17.66 25.94 17.21 28.99 19.87 31.82 23.68 31.82 27.48 31.82 30.15 28.99 29.7 25.94 29.69 25.88 29.67 25.82 29.66 25.76 29.97 28.69 27.37 31.35 23.68 31.35Z" fill="#E0D100" opacity="0.7"/><path d="M23.68 21.61C26.6 21.61 29.24 23.48 29.71 26.09 29.7 26.04 29.7 25.99 29.7 25.94 29.31 23.29 26.63 21.38 23.68 21.38 20.73 21.38 18.06 23.29 17.66 25.94 17.65 25.99 17.65 26.04 17.65 26.09 18.12 23.47 20.76 21.61 23.68 21.61Z" fill="#FFF78C"/><path d="M27.51 26.32C27.69 28.23 25.98 29.91 23.68 29.91 21.38 29.91 19.68 28.23 19.85 26.32 20.01 24.58 21.72 23.27 23.68 23.27 25.64 23.27 27.35 24.58 27.51 26.32Z" fill="#FFF78C"/><path d="M27.48 25.98C27.65 27.85 25.96 29.5 23.69 29.5 21.41 29.5 19.72 27.85 19.9 25.98 20.06 24.26 21.75 22.98 23.69 22.98 25.62 22.97 27.32 24.26 27.48 25.98Z" fill="#DECF00"/><path d="M23.68 23.37C25.56 23.37 27.2 24.57 27.48 26.21 27.48 26.13 27.48 26.06 27.47 25.98 27.31 24.26 25.62 22.98 23.68 22.98 21.74 22.98 20.05 24.27 19.89 25.98 19.88 26.06 19.88 26.13 19.88 26.21 20.16 24.57 21.81 23.37 23.68 23.37Z" fill="#D1C300" opacity="0.3"/></g><g><path d="M74.9 26.88C75.37 30.06 72.65 33.02 68.76 33.02 64.87 33.02 62.15 30.06 62.62 26.88 63.03 24.12 65.75 22.15 68.76 22.15 71.77 22.15 74.49 24.13 74.9 26.88Z" fill="#B8AE19"/><path d="M74.78 26.07C75.23 29.12 72.57 31.95 68.76 31.95 64.96 31.95 62.29 29.12 62.74 26.07 63.13 23.42 65.81 21.51 68.76 21.51 71.71 21.51 74.39 23.42 74.78 26.07Z" fill="#FFEE00"/><path d="M68.76 31.49C65.08 31.49 62.47 28.82 62.78 25.9 62.77 25.96 62.75 26.02 62.74 26.08 62.29 29.13 64.95 31.96 68.76 31.96 72.56 31.96 75.23 29.13 74.78 26.08 74.77 26.02 74.75 25.96 74.74 25.9 75.06 28.82 72.45 31.49 68.76 31.49Z" fill="#E0D100" opacity="0.7"/><path d="M68.76 21.74C71.68 21.74 74.32 23.61 74.79 26.22 74.78 26.17 74.78 26.12 74.78 26.07 74.39 23.42 71.71 21.51 68.76 21.51 65.81 21.51 63.14 23.42 62.74 26.07 62.73 26.12 62.73 26.17 62.73 26.22 63.21 23.61 65.85 21.74 68.76 21.74Z" fill="#FFF78C"/><path d="M72.59 26.45C72.77 28.36 71.06 30.04 68.76 30.04 66.46 30.04 64.76 28.36 64.93 26.45 65.09 24.71 66.8 23.4 68.76 23.4 70.72 23.4 72.43 24.71 72.59 26.45Z" fill="#FFF78C"/><path d="M72.56 26.11C72.73 27.98 71.04 29.63 68.77 29.63 66.5 29.63 64.8 27.98 64.98 26.11 65.14 24.39 66.83 23.11 68.77 23.11 70.7 23.1 72.4 24.39 72.56 26.11Z" fill="#DECF00"/><path d="M68.76 23.5C70.64 23.5 72.28 24.7 72.56 26.34 72.56 26.26 72.56 26.19 72.55 26.11 72.39 24.39 70.7 23.11 68.76 23.11 66.82 23.11 65.13 24.4 64.97 26.11 64.96 26.19 64.96 26.26 64.96 26.34 65.25 24.7 66.89 23.5 68.76 23.5Z" fill="#D1C300" opacity="0.3"/></g><g><path d="M17.01 26.18C17.46 29.23 14.86 32.06 11.13 32.06 7.4 32.06 4.79 29.22 5.25 26.18 5.64 23.54 8.26 21.64 11.13 21.64 14 21.64 16.62 23.54 17.01 26.18Z" fill="#B8AE19"/><path d="M16.89 25.41C17.32 28.34 14.77 31.05 11.12 31.05 7.47 31.05 4.92 28.34 5.35 25.41 5.73 22.87 8.29 21.04 11.12 21.04 13.95 21.04 16.52 22.86 16.89 25.41Z" fill="#FFEE00"/><path d="M11.12 30.6C7.59 30.6 5.09 28.04 5.39 25.23 5.38 25.29 5.36 25.34 5.35 25.4 4.92 28.33 7.47 31.04 11.12 31.04 14.77 31.04 17.32 28.33 16.89 25.4 16.88 25.34 16.87 25.29 16.85 25.23 17.16 28.04 14.66 30.6 11.12 30.6Z" fill="#E0D100" opacity="0.7"/><path d="M11.12 21.25C13.92 21.25 16.45 23.04 16.9 25.54 16.89 25.49 16.89 25.45 16.89 25.4 16.51 22.86 13.95 21.03 11.12 21.03 8.29 21.03 5.73 22.86 5.35 25.4 5.34 25.45 5.34 25.49 5.34 25.54 5.79 23.04 8.33 21.25 11.12 21.25Z" fill="#FFF78C"/><path d="M14.79 25.77C14.96 27.6 13.32 29.21 11.12 29.21 8.92 29.21 7.28 27.6 7.45 25.77 7.61 24.1 9.24 22.84 11.12 22.84 13 22.85 14.64 24.1 14.79 25.77Z" fill="#FFF78C"/><path d="M14.76 25.44C14.93 27.24 13.3 28.82 11.12 28.82 8.94 28.82 7.31 27.24 7.48 25.44 7.63 23.79 9.26 22.56 11.12 22.56 12.98 22.56 14.61 23.8 14.76 25.44Z" fill="#DECF00"/><path d="M11.12 22.94C12.92 22.94 14.49 24.09 14.77 25.66 14.77 25.59 14.77 25.51 14.76 25.44 14.61 23.79 12.98 22.56 11.12 22.56 9.26 22.56 7.63 23.8 7.48 25.44 7.47 25.51 7.47 25.59 7.47 25.66 7.75 24.1 9.32 22.94 11.12 22.94Z" fill="#D1C300" opacity="0.3"/></g><g><path d="M28.09 34.26C28.54 37.31 25.94 40.14 22.21 40.14 18.48 40.14 15.87 37.3 16.33 34.26 16.72 31.62 19.34 29.72 22.21 29.72 25.08 29.72 27.7 31.62 28.09 34.26Z" fill="#B8AE19"/><path d="M27.98 33.48C28.41 36.41 25.86 39.12 22.21 39.12 18.56 39.12 16.01 36.41 16.44 33.48 16.82 30.94 19.38 29.11 22.21 29.11 25.04 29.11 27.6 30.94 27.98 33.48Z" fill="#FFEE00"/><path d="M22.21 38.68C18.68 38.68 16.18 36.12 16.48 33.31 16.47 33.37 16.45 33.42 16.44 33.48 16.01 36.41 18.56 39.12 22.21 39.12 25.86 39.12 28.41 36.41 27.98 33.48 27.97 33.42 27.96 33.37 27.94 33.31 28.24 36.12 25.74 38.68 22.21 38.68Z" fill="#E0D100" opacity="0.7"/><path d="M22.21 29.33C25.01 29.33 27.54 31.12 27.99 33.62 27.98 33.57 27.98 33.53 27.98 33.48 27.6 30.94 25.04 29.11 22.21 29.11 19.38 29.11 16.82 30.94 16.44 33.48 16.43 33.53 16.43 33.57 16.43 33.62 16.88 31.12 19.41 29.33 22.21 29.33Z" fill="#FFF78C"/><path d="M25.88 33.85C26.05 35.68 24.41 37.29 22.21 37.29 20.01 37.29 18.37 35.68 18.54 33.85 18.7 32.18 20.33 30.92 22.21 30.92 24.09 30.92 25.72 32.18 25.88 33.85Z" fill="#FFF78C"/><path d="M25.85 33.52C26.02 35.32 24.39 36.9 22.21 36.9 20.03 36.9 18.4 35.32 18.57 33.52 18.72 31.87 20.35 30.64 22.21 30.64 24.07 30.64 25.69 31.87 25.85 33.52Z" fill="#DECF00"/><path d="M22.21 31.02C24.01 31.02 25.58 32.17 25.86 33.74 25.86 33.67 25.86 33.59 25.85 33.52 25.7 31.87 24.07 30.64 22.21 30.64 20.35 30.64 18.72 31.88 18.57 33.52 18.56 33.59 18.56 33.67 18.56 33.74 18.84 32.17 20.41 31.02 22.21 31.02Z" fill="#D1C300" opacity="0.3"/></g><g><path d="M52.54 28.83C52.99 31.88 50.39 34.71 46.66 34.71 42.93 34.71 40.32 31.87 40.78 28.83 41.17 26.19 43.79 24.29 46.66 24.29 49.53 24.29 52.15 26.18 52.54 28.83Z" fill="#B8AE19"/><path d="M52.42 28.05C52.85 30.98 50.3 33.69 46.65 33.69 43 33.69 40.45 30.98 40.88 28.05 41.26 25.51 43.82 23.68 46.65 23.68 49.48 23.67 52.05 25.51 52.42 28.05Z" fill="#FFEE00"/><path d="M46.65 33.24C43.12 33.24 40.62 30.68 40.92 27.87 40.91 27.93 40.89 27.98 40.88 28.04 40.45 30.97 43 33.68 46.65 33.68 50.3 33.68 52.85 30.97 52.42 28.04 52.41 27.98 52.4 27.93 52.38 27.87 52.69 30.69 50.19 33.24 46.65 33.24Z" fill="#E0D100" opacity="0.7"/><path d="M46.65 23.9C49.45 23.9 51.98 25.69 52.43 28.19 52.42 28.14 52.42 28.1 52.42 28.05 52.04 25.51 49.48 23.68 46.65 23.68 43.82 23.68 41.26 25.51 40.88 28.05 40.87 28.1 40.87 28.14 40.87 28.19 41.32 25.69 43.86 23.9 46.65 23.9Z" fill="#FFF78C"/><path d="M50.32 28.42C50.49 30.25 48.85 31.86 46.65 31.86 44.45 31.86 42.81 30.25 42.98 28.42 43.14 26.75 44.77 25.49 46.65 25.49 48.53 25.49 50.17 26.75 50.32 28.42Z" fill="#FFF78C"/><path d="M50.29 28.08C50.46 29.88 48.83 31.46 46.65 31.46 44.47 31.46 42.84 29.88 43.01 28.08 43.16 26.43 44.79 25.2 46.65 25.2 48.51 25.2 50.14 26.44 50.29 28.08Z" fill="#DECF00"/><path d="M46.65 25.59C48.45 25.59 50.02 26.74 50.3 28.31 50.3 28.24 50.3 28.16 50.29 28.09 50.14 26.44 48.51 25.21 46.65 25.21 44.79 25.21 43.16 26.45 43.01 28.09 43 28.16 43 28.24 43 28.31 43.28 26.74 44.85 25.59 46.65 25.59Z" fill="#D1C300" opacity="0.3"/></g><g><path d="M38.41 31.27C38.86 34.32 36.26 37.15 32.53 37.15 28.8 37.15 26.19 34.31 26.65 31.27 27.04 28.63 29.66 26.73 32.53 26.73 35.4 26.73 38.01 28.62 38.41 31.27Z" fill="#B8AE19"/><path d="M38.29 30.49C38.72 33.42 36.17 36.13 32.52 36.13 28.87 36.13 26.32 33.42 26.75 30.49 27.13 27.95 29.69 26.12 32.52 26.12 35.35 26.12 37.91 27.94 38.29 30.49Z" fill="#FFEE00"/><path d="M32.52 35.68C28.99 35.68 26.49 33.12 26.79 30.31 26.78 30.37 26.76 30.42 26.75 30.48 26.32 33.41 28.87 36.12 32.52 36.12 36.17 36.12 38.72 33.41 38.29 30.48 38.28 30.42 38.27 30.37 38.25 30.31 38.56 33.12 36.05 35.68 32.52 35.68Z" fill="#E0D100" opacity="0.7"/><path d="M32.52 26.33C35.32 26.33 37.85 28.12 38.3 30.62 38.29 30.57 38.29 30.53 38.29 30.48 37.91 27.94 35.35 26.11 32.52 26.11 29.69 26.11 27.13 27.94 26.75 30.48 26.74 30.53 26.74 30.57 26.74 30.62 27.19 28.12 29.72 26.33 32.52 26.33Z" fill="#FFF78C"/><path d="M36.19 30.86C36.36 32.69 34.72 34.3 32.52 34.3 30.32 34.3 28.68 32.69 28.85 30.86 29.01 29.19 30.64 27.93 32.52 27.93 34.4 27.93 36.03 29.18 36.19 30.86Z" fill="#FFF78C"/><path d="M36.16 30.52C36.33 32.32 34.7 33.9 32.52 33.9 30.34 33.9 28.71 32.32 28.88 30.52 29.03 28.87 30.66 27.64 32.52 27.64 34.38 27.64 36.01 28.88 36.16 30.52Z" fill="#DECF00"/><path d="M32.52 28.03C34.32 28.03 35.89 29.18 36.17 30.75 36.17 30.68 36.17 30.6 36.16 30.53 36.01 28.88 34.38 27.65 32.52 27.65 30.66 27.65 29.03 28.89 28.88 30.53 28.87 30.6 28.87 30.68 28.87 30.75 29.15 29.18 30.72 28.03 32.52 28.03Z" fill="#D1C300" opacity="0.3"/></g><g><path d="M58.32 33.56C58.77 36.61 56.17 39.44 52.44 39.44 48.71 39.44 46.1 36.6 46.56 33.56 46.95 30.92 49.57 29.02 52.44 29.02 55.31 29.02 57.93 30.92 58.32 33.56Z" fill="#B8AE19"/><path d="M58.2 32.79C58.63 35.72 56.08 38.43 52.43 38.43 48.78 38.43 46.23 35.72 46.66 32.79 47.04 30.25 49.6 28.42 52.43 28.42 55.26 28.41 57.83 30.24 58.2 32.79Z" fill="#FFEE00"/><path d="M52.43 37.98C48.9 37.98 46.4 35.42 46.7 32.61 46.69 32.67 46.67 32.72 46.66 32.78 46.23 35.71 48.78 38.42 52.43 38.42 56.08 38.42 58.63 35.71 58.2 32.78 58.19 32.72 58.18 32.67 58.16 32.61 58.47 35.42 55.97 37.98 52.43 37.98Z" fill="#E0D100" opacity="0.7"/><path d="M52.43 28.63C55.23 28.63 57.76 30.42 58.21 32.92 58.2 32.87 58.2 32.83 58.2 32.78 57.82 30.24 55.26 28.41 52.43 28.41 49.6 28.41 47.04 30.24 46.66 32.78 46.65 32.83 46.65 32.87 46.65 32.92 47.1 30.42 49.64 28.63 52.43 28.63Z" fill="#FFF78C"/><path d="M56.11 33.15C56.28 34.98 54.64 36.59 52.44 36.59 50.24 36.59 48.6 34.98 48.77 33.15 48.93 31.48 50.56 30.22 52.44 30.22 54.31 30.23 55.95 31.48 56.11 33.15Z" fill="#FFF78C"/><path d="M56.07 32.82C56.24 34.62 54.61 36.2 52.43 36.2 50.25 36.2 48.62 34.62 48.79 32.82 48.94 31.17 50.57 29.94 52.43 29.94 54.3 29.94 55.92 31.18 56.07 32.82Z" fill="#DECF00"/><path d="M52.43 30.32C54.23 30.32 55.8 31.47 56.08 33.04 56.08 32.97 56.08 32.89 56.07 32.82 55.92 31.17 54.29 29.94 52.43 29.94 50.57 29.94 48.94 31.18 48.79 32.82 48.78 32.89 48.78 32.97 48.78 33.04 49.06 31.48 50.64 30.32 52.43 30.32Z" fill="#D1C300" opacity="0.3"/></g><g><path d="M66.94 30.47C67.39 33.52 64.79 36.35 61.06 36.35 57.33 36.35 54.72 33.51 55.18 30.47 55.57 27.83 58.19 25.93 61.06 25.93 63.93 25.93 66.55 27.83 66.94 30.47Z" fill="#B8AE19"/><path d="M66.82 29.69C67.25 32.62 64.7 35.33 61.05 35.33 57.4 35.33 54.85 32.62 55.28 29.69 55.66 27.15 58.22 25.32 61.05 25.32 63.88 25.32 66.45 27.15 66.82 29.69Z" fill="#FFEE00"/><path d="M61.05 34.89C57.52 34.89 55.02 32.33 55.32 29.52 55.31 29.58 55.29 29.63 55.28 29.69 54.85 32.62 57.4 35.33 61.05 35.33 64.7 35.33 67.25 32.62 66.82 29.69 66.81 29.63 66.8 29.58 66.78 29.52 67.09 32.33 64.59 34.89 61.05 34.89Z" fill="#E0D100" opacity="0.7"/><path d="M61.05 25.54C63.85 25.54 66.38 27.33 66.83 29.83 66.82 29.78 66.82 29.74 66.82 29.69 66.44 27.15 63.88 25.32 61.05 25.32 58.22 25.32 55.66 27.15 55.28 29.69 55.27 29.74 55.27 29.78 55.27 29.83 55.72 27.33 58.25 25.54 61.05 25.54Z" fill="#FFF78C"/><path d="M64.72 30.06C64.89 31.89 63.25 33.5 61.05 33.5 58.85 33.5 57.21 31.89 57.38 30.06 57.54 28.39 59.17 27.13 61.05 27.13 62.93 27.13 64.57 28.39 64.72 30.06Z" fill="#FFF78C"/><path d="M64.69 29.73C64.86 31.53 63.23 33.11 61.05 33.11 58.87 33.11 57.24 31.53 57.41 29.73 57.56 28.08 59.19 26.85 61.05 26.85 62.91 26.85 64.54 28.08 64.69 29.73Z" fill="#DECF00"/><path d="M61.05 27.23C62.85 27.23 64.42 28.38 64.7 29.95 64.7 29.88 64.7 29.8 64.69 29.73 64.54 28.08 62.91 26.85 61.05 26.85 59.19 26.85 57.56 28.09 57.41 29.73 57.4 29.8 57.4 29.88 57.4 29.95 57.68 28.38 59.25 27.23 61.05 27.23Z" fill="#D1C300" opacity="0.3"/></g><g><path d="M59.63 26.59C60.08 29.64 57.48 32.47 53.75 32.47 50.02 32.47 47.41 29.63 47.87 26.59 48.26 23.95 50.88 22.05 53.75 22.05 56.62 22.05 59.24 23.95 59.63 26.59Z" fill="#B8AE19"/><path d="M59.51 25.81C59.94 28.74 57.39 31.45 53.74 31.45 50.09 31.45 47.54 28.74 47.97 25.81 48.35 23.27 50.91 21.44 53.74 21.44 56.57 21.44 59.14 23.27 59.51 25.81Z" fill="#FFEE00"/><path d="M53.74 31.01C50.21 31.01 47.71 28.45 48.01 25.64 48 25.7 47.98 25.75 47.97 25.81 47.54 28.74 50.09 31.45 53.74 31.45 57.39 31.45 59.94 28.74 59.51 25.81 59.5 25.75 59.49 25.7 59.47 25.64 59.78 28.45 57.28 31.01 53.74 31.01Z" fill="#E0D100" opacity="0.7"/><path d="M53.74 21.66C56.54 21.66 59.07 23.45 59.52 25.95 59.51 25.9 59.51 25.86 59.51 25.81 59.13 23.27 56.57 21.44 53.74 21.44 50.91 21.44 48.35 23.27 47.97 25.81 47.96 25.86 47.96 25.9 47.96 25.95 48.41 23.45 50.95 21.66 53.74 21.66Z" fill="#FFF78C"/><path d="M57.41 26.18C57.58 28.01 55.94 29.62 53.74 29.62 51.54 29.62 49.9 28.01 50.07 26.18 50.23 24.51 51.86 23.25 53.74 23.25 55.62 23.25 57.26 24.51 57.41 26.18Z" fill="#FFF78C"/><path d="M57.38 25.85C57.55 27.65 55.92 29.23 53.74 29.23 51.56 29.23 49.93 27.65 50.1 25.85 50.25 24.2 51.88 22.97 53.74 22.97 55.6 22.97 57.23 24.2 57.38 25.85Z" fill="#DECF00"/><path d="M53.74 23.35C55.54 23.35 57.11 24.5 57.39 26.07 57.39 26 57.39 25.92 57.38 25.85 57.23 24.2 55.6 22.97 53.74 22.97 51.88 22.97 50.25 24.21 50.1 25.85 50.1 25.92 50.1 26 50.1 26.07 50.37 24.5 51.94 23.35 53.74 23.35Z" fill="#D1C300" opacity="0.3"/></g><rect x="0" y="35.58" width="81.74" height="7.66" fill="#B54E2F"/><g><path d="M47.31 33.26C47.76 36.31 45.16 39.14 41.43 39.14 37.7 39.14 35.09 36.3 35.55 33.26 35.94 30.62 38.56 28.72 41.43 28.72 44.3 28.72 46.92 30.61 47.31 33.26Z" fill="#B8AE19"/><path d="M47.19 32.48C47.62 35.41 45.07 38.12 41.42 38.12 37.77 38.12 35.22 35.41 35.65 32.48 36.03 29.94 38.59 28.11 41.42 28.11 44.25 28.1 46.81 29.94 47.19 32.48Z" fill="#FFEE00"/><path d="M41.42 37.67C37.89 37.67 35.39 35.11 35.69 32.3 35.68 32.36 35.66 32.41 35.65 32.47 35.22 35.4 37.77 38.11 41.42 38.11 45.07 38.11 47.62 35.4 47.19 32.47 47.18 32.41 47.17 32.36 47.15 32.3 47.46 35.12 44.96 37.67 41.42 37.67Z" fill="#E0D100" opacity="0.7"/><path d="M41.42 28.33C44.22 28.33 46.75 30.12 47.2 32.62 47.19 32.57 47.19 32.53 47.19 32.48 46.81 29.94 44.25 28.11 41.42 28.11 38.59 28.11 36.03 29.94 35.65 32.48 35.64 32.53 35.64 32.57 35.64 32.62 36.09 30.12 38.62 28.33 41.42 28.33Z" fill="#FFF78C"/><path d="M45.09 32.85C45.26 34.68 43.62 36.29 41.42 36.29 39.22 36.29 37.58 34.68 37.75 32.85 37.91 31.18 39.54 29.92 41.42 29.92 43.3 29.92 44.94 31.18 45.09 32.85Z" fill="#FFF78C"/><path d="M45.06 32.51C45.23 34.31 43.6 35.89 41.42 35.89 39.24 35.89 37.61 34.31 37.78 32.51 37.93 30.86 39.56 29.63 41.42 29.63 43.28 29.63 44.91 30.87 45.06 32.51Z" fill="#DECF00"/><path d="M41.42 30.02C43.22 30.02 44.79 31.17 45.07 32.74 45.07 32.67 45.07 32.59 45.06 32.52 44.91 30.87 43.28 29.64 41.42 29.64 39.56 29.64 37.93 30.88 37.78 32.52 37.77 32.59 37.77 32.67 37.77 32.74 38.05 31.17 39.62 30.02 41.42 30.02Z" fill="#D1C300" opacity="0.3"/></g><rect x="0" y="43.24" width="81.74" height="7.93" fill="#B54E2F"/><rect x="0" y="51.18" width="81.74" height="7.93" fill="#B54E2F"/><rect x="0" y="58.17" width="81.74" height="0.94" fill="#B54E2F"/><rect x="0" y="50.24" width="81.74" height="0.94" fill="#B54E2F"/><rect x="0" y="42.31" width="81.74" height="0.94" fill="#B54E2F"/><rect x="0" y="43.24" width="81.74" height="0.94" fill="#B54E2F"/><rect x="0" y="51.18" width="81.74" height="0.94" fill="#B54E2F"/><rect x="0" y="59.11" width="81.74" height="7.93" fill="#B54E2F"/><rect x="0" y="59.11" width="81.74" height="0.94" fill="#B54E2F"/><rect x="0" y="67.05" width="81.74" height="7.77" fill="#B54E2F"/><rect x="0" y="67.09" width="81.74" height="0.94" fill="#B54E2F"/><path d="M73.38 35.58 8.36 35.58 0 35.58 0 43.94 0 66.46 0 74.82 8.36 74.82 73.38 74.82 81.74 74.82 81.74 66.46 81.74 43.94 81.74 35.58 73.38 35.58ZM74.95 68.03 6.79 68.03 6.79 42.37 74.95 42.37 74.95 68.03Z" fill="#FFAB40"/><rect x="6.79" y="41.43" width="68.16" height="0.94" fill="#D48E35" opacity="0.7"/><rect x="6.79" y="68.03" width="68.16" height="0.94" fill="#FFAB40"/><g><path d="M0 74.82 0 79.14C0 80.65 1.22 81.87 2.73 81.87L11.27 81.87C12.94 81.87 14.55 81.2 15.73 80.02L20.93 74.82 0 74.82Z" fill="#D47E0D"/><path d="M81.74 74.82 81.74 79.14C81.74 80.65 80.52 81.87 79.01 81.87L70.47 81.87C68.8 81.87 67.19 81.2 66.01 80.02L60.81 74.82 81.74 74.82Z" fill="#D47E0D"/></g><rect x="0" y="73.88" width="81.74" height="0.94" fill="#D48E35" opacity="0.7"/><path d="M60.8 74.82 61.74 75.76 81.74 75.76 81.74 74.82Z" fill="#D47E0D"/><path d="M20.94 74.82 0 74.82 0 75.76 20 75.76Z" fill="#D47E0D"/><g><path d="M22.25 35.41C21.04 37.99 17.3 38.72 13.93 36.98 10.56 35.24 9.01 31.75 10.42 29.28 11.78 26.89 15.43 26.34 18.6 27.98 21.77 29.62 23.42 32.91 22.25 35.41Z" fill="#B8AE19"/><path d="M22.58 34.7C21.38 37.25 17.66 37.98 14.31 36.24 10.96 34.5 9.41 31.05 10.81 28.6 12.16 26.23 15.78 25.69 18.94 27.33 22.09 28.96 23.74 32.23 22.58 34.7Z" fill="#FFEE00"/><path d="M14.48 35.91C11.21 34.21 9.66 30.88 10.9 28.45 10.87 28.5 10.83 28.55 10.8 28.6 9.4 31.05 10.95 34.51 14.3 36.24 17.65 37.98 21.37 37.25 22.57 34.7 22.6 34.65 22.61 34.59 22.63 34.54 21.37 36.95 17.75 37.6 14.48 35.91Z" fill="#E0D100" opacity="0.7"/><path d="M18.81 27.56C21.92 29.17 23.55 32.36 22.51 34.82 22.53 34.78 22.56 34.74 22.58 34.7 23.74 32.23 22.09 28.96 18.94 27.32 15.78 25.68 12.16 26.22 10.81 28.59 10.79 28.63 10.77 28.68 10.75 28.72 12.15 26.45 15.71 25.95 18.81 27.56Z" fill="#FFF78C"/><path d="M20.24 33.9C19.46 35.49 17.13 35.93 15.03 34.85 12.94 33.77 11.95 31.6 12.8 30.05 13.64 28.53 15.94 28.16 17.95 29.21 19.97 30.25 21 32.34 20.24 33.9Z" fill="#FFF78C"/><path d="M20.39 33.6C19.62 35.19 17.28 35.62 15.2 34.54 13.12 33.46 12.12 31.3 12.97 29.75 13.8 28.23 16.1 27.87 18.11 28.92 20.12 29.96 21.14 32.05 20.39 33.6Z" fill="#DECF00"/><path d="M17.91 29.31C19.84 30.31 20.86 32.26 20.28 33.8 20.32 33.74 20.36 33.67 20.39 33.6 21.15 32.05 20.12 29.96 18.11 28.92 16.1 27.88 13.81 28.24 12.97 29.75 12.93 29.82 12.9 29.89 12.87 29.95 13.79 28.6 15.98 28.31 17.91 29.31Z" fill="#D1C300" opacity="0.3"/></g><g><path d="M43.11 24.14C43.76 26.91 41.29 29.81 37.57 30.54 33.85 31.26 30.47 29.5 30.04 26.69 29.62 23.97 32.13 21.27 35.64 20.59 39.14 19.91 42.48 21.46 43.11 24.14Z" fill="#B8AE19"/><path d="M42.93 23.38C43.58 26.12 41.12 29 37.41 29.72 33.71 30.44 30.34 28.7 29.91 25.91 29.49 23.21 32 20.54 35.49 19.86 38.98 19.19 42.3 20.72 42.93 23.38Z" fill="#FFEE00"/><path d="M37.34 29.36C33.72 30.06 30.44 28.41 29.9 25.74 29.91 25.8 29.91 25.86 29.92 25.92 30.35 28.71 33.71 30.45 37.42 29.73 41.12 29.01 43.59 26.13 42.94 23.39 42.93 23.33 42.9 23.28 42.89 23.22 43.38 25.89 40.96 28.66 37.34 29.36Z" fill="#E0D100" opacity="0.7"/><path d="M35.54 20.13C38.97 19.46 42.24 20.94 42.95 23.52 42.94 23.47 42.94 23.43 42.93 23.38 42.3 20.72 38.98 19.18 35.49 19.86 32 20.54 29.5 23.21 29.91 25.91 29.92 25.96 29.93 26 29.94 26.05 29.64 23.4 32.11 20.8 35.54 20.13Z" fill="#FFF78C"/><path d="M40.6 24.21C40.98 25.94 39.42 27.74 37.11 28.19 34.8 28.64 32.68 27.56 32.38 25.81 32.09 24.1 33.67 22.38 35.89 21.95 38.12 21.52 40.23 22.52 40.6 24.21Z" fill="#FFF78C"/><path d="M40.53 23.88C40.91 25.6 39.35 27.39 37.05 27.84 34.74 28.29 32.63 27.22 32.33 25.47 32.04 23.76 33.61 22.06 35.84 21.62 38.06 21.2 40.16 22.2 40.53 23.88Z" fill="#DECF00"/><path d="M35.92 22.06C38.05 21.64 40.07 22.54 40.57 24.11 40.56 24.04 40.55 23.96 40.54 23.89 40.17 22.2 38.07 21.21 35.85 21.64 33.63 22.07 32.05 23.78 32.34 25.49 32.35 25.56 32.37 25.64 32.39 25.71 32.26 24.06 33.79 22.48 35.92 22.06Z" fill="#D1C300" opacity="0.3"/></g><g><path d="M48.83 35C47.82 37.66 44.14 38.68 40.66 37.19 37.17 35.7 35.36 32.35 36.58 29.78 37.76 27.29 41.35 26.47 44.63 27.87 47.92 29.26 49.81 32.42 48.83 35Z" fill="#B8AE19"/><path d="M49.11 34.27C48.11 36.91 44.46 37.91 40.98 36.43 37.51 34.95 35.7 31.62 36.91 29.07 38.08 26.6 41.65 25.79 44.92 27.19 48.19 28.58 50.08 31.72 49.11 34.27Z" fill="#FFEE00"/><path d="M41.13 36.08C37.74 34.63 35.95 31.43 37 28.91 36.97 28.96 36.94 29.01 36.91 29.06 35.7 31.61 37.51 34.94 40.98 36.42 44.45 37.9 48.1 36.9 49.11 34.26 49.13 34.2 49.14 34.15 49.16 34.09 48.08 36.6 44.52 37.53 41.13 36.08Z" fill="#E0D100" opacity="0.7"/><path d="M44.82 27.43C48.04 28.8 49.91 31.86 49.05 34.39 49.07 34.35 49.09 34.31 49.11 34.26 50.08 31.71 48.19 28.57 44.92 27.18 41.65 25.79 38.08 26.6 36.91 29.06 36.89 29.1 36.88 29.15 36.86 29.19 38.1 26.83 41.6 26.06 44.82 27.43Z" fill="#FFF78C"/><path d="M46.72 33.65C46.07 35.3 43.77 35.91 41.6 34.99 39.43 34.07 38.28 31.98 39.02 30.37 39.74 28.79 42.01 28.25 44.09 29.14 46.18 30.03 47.36 32.04 46.72 33.65Z" fill="#FFF78C"/><path d="M46.84 33.34C46.19 34.98 43.9 35.59 41.73 34.67 39.57 33.75 38.42 31.67 39.15 30.07 39.87 28.5 42.13 27.96 44.21 28.85 46.3 29.73 47.48 31.73 46.84 33.34Z" fill="#DECF00"/><path d="M44.05 29.24C46.05 30.09 47.21 31.96 46.75 33.54 46.78 33.47 46.82 33.41 46.85 33.34 47.49 31.73 46.31 29.73 44.22 28.85 42.14 27.96 39.88 28.49 39.16 30.07 39.13 30.14 39.11 30.21 39.08 30.28 39.89 28.85 42.05 28.39 44.05 29.24Z" fill="#D1C300" opacity="0.3"/></g><g><path d="M63.07 29.01C61.23 31.18 57.42 30.91 54.63 28.34 51.84 25.77 51.26 22.01 53.26 19.99 55.2 18.04 58.86 18.46 61.49 20.88 64.12 23.3 64.85 26.91 63.07 29.01Z" fill="#B8AE19"/><path d="M63.58 28.41C61.75 30.56 57.98 30.28 55.2 27.73 52.42 25.18 51.83 21.43 53.82 19.44 55.74 17.51 59.38 17.93 62 20.34 64.61 22.74 65.34 26.33 63.58 28.41Z" fill="#FFEE00"/><path d="M55.45 27.46C52.74 24.97 52.12 21.34 53.95 19.32 53.91 19.36 53.86 19.39 53.82 19.44 51.83 21.44 52.42 25.18 55.2 27.73 57.98 30.28 61.75 30.56 63.58 28.41 63.62 28.36 63.65 28.32 63.68 28.27 61.82 30.26 58.16 29.95 55.45 27.46Z" fill="#E0D100" opacity="0.7"/><path d="M61.81 20.53C64.39 22.9 65.13 26.41 63.47 28.51 63.5 28.47 63.54 28.44 63.57 28.41 65.34 26.33 64.61 22.74 61.99 20.34 59.37 17.93 55.74 17.5 53.81 19.44 53.78 19.47 53.75 19.51 53.72 19.55 55.68 17.72 59.24 18.17 61.81 20.53Z" fill="#FFF78C"/><path d="M61.53 27.03C60.36 28.36 57.99 28.17 56.26 26.58 54.53 24.98 54.14 22.64 55.37 21.36 56.58 20.11 58.89 20.36 60.56 21.9 62.22 23.44 62.67 25.72 61.53 27.03Z" fill="#FFF78C"/><path d="M61.75 26.78C60.59 28.11 58.22 27.92 56.49 26.32 54.76 24.73 54.37 22.39 55.6 21.12 56.8 19.88 59.11 20.13 60.78 21.66 62.44 23.2 62.89 25.48 61.75 26.78Z" fill="#DECF00"/><path d="M60.48 21.98C62.08 23.45 62.55 25.6 61.59 26.93 61.64 26.88 61.7 26.83 61.75 26.77 62.89 25.47 62.44 23.19 60.78 21.66 59.11 20.13 56.8 19.87 55.6 21.12 55.55 21.17 55.5 21.23 55.45 21.29 56.7 20.22 58.88 20.51 60.48 21.98Z" fill="#D1C300" opacity="0.3"/></g><g><path d="M75.26 34.52C74.8 37.33 71.41 39.07 67.7 38.31 63.98 37.56 61.54 34.63 62.21 31.87 62.86 29.19 66.21 27.67 69.71 28.38 73.21 29.09 75.7 31.81 75.26 34.52Z" fill="#B8AE19"/><path d="M75.38 33.75C74.93 36.53 71.55 38.25 67.86 37.5 64.16 36.75 61.72 33.85 62.39 31.11 63.04 28.46 66.37 26.95 69.86 27.65 73.34 28.37 75.82 31.06 75.38 33.75Z" fill="#FFEE00"/><path d="M67.93 37.14C64.32 36.41 61.92 33.63 62.44 30.95 62.42 31.01 62.4 31.06 62.39 31.12 61.72 33.86 64.16 36.76 67.86 37.51 71.56 38.26 74.93 36.54 75.38 33.76 75.39 33.7 75.39 33.64 75.4 33.58 74.84 36.25 71.54 37.87 67.93 37.14Z" fill="#E0D100" opacity="0.7"/><path d="M69.8 27.92C73.23 28.62 75.68 31.24 75.35 33.89 75.36 33.84 75.37 33.8 75.38 33.75 75.82 31.06 73.34 28.36 69.85 27.66 66.37 26.95 63.03 28.47 62.38 31.12 62.37 31.17 62.37 31.21 62.36 31.26 63.1 28.68 66.37 27.23 69.8 27.92Z" fill="#FFF78C"/><path d="M72.92 33.63C72.61 35.38 70.48 36.44 68.17 35.97 65.86 35.5 64.32 33.69 64.71 31.96 65.1 30.27 67.21 29.29 69.43 29.74 71.66 30.2 73.22 31.92 72.92 33.63Z" fill="#FFF78C"/><path d="M72.98 33.3C72.67 35.04 70.55 36.1 68.24 35.63 65.94 35.16 64.39 33.36 64.79 31.64 65.18 29.95 67.28 28.98 69.5 29.43 71.72 29.88 73.28 31.6 72.98 33.3Z" fill="#DECF00"/><path d="M69.41 29.85C71.54 30.28 73.06 31.88 72.92 33.52 72.94 33.45 72.96 33.38 72.97 33.3 73.27 31.6 71.71 29.88 69.49 29.43 67.27 28.98 65.16 29.96 64.78 31.64 64.76 31.71 64.75 31.79 64.74 31.86 65.26 30.3 67.28 29.42 69.41 29.85Z" fill="#D1C300" opacity="0.3"/></g></g></svg>