<svg width="91.47" height="91.13" viewBox="0 0 91.47 91.13" xmlns="http://www.w3.org/2000/svg" xmlns:xlink="http://www.w3.org/1999/xlink" overflow="hidden"><defs></defs><g><path d="M25.08 28.29C25.03 28.78 25.05 29.29 24.93 29.75L24.86 29.78C25.1 29.9 25.7 29.62 26.01 29.61 26.42 29.59 26.93 29.8 26.84 29.26 26.68 28.34 25.77 27.8 25.31 27.05 25.25 27.46 25.12 27.87 25.08 28.29Z" fill="#592B06"/><path d="M74.44 35.5 74.59 35.5C74.54 35.46 74.49 35.42 74.44 35.39 74.45 35.43 74.44 35.47 74.44 35.5Z" fill="#592B06"/><path d="M72.9 35.24C73.46 35.26 73.97 35.11 74.44 35.4 74.45 34.17 74.64 32.97 74.62 31.79 74.29 31.69 73.46 32.38 73.14 32.55 72.53 32.87 71.88 33.09 71.41 33.62 70.97 34.11 70.73 34.54 71.4 34.89 71.87 35.15 72.37 35.22 72.9 35.24Z" fill="#592B06"/><path d="M90.03 40.95 88.97 40.58C86.11 39.77 82.82 39.76 79.81 39.6 73.14 39.24 66.72 40.36 60.76 43.27 54.5 46.31 47.43 51.91 45.15 58.89 43.55 63.79 42.35 69.47 43.13 74.66 43.95 80.15 46.84 85.58 46.77 91.14 49.82 90.47 52.19 86.76 55.36 85.7 55.36 85.7 57.8 87.32 60.96 84.57 65.22 80.87 69.52 76.58 74.59 75.16 80.21 73.59 82.45 67.63 85.43 65.81 87.85 60.14 84.77 58.95 87.1 54.73 90.03 49.4 88.43 45.46 90.03 40.95Z" fill="#6D390A"/><path d="M60.95 84.56C62.44 83.27 63.93 81.91 65.45 80.62 65.57 78.53 65.93 76.43 66.25 74.32 66.62 71.86 67.15 68.94 66.17 66.56 65.74 65.52 63.11 63.54 63.11 63.54 62.23 66.14 62.13 71.32 61.48 73.99 60.85 76.55 60.26 79.13 59.84 81.73 59.69 82.67 59.54 83.61 59.49 84.57 59.46 85.15 59.52 85.36 59.51 85.38 59.54 85.42 59.57 85.47 59.59 85.52 60.03 85.28 60.48 84.97 60.95 84.56Z" fill="#592B06"/><path d="M63.24 65.86C63.21 72.04 63.02 79.11 61.35 84.22 62.4 83.3 63.45 82.36 64.52 81.44 64.76 79.67 65.06 77.9 65.32 76.11 65.74 73.29 63.82 68.29 63.24 65.86Z" fill="#471F04"/><path d="M80.42 62.23C79.69 65.54 79.6 68.94 79.34 72.3 81.81 69.95 83.46 66.99 85.41 65.8 87.83 60.13 84.75 58.94 87.08 54.72 90.02 49.4 88.42 45.46 90.02 40.94L88.96 40.57C88.87 40.54 88.78 40.53 88.7 40.5 86.92 41.51 85.22 42.61 83.54 43.77 84.77 43.79 85.87 44.09 87.05 44.48 88.35 44.91 88.63 46.41 88.02 47.32 86.72 52.96 81.66 56.59 80.42 62.23Z" fill="#592B06"/><path d="M88.53 51.19C87.03 53.8 85.35 56.3 83.63 58.77 82.68 62.31 81.66 65.83 80.79 69.38 82.37 66.62 84.24 64.16 86.38 61.88 86.5 59.22 85.41 57.75 87.08 54.73 87.77 53.48 88.22 52.31 88.53 51.19Z" fill="#471F04"/><path d="M46.37 64.04C46.25 64.05 46.14 64.06 46.02 64.05 45.77 70.55 45.67 77.07 45.48 83.58 46.2 86.08 46.79 88.59 46.76 91.13 48.2 90.81 49.48 89.82 50.77 88.75 50.75 88.34 50.72 87.93 50.7 87.51 50.58 85.58 50.5 83.57 49.86 81.73 49.32 80.19 48.36 78.69 48.07 77.07 47.11 71.65 49.13 67.24 52.35 63.27 50.4 63.62 48.4 63.76 46.37 64.04Z" fill="#592B06"/><path d="M68.25 78.42C69.38 77.6 70.55 76.87 71.74 76.27 71.83 74.88 71.94 73.49 72.12 72.1 72.55 68.74 73.58 66.01 74.69 62.85 75.68 60.03 74.99 57.02 75.94 54.23 76.69 52.04 77.71 50.07 78.28 47.9 76.99 48.65 75.36 49.12 74.03 49.11 72.4 49.1 70.73 48.86 69.15 49.41 69.25 49.38 64.52 50.53 65.7 51.06 66.01 51.08 67.28 51.45 67.55 51.56 67.7 51.62 71.34 51.48 71.34 51.48 68.67 57.82 69.25 67.14 68.73 73.87 68.6 75.4 68.45 76.92 68.25 78.42Z" fill="#592B06"/><path d="M68.25 78.42C68.54 78.21 68.83 78.01 69.12 77.81 69.26 75.11 69.63 72.44 69.93 69.74 70.25 66.84 70.37 63.92 70.95 61.05 71.94 56.13 73.08 52.65 76.98 49.37 77.3 49.1 77.64 48.97 77.97 48.93 78.08 48.59 78.19 48.25 78.28 47.9 76.99 48.65 75.36 49.12 74.03 49.11 72.4 49.1 70.73 48.86 69.15 49.41 69.25 49.38 64.52 50.53 65.7 51.06 66.01 51.08 67.28 51.45 67.55 51.56 67.7 51.62 71.34 51.48 71.34 51.48 68.67 57.82 69.25 67.14 68.73 73.87 68.6 75.4 68.45 76.92 68.25 78.42Z" fill="#471F04"/><path d="M57.5 70.17C58.86 66.59 58.46 63.01 60.94 59.47 61.5 58.66 65.35 54.2 65.51 53.27 62.74 54.28 54.69 59.66 53.14 62.25 53.42 65.14 53.69 68.04 53.62 70.94 53.55 73.86 53.14 76.74 53.48 79.66 53.73 81.81 54.1 83.97 54.35 86.12 54.62 85.98 54.89 85.85 55.16 85.75 55 83.46 55.58 81.24 55.95 78.94 56.45 75.92 56.39 73.1 57.5 70.17Z" fill="#592B06"/><path d="M60.18 57.04C60.2 56.9 60.22 56.76 60.24 56.62 57.47 57.63 54.68 59.66 53.14 62.25 53.42 65.14 53.69 68.04 53.62 70.94 53.55 73.86 53.14 76.74 53.48 79.66 53.73 81.81 54.1 83.97 54.35 86.12 54.59 86 54.83 85.89 55.07 85.79 54.85 80.39 54.78 74.98 54.98 69.57 55.16 64.41 57.59 61.24 60.18 57.04Z" fill="#471F04"/><path d="M46.04 59.29C43.74 52.96 34.28 47.3 28.48 44.58 22.67 41.85 14.81 41.87 8.52 41.56 6.82 41.48 5.47 41.4 3.96 40.91 3.96 45.97 4.14 51.38 6.5 55.7 7.47 57.48 8.51 64.24 10.55 68.09 11.93 70.69 13.33 70.1 15.52 70.99 18.96 72.38 20.67 77.26 26.48 80.46 28.56 81.6 29.85 84.52 34.17 85.96 36.64 86.78 39.66 86.24 39.66 86.24 42.17 87.25 42.25 89.6 46.76 91.15 46.91 86.11 46.46 80.94 46.46 75.58 46.46 70.72 47.67 63.76 46.04 59.29Z" fill="#915922"/><path d="M22.79 77.8C23.83 78.73 25.02 79.65 26.48 80.45 27.73 81.14 28.7 82.47 30.22 83.73 29.12 81.02 28.09 78.27 27.4 75.43 26.5 71.73 26.17 67.82 25.16 64.13 25.16 64.17 25.15 64.21 25.14 64.24 25.67 66.1 25.89 68.42 25.65 70.67 25.67 73.81 25.02 76.7 22.79 77.8Z" fill="#6D390A"/><path d="M46.35 64.76C45.59 64.17 44.4 63.25 43.39 63.01 43.4 63.09 43.42 63.18 43.43 63.29 43.47 63.42 43.51 63.54 43.55 63.67 43.69 63.78 43.81 63.91 43.92 64.07 46.83 68.16 45.66 73.13 45.83 77.81 45.97 81.84 46.5 85.85 46.78 89.88 46.83 85.24 46.46 80.48 46.46 75.56 46.46 72.51 46.94 68.63 46.89 65.05 46.71 64.99 46.53 64.9 46.35 64.76Z" fill="#AA692E"/><path d="M43.05 89.03C42.77 85.69 42.36 82.35 42.24 78.98 42.18 77.44 42.32 75.78 42.39 74.1 41.53 71.31 40.64 68.54 40.27 65.64 39.55 63.61 38.91 61.31 40.36 60.16 40.74 59.86 41.14 59.64 41.55 59.5 41.3 59.33 41.01 59.2 40.7 59.1 39.62 59.72 38.45 60.13 37.21 60.36 39.32 66.21 40.25 72.34 40.14 78.5 40.16 78.56 40.19 78.62 40.21 78.67 40.54 79.73 40.28 80.97 40.07 82.04 40.09 82.13 40.1 82.23 40.1 82.33 40.1 83.7 40.05 85.01 39.86 86.31 41.22 86.94 41.86 87.97 43.05 89.03Z" fill="#AA692E"/><path d="M4.53 41.08C4.34 41.03 4.15 40.97 3.95 40.91 3.95 45.97 4.13 51.38 6.49 55.7 7.46 57.48 8.5 64.24 10.54 68.09 11.34 69.6 12.15 70.03 13.1 70.3 11.04 66.02 7.3 59.47 9.56 55.14 8.25 54.22 6.3 51.87 6.3 51.87 6.3 52.25 5.38 49.34 5.2 46.19 5.14 44.74 5.15 43.31 5.33 41.86 5.04 41.62 4.77 41.36 4.53 41.08Z" fill="#AA692E"/><path d="M19.62 74.49C19.72 72.24 19.89 69.99 19.9 67.72 19.92 62.58 17.67 57.6 19.57 52.62 19.15 52.21 18.79 51.78 18.48 51.34 17.36 50.7 16.38 49.85 15.23 49.33 15.21 50.04 15.15 50.76 15.06 51.47 15.06 51.55 15.07 51.63 15.08 51.71 16.12 54.58 16.6 57.52 17.11 60.57 17.17 60.71 17.23 60.86 17.27 61.03 17.4 61.75 17.54 62.47 17.66 63.18 17.81 63.43 17.91 63.72 17.93 64.07 18.09 67.06 18.43 70 18.23 72.97 18.68 73.45 19.14 73.95 19.62 74.49Z" fill="#AA692E"/><path d="M17.31 45.81C15.69 45.54 11.72 45.03 11.36 45.05 11.64 47.95 11.91 50.88 12.68 53.7 13.49 56.68 15.03 59.31 16 62.22 17.17 65.73 17.77 69.34 18.24 72.99 18.52 73.28 18.8 73.58 19.08 73.9 18.94 68.02 18.63 62.12 17.39 56.4 16.68 53.11 16.35 52.03 16.09 49.94 16.36 49.53 17.58 45.88 17.31 45.81Z" fill="#7F491C"/><path d="M17.31 45.81C15.69 45.54 6.67 42.7 6.31 42.72 7.52 44.8 10.66 46.37 11.79 46.69 14.7 47.71 14.68 49.63 15.21 51.9 15.92 54.88 16.58 57.91 17.19 60.92 17.99 64.86 18.83 69.27 18.77 73.55 18.87 73.66 18.98 73.76 19.08 73.88 18.94 68 18.63 62.1 17.39 56.38 16.68 53.09 16.41 51.91 16.15 49.81 16.42 49.42 17.58 45.88 17.31 45.81Z" fill="#592B06"/><path d="M44.36 57.73C41.39 57.82 32.18 56.43 32.88 58.3 34.96 61.33 37.13 65.8 38.51 74.31 39.16 78.31 39.2 82.2 39.66 86.22 39.83 86.3 40.29 86.53 40.44 86.63 40.65 84.5 40.94 82.35 41.12 80.18 41.63 74.08 39.61 67.25 39.05 61.2 39.06 61.21 43.4 58.96 44.36 57.73Z" fill="#7F491C"/><path d="M44.36 57.73C41.39 57.82 27.27 52.27 24.46 53.27L27.87 55.71C30.91 56.87 35.74 61.12 35.73 61.25 36.43 61.68 39.01 67.72 39.5 70.19 40.51 75.34 40.99 81.17 40.04 86.4 40.18 86.47 40.32 86.55 40.44 86.63 40.65 84.5 40.94 82.35 41.12 80.18 41.63 74.08 39.61 67.25 39.05 61.2 39.06 61.21 43.4 58.96 44.36 57.73Z" fill="#592B06"/><path d="M72.75 58.48C72.51 60.41 73.44 70.22 72.94 72.04 74.76 71.98 74.3 71.56 76.12 71.38 77.59 71.24 80.86 63.66 82.29 63.11 83.71 62.57 86.57 60.83 87.45 59.53 88.3 58.28 88.23 57.25 88.9 55.88 89.58 54.49 90.28 54.51 91.21 53.27 92.17 52 90.28 47.56 90.28 47.56L83.1 50.17C82.34 50.5 81.54 50.76 80.77 51.08 80.35 51.25 79.93 51.42 79.51 51.58 77.83 52.29 76.14 52.95 74.39 53.47 74.33 53.49 74.28 53.49 74.23 53.5 74.1 53.56 73.96 53.56 73.85 53.54L73.7 53.6C73.7 53.6 73.75 55.55 73.66 56.05 73.48 56.92 72.86 57.57 72.75 58.48Z" fill="#824B19"/><path d="M76.43 66.84C76.01 68.37 75.67 69.9 75.47 71.46 75.65 71.42 75.86 71.4 76.12 71.37 76.28 71.35 76.47 71.24 76.67 71.07 77.36 68.19 78.72 65.58 80.11 62.88 81.14 60.87 81.94 58.84 82.68 56.7 83.01 55.74 83.58 55.2 81.91 55.06 81.03 54.99 80.17 54.93 79.29 54.9 80.45 56.44 81.49 57.61 80.43 59.81 79.27 62.19 77.14 64.27 76.43 66.84Z" fill="#93552B"/><path d="M76.26 71.34C77.79 70.76 80.9 63.63 82.28 63.11 83.7 62.57 86.56 60.83 87.44 59.53 88.29 58.28 88.22 57.25 88.89 55.88 89.57 54.49 90.27 54.51 91.2 53.27 92.16 52 90.27 47.56 90.27 47.56 90.27 47.35 85.56 49.25 81.91 52.23 81.14 53.09 81.82 55.36 81.83 55.6 81.99 58.44 81.45 59.92 79.3 63.06 77.58 65.58 76.71 68.38 76.26 71.34Z" fill="#683411"/><path d="M76.26 71.34C76.94 71.08 77.93 69.53 78.95 67.84 78.2 64.93 80.33 62.2 82.14 59.81 82.69 57.97 83.15 56.1 84.04 54.43 84.02 54.41 83.99 54.4 83.97 54.38 83.8 54.24 83.62 54.11 83.43 53.99 82.88 53.81 82.22 54.1 81.6 54.22 81.68 54.89 81.84 55.48 81.85 55.6 82.01 58.44 81.47 59.92 79.32 63.06 77.58 65.58 76.71 68.38 76.26 71.34Z" fill="#592B06"/><path d="M68.42 80.47C69.37 79.78 69.89 75.4 70.63 72.3 71.28 69.58 75.19 65.75 75.27 62.93L75.14 63.05C73.32 61.51 71.25 63.21 69.65 63.82 67.49 64.65 65.14 63.93 63.11 63.54 62.97 65.17 63.38 67.53 63.53 69.32 63.7 71.27 64.47 79.54 64.52 81.43 65.96 81.94 67.05 81.47 68.42 80.47Z" fill="#683411"/><path d="M68.71 69.89C69.83 67.08 72.94 66.21 75.01 64.23 75.15 63.83 75.23 63.45 75.26 63.08 73.41 64.69 70.95 65.85 68.54 66.11 68.54 66.17 68.52 66.23 68.51 66.3 67.04 71.27 66.71 76.35 66.58 81.48 67.03 81.34 67.48 81.1 67.96 80.79 67.96 78.53 68.09 76.28 68.23 74.02 68.3 72.74 68.21 71.11 68.71 69.89Z" fill="#592B06"/><path d="M67.06 81.3C67.08 75.43 68.01 68.84 69.92 63.27 67.88 63.86 65 63.91 63.1 63.54 62.96 65.17 63.37 67.53 63.52 69.32 63.69 71.27 64.46 79.54 64.51 81.43 65.46 81.76 66.25 81.67 67.06 81.3Z" fill="#824B19"/><path d="M66.52 81.5C66.7 81.45 66.89 81.38 67.07 81.29 67.09 76.55 67.72 71.35 68.97 66.59 68.04 66.68 67.06 66.59 66.28 66.25 67.66 68.24 67.54 70.22 67.15 72.53 66.62 75.51 66.59 78.5 66.52 81.5Z" fill="#93552B"/><path d="M13 60.17C13.19 62.19 14.46 64.96 15.32 66.89 16.14 68.72 16.96 70.59 17.89 73.36 18.1 73.37 18.54 73.57 18.75 73.56 18.72 71.16 18.81 69.21 18.4 66.82 17.52 61.73 17.04 59.86 16.42 57.32 15.36 58.02 14.21 59.69 13 60.17Z" fill="#6D390A"/><path d="M16.52 57.66C16.49 57.55 16.46 57.43 16.43 57.31 15.36 58.01 14.21 59.68 13.01 60.16 13.2 62.18 14.47 64.95 15.33 66.88 16.15 68.71 16.97 70.58 17.9 73.35 17.95 73.35 18.03 73.37 18.1 73.39 17.43 70.59 16.83 67.8 16.07 65.01 15.78 63.95 15.26 62.58 15.52 61.45 15.82 60.16 16.43 59.01 16.52 57.66Z" fill="#5B2B07"/><path d="M8.32 58.53C10.1 60.97 12.2 63.28 13.36 66.02 14.3 68.24 15.47 72.65 17.91 73.36 16.97 69.56 15.08 64.54 14.31 61.73 13.89 60.23 11.15 55.65 8.32 58.53Z" fill="#7F491C"/><path d="M8.32 58.53 8.32 58.53 8.27 58.58C8.29 58.56 8.3 58.55 8.32 58.53Z" fill="#7F491C"/><path d="M8.32 58.53C8.36 58.58 8.4 58.63 8.43 58.68 8.54 58.68 8.66 58.7 8.78 58.75 12.62 60.43 14.11 62.56 15.27 66.5 15.86 68.5 16.64 70.33 17.54 72.22 17.6 72.35 17.67 72.49 17.72 72.64 16.73 68.94 15.03 64.37 14.31 61.73 13.89 60.23 11.15 55.65 8.32 58.53Z" fill="#935527"/><path d="M43.25 85.35C43.15 81.58 44.65 77.23 45.44 73.72 43.49 73.78 43.17 71.31 42.59 69.73 42.02 68.2 41.65 66.19 41.16 64.88L40.94 64.77C41.52 66.52 41.55 68.63 42.07 70.51 42.29 71.31 42.51 72.14 42.83 72.9 42.95 73.18 43.05 73.53 43.28 73.78 43.52 74.05 44.04 74.07 44.16 74.33 44.36 74.77 43.8 75.95 43.66 76.46 43.39 77.43 43.25 78.09 43.25 79.13 43.25 80.26 43.3 81.42 43.25 82.55 43.2 83.39 42.9 84.55 43.25 85.35Z" fill="#7F491C"/><path d="M24.14 58.3C24 57.57 23.83 53.98 23.62 53.27 23.05 52.89 21.96 52.97 21.31 52.75 20.92 52.62 19.44 52.42 19.65 52.64L19.54 52.53C19.77 53.23 19.53 57.67 19.54 58.4 20 58.31 20.82 55.56 21.33 55.6 21.4 56.96 21.59 58.29 21.21 59.45 22.62 60.27 22.1 61.5 21.96 62.87 21.81 64.44 22.88 63.54 22.79 65.11 22.71 66.41 21.66 70.07 21.84 71.37 21.84 71.37 22.83 74.01 22.79 74.79 22.78 74.9 22.83 74.82 22.91 74.62 22 71.2 23.09 67.81 24.1 64.5 24.08 63.83 24.07 63.15 24.09 62.47 24.11 61.99 24.12 61.51 24.14 61.03 23.85 59.34 24.19 60.01 24.14 58.3Z" fill="#6D390A"/><path d="M74.61 31.77C69.86 26.67 63.59 26.57 59.71 23.17 57.79 21.48 49.09 17.26 46.77 15.72 41.48 18.89 37.61 18.84 35.31 21.91 33.03 24.94 28.48 25.3 25.29 27.13 25.46 27.57 25.87 28.6 26.08 29.06 22.05 28.36 17.02 32.62 13.13 35.21 9.74 37.47 3.84 40.74 3.84 40.74 8.28 45.58 12.09 46.42 16.6 47.09 16.92 47.93 15.71 49.24 16.33 50.62 18.23 54.89 32.41 56.73 35.79 60.59 36.6 61.52 40.84 59.38 40.84 59.38 40.84 60.15 39.07 61.21 39.07 61.21 43.24 63.62 45.23 66.05 47.03 65.79 48.78 65.54 53.57 62.65 55.13 61.69 58.16 59.81 59.12 57.83 62.37 56.61 66.34 55.11 68.43 55.03 71.34 51.48 69.7 51.31 68.23 50.95 66.55 50.99 70.68 49.08 75.55 50.42 79.69 47.95 82.97 45.99 86.28 41.69 90.04 40.96 88.77 39.6 85.46 37.09 77.24 33.13L72.1 34.04C72.7 33.55 74.11 32.35 74.61 31.77Z" fill="#93B40D"/><path d="M32.23 29.09C29.18 29.2 26.26 29.77 23.27 29.26 22.5 29.47 21.71 29.78 20.91 30.17 22.6 30.51 24.28 30.86 26.01 30.99 28.13 31.15 30.3 31.03 32.41 31.33 35.32 31.76 37.35 33 38.08 35.46 39.42 33.59 39.84 31.4 37.05 30.14 35.55 29.46 33.89 29.04 32.23 29.09Z" fill="#84990A"/><path d="M42.57 32.34C43.91 30.61 44.74 28.61 46.35 27.06 47.64 25.83 49.93 25.01 51.62 24.56 54.36 23.83 57.13 23.55 59.93 23.33 59.86 23.27 59.79 23.22 59.72 23.16 59.22 22.72 58.24 22.1 57.05 21.41 49.04 22.76 37.39 25.9 42.57 32.34Z" fill="#84990A"/><path d="M16.26 48.95C16.12 49.47 16.06 50.04 16.32 50.61 16.66 51.38 17.41 52.07 18.42 52.71 20.24 51.23 22.39 50.32 24.67 49.7 26.22 47.98 27.52 46.26 27.8 43.99 27.59 44.02 27.37 44.06 27.15 44.08 24.56 47.05 20.27 49.9 16.26 48.95Z" fill="#84990A"/><path d="M33.79 42.27C33.32 42.49 32.84 42.68 32.36 42.86 32.36 42.88 32.36 42.91 32.36 42.93 32.19 43.63 32.28 44.17 32.53 44.6 32.71 44.5 32.92 44.45 33.17 44.52 33.87 44.72 34.57 44.92 35.26 45.12 38.5 44.81 42.06 45.29 44.48 47.53 44.58 47.55 44.68 47.58 44.76 47.63 45.14 47.47 45.53 47.33 45.92 47.21 42.9 44.71 39.08 44.05 35.17 43.01 35.13 43.01 35.1 43.03 35.06 43.03 34.31 43.03 33.95 42.75 33.79 42.27Z" fill="#84990A"/><path d="M81.02 35.02C80.02 34.5 78.93 33.94 77.72 33.35 75 34.15 72.13 34.35 69.21 34.27 64.51 34.86 59.52 34.46 55.54 32.81 52 32.2 47.84 30.91 48.39 27.74 47.89 28.06 47.41 28.42 46.99 28.84 47.04 28.99 47.05 29.15 46.99 29.34 46.91 29.62 46.86 29.89 46.86 30.15 46.97 30.34 47.01 30.58 46.94 30.83 48.48 36.57 70.63 37.18 81.02 35.02Z" fill="#84990A"/><path d="M64.53 45.45C65.92 45.23 67.14 45.21 68.55 45.4 71.83 45.83 74.96 46.9 77.85 45.72 78.4 45.33 78.97 44.97 79.54 44.6 79.71 43.74 79.79 42.88 79.8 42.02 78.78 43.23 76.9 43.67 74.77 43.53 72.71 43.4 70.7 42.94 68.64 42.74 68.17 42.7 67.71 42.68 67.26 42.68 67.1 42.7 66.94 42.7 66.77 42.73 64.96 42.97 63.33 43.12 61.85 42.27 61.54 42.16 61.22 42.03 60.91 41.87 60.87 41.85 60.85 41.83 60.82 41.81 60.09 43.41 59.23 45.95 61.69 45.82 62.65 45.76 63.59 45.64 64.53 45.45Z" fill="#84990A"/><path d="M20.24 38.97C17.24 38.76 13.59 38.64 11.53 36.23 10.64 36.79 9.68 37.36 8.75 37.91 10.22 38.79 11.74 39.51 13.33 40.08 15.07 40.46 16.82 40.81 18.53 41.3 19.43 41.41 20.34 41.48 21.29 41.48 26.23 41.51 31.29 41.87 35.1 38.6 34.84 38.63 34.58 38.65 34.3 38.68 29.77 40.27 24.99 39.3 20.24 38.97Z" fill="#84990A"/><path d="M26.33 55.45C25.44 55.33 24.54 55.18 23.65 55 23.55 55 23.46 54.99 23.36 54.99 24.51 55.42 25.72 55.84 26.91 56.26 26.84 56.22 26.78 56.18 26.71 56.14 26.45 55.97 26.34 55.71 26.33 55.45Z" fill="#43D7EF"/><path d="M57.43 59.18C55.92 60.68 49.01 64.64 46.93 65.02 45.39 65.3 44.83 63.51 40.76 61.47 39.8 60.99 41.91 59.05 42.04 58.61 40.59 58.82 39.2 59.26 37.79 59.85 37.21 60.09 35.88 60.06 35.46 59.65 32 56.23 22.7 54.33 20.23 53.27 18.86 52.68 16.85 51.44 16.66 49.87 16.55 48.93 17.06 48.15 17.35 47.27 17.77 45.97 15.59 46.24 14.95 46.1 12.57 45.59 6.21 43.53 3.84 40.73L3.83 40.73C8.27 45.57 12.08 46.41 16.59 47.08 16.91 47.92 15.7 49.23 16.32 50.61 18.22 54.88 32.4 56.72 35.78 60.58 36.59 61.51 40.83 59.37 40.83 59.37 40.83 60.14 39.06 61.2 39.06 61.2 43.23 63.61 45.22 66.04 47.02 65.78 48.77 65.53 53.56 62.64 55.12 61.68 58.15 59.8 59.11 57.82 62.36 56.6 66.33 55.1 68.42 55.02 71.33 51.47 69.69 51.3 68.22 50.94 66.54 50.98 70.67 49.07 75.54 50.41 79.68 47.94 82.31 46.36 84.96 43.3 87.84 41.77 85.81 42.23 83.96 44.06 82.27 45.26 79.85 46.98 77.93 48.49 74.91 48.9 73.01 49.16 67.81 49.77 66.93 50.31 66.14 50.8 65.42 51.2 66.3 51.27 68.59 51.46 70.42 51.93 70.42 51.93 66.38 55.49 62.03 55.29 60.83 56.05 59.49 56.89 58.54 58.09 57.43 59.18Z" fill="#BAE64A"/><path d="M87.06 57.79C86.91 58.35 87.19 59.48 87.01 60.04 87.18 59.87 87.32 59.7 87.43 59.53 88.28 58.28 88.21 57.25 88.88 55.88 89.56 54.49 90.26 54.51 91.19 53.27 92.15 52 90.26 47.56 90.26 47.56 90.26 47.52 90.1 47.56 89.84 47.64 89.38 48.68 88.79 49.68 87.98 50.38 88.53 51.52 89.12 52.99 89.02 53.26 88.26 55.27 87.54 56.38 87.06 57.79Z" fill="#592B06"/><path d="M83.4 61.13C84.89 58.19 86.4 55.29 87.06 52.04 85.59 52.4 83.41 51.79 81.89 52.04 81.39 52.62 84.3 53.19 84.52 53.82 84.52 53.82 84.36 55.22 84.28 55.7 83.98 57.5 83.71 59.32 83.4 61.13Z" fill="#471F04"/><path d="M82.9 52.45C83.23 52.28 86.77 52.46 87.15 52.29 89.6 51.17 89.67 49.85 90.28 48.8 91.16 47.29 89.27 46.67 86.84 46.9 84.06 50.09 78.07 52.22 73.69 53.58 75.01 54.92 77.21 53.82 78.29 54.59 79.95 55.75 81.85 55.58 81.85 55.58 81.85 55.58 83.81 54.45 84.54 53.8 84.9 53.47 82.26 52.78 82.9 52.45Z" fill="#A06422"/><path d="M81.84 55.18C81.05 55.28 79.1 54.22 78.28 54.13 76.77 53.96 77.29 54.25 75.76 53.96 75.25 53.86 74.53 53.53 74.03 53.47 73.91 53.51 73.79 53.54 73.68 53.58 75 54.92 77.2 53.82 78.28 54.59 79.94 55.75 81.84 55.58 81.84 55.58 81.84 55.58 83.8 54.45 84.53 53.8 84.91 53.46 82.27 52.77 82.9 52.44 83.23 52.27 86.77 52.45 87.15 52.28 89.19 51.35 89.58 50.28 90.01 49.34 88.98 50.91 87.78 51.96 84.11 51.49 84.1 51.49 84.1 51.49 84.09 51.49 83.36 51.61 82.68 51.79 81.94 52.06 81.91 52.07 81.88 52.08 81.85 52.08 82.25 52.46 82.56 53.05 83.12 53.24 84.66 53.79 82.42 55.11 81.84 55.18Z" fill="#C98441"/><path d="M69.79 66.71C70.93 66.25 74.73 64.35 75.21 63.24 75.88 61.69 70.57 61.04 69.32 61.51 69.32 61.51 67.58 62.46 66.72 62.83 65.69 63.28 64.23 63.78 63.09 63.54 63.18 63.82 63.41 64.35 63.67 64.65 64.95 66.13 68.04 67.42 69.79 66.71Z" fill="#A06422"/><path d="M69.79 66.71C70.77 66.31 73.75 64.84 74.84 63.73 71.58 66.22 66.13 66.97 63.48 63.59 63.35 63.58 63.22 63.57 63.1 63.54 63.19 63.82 63.42 64.35 63.68 64.65 64.95 66.13 68.04 67.42 69.79 66.71Z" fill="#C98441"/><path d="M9.69 59.11C11.36 59.51 12.93 60.74 14.31 61.73 15.24 60.53 16.44 59.11 16.44 57.32 15.26 56.83 13.83 56.13 13.11 55.08 10.49 56.22 5.95 58.58 9.69 59.11Z" fill="#BA8342"/><path d="M13.69 60.72C12.9 60.01 10.89 59.13 9.15 58.76 8.27 58.57 8.4 58.24 8.33 58.08 8.12 58.55 8.44 58.93 9.68 59.11 11.35 59.51 12.92 60.74 14.3 61.73 15.21 60.56 16.36 59.18 16.42 57.45 16.03 58.58 15.79 58.91 15.21 59.9 14.95 60.35 14.1 61.08 13.69 60.72Z" fill="#FCBF75"/><path d="M32.57 64.14C31.89 64.85 31.51 65.45 31.11 66.34 30.13 68.53 29.63 70.12 30.18 72.63 30.84 75.64 31.91 78.51 32.91 81.43 33.59 83.43 34.59 87.18 36.41 88.46 37.15 87.79 38.09 87.1 38.71 86.32 37.54 82.95 36.91 78.66 36.54 74.97 36.16 71.22 35.54 67.32 35.25 63.62 34.41 63.27 33.07 63.61 32.57 64.14Z" fill="#6D390A"/><path d="M35.28 64.06C35.27 63.91 35.25 63.76 35.24 63.61 34.42 63.27 33.07 63.61 32.57 64.14 31.89 64.85 31.51 65.45 31.11 66.34 30.13 68.53 29.63 70.12 30.18 72.63 30.84 75.64 31.91 78.51 32.91 81.43 33.59 83.43 34.59 87.18 36.41 88.46 37.03 87.89 37.79 87.31 38.39 86.67 36.03 84.86 35.88 81.53 34.82 78.59 33.94 76.16 33.24 73.77 33.28 71.16 33.32 68.66 34.44 66.81 35.12 64.45 35.16 64.31 35.22 64.18 35.28 64.06Z" fill="#5B2B07"/><path d="M31.07 65.48C30 64.83 28.35 64.55 27.18 63.79 26.15 63.13 21.34 60.99 20.1 61.12 20.3 64.73 23.69 69.2 25.21 73.06 26.85 77.23 28.14 79.92 29.29 84.21 29.69 85.72 32.84 85.42 34.33 88.3L36.4 88.45C36.4 88.45 35.96 85.61 35.63 84.47 35.23 83.05 32.94 74.55 32.36 71.79 31.98 70.01 32.7 66.47 31.07 65.48Z" fill="#7F491C"/><path d="M31.95 66.81C31.07 67.07 30.14 67.1 29.2 67.08 32.03 69.68 32.68 74.3 33.33 77.95 33.97 81.57 35.38 84.92 36.19 88.44L36.4 88.46C36.4 88.46 35.96 85.62 35.63 84.48 35.23 83.06 32.94 74.56 32.36 71.8 32.09 70.51 32.38 68.32 31.95 66.81Z" fill="#935527"/><path d="M20.4 60.31C19.07 61.51 22.52 65.56 24.47 66.55 26.51 67.58 29.27 67.78 31.5 67.53 33.54 67.3 35.33 63.45 35.33 63.45 34.13 62.65 31.5 62.32 29.63 61.08 27.2 59.47 24.21 57.8 24.21 57.8 22.84 59.1 21.68 59.14 20.4 60.31Z" fill="#BA8342"/><path d="M20.4 60.31C19.07 61.51 22.52 65.56 24.47 66.55 26.51 67.58 29.27 67.78 31.5 67.53 33.12 67.35 34.57 64.9 35.11 63.89 32.41 67.2 29.95 67.63 24.88 65.81 23.36 65.27 19.9 63.01 20.76 60.01 20.64 60.1 20.52 60.2 20.4 60.31Z" fill="#FCBF75"/><g><path d="M28.09 61.9C26.61 61.81 25.12 61.89 23.64 61.68 23.49 61.66 23.37 61.61 23.22 61.61L22.84 61.58C22.59 61.61 21.64 61.78 21.64 62.15 21.63 62.36 22.93 62.69 23.19 62.74 23.55 62.82 23.73 62.85 24.01 63.04 24.24 63.2 24.43 63.22 24.75 63.25 25.35 63.31 25.91 63.28 26.52 63.25 26.79 63.24 27.05 63.25 27.31 63.25 27.62 63.25 27.87 63.11 28.16 63.02 28.65 62.87 29.26 63.02 29.69 62.75 29.91 62.61 30.03 62.41 29.82 62.17 29.46 61.79 28.55 61.93 28.09 61.9Z" fill="#662F0A" opacity="0.46"/><g><path d="M24.6 62.78C25.65 62.93 26.33 62.68 27.21 62.14 28.15 63.09 29.97 62.05 30.35 61.07 30.67 60.25 30.77 58.24 29.4 58.34 29.69 57.35 29.19 56.62 28.17 56.18 27.14 55.73 26.54 56.3 25.66 56.6 24.93 56.85 24.03 56.45 23.22 56.97 22.57 57.39 21.93 58.71 22.26 59.39L22.17 59.67C21.29 59.8 21.24 61.39 22.25 61.28 21.98 62.47 23.76 62.66 24.6 62.78Z" fill="#9BC90E"/><path d="M24.6 62.78C25.65 62.93 26.33 62.68 27.21 62.14 28.15 63.09 29.97 62.05 30.35 61.07 30.67 60.25 30.77 58.24 29.4 58.34 29.69 57.35 29.19 56.62 28.17 56.18 28.16 56.18 28.15 56.18 28.14 56.17 28.24 56.46 28.31 56.76 28.31 57.08L28.31 57.18C28.31 58.56 27.27 59.73 25.93 59.95 25.93 59.95 25.92 59.96 25.92 59.96 25.5 60.28 24.95 60.47 24.28 60.47 23.35 60.47 22.66 60.1 22.21 59.55L22.17 59.68C21.29 59.81 21.24 61.4 22.25 61.29 21.98 62.47 23.76 62.66 24.6 62.78Z" fill="#80B708"/><path d="M24.6 62.78C25.65 62.93 26.33 62.68 27.21 62.14 28.15 63.09 29.97 62.05 30.35 61.07 30.67 60.25 30.77 58.24 29.4 58.34 29.67 57.43 29.27 56.75 28.41 56.3 28.44 56.35 28.47 56.41 28.5 56.47 29.56 58.12 28.81 60.93 26.24 60.93 26.2 60.93 26.16 60.93 26.12 60.92 26.07 60.96 26.03 60.99 25.98 61.03 25.55 61.37 24.98 61.59 24.28 61.59 22.96 61.59 22.12 60.84 21.76 59.9 21.31 60.36 21.42 61.38 22.24 61.29 21.98 62.47 23.76 62.66 24.6 62.78Z" fill="#528402"/></g></g><g opacity="0.41"><path d="M55.41 29.5C56.1 30.09 56.84 30.72 57.63 31.24 59.58 31.09 61.54 31.04 63.51 31.18 65.28 31.3 68.97 31.64 69.72 29.75 69.06 29.05 68.37 28.38 67.57 27.96 64.81 26.53 61.03 27.33 58.04 27.25 56.81 27.22 56.03 26.49 55.7 25.6 55.51 26.05 55.16 26.46 54.63 26.78 53.74 27.31 53.41 27.25 54.05 28.1 54.43 28.61 54.93 29.08 55.41 29.5Z" fill="#728407"/></g><g><path d="M38.83 26.51C36.29 26.35 33.74 26.49 31.23 26.13 30.98 26.1 30.78 26.01 30.51 26.02L29.86 25.97C29.44 26.02 27.82 26.31 27.81 26.94 27.8 27.29 30.01 27.86 30.46 27.96 31.07 28.08 31.39 28.15 31.85 28.47 32.25 28.74 32.56 28.78 33.1 28.83 34.13 28.93 35.09 28.89 36.13 28.83 36.59 28.81 37.03 28.83 37.48 28.83 38.01 28.83 38.44 28.6 38.94 28.44 39.76 28.18 40.82 28.44 41.54 27.98 41.91 27.74 42.12 27.4 41.76 26.99 41.17 26.33 39.61 26.56 38.83 26.51Z" fill="#748E09"/><g><path d="M32.87 28.02C34.66 28.27 35.81 27.85 37.32 26.93 38.93 28.55 42.03 26.77 42.69 25.1 43.24 23.69 43.41 20.27 41.07 20.43 41.57 18.73 40.71 17.5 38.97 16.73 37.21 15.96 36.19 16.93 34.68 17.45 33.43 17.88 31.89 17.19 30.51 18.09 29.4 18.81 28.3 21.07 28.87 22.21L28.7 22.7C27.21 22.92 27.11 25.64 28.84 25.45 28.38 27.49 31.43 27.82 32.87 28.02Z" fill="#9BC90E"/><path d="M32.87 28.02C34.66 28.27 35.81 27.85 37.32 26.93 38.93 28.55 42.03 26.77 42.69 25.1 43.24 23.69 43.41 20.27 41.07 20.43 41.57 18.73 40.71 17.5 38.97 16.73 38.96 16.73 38.95 16.73 38.93 16.72 39.1 17.21 39.22 17.73 39.22 18.27L39.22 18.43C39.22 20.79 37.43 22.79 35.16 23.16 35.15 23.16 35.14 23.17 35.13 23.17 34.41 23.71 33.48 24.04 32.33 24.04 30.74 24.04 29.56 23.41 28.79 22.47L28.7 22.7C27.21 22.92 27.11 25.64 28.84 25.45 28.38 27.49 31.43 27.82 32.87 28.02Z" fill="#80B708"/><path d="M32.87 28.02C34.66 28.27 35.81 27.85 37.32 26.93 38.93 28.55 42.03 26.77 42.69 25.1 43.24 23.69 43.41 20.27 41.07 20.43 41.53 18.88 40.84 17.72 39.38 16.94 39.44 17.03 39.49 17.13 39.54 17.23 41.35 20.05 40.07 24.84 35.69 24.84 35.62 24.84 35.55 24.83 35.48 24.83 35.4 24.88 35.32 24.96 35.24 25.01 34.5 25.59 33.53 25.96 32.33 25.96 30.08 25.96 28.65 24.69 28.03 23.07 27.26 23.86 27.45 25.6 28.85 25.44 28.38 27.49 31.43 27.82 32.87 28.02Z" fill="#528402"/></g></g><path d="M61.45 24.41C60.83 24.04 60.24 23.64 59.71 23.16 59.5 22.98 59.19 22.75 58.83 22.51 54.73 22.74 50.36 23.6 46.72 25.33 44.98 26.15 42.4 27.43 42.09 29.59 41.59 33.16 45.99 36.22 48.89 37.1 49.72 37.35 50.5 37.55 51.26 37.73 54.42 38.56 56.44 39.19 57.96 40.51 59.47 41.82 57.21 43.24 55.3 44.4 52.27 45.59 49.4 47.34 46.02 46.86 41.81 46.26 37.95 44.36 33.7 43.98 33.04 43.92 32.66 43.3 32.96 42.69 34.38 39.86 37.92 39.11 38.89 35.85 40.51 30.35 35.22 29.95 31.35 30.16 28.17 30.33 24.51 30.83 21.34 29.98 20.59 30.32 19.85 30.72 19.1 31.17 22.87 33.15 27.72 30.9 31.63 32.51 33.75 33.38 35.61 34.63 35.21 37.14 34.83 39.57 31.4 40.32 29.23 40.91 26.54 41.02 23.82 40.72 22.25 40.6 19.29 40.36 11.92 40.3 10.25 37.02 8.93 37.82 7.58 38.61 6.45 39.26 12.05 44.08 22.88 40.3 26.39 44.17 26.44 44.4 26.51 44.62 26.61 44.83 26.44 45.4 26.25 45.99 26.17 46.15 24.5 48.76 19.58 51.23 16.2 50.24 16.23 50.37 16.26 50.49 16.32 50.63 16.73 51.55 17.71 52.35 19.02 53.09 20.93 50.92 24.4 51.11 27.05 51.88 29.39 52.56 31.38 53.65 32.75 55.43 32.81 55.47 32.86 55.52 32.91 55.58 33.86 56.72 33.17 57.34 33.18 58.75 33.68 59.08 35.11 59.82 35.68 60.49 35.57 59.58 35.02 58.77 34.89 57.66 34.69 55.95 35.17 54.36 33.33 53.44 32.58 53.07 31.81 52.75 31.12 52.33 30.86 52.28 30.61 52.23 30.36 52.17 29.6 51.96 27.35 50.96 27.85 49.69 28.14 48.95 28.93 48 34.16 46.75 35.45 46.62 36.75 46.52 37.95 46.76 40.69 47.32 42.92 49.28 45.86 48.97 48.71 48.67 51.32 47.57 54.1 46.99 56.39 46.51 59.96 45.98 61.77 47.97 64.76 51.24 63.2 54.35 60.89 57.28 61.33 57.03 61.81 56.8 62.36 56.6 63.48 56.18 64.45 55.87 65.33 55.56 65.66 53.07 65.88 50.34 65.12 47.98 65.12 47.98 65.58 46.3 68.1 46.3 70.42 46.3 73.69 48.8 77.51 47.55 78.54 47.21 82.1 46.17 82.93 42.44 83.58 39.51 80.81 38.77 83.68 37.29 83.34 37.39 82.96 37.47 82.55 37.52 83.18 37.38 83.87 37.24 84.73 37.08 83.23 36.19 81.38 35.18 79.08 34.02 78.95 34.04 78.82 34.07 78.69 34.09 77.45 34.35 76.2 34.54 74.95 34.67 72.22 35.04 69.49 35.3 66.76 35.38 62.72 35.51 58.01 35.54 54.17 33.84 51.25 33.3 47.66 32.18 47.66 28.99 47.65 24.29 55.53 24.26 61.45 24.41ZM63.75 38.1C67.59 37.78 71.63 38 74.44 38.25 74.4 38.27 74.35 38.28 74.31 38.3 74.38 38.29 74.46 38.28 74.53 38.26 76.58 38.45 77.94 38.64 77.99 38.65 79.06 39.13 79.87 39.98 79.96 41.33 80.15 44.16 77.97 45.06 75.74 45.39 73.05 45.79 70.98 44.04 67.85 44.04 63.95 44.04 60.53 45.13 61.29 42.78 61.65 42.23 61.72 41.82 61.72 41.82 61.55 40.65 60.57 39.8 59.52 39.2 59.52 39.19 60.21 38.39 63.75 38.1Z" fill="#43D7EF"/><path d="M62.36 56.6C62.52 56.54 62.67 56.49 62.82 56.43 64.02 54.14 64.82 51.63 64.54 49.4 63.51 41.27 50.47 48.77 45.72 47.85 42.53 47.23 39.44 45.38 36.12 45.6 33.8 45.75 31.12 46.17 29.06 47.31 26.64 48.65 25.99 50.95 29.52 52.3 30.1 52.52 30.71 52.78 31.2 53.19 31.46 53.41 31.7 53.64 31.91 53.87 33.55 54.92 33.63 56.89 33.96 59 33.97 59.08 33.96 59.15 33.95 59.22 34.56 59.59 35.3 60.06 35.68 60.49 35.57 59.58 35.02 58.77 34.89 57.66 34.69 55.95 35.17 54.36 33.33 53.44 32.58 53.07 31.81 52.75 31.12 52.33 30.86 52.28 30.61 52.23 30.36 52.17 29.6 51.96 27.35 50.96 27.85 49.69 28.14 48.95 28.93 48 34.16 46.75 35.45 46.62 36.75 46.52 37.95 46.76 40.69 47.32 42.92 49.28 45.86 48.97 48.71 48.67 51.32 47.57 54.1 46.99 56.39 46.51 59.96 45.98 61.77 47.97 64.76 51.24 63.2 54.35 60.89 57.28 61.33 57.03 61.81 56.81 62.36 56.6Z" fill="#6BEEFC"/><path d="M32.44 31.09C31.08 30.85 29.72 30.81 28.37 30.8 25.49 31.26 22.44 32.01 20.14 30.58 19.8 30.76 19.46 30.96 19.11 31.16 22.88 33.14 27.73 30.89 31.64 32.5 33.69 33.34 35.49 34.54 35.25 36.9 36.68 34.7 36.25 31.77 32.44 31.09Z" fill="#6BEEFC"/><path d="M24.42 41.75C23.28 41.4 22.18 41.14 20.97 41.07 19.1 40.96 17.2 41.04 15.34 40.84 13.36 40.62 11.66 40.15 10.14 39.25 9.4 39.05 8.73 38.74 8.19 38.26 7.58 38.62 6.99 38.96 6.45 39.27 12.05 44.09 22.88 40.31 26.39 44.18 26.44 44.41 26.51 44.63 26.61 44.84 26.59 44.9 26.57 44.95 26.56 45.01 27.07 43.74 27.08 42.57 24.42 41.75Z" fill="#6BEEFC"/><path d="M45.88 26.87C49.45 24.4 54.68 23.37 59.59 23.07 59.39 22.9 59.13 22.72 58.83 22.52 54.73 22.75 50.36 23.61 46.72 25.34 44.98 26.16 42.4 27.44 42.09 29.6 41.59 33.17 45.99 36.23 48.89 37.11 49.72 37.36 50.5 37.56 51.26 37.74 53.62 38.37 55.33 38.87 56.69 39.64 55.45 35.48 47.6 36.24 45.07 32.79 43.57 30.73 43.69 28.39 45.88 26.87Z" fill="#6BEEFC"/><path d="M74.54 38.26C76.59 38.45 77.95 38.64 78 38.65 78.18 38.73 78.35 38.82 78.51 38.93 76.32 35.87 70.61 36.77 67.28 36.67 64.8 36.6 60.67 36.74 58.54 38.25 55.76 40.21 60.9 40.91 61.28 42.88 61.29 42.85 61.29 42.82 61.3 42.79 61.66 42.24 61.73 41.83 61.73 41.83 61.56 40.66 60.58 39.81 59.53 39.21 59.53 39.21 60.22 38.41 63.76 38.12 67.6 37.8 71.64 38.02 74.45 38.27 74.41 38.29 74.36 38.3 74.32 38.32 74.39 38.28 74.46 38.27 74.54 38.26Z" fill="#6BEEFC"/><path d="M83.36 36.29C80.44 37.31 81.42 41.2 80.45 43.82 78.2 49.9 69.39 43.98 65.49 46.79 65.55 46.9 65.61 47.01 65.67 47.13 66.1 46.71 66.84 46.3 68.09 46.3 70.41 46.3 73.68 48.8 77.5 47.55 78.53 47.21 82.09 46.17 82.92 42.44 83.57 39.51 80.8 38.77 83.67 37.29 83.33 37.39 82.95 37.47 82.54 37.52 83.17 37.38 83.86 37.24 84.72 37.08 84.29 36.83 83.84 36.57 83.36 36.29Z" fill="#6BEEFC"/><path d="M65.45 54.53C64.41 54.99 63.31 55.49 62.18 55.46 61.8 56.07 61.36 56.68 60.89 57.29 61.33 57.04 61.81 56.81 62.36 56.61 63.48 56.19 64.45 55.88 65.33 55.57 65.37 55.22 65.41 54.88 65.45 54.53Z" fill="#6DEEFC"/><path d="M16.2 50.23C16.23 50.36 16.26 50.48 16.32 50.62 16.73 51.54 17.71 52.34 19.02 53.08 19.12 52.96 19.23 52.86 19.34 52.76 18.34 52.19 17.53 51.4 16.93 50.39 16.68 50.35 16.43 50.3 16.2 50.23Z" fill="#6DEEFC"/><path d="M33.18 58.75C33.68 59.08 35.11 59.82 35.68 60.49 35.63 60.07 35.48 59.67 35.32 59.25 34.64 58.81 34 58.29 33.25 57.95 33.21 58.18 33.18 58.44 33.18 58.75Z" fill="#6DEEFC"/><g><path d="M69.5 63.32C69.67 63.44 69.81 63.45 70.04 63.48 70.48 63.52 70.89 63.5 71.34 63.48 71.54 63.47 71.73 63.48 71.92 63.48 72.15 63.48 72.33 63.38 72.55 63.31 72.91 63.2 73.36 63.31 73.67 63.12 73.83 63.02 73.92 62.87 73.76 62.7 73.51 62.41 72.83 62.51 72.5 62.49 71.41 62.42 70.31 62.49 69.23 62.33 69.12 62.32 69.03 62.28 68.92 62.28L68.64 62.26C68.46 62.28 67.76 62.4 67.76 62.68 67.76 62.83 68.7 63.08 68.9 63.12 69.16 63.15 69.3 63.18 69.5 63.32Z" fill="#773910" opacity="0.64"/><g><path d="M68.2 62.01C68.01 62.89 69.32 63.03 69.93 63.12 70.7 63.23 71.2 63.04 71.85 62.65 72.54 63.35 73.88 62.58 74.16 61.87 74.4 61.26 74.47 59.79 73.46 59.86 73.67 59.13 73.31 58.6 72.56 58.27 71.8 57.94 71.36 58.36 70.71 58.58 70.17 58.76 69.51 58.47 68.92 58.86 68.45 59.17 67.97 60.14 68.21 60.63L68.14 60.84C67.5 60.93 67.46 62.1 68.2 62.01Z" fill="#9BC90E"/><path d="M70.92 61.03C70.92 61.03 70.91 61.03 70.91 61.03 70.6 61.26 70.2 61.41 69.7 61.41 69.02 61.41 68.51 61.14 68.18 60.74L68.14 60.84C67.5 60.93 67.46 62.1 68.2 62.02 68.01 62.9 69.32 63.04 69.93 63.13 70.7 63.24 71.2 63.05 71.85 62.66 72.54 63.36 73.88 62.59 74.16 61.88 74.4 61.27 74.47 59.8 73.46 59.87 73.67 59.14 73.31 58.61 72.56 58.28 72.55 58.28 72.55 58.28 72.54 58.28 72.62 58.49 72.66 58.71 72.66 58.95L72.66 59C72.67 60.02 71.9 60.87 70.92 61.03Z" fill="#80B708"/><path d="M71.15 61.76C71.12 61.76 71.09 61.75 71.06 61.75 71.02 61.77 70.99 61.8 70.95 61.83 70.63 62.08 70.22 62.24 69.7 62.24 68.73 62.24 68.12 61.69 67.85 60.99 67.52 61.33 67.6 62.08 68.2 62.01 68.01 62.89 69.32 63.03 69.93 63.12 70.7 63.23 71.2 63.04 71.85 62.65 72.54 63.35 73.88 62.58 74.16 61.87 74.4 61.26 74.47 59.79 73.46 59.86 73.66 59.19 73.36 58.69 72.73 58.36 72.76 58.4 72.78 58.44 72.8 58.48 73.58 59.69 73.03 61.76 71.15 61.76Z" fill="#528402"/></g></g><path d="M9.29 59.03C9.6 59.13 10 59.18 10.33 59.3 10.57 58.17 12.12 57.89 12.61 56.9 12.21 56.92 11.63 56.92 11.25 57.07L11.12 57.08C10.55 57.29 9.5 58.38 9.29 59.03Z" fill="#662F0A" opacity="0.46"/><g><g><path d="M3.56 52.47C3.56 52.48 3.57 52.48 3.58 52.49 3.57 52.42 3.55 52.35 3.55 52.28L3.43 52.59C3.51 52.52 3.45 52.48 3.56 52.47Z" fill="#703F1E"/><path d="M3.57 52.49C3.92 54.9 7.79 54.52 9.58 55.06 10.4 55.31 11.08 56.19 11.12 57.08 11.6 57.28 12.13 57.16 12.61 56.9 11.4 54.9 9.91 54.59 9.61 54.51 8.63 54.26 7.41 54.22 6.5 53.78 5.47 53.29 5.67 52.31 5.04 51.57 4.83 52.33 5.62 53.07 5.73 53.78 4.71 53.82 4.24 53.13 3.57 52.49Z" fill="#703F1E"/></g><g><path d="M4.04 48.93 3.97 48.94C3.59 48.48 2.12 48.72 1.54 49.01 0.72 49.42 0 50.35 0 51.28-0.01 53.04 1.3 53.34 2.86 53.42 4.2 53.49 5.28 53.33 5.19 51.82 7.78 51.72 6.35 48.15 4.04 48.93Z" fill="#9BC90E"/><path d="M3.43 51.15C3.08 51.31 2.68 51.34 2.32 51.42 1.64 51.56 0.79 51.2 0.29 50.77 0.23 50.72 0.18 50.66 0.12 50.6 0.05 50.82 0 51.05 0 51.28-0.01 53.04 1.3 53.34 2.86 53.42 4.2 53.49 5.28 53.33 5.19 51.82 6.93 51.75 6.85 50.13 5.93 49.3 5.57 49.71 5.11 50.05 4.61 50.3 4.31 50.66 3.92 50.94 3.43 51.15Z" fill="#80B708"/><path d="M5.09 51.01C4.99 51.02 4.88 51.02 4.77 51.02 4.39 51.69 3.7 52.19 2.69 52.28 1.39 52.39 0.5 51.72 0.07 50.81 0.03 50.97 0 51.12 0 51.28-0.01 53.04 1.3 53.34 2.86 53.42 4.2 53.49 5.28 53.33 5.19 51.82 6.28 51.78 6.65 51.12 6.56 50.43 6.53 50.46 6.5 50.49 6.46 50.51 6.04 50.8 5.59 50.97 5.09 51.01Z" fill="#528402"/></g></g><g><path d="M36.87 54.84C40.3 55.56 41.8 59.32 44.95 59.38 48.11 59.45 49.11 58.32 51.77 57.96 54.4 57.6 58.66 57.6 59.79 56.02 60.93 54.44 50.09 54.38 47.58 54.5 45.48 54.6 43.55 54.83 41.5 54.5 39.71 54.21 40 53.17 38.13 53.18L38.36 52.93C37.26 53.42 35.17 54.49 36.87 54.84Z" fill="#748E09"/><g><path d="M52.21 46.09C51.71 45.08 50.3 45.03 49.23 45.28 48.64 45.42 48.02 45.78 47.67 46.24L47.67 46.38C46.83 46.08 45.6 45.64 44.55 45.81 43.26 46.03 42.93 47.31 41.72 47.65 40.49 48 39.4 47.54 38.21 48.19 37.15 48.77 36.54 49.65 36.23 50.87 35.95 51.95 35.92 53.29 36.9 54.02 37.8 54.68 39.09 54.21 39.99 54.76 41.1 55.45 41.13 56.89 42.15 57.7 43.2 58.54 44.78 58.69 46.11 58.69 48.06 58.69 49.57 58.14 51.21 57.17 52.61 56.34 53.29 56.49 54.9 56.57 57.67 56.71 60.75 55.79 59.46 52.43 58.98 51.18 58.36 50.49 57.3 49.77 56.91 49.5 56.57 49.34 56.2 49.07 55.39 48.46 55.34 48.29 54.26 48.08 53.83 48 52.75 48.03 52.44 47.69 51.98 47.19 52.47 46.63 52.21 46.09Z" fill="#9BC90E"/><path d="M48.51 54.95C47.92 54.95 47.43 54.79 47.04 54.52 46.89 54.65 46.74 54.78 46.57 54.88 46.35 55.01 46.09 55.11 45.81 55.18 45.51 55.31 45.17 55.38 44.83 55.38 43.49 55.38 42.37 54.32 42.24 53.01 42.11 52.73 42 52.44 41.91 52.14 41.91 52.14 41.91 52.14 41.9 52.14 41.43 52.38 41.04 52.51 40.51 52.51 39.98 52.51 39.59 52.38 39.13 52.14 38.9 52.17 38.67 52.2 38.44 52.23 37.75 52.23 37.08 51.95 36.59 51.47 36.44 51.32 36.32 51.14 36.21 50.96 35.95 52.02 35.93 53.33 36.9 54.03 37.8 54.69 39.09 54.22 39.99 54.77 41.1 55.46 41.13 56.9 42.15 57.71 43.2 58.55 44.78 58.7 46.11 58.7 48.06 58.7 49.57 58.15 51.21 57.18 52.61 56.35 53.29 56.5 54.9 56.58 57.67 56.72 60.75 55.8 59.46 52.44 58.98 51.19 58.36 50.5 57.3 49.78 57.05 49.61 56.83 49.48 56.6 49.34 56.6 49.34 56.6 49.34 56.6 49.35 56.38 50.13 55.95 50.71 55.38 51.15 55.39 51.84 55.15 52.54 54.63 53.06 53.63 54.06 51.98 54.07 50.96 53.09 50.69 54.1 49.88 54.95 48.51 54.95Z" fill="#80B708"/><path d="M49.52 56.31C49.47 56.35 49.42 56.4 49.38 56.45 48.41 57.41 46.84 57.44 45.82 56.57 45.42 56.88 44.91 57.07 44.27 57.07L44.11 57.07C42.36 57.07 41.52 55.66 41.58 54.31 41.4 54.35 41.21 54.38 41.01 54.38L40.87 54.38C39.82 54.38 38.9 53.73 38.48 52.81 37.43 52.76 36.54 52.07 36.17 51.13 35.95 52.16 35.99 53.36 36.9 54.02 37.8 54.68 39.09 54.21 39.99 54.76 41.1 55.45 41.13 56.89 42.15 57.7 43.2 58.54 44.78 58.69 46.11 58.69 48.06 58.69 49.57 58.14 51.21 57.17 52.61 56.34 53.29 56.49 54.9 56.57 57.4 56.7 60.16 55.95 59.7 53.32 59.49 53.71 59.18 54.05 58.76 54.3 58.23 54.61 57.61 54.7 57.01 54.6 56.53 55.07 55.88 55.36 55.18 55.36L54.89 55.36C54.22 55.36 53.61 55.09 53.14 54.66 52.68 55.41 51.86 55.92 50.93 55.92 50.58 55.92 50.25 55.85 49.93 55.72 49.82 55.94 49.69 56.14 49.52 56.31Z" fill="#528402"/><path d="M52.21 46.09C52.2 46.07 52.18 46.05 52.17 46.03 51.47 47.83 49.8 48.51 48.11 48.36 47.04 49.53 45.38 50.1 43.62 50.19 44.1 50.65 44.66 51.05 45.32 51.34 45.87 51.59 46.6 51.73 47.2 51.72 48.13 51.7 47.77 51.88 47.84 51.49 48.14 49.97 49.74 49.47 51.06 49.66 52.24 49.83 52.85 49.1 52.51 48.07 52.46 47.92 52.43 47.77 52.41 47.63 52.03 47.14 52.46 46.61 52.21 46.09Z" fill="#80B708"/></g></g><g><path d="M73.66 45C73.83 45.12 73.97 45.13 74.2 45.16 74.64 45.2 75.05 45.18 75.5 45.16 75.7 45.15 75.89 45.16 76.08 45.16 76.31 45.16 76.49 45.06 76.71 44.99 77.06 44.88 77.52 44.99 77.83 44.79 77.99 44.69 78.08 44.54 77.92 44.36 77.67 44.08 76.99 44.17 76.66 44.15 75.57 44.08 74.47 44.15 73.39 43.99 73.28 43.97 73.19 43.94 73.08 43.94L72.8 43.92C72.62 43.94 71.92 44.06 71.92 44.34 71.92 44.49 72.86 44.74 73.06 44.78 73.32 44.83 73.46 44.86 73.66 45Z" fill="#748E09"/><g><path d="M72.36 43.7C72.16 44.58 73.48 44.72 74.1 44.81 74.87 44.92 75.36 44.73 76.01 44.34 76.7 45.04 78.04 44.27 78.32 43.56 78.56 42.96 78.63 41.48 77.62 41.55 77.83 40.82 77.47 40.29 76.71 39.96 75.95 39.63 75.52 40.05 74.87 40.27 74.33 40.45 73.67 40.16 73.07 40.54 72.59 40.85 72.12 41.82 72.36 42.31L72.29 42.52C71.66 42.61 71.62 43.78 72.36 43.7Z" fill="#9BC90E"/><path d="M75.08 42.72C75.08 42.72 75.08 42.72 75.07 42.72 74.76 42.95 74.36 43.09 73.86 43.09 73.18 43.09 72.67 42.82 72.34 42.42L72.3 42.52C71.66 42.62 71.62 43.78 72.36 43.7 72.16 44.58 73.48 44.72 74.1 44.81 74.87 44.92 75.36 44.73 76.01 44.34 76.7 45.04 78.04 44.27 78.32 43.56 78.56 42.96 78.63 41.48 77.62 41.55 77.83 40.82 77.47 40.29 76.71 39.96 76.7 39.96 76.7 39.96 76.69 39.96 76.76 40.17 76.81 40.39 76.81 40.63L76.81 40.7C76.82 41.7 76.06 42.56 75.08 42.72Z" fill="#80B708"/><path d="M75.31 43.44C75.28 43.44 75.25 43.44 75.22 43.44 75.18 43.46 75.15 43.49 75.12 43.52 74.8 43.77 74.39 43.93 73.87 43.93 72.9 43.93 72.29 43.39 72.02 42.69 71.69 43.03 71.77 43.78 72.37 43.71 72.17 44.59 73.49 44.73 74.11 44.82 74.88 44.93 75.37 44.74 76.02 44.35 76.71 45.05 78.05 44.28 78.33 43.57 78.57 42.97 78.64 41.49 77.63 41.56 77.83 40.89 77.53 40.39 76.9 40.06 76.92 40.1 76.94 40.14 76.97 40.18 77.74 41.38 77.19 43.44 75.31 43.44Z" fill="#528402"/></g></g><g><g><path d="M48.15 19.34C48.16 19.35 48.17 19.36 48.17 19.36 48.17 19.27 48.15 19.19 48.15 19.1L47.97 19.47C48.09 19.4 48.02 19.35 48.15 19.34Z" fill="#703F1E"/><path d="M55.37 22.48C54.19 22.06 52.69 21.9 51.63 21.27 50.42 20.55 50.76 19.37 50.07 18.4 49.73 19.31 50.62 20.3 50.7 21.18 49.43 21.12 48.92 20.21 48.17 19.36 48.35 22.36 53.14 22.29 55.28 23.14 56.49 23.62 57.34 25.22 56.83 26.5 56.63 27 55.41 27.67 54.64 28.29 56.4 27.44 58.42 27.48 60.44 27.65 60.18 27.21 59.36 26.88 59.09 26.33 58.82 25.79 58.63 25.09 58.56 24.48 58.41 23.14 58.47 21.57 59.45 20.62 60.37 19.73 61.79 19.26 62.69 18.29 63.02 17.93 63.16 17.47 63.21 16.95 64.03 16.14 65.7 14.65 64.79 13.61 64.57 14.16 64.63 14.74 64.33 15.27 64.08 15.72 63.58 16.01 63.24 16.4 63.26 15.32 63.08 14.14 63.57 13.38 62.74 13.27 62.94 16.52 62.55 17.23 62.01 18.21 60.18 18.7 59.21 19.2 56.22 20.73 54.8 17.93 54.07 15.34 54.01 15.15 54.04 14.74 54.06 14.55 52.89 15.15 54.23 17.45 54.72 18.17 55.37 19.14 56.69 19.9 57.22 20.89 57.43 21.3 57.52 22.39 57.1 22.74 56.64 23.17 55.92 22.67 55.37 22.48Z" fill="#703F1E"/></g><g><g><path d="M62.65 0.77C60.4-0.22 59.1 1.02 57.17 1.69 55.58 2.24 53.61 1.36 51.84 2.51 50.42 3.43 49.01 6.31 49.75 7.78L49.55 8.4C47.64 8.69 47.52 12.16 49.72 11.91 49.14 14.52 53.03 14.94 54.87 15.2 57.17 15.52 58.63 14.98 60.56 13.8 62.62 15.87 66.58 13.6 67.42 11.47 68.13 9.67 68.34 5.3 65.35 5.5 65.98 3.33 64.89 1.75 62.65 0.77Z" fill="#9BC90E"/><path d="M57.79 8.99C57.77 8.99 57.76 9 57.75 9 56.83 9.69 55.63 10.11 54.17 10.11 52.14 10.11 50.63 9.3 49.65 8.1L49.55 8.39C47.64 8.68 47.52 12.15 49.72 11.9 49.14 14.51 53.03 14.93 54.87 15.19 57.17 15.51 58.63 14.97 60.56 13.79 62.62 15.86 66.58 13.59 67.42 11.46 68.13 9.66 68.34 5.29 65.35 5.49 65.99 3.32 64.9 1.75 62.66 0.77 62.64 0.76 62.63 0.76 62.61 0.75 62.83 1.38 62.98 2.04 62.98 2.73L62.98 2.94C62.97 5.96 60.69 8.51 57.79 8.99Z" fill="#80B708"/><path d="M58.47 11.13C58.38 11.13 58.29 11.12 58.2 11.12 58.09 11.19 58 11.28 57.89 11.35 56.95 12.1 55.71 12.57 54.17 12.57 51.29 12.57 49.46 10.94 48.68 8.88 47.7 9.89 47.94 12.11 49.73 11.91 49.15 14.52 53.04 14.94 54.88 15.2 57.18 15.52 58.64 14.98 60.57 13.8 62.63 15.87 66.59 13.6 67.43 11.47 68.14 9.67 68.35 5.3 65.36 5.5 65.94 3.52 65.07 2.03 63.2 1.04 63.28 1.15 63.34 1.28 63.41 1.4 65.7 5 64.06 11.13 58.47 11.13Z" fill="#528402"/></g></g><g><path d="M49.02 15.05C48.6 14.44 46.77 14.59 46.02 14.89 44.98 15.31 44 16.37 43.9 17.52 43.71 19.68 45.28 20.18 47.19 20.44 48.83 20.67 50.18 20.58 50.21 18.72 53.41 18.86 52.01 14.33 49.1 15.05L49.02 15.05Z" fill="#9BC90E"/><path d="M46.74 17.92C45.9 18.03 44.89 17.49 44.32 16.92 44.25 16.85 44.19 16.77 44.13 16.69 44.01 16.95 43.93 17.23 43.91 17.51 43.72 19.67 45.29 20.17 47.2 20.43 48.84 20.66 50.19 20.57 50.22 18.71 52.36 18.8 52.43 16.81 51.38 15.69 50.9 16.16 50.3 16.52 49.65 16.78 49.25 17.18 48.75 17.48 48.12 17.7 47.69 17.87 47.19 17.87 46.74 17.92Z" fill="#80B708"/><path d="M47.1 19.02C45.49 19.02 44.47 18.1 44.03 16.95 43.97 17.14 43.92 17.32 43.9 17.52 43.71 19.68 45.28 20.18 47.19 20.44 48.83 20.67 50.18 20.58 50.21 18.72 51.55 18.78 52.08 18.01 52.03 17.16 51.98 17.19 51.94 17.22 51.9 17.25 51.36 17.56 50.79 17.71 50.17 17.72 50.04 17.72 49.91 17.71 49.78 17.7 49.25 18.47 48.35 19.02 47.1 19.02Z" fill="#528402"/></g><path d="M53.74 9.95C53.78 9.95 53.94 9.95 53.98 9.95 54.12 8.41 55.4 7.48 55.26 5.77 55.22 5.77 55.05 5.77 55.01 5.77 54.94 6.28 54.83 7.6 54.34 7.93 53.74 8.34 52.83 7.62 52.27 7.51 52.38 8.22 53.81 8.05 53.97 8.74 53.98 8.72 53.99 8.7 54 8.68L54 8.87C54 8.82 53.98 8.79 53.97 8.74 53.76 9.1 53.68 9.51 53.74 9.95Z" fill="#703F1E"/><g><path d="M49.07 1.6C45.2 2.04 45.56 8.19 49.38 6.57 50.27 8.82 51.95 8.32 53.84 7.29 56.05 6.1 57.74 4.78 56.53 2.24 55.88 0.89 54.21 0.05 52.75 0 51.71-0.03 49.41 0.63 49.18 1.56L49.07 1.6Z" fill="#9BC90E"/><path d="M49.38 6.57C50.27 8.82 51.95 8.32 53.84 7.29 56.05 6.1 57.74 4.78 56.53 2.24 56.37 1.91 56.15 1.61 55.88 1.34 55.84 1.46 55.81 1.59 55.75 1.7 55.31 2.66 54.33 3.77 53.25 4.02 52.68 4.15 52.07 4.38 51.46 4.4 50.6 4.42 49.85 4.28 49.18 3.97 48.28 3.95 47.38 3.78 46.59 3.43 45.82 5.26 46.82 7.65 49.38 6.57Z" fill="#80B708"/><path d="M46.66 5.54C46.59 5.53 46.53 5.51 46.46 5.49 46.79 6.55 47.77 7.25 49.38 6.57 50.27 8.82 51.95 8.32 53.84 7.29 56.05 6.1 57.74 4.78 56.53 2.24 56.42 2.01 56.27 1.81 56.11 1.61 56.11 3.22 55.28 4.79 53.31 5.52 51.79 6.09 50.45 5.83 49.44 5.12 49.28 5.2 49.13 5.27 48.97 5.33 48.22 5.6 47.45 5.68 46.66 5.54Z" fill="#528402"/></g><g><path d="M67.3 12.77C68.19 15.02 69.86 14.52 71.76 13.49 73.97 12.3 75.66 10.98 74.45 8.43 73.8 7.08 72.13 6.24 70.67 6.19 69.63 6.16 67.33 6.82 67.1 7.75L66.98 7.8C63.11 8.25 63.47 14.39 67.3 12.77Z" fill="#9BC90E"/><path d="M67.3 12.77C68.19 15.02 69.86 14.52 71.76 13.49 73.97 12.3 75.66 10.98 74.45 8.43 74.29 8.1 74.07 7.8 73.8 7.53 73.76 7.65 73.73 7.77 73.67 7.89 73.23 8.85 72.26 9.96 71.18 10.21 70.6 10.34 69.99 10.57 69.39 10.59 68.52 10.61 67.78 10.47 67.1 10.16 66.2 10.14 65.3 9.97 64.5 9.62 63.74 11.47 64.73 13.86 67.3 12.77Z" fill="#80B708"/><path d="M67.3 12.77C68.19 15.02 69.86 14.52 71.76 13.49 73.97 12.3 75.66 10.98 74.45 8.43 74.34 8.2 74.19 8 74.03 7.8 74.03 9.41 73.2 10.98 71.24 11.72 69.72 12.29 68.38 12.03 67.36 11.32 67.21 11.4 67.05 11.47 66.89 11.53 66.14 11.81 65.36 11.88 64.58 11.74 64.51 11.73 64.45 11.71 64.38 11.69 64.7 12.76 65.69 13.46 67.3 12.77Z" fill="#528402"/></g><g><path d="M69.19 16.19C71.92 16.31 70.73 12.43 68.24 13.05L68.16 13.05C67.81 12.53 66.23 12.65 65.6 12.91 64.71 13.27 63.87 14.18 63.78 15.16 63.61 17.01 64.96 17.44 66.6 17.66 68.01 17.86 69.16 17.78 69.19 16.19Z" fill="#9BC90E"/><path d="M69.19 16.19C71.02 16.27 71.08 14.56 70.18 13.61 69.77 14 69.25 14.32 68.7 14.54 68.36 14.88 67.93 15.14 67.39 15.33 67.01 15.46 66.59 15.46 66.2 15.51 65.48 15.6 64.62 15.14 64.13 14.65 64.07 14.59 64.03 14.52 63.97 14.46 63.87 14.68 63.8 14.92 63.78 15.16 63.61 17.01 64.96 17.44 66.6 17.66 68.01 17.86 69.16 17.78 69.19 16.19Z" fill="#80B708"/><path d="M69.19 16.19C70.34 16.24 70.79 15.59 70.74 14.85 70.71 14.87 70.67 14.9 70.63 14.93 70.17 15.2 69.68 15.33 69.15 15.33 69.04 15.33 68.93 15.32 68.81 15.31 68.35 15.98 67.58 16.45 66.51 16.45 65.13 16.45 64.26 15.67 63.89 14.68 63.83 14.84 63.79 15 63.78 15.16 63.61 17.01 64.96 17.44 66.6 17.66 68.01 17.86 69.16 17.78 69.19 16.19Z" fill="#528402"/></g></g><g><path d="M21.22 45.21C19.81 45.12 18.38 45.2 16.99 45 16.85 44.98 16.74 44.93 16.59 44.94L16.23 44.91C15.99 44.94 15.09 45.1 15.09 45.45 15.09 45.64 16.31 45.96 16.57 46.01 16.91 46.08 17.09 46.12 17.34 46.3 17.56 46.45 17.74 46.47 18.04 46.5 18.61 46.56 19.14 46.53 19.72 46.5 19.98 46.49 20.23 46.5 20.48 46.5 20.78 46.5 21.01 46.37 21.29 46.28 21.75 46.13 22.34 46.28 22.74 46.03 22.95 45.9 23.07 45.7 22.86 45.48 22.52 45.11 21.65 45.24 21.22 45.21Z" fill="#748E09"/><g><path d="M17.89 46.05C18.89 46.19 19.53 45.96 20.37 45.44 21.27 46.34 23 45.35 23.36 44.43 23.67 43.64 23.76 41.74 22.46 41.83 22.74 40.88 22.26 40.19 21.29 39.77 20.31 39.34 19.74 39.88 18.9 40.17 18.21 40.41 17.35 40.03 16.58 40.53 15.96 40.93 15.35 42.19 15.67 42.83L15.58 43.1C14.75 43.22 14.69 44.74 15.65 44.63 15.39 45.75 17.09 45.94 17.89 46.05Z" fill="#9BC90E"/><path d="M17.89 46.05C18.89 46.19 19.53 45.96 20.37 45.44 21.27 46.34 23 45.35 23.36 44.43 23.67 43.64 23.76 41.74 22.46 41.83 22.74 40.88 22.26 40.19 21.29 39.77 21.28 39.77 21.28 39.77 21.27 39.76 21.37 40.03 21.43 40.32 21.43 40.62L21.43 40.71C21.43 42.03 20.43 43.14 19.17 43.35 19.17 43.35 19.16 43.35 19.16 43.35 18.76 43.65 18.24 43.83 17.6 43.83 16.72 43.83 16.06 43.48 15.63 42.95L15.58 43.08C14.75 43.2 14.69 44.72 15.65 44.61 15.39 45.75 17.09 45.94 17.89 46.05Z" fill="#80B708"/><path d="M17.89 46.05C18.89 46.19 19.53 45.96 20.37 45.44 21.27 46.34 23 45.35 23.36 44.43 23.67 43.64 23.76 41.74 22.46 41.83 22.71 40.96 22.33 40.32 21.51 39.88 21.54 39.93 21.57 39.99 21.6 40.04 22.61 41.61 21.89 44.28 19.45 44.28 19.41 44.28 19.37 44.28 19.34 44.28 19.29 44.31 19.25 44.35 19.2 44.38 18.79 44.71 18.25 44.91 17.58 44.91 16.33 44.91 15.53 44.2 15.19 43.3 14.76 43.74 14.87 44.71 15.64 44.62 15.39 45.75 17.09 45.94 17.89 46.05Z" fill="#528402"/></g></g><path d="M20.07 38.28C20.43 38.58 21.06 38.35 21.45 38.33 22.64 38.27 23.71 38.13 24.89 38.19 26.82 38.29 28.64 39.13 30.55 38.63 31.4 38.41 35.4 37.04 34.6 36.08 34.27 35.68 32.59 35.74 32.11 35.67 30.79 35.48 31.12 35.3 30.34 34.54 29.14 33.37 27.74 33.81 26.19 33.81 24.8 33.81 23.54 33.37 22.2 33.72 20.95 34.05 19.55 34.16 18.27 34.52L18.98 34.28C18 34.57 14.04 35.14 14.83 36.74 14.48 36.85 14.28 37.13 14.03 37.33 15.43 38.18 18.69 36.07 19.94 37.23 20 37.3 19.64 37.93 20.07 38.28Z" fill="#476362" opacity="0.28"/><g><g><path d="M9.91 27.24C9.91 27.25 9.92 27.25 9.93 27.26 9.93 27.17 9.91 27.1 9.91 27.01L9.73 27.36C9.85 27.28 9.79 27.24 9.91 27.24Z" fill="#703F1E"/><path d="M23.77 26.25C24.09 25.91 24.22 25.46 24.27 24.97 25.05 24.2 26.64 22.78 25.77 21.8 25.56 22.32 25.61 22.87 25.33 23.38 25.1 23.81 24.61 24.08 24.29 24.46 24.31 23.43 24.14 22.31 24.61 21.59 23.82 21.48 24.01 24.58 23.64 25.25 23.13 26.18 21.38 26.65 20.46 27.12 17.62 28.58 16.26 25.92 15.56 23.45 15.51 23.27 15.54 22.89 15.55 22.7 14.44 23.27 15.72 25.46 16.17 26.15 16.79 27.08 18.04 27.8 18.54 28.74 18.75 29.13 18.83 30.16 18.43 30.5 17.98 30.88 17.29 30.42 16.77 30.24 15.65 29.84 14.22 29.68 13.21 29.08 12.05 28.4 12.39 27.27 11.72 26.36 11.39 27.23 12.25 28.17 12.32 29.01 11.11 28.94 10.63 28.09 9.91 27.27 10.08 30.12 14.64 30.05 16.68 30.87 17.83 31.33 18.64 32.85 18.16 34.07 17.97 34.55 16.81 35.19 16.08 35.78 17.76 34.97 19.68 35.01 21.61 35.17 21.36 34.76 20.58 34.44 20.32 33.92 20.06 33.41 19.88 32.74 19.82 32.16 19.68 30.89 19.73 29.39 20.67 28.48 21.56 27.62 22.92 27.17 23.77 26.25Z" fill="#703F1E"/></g><g><g><path d="M16.3 23.28C18.49 23.59 19.88 23.07 21.71 21.95 23.67 23.92 27.44 21.76 28.24 19.73 28.91 18.02 29.11 13.85 26.27 14.05 26.88 11.99 25.84 10.49 23.71 9.55 21.57 8.61 20.33 9.79 18.49 10.42 16.97 10.94 15.1 10.1 13.42 11.2 12.08 12.08 10.73 14.82 11.43 16.22L11.24 16.8C9.42 17.07 9.31 20.38 11.41 20.14 10.85 22.63 14.55 23.04 16.3 23.28Z" fill="#9BC90E"/><path d="M16.3 23.28C18.49 23.59 19.88 23.07 21.71 21.95 23.67 23.92 27.44 21.76 28.24 19.73 28.91 18.02 29.11 13.85 26.27 14.05 26.88 11.99 25.84 10.49 23.71 9.55 23.69 9.54 23.68 9.54 23.67 9.53 23.88 10.13 24.02 10.76 24.02 11.42L24.02 11.61C24.02 14.49 21.85 16.91 19.08 17.36 19.07 17.36 19.06 17.37 19.05 17.37 18.17 18.03 17.03 18.42 15.63 18.42 13.7 18.42 12.26 17.65 11.32 16.51L11.23 16.79C9.41 17.06 9.3 20.37 11.4 20.13 10.85 22.63 14.55 23.04 16.3 23.28Z" fill="#80B708"/><path d="M16.3 23.28C18.49 23.59 19.88 23.07 21.71 21.95 23.67 23.92 27.44 21.76 28.24 19.73 28.91 18.02 29.11 13.85 26.27 14.05 26.83 12.16 25.99 10.75 24.21 9.81 24.28 9.92 24.34 10.04 24.41 10.16 26.61 13.59 25.05 19.42 19.72 19.42 19.63 19.42 19.55 19.41 19.47 19.41 19.36 19.48 19.28 19.57 19.17 19.63 18.27 20.34 17.09 20.79 15.63 20.79 12.89 20.79 11.15 19.24 10.4 17.28 9.46 18.24 9.7 20.36 11.4 20.17 10.85 22.63 14.55 23.04 16.3 23.28Z" fill="#528402"/></g></g><g><path d="M10.83 23.15 10.74 23.15C10.35 22.57 8.6 22.71 7.89 22.99 6.9 23.4 5.96 24.4 5.87 25.5 5.68 27.56 7.18 28.03 9 28.28 10.56 28.5 11.84 28.41 11.88 26.64 14.93 26.77 13.6 22.46 10.83 23.15Z" fill="#9BC90E"/><path d="M9.89 25.69C9.47 25.83 9 25.84 8.57 25.89 7.77 25.99 6.81 25.48 6.26 24.93 6.19 24.86 6.14 24.78 6.08 24.71 5.97 24.96 5.89 25.23 5.87 25.49 5.68 27.56 7.18 28.03 9 28.28 10.56 28.5 11.84 28.41 11.88 26.64 13.92 26.73 13.99 24.83 12.99 23.77 12.53 24.21 11.96 24.56 11.35 24.8 10.97 25.19 10.49 25.48 9.89 25.69Z" fill="#80B708"/><path d="M11.47 25.66C10.95 26.41 10.1 26.93 8.91 26.93 7.37 26.93 6.4 26.06 5.99 24.96 5.93 25.14 5.89 25.32 5.87 25.5 5.68 27.56 7.18 28.03 9 28.28 10.56 28.5 11.84 28.41 11.88 26.64 13.16 26.69 13.66 25.97 13.61 25.15 13.57 25.18 13.53 25.21 13.49 25.23 12.98 25.53 12.43 25.67 11.84 25.67 11.72 25.68 11.6 25.67 11.47 25.66Z" fill="#528402"/></g><path d="M15.48 17.08C15.47 17.1 15.46 17.12 15.45 17.14 15.46 17.18 15.48 17.21 15.48 17.26L15.48 17.08Z" fill="#703F1E"/><path d="M15.23 18.29C15.27 18.29 15.42 18.29 15.47 18.29 15.61 16.82 16.82 15.93 16.69 14.31 16.65 14.32 16.49 14.32 16.45 14.31 16.38 14.8 16.28 16.05 15.81 16.37 15.24 16.76 14.37 16.07 13.84 15.97 13.95 16.64 15.31 16.48 15.46 17.14 15.47 17.12 15.48 17.1 15.49 17.08L15.49 17.26C15.49 17.21 15.47 17.18 15.46 17.14 15.25 17.48 15.18 17.87 15.23 18.29Z" fill="#703F1E"/><g><path d="M14.29 8.82C13.3 8.79 11.11 9.42 10.89 10.3L10.79 10.34C7.1 10.76 7.44 16.61 11.09 15.07 11.94 17.21 13.53 16.74 15.34 15.76 17.44 14.63 19.06 13.37 17.89 10.95 17.27 9.67 15.68 8.86 14.29 8.82Z" fill="#9BC90E"/><path d="M17.15 10.44C16.73 11.35 15.8 12.41 14.78 12.65 14.23 12.78 13.65 12.99 13.08 13.01 12.25 13.03 11.54 12.89 10.9 12.6 10.04 12.58 9.19 12.42 8.43 12.09 7.69 13.84 8.64 16.11 11.08 15.08 11.93 17.22 13.52 16.75 15.33 15.77 17.43 14.64 19.05 13.38 17.88 10.96 17.73 10.64 17.52 10.35 17.27 10.1 17.23 10.21 17.2 10.33 17.15 10.44Z" fill="#80B708"/><path d="M14.83 14.08C13.38 14.62 12.11 14.37 11.14 13.7 10.99 13.77 10.84 13.84 10.69 13.89 9.97 14.16 9.24 14.23 8.49 14.09 8.43 14.08 8.36 14.06 8.3 14.05 8.61 15.06 9.55 15.72 11.08 15.07 11.93 17.21 13.52 16.74 15.33 15.76 17.43 14.63 19.05 13.37 17.88 10.95 17.78 10.73 17.64 10.54 17.48 10.35 17.48 11.88 16.69 13.38 14.83 14.08Z" fill="#528402"/></g></g><path d="M40.62 41.19 39.79 41.78C39.04 41.39 38.12 42.35 38.15 43.06 39.56 43.13 41.69 43.87 42.96 43.55 43.85 43.33 43.85 42.9 44.88 42.85 45.6 42.82 46.69 43.07 47.37 42.84 49.74 42.02 45.97 41.46 45.12 41.42 43.44 41.35 42.17 42.32 40.62 41.19Z" fill="#728407" opacity="0.42"/><g><g><path d="M44.27 33.31C44.36 33.26 44.33 33.32 44.45 33.33L44.18 33.14C44.22 33.21 44.24 33.27 44.27 33.34 44.26 33.33 44.26 33.32 44.27 33.31Z" fill="#703F1E"/><path d="M44.26 33.33C44.06 34.23 44.05 35.07 43.18 35.61 42.89 34.96 43.14 33.9 42.54 33.39 42.42 34.35 43.13 35.05 42.55 36.04 42.04 36.9 41.04 37.61 40.36 38.36 40.16 38.59 39.08 39.67 39.18 42.01 39.72 41.96 40.22 41.76 40.52 41.34 40.06 40.57 40.14 39.47 40.69 38.8 41.87 37.36 45.3 35.54 44.26 33.33Z" fill="#703F1E"/></g><g><path d="M44.03 29.31C43.39 29.39 42.02 30 41.96 30.6L41.9 30.64C39.55 31.27 40.33 35.03 42.54 33.69 43.3 35 44.29 34.53 45.37 33.73 46.62 32.79 47.55 31.83 46.57 30.36 46.05 29.58 44.94 29.21 44.03 29.31Z" fill="#9BC90E"/><path d="M46.09 29.85C46.08 29.93 46.07 30.01 46.05 30.09 45.87 30.72 45.36 31.49 44.72 31.75 44.38 31.89 44.02 32.08 43.65 32.15 43.12 32.24 42.65 32.22 42.2 32.09 41.64 32.16 41.07 32.14 40.55 31.99 40.24 33.19 41.07 34.58 42.55 33.68 43.31 34.99 44.3 34.52 45.38 33.72 46.63 32.78 47.56 31.82 46.58 30.35 46.44 30.16 46.28 29.99 46.09 29.85Z" fill="#80B708"/><path d="M44.88 32.67C43.99 33.16 43.14 33.12 42.45 32.77 42.36 32.83 42.27 32.89 42.18 32.94 41.74 33.18 41.27 33.29 40.77 33.28 40.73 33.28 40.69 33.27 40.64 33.27 40.94 33.9 41.61 34.24 42.54 33.67 43.3 34.98 44.29 34.51 45.37 33.71 46.62 32.77 47.55 31.81 46.57 30.34 46.48 30.21 46.37 30.09 46.25 29.99 46.4 30.99 46.03 32.04 44.88 32.67Z" fill="#528402"/></g></g><g><path d="M47.7 43.38C47.51 43.41 46.77 43.54 46.77 43.82 46.77 43.98 47.77 44.24 47.97 44.28 48.24 44.34 48.39 44.37 48.6 44.51 48.78 44.63 48.92 44.65 49.17 44.68 49.63 44.72 50.07 44.7 50.54 44.68 50.75 44.67 50.95 44.68 51.15 44.68 51.39 44.68 51.58 44.57 51.81 44.5 52.19 44.38 52.67 44.5 52.99 44.29 53.16 44.18 53.25 44.03 53.09 43.84 52.82 43.54 52.11 43.64 51.76 43.62 50.61 43.55 49.46 43.61 48.32 43.45 48.2 43.43 48.11 43.4 48 43.4L47.7 43.38Z" fill="#748E09"/><g><path d="M51.82 39.2C51.03 38.85 50.56 39.29 49.88 39.52 49.32 39.71 48.62 39.4 47.99 39.81 47.49 40.14 46.99 41.16 47.25 41.68L47.18 41.9C46.5 42 46.46 43.23 47.24 43.14 47.03 44.06 48.41 44.22 49.07 44.31 49.88 44.42 50.41 44.23 51.09 43.81 51.82 44.55 53.22 43.74 53.52 42.98 53.77 42.34 53.84 40.79 52.79 40.87 53 40.1 52.61 39.54 51.82 39.2Z" fill="#9BC90E"/><path d="M50.09 42.11C50.08 42.11 50.08 42.11 50.09 42.11 49.75 42.36 49.33 42.51 48.81 42.51 48.09 42.51 47.56 42.22 47.21 41.8L47.18 41.9C46.5 42 46.46 43.23 47.24 43.14 47.03 44.06 48.41 44.22 49.07 44.31 49.88 44.42 50.41 44.23 51.09 43.81 51.82 44.55 53.22 43.74 53.52 42.98 53.77 42.34 53.84 40.79 52.79 40.87 53.01 40.1 52.63 39.54 51.83 39.19 51.82 39.19 51.82 39.19 51.81 39.19 51.89 39.41 51.94 39.65 51.94 39.89L51.94 39.96C51.93 41.04 51.12 41.94 50.09 42.11Z" fill="#80B708"/><path d="M50.33 42.87C50.29 42.87 50.27 42.87 50.24 42.87 50.2 42.9 50.17 42.93 50.13 42.95 49.8 43.22 49.36 43.38 48.81 43.38 47.79 43.38 47.14 42.8 46.86 42.07 46.51 42.43 46.6 43.22 47.23 43.14 47.02 44.06 48.4 44.22 49.06 44.31 49.87 44.42 50.4 44.23 51.08 43.81 51.81 44.55 53.21 43.74 53.51 42.98 53.76 42.34 53.83 40.79 52.78 40.87 52.98 40.16 52.68 39.64 52.01 39.29 52.04 39.33 52.06 39.37 52.08 39.42 52.9 40.7 52.32 42.87 50.33 42.87Z" fill="#528402"/></g></g><g><path d="M38.03 43.1C37.95 43.09 37.89 43.06 37.81 43.07L37.61 43.05C37.48 43.07 36.99 43.15 36.99 43.34 36.99 43.45 37.66 43.62 37.8 43.65 37.99 43.69 38.08 43.71 38.22 43.81 38.35 43.89 38.44 43.91 38.6 43.92 38.92 43.95 39.21 43.93 39.52 43.92 39.66 43.91 39.8 43.92 39.93 43.92 40.09 43.92 40.22 43.85 40.37 43.8 40.62 43.72 40.94 43.8 41.16 43.66 41.28 43.59 41.34 43.48 41.23 43.36 41.05 43.16 40.57 43.23 40.33 43.21 39.58 43.16 38.8 43.2 38.03 43.1Z" fill="#748E09"/><g><path d="M38.53 43.67C39.08 43.75 39.43 43.62 39.89 43.33 40.38 43.83 41.33 43.28 41.53 42.77 41.7 42.34 41.75 41.3 41.03 41.35 41.18 40.83 40.92 40.45 40.39 40.22 39.85 39.99 39.54 40.28 39.08 40.44 38.7 40.57 38.23 40.36 37.81 40.63 37.47 40.85 37.14 41.54 37.31 41.89L37.26 42.04C36.8 42.11 36.78 42.94 37.3 42.88 37.16 43.51 38.09 43.61 38.53 43.67Z" fill="#9BC90E"/><path d="M38.53 43.67C39.08 43.75 39.43 43.62 39.89 43.33 40.38 43.83 41.33 43.28 41.53 42.77 41.7 42.34 41.75 41.3 41.03 41.35 41.18 40.83 40.92 40.45 40.39 40.22 40.39 40.22 40.38 40.22 40.38 40.21 40.43 40.36 40.47 40.52 40.47 40.69L40.47 40.74C40.47 41.46 39.93 42.07 39.23 42.18 39.23 42.18 39.23 42.18 39.22 42.18 39 42.35 38.72 42.45 38.37 42.45 37.88 42.45 37.53 42.26 37.29 41.97L37.27 42.04C36.81 42.11 36.79 42.94 37.31 42.88 37.16 43.51 38.09 43.61 38.53 43.67Z" fill="#80B708"/><path d="M38.53 43.67C39.08 43.75 39.43 43.62 39.89 43.33 40.38 43.83 41.33 43.28 41.53 42.77 41.7 42.34 41.75 41.3 41.03 41.35 41.17 40.88 40.96 40.52 40.51 40.28 40.53 40.31 40.54 40.34 40.56 40.37 41.11 41.23 40.72 42.69 39.38 42.69 39.36 42.69 39.34 42.69 39.32 42.69 39.29 42.71 39.27 42.73 39.24 42.75 39.02 42.93 38.72 43.04 38.35 43.04 37.66 43.04 37.22 42.65 37.04 42.16 36.81 42.4 36.86 42.93 37.29 42.89 37.16 43.51 38.09 43.61 38.53 43.67Z" fill="#528402"/></g></g><path d="M21.17 76.23C21.19 74.3 21.06 73.02 21.17 70.95 21.27 68.96 20.65 67.3 20.36 65.34 20.08 63.42 19.44 61.21 19.08 59.32 18.69 57.25 18.94 55.09 19.02 53.09 17.9 52.27 17.05 51.93 16.24 50.47 16.24 54.45 17.93 58.13 18.31 62.01 18.5 63.97 18.72 66.07 18.81 68 18.89 69.69 18.77 73.57 18.77 73.57 19.69 74.58 20.39 75.44 21.17 76.23Z" fill="#30B9D8"/><path d="M18.1 54.78C18.15 54.95 18.82 56.3 18.87 56.47 18.88 55.32 18.97 54.17 19.02 53.07 17.9 52.25 17.05 51.91 16.24 50.45 16.24 51.28 16.32 52.1 16.44 52.91 16.89 52.69 16.71 52.13 16.89 52.69 17.1 53.33 18.02 58.45 18.1 59.09 18.42 59.13 18 54.39 18.1 54.78Z" fill="#18A1B7"/><path d="M31.05 64.33C30.75 65.21 32.74 65.21 33.65 66.14 34.57 67.09 37.38 84.73 38.55 86.51L38.7 86.32C37.08 80.73 36.07 66.68 35.95 65.57 35.85 64.59 35.96 64.05 35.34 63.45 35.68 62.55 36.18 61.23 35.69 60.49 35.34 59.96 34.06 59.18 33.19 58.75 33.41 59.91 33.83 61.51 33.63 62.72 33.56 63.01 31.47 63.12 31.05 64.33Z" fill="#30B9D8"/><path d="M35.21 63.59C34.47 64.29 33.83 65.07 33.02 65.68 33.26 65.81 33.48 65.95 33.65 66.14 33.74 66.23 33.85 66.49 33.97 66.87 34.56 65.98 35.17 65.1 35.79 64.23 35.79 64.23 35.79 64.23 35.79 64.23 35.72 63.96 35.59 63.71 35.33 63.46 35.33 63.45 35.34 63.44 35.34 63.43 35.31 63.47 35.26 63.53 35.21 63.59Z" fill="#43D7EF"/><path d="M35.68 60.48C35.33 59.95 34.05 59.17 33.18 58.74 33.4 59.9 33.82 61.5 33.62 62.71 33.61 62.77 33.49 62.83 33.32 62.89 33.9 62.88 34.49 63.11 35.4 63.52 35.38 63.5 35.36 63.47 35.33 63.45 35.67 62.55 36.17 61.23 35.68 60.48Z" fill="#18A1B7"/><path d="M35.98 70.3C35.96 70.01 35.68 65.88 35.67 65.58 35.67 65.33 35.76 65.14 35.89 65.01 35.85 64.51 35.83 64.14 35.6 63.78 35.14 64.65 34.38 65.39 33.6 65.98 33.57 66 33.55 66.01 33.53 66.02 33.57 66.05 33.61 66.09 33.64 66.12 33.82 66.31 34.07 67.13 34.37 68.35 34.62 68.35 35.73 73.32 35.89 73.54 35.82 73.07 34.73 67.71 34.83 67.24 35.11 66.02 35.98 70.3 35.98 70.3Z" fill="#18A1B7"/><path d="M60.89 57.28C60.89 57.28 61.84 59.14 62.44 61.12 63.53 64.68 61.44 64 61.53 66.01 61.63 67.98 62.04 79.39 62.31 83.36 63.36 82.44 64.52 81.43 64.52 81.43 64.35 79.79 63.79 67.92 64.48 66.26 64.91 65.21 65.33 65.41 65.5 64.68 65.63 64.14 65.5 63.65 65.38 62.87 65.05 60.82 64.99 57.46 65.32 55.56 64.43 55.9 62.38 56.34 60.89 57.28Z" fill="#30B9D8"/><path d="M63.71 65.63C63.81 65.63 63.92 65.64 64.02 65.68 64.16 65.73 64.3 65.79 64.44 65.85 64.51 65.88 64.56 65.93 64.62 65.97 64.9 65.44 65.17 65.34 65.35 65.07 64.36 64.84 63.42 64.39 62.57 63.79 62.45 64.04 62.3 64.25 62.14 64.44 62.18 64.51 62.23 64.58 62.27 64.65 62.34 64.73 62.42 64.81 62.49 64.9 62.86 65.21 63.26 65.46 63.71 65.63Z" fill="#43D7EF"/><path d="M64.8 65.67C63.89 65.41 63.06 64.87 62.28 64.27 61.53 66.02 62.13 67.11 62.21 68.67 62.67 68.35 61.91 65.81 62.58 65.86 63.49 65.93 63 73.95 63.11 74.85 63.32 74.79 63.37 67.82 64.16 71.66 64.14 69.12 64.22 66.92 64.49 66.27 64.59 66 64.7 65.81 64.8 65.67Z" fill="#18A1B7"/><path d="M65.19 56.72C65.23 56.3 65.27 55.9 65.33 55.55 64.44 55.89 62.38 56.33 60.89 57.28 60.89 57.28 61.11 57.71 61.4 58.38 61.63 58.46 61.83 58.62 61.94 58.9 62.53 60.37 63.03 61.82 63.4 63.31 63.47 63.32 63.54 63.36 63.61 63.39 63.43 62.2 62.15 57.94 63.07 57.8 64.17 57.64 64.29 61.67 64.62 62.71 64.7 62.96 64.46 58.71 64.54 58.96 64.41 57.72 64.53 57.7 65.15 56.76 65.17 56.75 65.18 56.73 65.19 56.72Z" fill="#18A1B7"/><path d="M37.34 32.03C38.15 36.9 33.19 42.01 27.34 42.19 31.3 42.88 31.52 44.34 27.56 46.54 24.23 48.38 26.03 49.33 20.12 50.86 22.58 50.21 25.84 51.4 27.17 47.67 27.61 46.44 29.76 46.55 30.79 45.81 32.86 44.34 32.25 43.38 31.52 42.41 34.44 40.53 40.66 35.5 37.34 32.03Z" fill="#6BEEFC"/><path d="M79.26 36.13C78.98 36.35 77.59 35.6 75.15 35.51 73.6 35.45 71.27 35.26 69.74 35.38 55.36 36.47 54.46 34.77 51.36 33.59 50.06 33.09 48.5 32.17 47.55 31.14 46.71 30.23 46.62 27.74 47.64 26.88L47.64 26.79C46.69 27.27 45.37 28.68 45.22 29.78 45.01 31.25 46.33 32.21 47.46 32.88 48.81 33.68 50.22 34.31 51.64 34.95 52.83 35.48 54.3 35.83 55.37 36.47 55.92 36.8 56.23 37.34 56.88 37.49 57.57 37.65 58.34 37.35 58.95 37.11 60.28 36.58 61.32 36.38 62.77 36.23 64.36 36.07 65.97 36.03 67.57 35.96 70.22 35.84 73.21 35.58 75.87 35.96 76.86 36.1 78.94 37.59 79.9 37.23 81.87 36.5 79.91 34.74 78.9 34.78 78.58 34.78 80.15 35.4 79.26 36.13Z" fill="#6BEEFC"/><path d="M54.07 45.61C55.61 45.66 57.17 45.09 58.77 45.09 60.38 45.09 61.5 45.21 62.94 45.72 63.43 45.89 64.08 46.25 64.56 46.36 65.3 46.51 65.77 46.19 66.47 45.97 68 45.5 69.65 45.91 71.18 45.61 70.29 44.76 68.33 45.09 67.11 45.09 65.55 45.09 64.03 45.42 62.48 45.27 61.98 45.22 58.64 44.54 58.58 44 58.52 43.46 59.82 43.35 60.02 42.9 60.33 42.21 59.64 41.72 59.13 41.47L59.04 41.56C60.28 42.7 54.66 44.96 54.07 45.61Z" fill="#6BEEFC"/><g><path d="M49.25 29.18C49.02 29.21 48.11 29.37 48.11 29.72 48.11 29.91 49.33 30.23 49.59 30.28 49.93 30.35 50.1 30.39 50.36 30.57 50.59 30.72 50.76 30.74 51.06 30.77 51.63 30.83 52.17 30.8 52.74 30.77 53 30.76 53.25 30.77 53.5 30.77 53.8 30.77 54.03 30.64 54.31 30.55 54.77 30.41 55.36 30.55 55.76 30.3 55.97 30.17 56.08 29.98 55.88 29.75 55.55 29.38 54.68 29.51 54.25 29.48 52.83 29.39 51.41 29.47 50.01 29.27 49.87 29.25 49.76 29.2 49.61 29.21L49.25 29.18Z" fill="#748E09"/><g><path d="M54.32 24.04C53.34 23.61 52.77 24.15 51.93 24.44 51.23 24.68 50.37 24.29 49.6 24.8 48.98 25.2 48.37 26.46 48.69 27.1L48.6 27.37C47.77 27.49 47.72 29.01 48.67 28.9 48.42 30.04 50.12 30.23 50.92 30.33 51.92 30.47 52.56 30.24 53.4 29.72 54.3 30.62 56.03 29.63 56.39 28.7 56.7 27.91 56.79 26.01 55.49 26.1 55.77 25.15 55.29 24.46 54.32 24.04Z" fill="#9BC90E"/><path d="M52.19 27.62C52.19 27.62 52.18 27.62 52.18 27.62 51.78 27.92 51.26 28.1 50.62 28.1 49.74 28.1 49.08 27.75 48.64 27.22L48.6 27.35C47.77 27.47 47.72 28.99 48.67 28.88 48.42 30.02 50.12 30.21 50.92 30.31 51.92 30.45 52.56 30.22 53.4 29.7 54.3 30.6 56.03 29.61 56.39 28.68 56.7 27.89 56.79 25.99 55.49 26.08 55.77 25.13 55.29 24.45 54.32 24.02 54.31 24.02 54.31 24.02 54.3 24.01 54.4 24.28 54.46 24.57 54.46 24.88L54.46 24.97C54.46 26.3 53.46 27.42 52.19 27.62Z" fill="#80B708"/><path d="M52.49 28.56C52.45 28.56 52.41 28.56 52.37 28.56 52.32 28.59 52.28 28.63 52.23 28.66 51.82 28.99 51.28 29.19 50.61 29.19 49.35 29.19 48.56 28.48 48.22 27.58 47.79 28.02 47.89 28.99 48.67 28.9 48.42 30.04 50.12 30.23 50.92 30.33 51.92 30.47 52.56 30.24 53.4 29.72 54.3 30.62 56.03 29.63 56.39 28.7 56.7 27.91 56.79 26.01 55.49 26.1 55.74 25.23 55.36 24.59 54.55 24.16 54.58 24.21 54.61 24.26 54.64 24.32 55.65 25.88 54.93 28.56 52.49 28.56Z" fill="#528402"/></g></g><g><path d="M55.87 33.92C56.17 34.13 56.41 34.16 56.82 34.2 57.6 34.28 58.32 34.24 59.11 34.2 59.46 34.18 59.79 34.2 60.13 34.2 60.54 34.2 60.85 34.02 61.23 33.91 61.85 33.71 62.66 33.91 63.2 33.56 63.48 33.38 63.64 33.12 63.37 32.81 62.93 32.31 61.74 32.48 61.15 32.44 59.23 32.32 57.31 32.43 55.4 32.15 55.21 32.13 55.05 32.06 54.86 32.07L54.37 32.03C54.05 32.07 52.83 32.29 52.82 32.76 52.81 33.03 54.48 33.46 54.82 33.53 55.28 33.62 55.52 33.67 55.87 33.92Z" fill="#748E09"/><g><path d="M53.59 31.63C53.24 33.17 55.55 33.43 56.63 33.58 57.99 33.77 58.86 33.45 60 32.75 61.22 33.97 63.56 32.63 64.06 31.37 64.48 30.3 64.6 27.71 62.83 27.84 63.21 26.56 62.56 25.62 61.24 25.04 59.91 24.46 59.14 25.19 58 25.58 57.05 25.9 55.89 25.38 54.85 26.06 54.01 26.61 53.18 28.31 53.61 29.18L53.49 29.55C52.36 29.72 52.29 31.78 53.59 31.63Z" fill="#9BC90E"/><path d="M58.37 29.91C58.36 29.91 58.36 29.92 58.35 29.92 57.8 30.33 57.1 30.58 56.23 30.58 55.03 30.58 54.14 30.1 53.55 29.39L53.49 29.56C52.36 29.73 52.29 31.78 53.59 31.64 53.24 33.18 55.55 33.44 56.63 33.59 57.99 33.78 58.86 33.46 60 32.76 61.22 33.98 63.56 32.64 64.06 31.38 64.48 30.31 64.6 27.72 62.83 27.85 63.21 26.57 62.56 25.63 61.24 25.05 61.23 25.05 61.22 25.05 61.21 25.04 61.34 25.41 61.42 25.8 61.42 26.21L61.42 26.33C61.43 28.12 60.08 29.63 58.37 29.91Z" fill="#80B708"/><path d="M58.77 31.17C58.72 31.17 58.67 31.17 58.61 31.17 58.54 31.21 58.49 31.27 58.42 31.31 57.86 31.75 57.13 32.03 56.22 32.03 54.52 32.03 53.43 31.07 52.97 29.84 52.39 30.44 52.53 31.75 53.59 31.63 53.24 33.17 55.55 33.43 56.63 33.58 57.99 33.77 58.86 33.45 60 32.75 61.22 33.97 63.56 32.63 64.06 31.37 64.48 30.3 64.6 27.71 62.83 27.84 63.17 26.67 62.65 25.79 61.55 25.2 61.59 25.27 61.63 25.34 61.67 25.41 63.05 27.55 62.08 31.17 58.77 31.17Z" fill="#528402"/></g></g></g></svg>