<svg width="103.1" height="119.08" viewBox="0 0 103.1 119.08" xmlns="http://www.w3.org/2000/svg" xmlns:xlink="http://www.w3.org/1999/xlink" overflow="hidden"><defs></defs><g><g><g><path d="M16.11 85.78 35.3 76.76 33.7 65.09 11.37 76.53Z" fill="#D9E9FF"/><g><path d="M16.25 115.36C16.25 116.59 15.25 117.59 14.02 117.59 12.79 117.59 11.79 116.59 11.79 115.36L11.79 64.72 16.25 64.72 16.25 115.36Z" fill="#F982BC"/><path d="M14.02 53.28C15.25 53.28 16.25 54.28 16.25 55.51L16.25 64.72 11.79 64.72 11.79 55.51C11.79 54.28 12.8 53.28 14.02 53.28Z" fill="#844766"/></g><g><path d="M6.31 81.17C6.13 77.87 7.7 75.11 10.2 74.97 12.7 74.84 13.82 77.46 14 80.75 14.18 84.05 13.34 86.77 10.84 86.91 8.34 87.05 6.48 84.47 6.31 81.17Z" fill="#F4B68C"/></g><g><path d="M14.02 32.35C17.83 39.47 20.93 42.56 28.04 46.37L14.02 46.37 14.02 32.35Z" fill="#FFC257"/><path d="M28.04 46.38C20.92 50.19 17.83 53.29 14.02 60.4L14.02 46.38 28.04 46.38Z" fill="#F28E3D"/><path d="M14.02 60.4C10.21 53.28 7.12 50.19 0 46.38L14.02 46.38 14.02 60.4Z" fill="#FFC257"/><path d="M14.02 32.35 14.02 46.37 0 46.37C7.12 42.56 10.21 39.47 14.02 32.35Z" fill="#FFD48F"/></g></g><g><path d="M74.57 45.24 96.06 40.32 96.06 54.23C98.48 55.05 100.24 57.32 100.24 60.02 100.24 61.84 99.43 63.45 98.18 64.58 101.13 66.32 103.11 69.53 103.11 73.2 103.11 78.73 98.62 83.22 93.09 83.22 88.22 83.22 84.16 79.74 83.26 75.13L76.74 75.13 74.57 45.24Z" fill="#FFD7A6"/><path d="M37.06 119.08 82.04 119.08C85.34 119.08 88.04 116.38 88.04 113.08L88.04 70.19C88.04 66.89 85.34 64.19 82.04 64.19L37.06 64.19C33.76 64.19 31.06 66.89 31.06 70.19L31.06 113.08C31.06 116.38 33.76 119.08 37.06 119.08Z" fill="#F982BC"/><path d="M65.25 91.42C67.06 91.42 68.7 92.16 69.88 93.35 70.19 93.3 70.51 93.25 70.81 93.19 75.68 92.27 85.3 90.44 84.49 82.97 83.88 77.3 72.63 72.95 77.46 69.23 82.1 65.65 84.11 63.95 87.86 66.01 89.76 67.05 91.56 68.61 92.89 70.19 98.65 77.02 99.21 87.68 93.98 95.06 93.97 95.07 93.96 95.09 93.95 95.1 92.31 97.39 90.18 99.32 87.7 100.67 84.16 102.6 80.1 103.65 76.11 104.11 73.89 104.37 70.23 104.81 67.43 104.11 66.75 104.35 66.02 104.49 65.26 104.49 61.65 104.49 58.72 101.56 58.72 97.95 58.71 94.34 61.64 91.42 65.25 91.42Z" fill="#CE6D98"/><g><path d="M87.86 64.54C89.76 65.58 91.56 67.14 92.89 68.72 98.65 75.55 99.21 86.21 93.98 93.59 93.97 93.6 93.96 93.62 93.95 93.63 92.31 95.92 90.18 97.85 87.7 99.2 84.16 101.13 80.1 102.18 76.11 102.64 72.96 103.01 66.89 103.75 64.54 101.06 62.98 99.28 62.82 96.29 64.18 94.35 65.67 92.22 68.5 92.15 70.82 91.71 75.69 90.79 85.31 88.96 84.5 81.49 83.89 75.82 72.64 71.47 77.47 67.75 82.1 64.18 84.11 62.47 87.86 64.54Z" fill="#D9E9FF"/><circle cx="65.25" cy="96.48" r="6.54" fill="#FFB282"/></g><path d="M32.2 64.19C30.61 53.84 42.75 45.23 55.76 45.23 68.77 45.23 76.73 52.15 76.73 62.62 76.73 73.09 60.69 84.81 47.68 84.81 40.15 84.81 33.92 75.39 32.2 64.19Z" fill="#D9EAFE"/><g><g><path d="M21.34 36.59C21.34 32.86 21.91 29.26 22.97 25.88 24.02 25.72 25.24 25.52 26.55 25.27 32.34 15.85 42.75 9.56 54.62 9.56 71.45 9.56 90.26 23.56 92.96 40.07 93.93 40.17 94.9 40.27 95.91 40.35 95.19 47.24 92.52 53.57 88.44 58.78 81.29 68.93 67.39 73.21 54.62 73.21 36.43 73.21 21.69 60.67 21.69 42.48 21.69 42.21 21.7 41.95 21.71 41.69 21.47 40.02 21.34 38.32 21.34 36.59Z" fill="#FFB282"/><path d="M45.94 16.99C42.27 22.32 29.44 24.89 22.97 25.87 27.65 10.89 41.89 0 58.72 0 79.37 0 96.11 16.38 96.11 36.59 96.11 37.86 96.04 39.12 95.91 40.35 58.03 37.13 48.67 22.29 45.94 16.99Z" fill="#FFD7A6"/></g><g><line x1="68.25" y1="39.74" x2="54.57" y2="39.74" stroke="#FED893" stroke-width="2" stroke-linecap="round" stroke-miterlimit="10" fill="#FFFFFF"/><circle cx="57.5" cy="44.62" r="1.89" fill="#231F20"/></g><g><line x1="21.31" y1="39.74" x2="34.98" y2="39.74" stroke="#FED893" stroke-width="2" stroke-linecap="round" stroke-miterlimit="10" fill="#FFFFFF"/><circle cx="30.17" cy="44.62" r="1.89" fill="#231F20"/></g><line x1="47.68" y1="58.6" x2="39.86" y2="58.6" stroke="#EB503B" stroke-width="2" stroke-linecap="round" stroke-miterlimit="10" fill="none"/><path d="M41.51 51.68 46.04 51.68C46.87 51.68 47.54 51 47.54 50.18L47.54 49.59C47.54 48.76 46.86 48.09 46.04 48.09L41.51 48.09C40.68 48.09 40.01 48.77 40.01 49.59L40.01 50.18C40.01 51 40.68 51.68 41.51 51.68Z" fill="#FC8165"/></g><path d="M96.06 52.28 96.06 35.99 84.48 35.49 84.65 63.2 91.72 59.63Z" fill="#FFD7A6"/><circle cx="84.76" cy="44.63" r="6.13" fill="#FFB282"/><circle cx="84.76" cy="44.63" r="3.28" fill="#DA7652"/><g><ellipse cx="43.92" cy="32.21" rx="1.63" ry="4.4" fill="#E1E3EF"/><circle cx="43.92" cy="25.5" r="1.04" fill="#E1E3EF"/><circle cx="43.92" cy="39.08" r="1.04" fill="#E1E3EF"/></g></g></g><g><g><ellipse cx="75.65" cy="111.68" rx="5.07" ry="1.63" fill="#E1E3EF"/><ellipse cx="67.91" cy="111.68" rx="1.2" ry="1.04" fill="#E1E3EF"/><ellipse cx="83.56" cy="111.68" rx="1.2" ry="1.04" fill="#E1E3EF"/></g><g><ellipse cx="59.88" cy="111.68" rx="5.07" ry="1.63" fill="#E1E3EF"/><ellipse cx="52.15" cy="111.68" rx="1.2" ry="1.04" fill="#E1E3EF"/></g><g><ellipse cx="44.23" cy="111.68" rx="5.07" ry="1.63" fill="#E1E3EF"/><ellipse cx="36.5" cy="111.68" rx="1.2" ry="1.04" fill="#E1E3EF"/></g></g></g></svg>