<svg width="89.6" height="101.39" viewBox="0 0 89.6 101.39" xmlns="http://www.w3.org/2000/svg" xmlns:xlink="http://www.w3.org/1999/xlink" overflow="hidden"><defs></defs><g><g><g><path d="M2.27 69.74C2.27 69.74-0.98 71.46 0.3 72.84 1.58 74.22 3.76 70.17 3.76 70.17L2.27 69.74Z" fill="#965028"/><path d="M6.23 72.74C6.23 72.74 3.74 75.45 5.42 76.32 7.1 77.19 7.78 72.64 7.78 72.64L6.23 72.74Z" fill="#965028"/><path d="M10.65 74.06C10.65 74.06 8.52 77.06 10.29 77.71 12.06 78.36 12.17 73.77 12.17 73.77L10.65 74.06Z" fill="#965028"/><path d="M15.83 32.24C15.83 32.24-0.35 62.95 1.73 68.6 3.81 74.25 11.81 75.43 15.83 73.95 19.86 72.47 15.83 32.24 15.83 32.24Z" fill="#FF7350"/></g><g><path d="M87.33 69.74C87.33 69.74 90.58 71.46 89.3 72.84 88.02 74.22 85.84 70.17 85.84 70.17L87.33 69.74Z" fill="#965028"/><path d="M83.38 72.74C83.38 72.74 85.87 75.45 84.19 76.32 82.51 77.19 81.83 72.64 81.83 72.64L83.38 72.74Z" fill="#965028"/><path d="M78.96 74.06C78.96 74.06 81.09 77.06 79.32 77.71 77.55 78.36 77.44 73.77 77.44 73.77L78.96 74.06Z" fill="#965028"/><path d="M73.77 32.24C73.77 32.24 89.95 62.95 87.87 68.6 85.79 74.25 77.79 75.43 73.77 73.95 69.74 72.47 73.77 32.24 73.77 32.24Z" fill="#FF7350"/></g><path d="M66.3 100.7 57.31 95.17 31.75 95.17 23.12 100.6C20.41 102.31 16.83 100.85 16.06 97.73 11.86 80.67 13.6 44.38 17.11 23.28 19.35 9.83 31.04 0 44.67 0L44.67 0C58.06 0 69.62 9.49 72.12 22.65 76.07 43.46 77.87 79.81 73.31 97.81 72.53 100.9 69.01 102.37 66.3 100.7Z" fill="#FF9669"/><path d="M73.31 87.27C72.53 90.36 16.82 90.31 16.06 87.19 14.59 81.23 13.85 72.93 13.66 63.75 13.4 76.97 14.05 89.56 16.06 97.73 16.83 100.84 20.41 102.31 23.12 100.6L31.75 95.17 57.3 95.17 66.29 100.7C69 102.37 72.52 100.9 73.3 97.81 75.49 89.16 76.21 76.27 75.93 62.9 75.73 72.31 74.92 80.93 73.31 87.27Z" fill="#FF7350"/><path d="M47.97 40.16 42.6 40.16C38.19 40.16 34.45 36.89 33.87 32.52L33.11 26.88C32.79 24.51 34.64 22.4 37.03 22.4L53.53 22.4C55.92 22.4 57.77 24.51 57.45 26.88L56.69 32.52C56.12 36.89 52.39 40.16 47.97 40.16Z" fill="#965028"/><path d="M37.89 22.4C37.89 22.4 37.07 25.55 37.65 25.86 38.24 26.17 39.93 22.4 39.93 22.4L37.89 22.4Z" fill="#FFFFFF"/><path d="M52.69 22.4C52.69 22.4 53.51 25.55 52.93 25.86 52.34 26.17 50.65 22.4 50.65 22.4L52.69 22.4Z" fill="#FFFFFF"/><path d="M45.29 38.13C50.29 38.13 52.39 32.58 49.24 31.85 47.98 31.56 47.1 31.79 46.49 32.17 45.54 32.77 44.35 32.92 43.36 32.39 42.54 31.96 41.71 31.79 41.13 31.98 37.44 33.21 39.3 38.13 45.29 38.13Z" fill="#FF9669"/><ellipse cx="30.79" cy="17.14" rx="1.75" ry="3.2" fill="#404041"/><ellipse cx="58.85" cy="17.14" rx="1.75" ry="3.2" fill="#404041"/></g></g></svg>